<?xml version="1.0" encoding="utf-8"?>
<!-- Generator: Adobe Illustrator 22.0.1, SVG Export Plug-In . SVG Version: 6.00 Build 0)  -->
<svg version="1.1" id="Layer_1" xmlns="http://www.w3.org/2000/svg" xmlns:xlink="http://www.w3.org/1999/xlink" x="0px" y="0px"
	 viewBox="0 0 73.9 74.68" style="enable-background:new 0 0 73.9 74.68;" xml:space="preserve">
<style type="text/css">
	.st0{fill:#FFE6B5;}
	.st1{fill:#F0CAB7;}
	.st2{fill:#3A5455;}
	.st3{fill:#725614;}
	.st4{fill:#E8CA34;}
	.st5{fill:#CEAF2E;}
	.st6{fill:none;stroke:#892D27;stroke-width:0.75;stroke-miterlimit:10;}
</style>
<g>
	<circle class="st0" cx="36.95" cy="37.34" r="36.5"/>
	<g>
		<g id="face_1_">
			<g>
				<circle class="st1" cx="38.45" cy="41.84" r="20.5"/>
			</g>
			<g>
				<circle class="st1" cx="18.95" cy="42.34" r="4"/>
			</g>
		</g>
		<g id="eyes">
			<circle class="st2" cx="31.45" cy="41.84" r="1.5"/>
			<circle class="st2" cx="47.45" cy="41.84" r="1.5"/>
		</g>
		<path class="st3" d="M18.24,38.4l8.71-9.07h22l9.7,9c0,0-1.7-17-20.7-17S18.24,35.47,18.24,38.4z"/>
		<g>
			<path class="st4" d="M37.95,13.34c-8.67,0-16.07,5.39-19.06,13h38.13C54.02,18.73,46.62,13.34,37.95,13.34z"/>
			<path class="st4" d="M57.57,29.34H18.32c-0.48,0-0.88-0.39-0.88-0.88v-1.25c0-0.48,0.39-0.88,0.88-0.88h39.25
				c0.48,0,0.88,0.39,0.88,0.88v1.25C58.45,28.95,58.06,29.34,57.57,29.34z"/>
			<path class="st5" d="M39.45,22.96v-9.74c0-0.48-0.39-0.88-0.88-0.88h-1.25c-0.48,0-0.88,0.39-0.88,0.88v9.74
				c0,0.48,0.39,0.88,0.88,0.88h1.25C39.06,23.83,39.45,23.44,39.45,22.96z"/>
		</g>
	</g>
	<path class="st6" d="M37.75,45.34c1.38,1.38,3.84,1.16,5.5-0.5"/>
</g>
</svg>
