<?xml version="1.0" encoding="utf-8"?>
<!-- Generator: Adobe Illustrator 22.0.1, SVG Export Plug-In . SVG Version: 6.00 Build 0)  -->
<svg version="1.1" id="Layer_1" xmlns="http://www.w3.org/2000/svg" xmlns:xlink="http://www.w3.org/1999/xlink" x="0px" y="0px"
	 viewBox="0 0 73.9 74.68" style="enable-background:new 0 0 73.9 74.68;" xml:space="preserve">
<style type="text/css">
	.st0{fill:#485D7B;}
	.st1{fill:#1C1B18;}
	.st2{fill:#EAC194;}
	.st3{fill:none;stroke:#6E4342;stroke-width:0.75;stroke-miterlimit:10;}
</style>
<g>
	<circle class="st0" cx="36.95" cy="37.34" r="36.5"/>
	<path class="st1" d="M17.45,41.34c0,9.95,4.47,18,10,18l29-1c0,0-3.21-10.65,0.61-17.5L17.45,41.34z"/>
	<g>
		<circle class="st2" cx="37.95" cy="38.34" r="20.5"/>
	</g>
	<g>
		<circle class="st2" cx="18.45" cy="38.84" r="4"/>
	</g>
	<ellipse transform="matrix(0.1603 -0.9871 0.9871 0.1603 -10.8071 61.8877)" cx="30.97" cy="37.3" rx="0.94" ry="2.18"/>
	<ellipse transform="matrix(0.9871 -0.1603 0.1603 0.9871 -5.3707 8.0032)" cx="46.93" cy="37.3" rx="2.18" ry="0.94"/>
	<line class="st3" x1="36.72" y1="44.27" x2="41.95" y2="44.27"/>
	<path class="st1" d="M17.45,34.84c0,0,21,0,20-17c0,0-8,0-14.21,5.26C23.24,23.1,16.45,28.84,17.45,34.84z"/>
	<path class="st1" d="M36.01,17.93c0,0,17.44-3.09,22.44,16.91C58.45,34.84,32.57,32.02,36.01,17.93z"/>
</g>
</svg>
