<?xml version="1.0" encoding="utf-8"?>
<!-- Generator: Adobe Illustrator 22.0.1, SVG Export Plug-In . SVG Version: 6.00 Build 0)  -->
<svg version="1.1" id="Layer_1" xmlns="http://www.w3.org/2000/svg" xmlns:xlink="http://www.w3.org/1999/xlink" x="0px" y="0px"
	 viewBox="0 0 73.9 74.68" style="enable-background:new 0 0 73.9 74.68;" xml:space="preserve">
<style type="text/css">
	.st0{fill:#50386C;}
	.st1{fill:#C3AD96;}
	.st2{fill:#202810;}
	.st3{fill:none;stroke:#000000;stroke-width:0.75;stroke-miterlimit:10;}
	.st4{fill:#1D1611;}
</style>
<g>
	<circle class="st0" cx="36.95" cy="37.34" r="36.5"/>
	<g>
		<circle class="st1" cx="37.95" cy="40.34" r="20.5"/>
	</g>
	<g>
		<circle class="st1" cx="18.45" cy="40.84" r="4"/>
	</g>
	<ellipse class="st2" cx="30.97" cy="39.3" rx="1.57" ry="0.94"/>
	<ellipse class="st2" cx="47.97" cy="39.3" rx="1.57" ry="0.94"/>
	<line class="st3" x1="36.72" y1="46.27" x2="41.95" y2="46.27"/>
	<path class="st4" d="M17.74,36.9c0,0,1.71-20.06,19.71-20.06c0,0,3,0,9,0c4.12,0,8-3,8-3l3.7,23c0,0-4.7-12-9.7-13s-3.82,1.98-10,2
		c-3.29,0.01-5.39-2.86-9-2C25.4,24.81,19.9,29.87,17.74,36.9z"/>
</g>
</svg>
