<?xml version="1.0" encoding="utf-8"?>
<!-- Generator: Adobe Illustrator 22.0.1, SVG Export Plug-In . SVG Version: 6.00 Build 0)  -->
<svg version="1.1" id="Layer_1" xmlns="http://www.w3.org/2000/svg" xmlns:xlink="http://www.w3.org/1999/xlink" x="0px" y="0px"
	 viewBox="0 0 73.9 74.68" style="enable-background:new 0 0 73.9 74.68;" xml:space="preserve">
<style type="text/css">
	.st0{fill:#4B6288;}
	.st1{fill:#3E1906;}
	.st2{fill:#966952;}
	.st3{fill:none;stroke:#892D27;stroke-width:0.75;stroke-miterlimit:10;}
</style>
<g>
	<circle class="st0" cx="36.95" cy="37.34" r="36.5"/>
	<g>
		<path class="st1" d="M38.92,8.19c0.04-0.7-1.48-0.7-1.43,0c-0.04-0.7-1.55-0.51-1.42,0.18c-0.13-0.69-1.6-0.31-1.39,0.36
			c-0.22-0.67-1.63-0.11-1.33,0.53c-0.3-0.64-1.63,0.09-1.25,0.69c-0.38-0.6-1.61,0.3-1.16,0.84c-0.45-0.54-1.56,0.5-1.04,0.98
			c-0.51-0.48-1.48,0.69-0.91,1.1c-0.57-0.41-1.38,0.87-0.77,1.21c-0.62-0.34-1.26,1.04-0.61,1.29c-0.66-0.26-1.13,1.19-0.44,1.36
			c-0.68-0.18-0.97,1.32-0.27,1.41c-0.7-0.09-0.79,1.43-0.09,1.43c-0.7,0-0.61,1.52,0.09,1.43c-0.7,0.09-0.41,1.58,0.27,1.41
			c-0.68,0.18-0.21,1.62,0.44,1.36c-0.66,0.26-0.01,1.63,0.61,1.29c-0.62,0.34,0.2,1.62,0.77,1.21c-0.57,0.41,0.4,1.59,0.91,1.1
			c-0.51,0.48,0.59,1.52,1.04,0.98c-0.45,0.54,0.78,1.44,1.16,0.84c-0.38,0.6,0.95,1.33,1.25,0.69c-0.3,0.64,1.11,1.2,1.33,0.53
			c-0.22,0.67,1.25,1.05,1.39,0.36c-0.13,0.69,1.38,0.88,1.42,0.18c-0.04,0.7,1.48,0.7,1.43,0c0.04,0.7,1.55,0.51,1.42-0.18
			c0.13,0.69,1.6,0.31,1.39-0.36c0.22,0.67,1.63,0.11,1.33-0.53c0.3,0.64,1.63-0.09,1.25-0.69c0.38,0.6,1.61-0.3,1.16-0.84
			c0.45,0.54,1.56-0.5,1.04-0.98c0.51,0.48,1.48-0.69,0.91-1.1c0.57,0.41,1.38-0.87,0.77-1.21c0.62,0.34,1.26-1.04,0.61-1.29
			c0.66,0.26,1.13-1.19,0.44-1.36c0.68,0.18,0.97-1.32,0.27-1.41c0.7,0.09,0.79-1.43,0.09-1.43c0.7,0,0.61-1.52-0.09-1.43
			c0.7-0.09,0.41-1.58-0.27-1.41c0.68-0.18,0.21-1.62-0.44-1.36c0.66-0.26,0.01-1.63-0.61-1.29c0.62-0.34-0.2-1.62-0.77-1.21
			c0.57-0.41-0.4-1.59-0.91-1.1c0.51-0.48-0.59-1.52-1.04-0.98c0.45-0.54-0.78-1.44-1.16-0.84c0.38-0.6-0.95-1.33-1.25-0.69
			c0.3-0.64-1.11-1.2-1.33-0.53c0.22-0.67-1.25-1.05-1.39-0.36C40.47,7.68,38.96,7.49,38.92,8.19z"/>
	</g>
	<g>
		<circle class="st2" cx="37.95" cy="40.34" r="20.5"/>
	</g>
	<ellipse transform="matrix(0.9993 -0.0383 0.0383 0.9993 -1.4883 1.2316)" class="st1" cx="31.43" cy="39.5" rx="1.68" ry="0.94"/>
	<ellipse transform="matrix(0.0383 -0.9993 0.9993 0.0383 5.531 84.7421)" class="st1" cx="46.79" cy="39.5" rx="0.94" ry="1.68"/>
	<path class="st1" d="M18.17,36.96c0,0,7.1-5.07,9.13-10.15c0,0,8.12-7.1,21.31,0c0,0,3.45,6.09,9.84,10.15c0,0-2.74-18.26-21-17.25
		c0,0-15.65-0.88-20,17.31L18.17,36.96z"/>
	<g>
		<path class="st1" d="M27.94,21.63c0-0.59-1.33-0.31-1.09,0.23c-0.24-0.54-1.34,0.26-0.9,0.66c-0.44-0.39-1.12,0.79-0.56,0.97
			c-0.57-0.18-0.71,1.18-0.12,1.11c-0.59,0.07-0.17,1.36,0.34,1.06c-0.52,0.3,0.4,1.32,0.75,0.83c-0.35,0.49,0.89,1.04,1.02,0.45
			c-0.12,0.59,1.24,0.59,1.11,0c0.12,0.59,1.37,0.04,1.02-0.45c0.35,0.49,1.26-0.52,0.75-0.83c0.52,0.3,0.94-0.99,0.34-1.06
			c0.59,0.07,0.45-1.29-0.12-1.11c0.57-0.18-0.11-1.36-0.56-0.97c0.44-0.39-0.66-1.19-0.9-0.66C29.27,21.33,27.94,21.04,27.94,21.63
			z"/>
	</g>
	<g>
		<path class="st1" d="M32.94,20.63c0-0.59-1.33-0.31-1.09,0.23c-0.24-0.54-1.34,0.26-0.9,0.66c-0.44-0.39-1.12,0.79-0.56,0.97
			c-0.57-0.18-0.71,1.18-0.12,1.11c-0.59,0.07-0.17,1.36,0.34,1.06c-0.52,0.3,0.4,1.32,0.75,0.83c-0.35,0.49,0.89,1.04,1.02,0.45
			c-0.12,0.59,1.24,0.59,1.11,0c0.12,0.59,1.37,0.04,1.02-0.45c0.35,0.49,1.26-0.52,0.75-0.83c0.52,0.3,0.94-0.99,0.34-1.06
			c0.59,0.07,0.45-1.29-0.12-1.11c0.57-0.18-0.11-1.36-0.56-0.97c0.44-0.39-0.66-1.19-0.9-0.66C34.27,20.33,32.94,20.04,32.94,20.63
			z"/>
	</g>
	<g>
		<path class="st1" d="M37.12,19.74c-0.16-0.53-1.34,0.11-0.97,0.52c-0.37-0.41-1.2,0.62-0.68,0.84c-0.52-0.22-0.85,1.02-0.27,1.02
			c-0.58,0-0.35,1.24,0.19,1.02c-0.54,0.23,0.21,1.25,0.61,0.84c-0.4,0.41,0.74,1.05,0.93,0.52c-0.2,0.53,1.13,0.66,1.09,0.11
			c0.05,0.55,1.34,0.16,1.06-0.32c0.28,0.48,1.31-0.37,0.84-0.7c0.47,0.33,1.06-0.84,0.48-0.95c0.57,0.11,0.62-1.16,0.04-1.04
			c0.58-0.12,0.08-1.28-0.41-0.95c0.49-0.33-0.47-1.18-0.79-0.69c0.32-0.48-0.95-0.87-1.03-0.32C38.3,19.08,36.96,19.21,37.12,19.74
			z"/>
	</g>
	<g>
		<path class="st1" d="M42.94,19.63c0-0.59-1.33-0.31-1.09,0.23c-0.24-0.54-1.34,0.26-0.9,0.66c-0.44-0.39-1.12,0.79-0.56,0.97
			c-0.57-0.18-0.71,1.18-0.12,1.11c-0.59,0.07-0.17,1.36,0.34,1.06c-0.52,0.3,0.4,1.32,0.75,0.83c-0.35,0.49,0.89,1.04,1.02,0.45
			c-0.12,0.59,1.24,0.59,1.11,0c0.12,0.59,1.37,0.04,1.02-0.45c0.35,0.49,1.26-0.52,0.75-0.83c0.52,0.3,0.94-0.99,0.34-1.06
			c0.59,0.07,0.45-1.29-0.12-1.11c0.57-0.18-0.11-1.36-0.56-0.97c0.44-0.39-0.66-1.19-0.9-0.66C44.27,19.33,42.94,19.04,42.94,19.63
			z"/>
	</g>
	<g>
		<path class="st1" d="M47.94,21.63c0-0.59-1.33-0.31-1.09,0.23c-0.24-0.54-1.34,0.26-0.9,0.66c-0.44-0.39-1.12,0.79-0.56,0.97
			c-0.57-0.18-0.71,1.18-0.12,1.11c-0.59,0.07-0.17,1.36,0.34,1.06c-0.52,0.3,0.4,1.32,0.75,0.83c-0.35,0.49,0.89,1.04,1.02,0.45
			c-0.12,0.59,1.24,0.59,1.11,0c0.12,0.59,1.37,0.04,1.02-0.45c0.35,0.49,1.26-0.52,0.75-0.83c0.52,0.3,0.94-0.99,0.34-1.06
			c0.59,0.07,0.45-1.29-0.12-1.11c0.57-0.18-0.11-1.36-0.56-0.97c0.44-0.39-0.66-1.19-0.9-0.66C49.27,21.33,47.94,21.04,47.94,21.63
			z"/>
	</g>
	<path class="st3" d="M37.95,44.34c1.11,1.11,2.89,1.11,4,0"/>
	<g>
		<circle class="st2" cx="18.45" cy="40.84" r="4"/>
	</g>
</g>
</svg>
