<?xml version="1.0" encoding="utf-8"?>
<!-- Generator: Adobe Illustrator 22.0.1, SVG Export Plug-In . SVG Version: 6.00 Build 0)  -->
<svg version="1.1" id="Layer_1" xmlns="http://www.w3.org/2000/svg" xmlns:xlink="http://www.w3.org/1999/xlink" x="0px" y="0px"
	 viewBox="0 0 622.8 329" style="enable-background:new 0 0 622.8 329;" xml:space="preserve">
<style type="text/css">
	.st0{fill:#F5E066;}
	.st1{fill:none;stroke:#010101;stroke-width:1.25;stroke-miterlimit:10;}
	.st2{fill:url(#SVGID_1_);}
	.st3{fill:#CFA298;stroke:#624641;stroke-width:4;stroke-miterlimit:10;}
	.st4{fill:#E6CFCA;stroke:#624641;stroke-width:4;stroke-miterlimit:10;}
	.st5{fill:#C1887F;stroke:#6E4F47;stroke-width:4;stroke-miterlimit:10;}
</style>
<g>
	<g>
		<rect x="21.6" y="3.8" class="st0" width="600" height="300"/>
	</g>
	<rect x="1.3" y="25.3" class="st1" width="600" height="300"/>
	<linearGradient id="SVGID_1_" gradientUnits="userSpaceOnUse" x1="367.7757" y1="74.0692" x2="275.7603" y2="233.4445">
		<stop  offset="0" style="stop-color:#F3C0D9"/>
		<stop  offset="1" style="stop-color:#F3D83F"/>
	</linearGradient>
	<circle class="st2" cx="321.8" cy="153.8" r="92"/>
	<g>
		<ellipse class="st3" cx="230" cy="203.1" rx="53.8" ry="12"/>
		<path class="st4" d="M200,196c2.6,1.2,5.2,2.1,7.8,2.7c5.1,5.5,12.4,9,20.4,9h3.7c15.3,0,27.8-12.5,27.8-27.8v-18.5h-59.3v4.7
			c-7.8-0.9-14.3,1.4-16.6,6.3C180.4,179.7,187.6,190.3,200,196z M187.7,174.3c1.6-3.6,6.6-5.1,12.6-4.3v9.9c0,4.9,1.3,9.4,3.4,13.4
			c-1-0.4-2-0.8-3-1.2C191.1,187.6,185.3,179.6,187.7,174.3z"/>
	</g>
	<g>
		<path class="st5" d="M387.7,98.8l0.7-1.2c1.2-2.1-0.3-4.8-2.8-4.8h-2.8c-2.5,0-4,2.7-2.8,4.8l0.7,1.3c0.3,0.4,0,1-0.6,1
			c-12,0.8-23,5.1-32.1,12c10.5,2.4,22.8,3.7,36,3.7s25.5-1.4,36-3.7c-9-6.9-20-11.2-32-12C387.8,99.8,387.5,99.2,387.7,98.8z"/>
		<path class="st5" d="M476.2,135.4c-3.8-17.5-17.8-29.4-31.4-26.5c-6.5,1.4-11.6,5.9-14.9,12.1c-2.8-3.4-6-6.5-9.6-9.1
			c-10.5,2.4-22.8,3.7-36,3.7s-25.5-1.4-36-3.7c-10.7,8.2-18.6,20-21.8,33.5c-10.1-3.1-20.2-6-30.2-9.4c-1,2.5-2.1,5-3.1,7.6
			c8.7,9.6,19.8,16.3,31.8,18.4c1.2,24.7,17.5,45.5,39.9,53.2h38.8c20.1-6.9,35.3-24.3,39.1-45.7c4.8,2.9,10.2,4,15.6,2.9
			C471.9,169.5,479.9,152.9,476.2,135.4z M456.8,164.8c-4.5,1-9.1-0.2-13.1-3c0-0.9,0.1-1.9,0.1-2.8c0-11.8-3.4-22.7-9.4-32
			c2.4-5.5,6.6-9.5,12-10.7c10.3-2.2,21.1,6.8,23.9,20.2C473.2,150,467.1,162.6,456.8,164.8z"/>
	</g>
</g>
</svg>
