<svg xmlns="http://www.w3.org/2000/svg" xmlns:xlink="http://www.w3.org/1999/xlink" width="1439.57" height="571.96" viewBox="0 0 1439.57 571.96"><defs><style>.a{fill:none;}.b{fill:#f4d83e;}.c{clip-path:url(#a);}.d{fill:#f5e066;}.e{fill:#e6e7e7;}.e,.g{stroke:#3f3818;stroke-width:4px;}.e,.g,.h{stroke-miterlimit:10;}.f{fill:#3f3818;}.g{fill:#f4e066;}.h,.i{fill:#414142;stroke:#231f20;stroke-width:3px;}.i{stroke-linejoin:round;}.j{fill:url(#b);}</style><clipPath id="a"><rect class="a" x="-0.1" y="-0.03" width="1443" height="572"/></clipPath><pattern id="b" width="62" height="62" patternTransform="translate(-23.19 -2.91) scale(0.46)" patternUnits="userSpaceOnUse" viewBox="0 0 62 62"><rect class="a" width="62" height="62"/><rect class="b" width="62" height="62"/></pattern></defs><title>chaidiaries</title><g class="c"><rect class="d" x="-0.1" y="-0.03" width="1440" height="576.03"/></g><path class="e" d="M561.12,277.38l27.1,46.94a10.48,10.48,0,0,1-9.08,15.73H524.93a10.48,10.48,0,0,1-9.08-15.73L543,277.38A10.49,10.49,0,0,1,561.12,277.38Z"/><path class="f" d="M554.81,272c-.71-14.8-17.29-25.26-31.26-23-7.65,1.24-12.88,7-16.82,13.32a73.43,73.43,0,0,0-9.79,25c-.56,2.91,3.89,4.15,4.46,1.23a70.18,70.18,0,0,1,6.93-19.84c2.95-5.5,6.7-11.73,12.7-14.25,11.49-4.83,28.55,4.73,29.16,17.49.14,3,4.76,3,4.62,0Z"/><rect class="g" x="483.46" y="287.37" width="27.88" height="27.88" rx="4.5" ry="4.5" transform="translate(994.8 602.61) rotate(-180)"/><path class="f" d="M498,308.23a4.55,4.55,0,0,1,.15-.56,8.57,8.57,0,0,1,2.15-3.22,6.49,6.49,0,0,1,.63-.56c2.34-1.71,2.54-4.08,2.07-6.66a16.24,16.24,0,0,0-.44-1.66c-.1-.32-.31-.42-.61-.24a9.36,9.36,0,0,0-4.3,4.42c-.28.69-.37,1.46-.63,2.22a14.65,14.65,0,0,1-.07-2.09,6,6,0,0,1,2.28-4c.91-.76,1.81-1.54,2.67-2.35a14,14,0,0,0,1.15-1.41,3,3,0,0,1,.17.36,32.23,32.23,0,0,1,1.35,8.61,9.73,9.73,0,0,1-.2,1.87,1.42,1.42,0,0,1-.57.79,24.63,24.63,0,0,0-5.5,4.24A3.59,3.59,0,0,1,498,308.23Z"/><path class="f" d="M497.37,310.46a19.5,19.5,0,0,0-1.85-.88c-1.5-.52-3-1-4.56-1.43a1.85,1.85,0,0,1-1.35-1.08,18.56,18.56,0,0,1-1.43-5.32c-.2-1.42-.3-2.85-.43-4.28,0-.24,0-.48,0-.86a4.72,4.72,0,0,0,.8.64,26.83,26.83,0,0,0,3.08,1.44,6.8,6.8,0,0,1,4.44,4,5.83,5.83,0,0,1,.22.71c0,.19.07.39.12.71a1.7,1.7,0,0,1-.19-.21c-1-2.27-2.89-3.42-5.14-4.15-.36-.11-.73-.19-1.1-.29s-.7.07-.69.51a9,9,0,0,0,1.59,5.6,5.64,5.64,0,0,0,2,1.45,11.28,11.28,0,0,1,4,2.65c.19.23.37.47.56.71Z"/><path class="h" d="M770.09,268.64v7.25a1.63,1.63,0,0,1-1.63,1.63H695.32a1.63,1.63,0,0,1-1.63-1.63v-7.25a8.23,8.23,0,0,1,8.23-8.23h59.94A8.22,8.22,0,0,1,770.09,268.64Z"/><rect class="h" x="693.69" y="282.74" width="76.4" height="57.31" rx="1.59" ry="1.59"/><path class="b" d="M752.71,332.28c.12-.45.16-.71.25-1a14.69,14.69,0,0,1,3.68-5.48,11.92,11.92,0,0,1,1.07-.95c4-2.91,4.33-7,3.53-11.35a26,26,0,0,0-.76-2.85c-.16-.53-.51-.7-1-.4-3.13,1.85-5.91,4.06-7.32,7.54-.47,1.18-.63,2.48-1.08,3.77a24.73,24.73,0,0,1-.11-3.54,10.16,10.16,0,0,1,3.88-6.78c1.55-1.3,3.09-2.62,4.55-4a21,21,0,0,0,2-2.4,3.81,3.81,0,0,1,.29.61,54.65,54.65,0,0,1,2.3,14.69,15.31,15.31,0,0,1-.34,3.17,2.37,2.37,0,0,1-1,1.36c-3.36,2.11-6.71,4.22-9.39,7.22A2.65,2.65,0,0,1,752.71,332.28Z"/><path class="b" d="M751.65,336.09a29.1,29.1,0,0,0-3.14-1.5c-2.57-.89-5.16-1.75-7.79-2.45a3.15,3.15,0,0,1-2.29-1.82,32.31,32.31,0,0,1-2.45-9.09c-.33-2.41-.5-4.86-.72-7.29,0-.41,0-.82,0-1.46a9.48,9.48,0,0,0,1.38,1.09,45.44,45.44,0,0,0,5.25,2.45c3.51,1.23,6.18,3.28,7.56,6.81a8.49,8.49,0,0,1,.38,1.21c.08.32.11.65.2,1.21a3.24,3.24,0,0,1-.32-.36c-1.69-3.88-4.94-5.84-8.76-7.07-.61-.2-1.25-.33-1.87-.5s-1.21.11-1.19.86c.08,3.42.53,6.79,2.72,9.55A9.41,9.41,0,0,0,744,330.2c2.51,1.18,5,2.38,6.82,4.53.33.39.64.8.95,1.2Z"/><path class="i" d="M952.51,242.73a3.6,3.6,0,0,0,3.6,3.6v88.92a4.8,4.8,0,0,1-4.8,4.8H888.82a4.8,4.8,0,0,1-4.8-4.8V246.33a3.61,3.61,0,0,0,0-7.21v-7.21h72.09v7.21A3.6,3.6,0,0,0,952.51,242.73Z"/><path class="j" d="M920.74,288.49c.09-.34.12-.53.19-.71a11.09,11.09,0,0,1,2.76-4.12,9,9,0,0,1,.8-.71c3-2.18,3.24-5.21,2.65-8.5a20.37,20.37,0,0,0-.58-2.13c-.11-.4-.38-.53-.77-.3-2.35,1.38-4.43,3-5.49,5.65-.35.88-.47,1.85-.81,2.82a19.61,19.61,0,0,1-.08-2.65,7.59,7.59,0,0,1,2.91-5.08c1.16-1,2.31-2,3.41-3a17,17,0,0,0,1.46-1.8,2.17,2.17,0,0,1,.22.46,41,41,0,0,1,1.73,11,11.88,11.88,0,0,1-.26,2.38,1.72,1.72,0,0,1-.72,1,31.42,31.42,0,0,0-7,5.42A3,3,0,0,1,920.74,288.49Z"/><path class="j" d="M920,291.35a21.91,21.91,0,0,0-2.35-1.12c-1.93-.67-3.87-1.32-5.84-1.84a2.31,2.31,0,0,1-1.71-1.37,24.06,24.06,0,0,1-1.84-6.8c-.25-1.81-.37-3.64-.54-5.47,0-.3,0-.61,0-1.09a7.29,7.29,0,0,0,1,.82,34.14,34.14,0,0,0,3.93,1.83,8.72,8.72,0,0,1,5.67,5.1c.11.3.2.6.28.91s.08.49.15.91a1.92,1.92,0,0,1-.24-.28c-1.27-2.9-3.7-4.37-6.56-5.29-.46-.15-.94-.25-1.41-.37s-.9.08-.89.64c.06,2.56.4,5.09,2,7.16a7.07,7.07,0,0,0,2.57,1.85,14.33,14.33,0,0,1,5.11,3.39c.25.29.48.6.72.9Z"/><path class="j" d="M910.59,293.58c-.25-.25-.41-.38-.53-.53a10.87,10.87,0,0,1-2.18-4.44,7.85,7.85,0,0,1-.22-1.05c-.39-3.68-2.89-5.41-6-6.54a19.07,19.07,0,0,0-2.13-.57c-.41-.1-.65.06-.65.52,0,2.72.42,5.35,2.15,7.57.59.75,1.37,1.34,2,2.12a19.44,19.44,0,0,1-2.34-1.26,7.56,7.56,0,0,1-2.94-5.06c-.26-1.49-.54-3-.9-4.45a16.7,16.7,0,0,0-.82-2.17,2.81,2.81,0,0,1,.5,0,41.19,41.19,0,0,1,10.4,4,12.08,12.08,0,0,1,1.93,1.41,1.83,1.83,0,0,1,.52,1.13,31.17,31.17,0,0,0,1.17,8.8A4.19,4.19,0,0,1,910.59,293.58Z"/><path class="j" d="M912.66,295.69a22.65,22.65,0,0,0-2.15,1.47c-1.54,1.34-3.07,2.69-4.5,4.14a2.33,2.33,0,0,1-2,.8,24,24,0,0,1-6.81-1.81c-1.69-.69-3.34-1.5-5-2.26-.28-.13-.53-.31-.95-.55a6.58,6.58,0,0,0,1.22-.48,34.32,34.32,0,0,0,3.56-2.49,8.7,8.7,0,0,1,7.25-2.36,7.21,7.21,0,0,1,.92.21c.24.07.47.17.87.33a1.81,1.81,0,0,1-.36.06c-3.15-.35-5.63,1-7.87,3-.35.33-.68.69-1,1s-.38.82.11,1.09c2.25,1.23,4.61,2.2,7.22,1.82a7.18,7.18,0,0,0,2.89-1.3,14.25,14.25,0,0,1,5.49-2.73c.37-.07.76-.12,1.14-.17Z"/><path class="j" d="M909.91,304.91c-.34.1-.53.16-.72.2a11.16,11.16,0,0,1-4.94-.33c-.34-.11-.69-.2-1-.34-3.39-1.51-6.14-.2-8.69,2A19.14,19.14,0,0,0,893,308c-.29.3-.27.59.13.82,2.37,1.34,4.85,2.32,7.63,1.92.94-.13,1.85-.51,2.86-.71a16.71,16.71,0,0,1-2.27,1.4,7.53,7.53,0,0,1-5.84,0c-1.43-.51-2.86-1-4.31-1.45a18.9,18.9,0,0,0-2.29-.37,2.78,2.78,0,0,1,.29-.41,40.54,40.54,0,0,1,8.66-7,12.18,12.18,0,0,1,2.19-1,1.83,1.83,0,0,1,1.24.12,31.4,31.4,0,0,0,8.2,3.38A3.78,3.78,0,0,1,909.91,304.91Z"/><path class="j" d="M912.77,304.17a24.85,24.85,0,0,0,.21,2.6c.39,2,.79,4,1.33,6a2.32,2.32,0,0,1-.33,2.17,24,24,0,0,1-5,5c-1.45,1.13-3,2.15-4.46,3.2-.25.18-.53.31-.95.56a6.14,6.14,0,0,0,.19-1.31,34.48,34.48,0,0,0-.37-4.32,8.69,8.69,0,0,1,1.58-7.46,7.08,7.08,0,0,1,.64-.7c.18-.17.39-.31.71-.58a2.59,2.59,0,0,1-.11.34c-1.88,2.55-1.94,5.39-1.31,8.33.11.48.26.94.38,1.41s.52.74,1,.44c2.19-1.33,4.21-2.88,5.18-5.34a7.1,7.1,0,0,0,.32-3.15,14.54,14.54,0,0,1,.38-6.12c.13-.36.28-.71.43-1.07Z"/><path class="j" d="M919.39,311.17c-.09.34-.12.53-.19.72a11.13,11.13,0,0,1-2.76,4.11,9,9,0,0,1-.8.71c-3,2.18-3.24,5.21-2.65,8.5a20.37,20.37,0,0,0,.58,2.13c.12.4.38.53.77.3,2.35-1.38,4.43-3,5.49-5.65.35-.88.47-1.85.81-2.82a19.61,19.61,0,0,1,.08,2.65,7.59,7.59,0,0,1-2.91,5.08c-1.16,1-2.31,2-3.41,3a17,17,0,0,0-1.46,1.8,2.17,2.17,0,0,1-.22-.46,41,41,0,0,1-1.73-11,11.88,11.88,0,0,1,.26-2.38,1.75,1.75,0,0,1,.72-1,31.67,31.67,0,0,0,7-5.41A2.08,2.08,0,0,1,919.39,311.17Z"/><path class="j" d="M920.18,308.31a24.1,24.1,0,0,0,2.35,1.13c1.93.66,3.87,1.31,5.84,1.83a2.33,2.33,0,0,1,1.71,1.37,24.06,24.06,0,0,1,1.84,6.8c.25,1.81.37,3.64.54,5.47,0,.3,0,.61,0,1.09a6.77,6.77,0,0,0-1-.82,34.14,34.14,0,0,0-3.93-1.83,8.72,8.72,0,0,1-5.67-5.1c-.11-.3-.2-.6-.28-.91s-.08-.49-.15-.91a1.92,1.92,0,0,1,.24.28c1.27,2.9,3.7,4.37,6.56,5.29.46.15.94.25,1.41.37s.9-.08.89-.64c-.06-2.56-.4-5.09-2-7.16a7.31,7.31,0,0,0-2.57-1.85,14.29,14.29,0,0,1-5.11-3.39c-.25-.29-.48-.6-.71-.9Z"/><path class="j" d="M929.54,306.08c.25.25.41.38.53.53a10.93,10.93,0,0,1,2.18,4.44,7.85,7.85,0,0,1,.22,1.05c.39,3.68,2.9,5.42,6,6.54a19.07,19.07,0,0,0,2.13.57c.41.1.65-.06.65-.52,0-2.72-.42-5.35-2.15-7.57-.59-.75-1.37-1.34-2-2.12a19.44,19.44,0,0,1,2.34,1.26,7.56,7.56,0,0,1,2.94,5.06c.27,1.49.54,3,.9,4.45a16.17,16.17,0,0,0,.82,2.17,2.81,2.81,0,0,1-.5,0,41.33,41.33,0,0,1-10.4-4,11.49,11.49,0,0,1-1.93-1.41,1.83,1.83,0,0,1-.52-1.13,31.17,31.17,0,0,0-1.17-8.8A4.19,4.19,0,0,1,929.54,306.08Z"/><path class="j" d="M927.47,304a22.65,22.65,0,0,0,2.15-1.47c1.54-1.34,3.07-2.69,4.51-4.14a2.3,2.3,0,0,1,2-.8,24,24,0,0,1,6.81,1.81c1.69.69,3.34,1.5,5,2.26.28.13.53.31.95.55a6.58,6.58,0,0,0-1.22.48,34.32,34.32,0,0,0-3.56,2.49,8.7,8.7,0,0,1-7.25,2.36,7.21,7.21,0,0,1-.92-.21c-.24-.07-.47-.17-.87-.33a1.81,1.81,0,0,1,.36-.06c3.15.35,5.63-1,7.87-3,.35-.33.68-.69,1-1s.38-.82-.11-1.09c-2.25-1.23-4.61-2.2-7.22-1.82a7.18,7.18,0,0,0-2.89,1.3,14.25,14.25,0,0,1-5.49,2.73c-.37.07-.76.12-1.14.17Z"/><path class="j" d="M930.22,294.75c.34-.09.53-.16.72-.19a11,11,0,0,1,4.94.32c.34.11.69.2,1,.34,3.39,1.51,6.14.2,8.69-2a21,21,0,0,0,1.56-1.57c.29-.3.27-.59-.13-.82-2.37-1.34-4.85-2.32-7.63-1.92-.94.13-1.85.51-2.86.71a16.71,16.71,0,0,1,2.27-1.4,7.54,7.54,0,0,1,5.84,0c1.43.51,2.86,1,4.31,1.45a18.9,18.9,0,0,0,2.29.37,2.78,2.78,0,0,1-.29.41,40.54,40.54,0,0,1-8.66,7,11.88,11.88,0,0,1-2.19,1,1.83,1.83,0,0,1-1.24-.12,31.4,31.4,0,0,0-8.2-3.38A2.52,2.52,0,0,1,930.22,294.75Z"/><path class="j" d="M927.36,295.49a24.85,24.85,0,0,0-.21-2.6c-.39-2-.79-4-1.33-6a2.35,2.35,0,0,1,.33-2.17,24,24,0,0,1,5-5c1.45-1.12,3-2.15,4.46-3.2.25-.18.53-.31.95-.56a6.14,6.14,0,0,0-.19,1.31,34.48,34.48,0,0,0,.37,4.32,8.69,8.69,0,0,1-1.58,7.46,7.08,7.08,0,0,1-.64.7c-.18.17-.38.31-.71.58a2.59,2.59,0,0,1,.11-.34c1.88-2.55,1.94-5.39,1.31-8.33-.1-.48-.25-.94-.38-1.41s-.52-.74-1-.44c-2.19,1.33-4.21,2.88-5.18,5.34a7.1,7.1,0,0,0-.32,3.15,14.37,14.37,0,0,1-.38,6.12c-.13.36-.28.71-.43,1.07Z"/></svg>