<svg xmlns="http://www.w3.org/2000/svg" xmlns:xlink="http://www.w3.org/1999/xlink" width="624.21" height="325.82" viewBox="0 0 624.21 325.82"><defs><style>.a{fill:url(#a);}.b,.f{fill:none;}.b{stroke:#000;stroke-miterlimit:10;stroke-width:1.25px;}.c{fill:#75dbcd;}.d{fill:#b4cf12;}.e{fill:#008826;}.f{stroke:#045a01;stroke-linecap:round;stroke-linejoin:round;stroke-width:3px;}.g{font-size:18px;font-family:DroidSans-Bold, Droid Sans;font-weight:700;letter-spacing:0.08em;}.h{letter-spacing:0.07em;}</style><linearGradient id="a" x1="22.26" y1="152.16" x2="622.26" y2="152.16" gradientUnits="userSpaceOnUse"><stop offset="0" stop-color="#29bdbf"/><stop offset="1" stop-color="#d0e28d"/></linearGradient></defs><title>Artboard 1</title><rect class="a" x="22.26" y="2.16" width="600" height="300"/><rect class="b" x="1.96" y="23.66" width="600" height="300"/><path class="c" d="M362.36,156.06a34.6,34.6,0,1,1-58.94-24.58,25.8,25.8,0,1,0,50,8.64,27.75,27.75,0,0,0-2.31-9.56A34.53,34.53,0,0,1,362.36,156.06Z"/><path class="d" d="M351.15,130.56a34.62,34.62,0,0,0-47.73.92c6.05-16.14,24-39.57,24-39.57S344.78,114.46,351.15,130.56Z"/><path class="e" d="M353.46,140.12a26,26,0,1,1-50-8.64,34.62,34.62,0,0,1,47.73-.92A27.75,27.75,0,0,1,353.46,140.12Z"/><line class="f" x1="328.04" y1="147.93" x2="315.27" y2="135.16"/><line class="f" x1="328.04" y1="147.93" x2="340.81" y2="135.16"/><line class="f" x1="328.04" y1="165.93" x2="313.27" y2="151.16"/><line class="f" x1="328.04" y1="165.93" x2="342.81" y2="151.16"/><line class="f" x1="327.96" y1="175.66" x2="327.96" y2="112.66"/><text class="g" transform="translate(270.08 214.34)">EA<tspan class="h" x="24.48" y="0">R</tspan><tspan x="36.99" y="0">TH APPS</tspan></text></svg>