<svg width="763" height="288" viewBox="0 0 763 288" fill="none" xmlns="http://www.w3.org/2000/svg">
<g filter="url(#filter0_dd)">
<rect x="4" y="4" width="750" height="275" rx="15" fill="#1D1E1E"/>
</g>
<path d="M124.591 130.03V133.72H129.571V136.33H124.591V142H121.191V127.43H130.571V130.03H124.591ZM147.683 134.71C147.683 135.763 147.499 136.743 147.133 137.65C146.773 138.557 146.263 139.347 145.603 140.02C144.943 140.687 144.146 141.21 143.213 141.59C142.286 141.97 141.256 142.16 140.123 142.16C138.989 142.16 137.956 141.97 137.023 141.59C136.089 141.21 135.289 140.687 134.623 140.02C133.963 139.347 133.449 138.557 133.083 137.65C132.723 136.743 132.543 135.763 132.543 134.71C132.543 133.657 132.723 132.677 133.083 131.77C133.449 130.863 133.963 130.077 134.623 129.41C135.289 128.743 136.089 128.22 137.023 127.84C137.956 127.46 138.989 127.27 140.123 127.27C141.256 127.27 142.286 127.463 143.213 127.85C144.146 128.23 144.943 128.753 145.603 129.42C146.263 130.087 146.773 130.873 147.133 131.78C147.499 132.687 147.683 133.663 147.683 134.71ZM144.223 134.71C144.223 133.99 144.129 133.343 143.943 132.77C143.756 132.19 143.486 131.7 143.133 131.3C142.786 130.9 142.359 130.593 141.853 130.38C141.346 130.167 140.769 130.06 140.123 130.06C139.469 130.06 138.886 130.167 138.373 130.38C137.866 130.593 137.436 130.9 137.083 131.3C136.736 131.7 136.469 132.19 136.283 132.77C136.096 133.343 136.003 133.99 136.003 134.71C136.003 135.437 136.096 136.09 136.283 136.67C136.469 137.243 136.736 137.73 137.083 138.13C137.436 138.53 137.866 138.837 138.373 139.05C138.886 139.257 139.469 139.36 140.123 139.36C140.769 139.36 141.346 139.257 141.853 139.05C142.359 138.837 142.786 138.53 143.133 138.13C143.486 137.73 143.756 137.243 143.943 136.67C144.129 136.09 144.223 135.437 144.223 134.71ZM160.492 138.23C160.572 138.23 160.652 138.247 160.732 138.28C160.812 138.307 160.888 138.357 160.962 138.43L162.302 139.84C161.715 140.607 160.978 141.187 160.092 141.58C159.212 141.967 158.168 142.16 156.962 142.16C155.855 142.16 154.862 141.973 153.982 141.6C153.108 141.22 152.365 140.7 151.752 140.04C151.145 139.373 150.678 138.587 150.352 137.68C150.025 136.767 149.862 135.777 149.862 134.71C149.862 133.623 150.038 132.627 150.392 131.72C150.745 130.807 151.242 130.02 151.882 129.36C152.522 128.7 153.288 128.187 154.182 127.82C155.075 127.453 156.058 127.27 157.132 127.27C157.678 127.27 158.192 127.32 158.672 127.42C159.158 127.513 159.612 127.647 160.032 127.82C160.452 127.987 160.838 128.19 161.192 128.43C161.545 128.67 161.858 128.93 162.132 129.21L160.992 130.74C160.918 130.833 160.832 130.92 160.732 131C160.632 131.073 160.492 131.11 160.312 131.11C160.192 131.11 160.078 131.083 159.972 131.03C159.865 130.977 159.752 130.913 159.632 130.84C159.512 130.76 159.378 130.677 159.232 130.59C159.092 130.497 158.922 130.413 158.722 130.34C158.528 130.26 158.298 130.193 158.032 130.14C157.772 130.087 157.465 130.06 157.112 130.06C156.552 130.06 156.038 130.163 155.572 130.37C155.112 130.577 154.712 130.88 154.372 131.28C154.038 131.673 153.778 132.16 153.592 132.74C153.412 133.313 153.322 133.97 153.322 134.71C153.322 135.457 153.422 136.12 153.622 136.7C153.828 137.28 154.105 137.77 154.452 138.17C154.805 138.563 155.215 138.863 155.682 139.07C156.148 139.277 156.648 139.38 157.182 139.38C157.488 139.38 157.768 139.367 158.022 139.34C158.275 139.307 158.512 139.257 158.732 139.19C158.952 139.117 159.158 139.023 159.352 138.91C159.545 138.79 159.742 138.64 159.942 138.46C160.022 138.393 160.108 138.34 160.202 138.3C160.295 138.253 160.392 138.23 160.492 138.23ZM170.857 139.33C171.311 139.33 171.714 139.257 172.067 139.11C172.427 138.957 172.731 138.74 172.977 138.46C173.224 138.18 173.411 137.84 173.537 137.44C173.671 137.033 173.737 136.573 173.737 136.06V127.43H177.117V136.06C177.117 136.953 176.971 137.773 176.677 138.52C176.391 139.267 175.977 139.91 175.437 140.45C174.897 140.99 174.241 141.41 173.467 141.71C172.694 142.01 171.824 142.16 170.857 142.16C169.884 142.16 169.011 142.01 168.237 141.71C167.464 141.41 166.807 140.99 166.267 140.45C165.727 139.91 165.314 139.267 165.027 138.52C164.741 137.773 164.597 136.953 164.597 136.06V127.43H167.977V136.05C167.977 136.563 168.041 137.023 168.167 137.43C168.301 137.83 168.491 138.173 168.737 138.46C168.984 138.74 169.284 138.957 169.637 139.11C169.997 139.257 170.404 139.33 170.857 139.33ZM188.808 130.39C188.708 130.55 188.601 130.67 188.488 130.75C188.381 130.83 188.241 130.87 188.068 130.87C187.914 130.87 187.748 130.823 187.568 130.73C187.394 130.63 187.194 130.52 186.968 130.4C186.748 130.28 186.494 130.173 186.208 130.08C185.921 129.98 185.594 129.93 185.228 129.93C184.594 129.93 184.121 130.067 183.808 130.34C183.501 130.607 183.348 130.97 183.348 131.43C183.348 131.723 183.441 131.967 183.628 132.16C183.814 132.353 184.058 132.52 184.358 132.66C184.664 132.8 185.011 132.93 185.398 133.05C185.791 133.163 186.191 133.293 186.598 133.44C187.004 133.58 187.401 133.747 187.788 133.94C188.181 134.133 188.528 134.38 188.828 134.68C189.134 134.98 189.381 135.347 189.568 135.78C189.754 136.207 189.848 136.723 189.848 137.33C189.848 138.003 189.731 138.633 189.498 139.22C189.264 139.807 188.924 140.32 188.478 140.76C188.038 141.193 187.491 141.537 186.838 141.79C186.191 142.037 185.454 142.16 184.628 142.16C184.174 142.16 183.711 142.113 183.238 142.02C182.771 141.927 182.318 141.797 181.878 141.63C181.438 141.457 181.024 141.253 180.638 141.02C180.251 140.787 179.914 140.527 179.628 140.24L180.628 138.66C180.708 138.547 180.811 138.453 180.938 138.38C181.071 138.3 181.214 138.26 181.368 138.26C181.568 138.26 181.768 138.323 181.968 138.45C182.174 138.577 182.404 138.717 182.658 138.87C182.918 139.023 183.214 139.163 183.548 139.29C183.881 139.417 184.274 139.48 184.728 139.48C185.341 139.48 185.818 139.347 186.158 139.08C186.498 138.807 186.668 138.377 186.668 137.79C186.668 137.45 186.574 137.173 186.388 136.96C186.201 136.747 185.954 136.57 185.648 136.43C185.348 136.29 185.004 136.167 184.618 136.06C184.231 135.953 183.834 135.837 183.428 135.71C183.021 135.577 182.624 135.417 182.238 135.23C181.851 135.037 181.504 134.787 181.198 134.48C180.898 134.167 180.654 133.78 180.468 133.32C180.281 132.853 180.188 132.28 180.188 131.6C180.188 131.053 180.298 130.52 180.518 130C180.738 129.48 181.061 129.017 181.488 128.61C181.914 128.203 182.438 127.88 183.058 127.64C183.678 127.393 184.388 127.27 185.188 127.27C185.634 127.27 186.068 127.307 186.488 127.38C186.914 127.447 187.318 127.55 187.698 127.69C188.078 127.823 188.431 127.987 188.758 128.18C189.091 128.367 189.388 128.58 189.648 128.82L188.808 130.39ZM214.841 127.43V142H211.861V133.62C211.861 133.427 211.864 133.217 211.871 132.99C211.884 132.763 211.904 132.533 211.931 132.3L208.061 139.79C207.941 140.023 207.777 140.2 207.571 140.32C207.371 140.44 207.141 140.5 206.881 140.5H206.421C206.161 140.5 205.927 140.44 205.721 140.32C205.521 140.2 205.361 140.023 205.241 139.79L201.371 132.28C201.391 132.52 201.407 132.757 201.421 132.99C201.434 133.217 201.441 133.427 201.441 133.62V142H198.461V127.43H201.041C201.187 127.43 201.314 127.433 201.421 127.44C201.534 127.447 201.634 127.467 201.721 127.5C201.807 127.533 201.884 127.587 201.951 127.66C202.024 127.727 202.094 127.823 202.161 127.95L205.911 135.34C206.044 135.593 206.171 135.857 206.291 136.13C206.417 136.403 206.537 136.683 206.651 136.97C206.764 136.677 206.881 136.39 207.001 136.11C207.127 135.83 207.261 135.563 207.401 135.31L211.141 127.95C211.207 127.823 211.274 127.727 211.341 127.66C211.414 127.587 211.494 127.533 211.581 127.5C211.667 127.467 211.764 127.447 211.871 127.44C211.984 127.433 212.114 127.43 212.261 127.43H214.841ZM232.96 134.71C232.96 135.763 232.777 136.743 232.41 137.65C232.05 138.557 231.54 139.347 230.88 140.02C230.22 140.687 229.423 141.21 228.49 141.59C227.563 141.97 226.533 142.16 225.4 142.16C224.267 142.16 223.233 141.97 222.3 141.59C221.367 141.21 220.567 140.687 219.9 140.02C219.24 139.347 218.727 138.557 218.36 137.65C218 136.743 217.82 135.763 217.82 134.71C217.82 133.657 218 132.677 218.36 131.77C218.727 130.863 219.24 130.077 219.9 129.41C220.567 128.743 221.367 128.22 222.3 127.84C223.233 127.46 224.267 127.27 225.4 127.27C226.533 127.27 227.563 127.463 228.49 127.85C229.423 128.23 230.22 128.753 230.88 129.42C231.54 130.087 232.05 130.873 232.41 131.78C232.777 132.687 232.96 133.663 232.96 134.71ZM229.5 134.71C229.5 133.99 229.407 133.343 229.22 132.77C229.033 132.19 228.763 131.7 228.41 131.3C228.063 130.9 227.637 130.593 227.13 130.38C226.623 130.167 226.047 130.06 225.4 130.06C224.747 130.06 224.163 130.167 223.65 130.38C223.143 130.593 222.713 130.9 222.36 131.3C222.013 131.7 221.747 132.19 221.56 132.77C221.373 133.343 221.28 133.99 221.28 134.71C221.28 135.437 221.373 136.09 221.56 136.67C221.747 137.243 222.013 137.73 222.36 138.13C222.713 138.53 223.143 138.837 223.65 139.05C224.163 139.257 224.747 139.36 225.4 139.36C226.047 139.36 226.623 139.257 227.13 139.05C227.637 138.837 228.063 138.53 228.41 138.13C228.763 137.73 229.033 137.243 229.22 136.67C229.407 136.09 229.5 135.437 229.5 134.71ZM249.169 134.71C249.169 135.763 248.986 136.737 248.619 137.63C248.259 138.517 247.749 139.287 247.089 139.94C246.429 140.587 245.632 141.093 244.699 141.46C243.772 141.82 242.742 142 241.609 142H235.949V127.43H241.609C242.742 127.43 243.772 127.613 244.699 127.98C245.632 128.347 246.429 128.853 247.089 129.5C247.749 130.147 248.259 130.917 248.619 131.81C248.986 132.697 249.169 133.663 249.169 134.71ZM245.709 134.71C245.709 133.99 245.616 133.34 245.429 132.76C245.242 132.18 244.972 131.69 244.619 131.29C244.272 130.883 243.846 130.573 243.339 130.36C242.832 130.14 242.256 130.03 241.609 130.03H239.349V139.4H241.609C242.256 139.4 242.832 139.293 243.339 139.08C243.846 138.86 244.272 138.55 244.619 138.15C244.972 137.743 245.242 137.25 245.429 136.67C245.616 136.09 245.709 135.437 245.709 134.71ZM255.564 130.03V133.43H260.144V135.93H255.564V139.4H261.544V142H252.164V127.43H261.544V130.03H255.564Z" fill="white"/>
<path d="M156.978 161.696C157.394 161.696 157.775 161.619 158.122 161.464C158.469 161.304 158.773 161.083 159.034 160.8C159.295 160.512 159.509 160.173 159.674 159.784C159.845 159.389 159.959 158.955 160.018 158.48L160.866 151.512H162.514L161.658 158.48C161.573 159.147 161.397 159.765 161.13 160.336C160.863 160.901 160.519 161.392 160.098 161.808C159.677 162.224 159.186 162.549 158.626 162.784C158.071 163.019 157.463 163.136 156.802 163.136C156.141 163.136 155.559 163.019 155.058 162.784C154.557 162.549 154.146 162.224 153.826 161.808C153.511 161.392 153.29 160.901 153.162 160.336C153.034 159.765 153.01 159.147 153.09 158.48L153.938 151.512H155.578L154.722 158.48C154.663 158.949 154.669 159.381 154.738 159.776C154.813 160.171 154.946 160.509 155.138 160.792C155.33 161.075 155.581 161.296 155.89 161.456C156.199 161.616 156.562 161.696 156.978 161.696ZM169.13 156.792L172.122 163H170.65C170.533 163 170.442 162.968 170.378 162.904C170.32 162.84 170.272 162.771 170.234 162.696L167.986 157.776C167.938 157.867 167.888 157.952 167.834 158.032L164.498 162.696C164.424 162.803 164.341 162.88 164.25 162.928C164.165 162.976 164.069 163 163.962 163H162.33L166.858 156.864L164.194 151.512H165.674C165.792 151.512 165.874 151.531 165.922 151.568C165.976 151.6 166.024 151.659 166.066 151.744L168.042 155.984C168.069 155.931 168.096 155.88 168.122 155.832C168.154 155.779 168.189 155.723 168.226 155.664L171.018 151.752C171.13 151.592 171.264 151.512 171.418 151.512H173.122L169.13 156.792ZM187.198 156.456C187.198 157.427 187.046 158.315 186.742 159.12C186.438 159.92 186.017 160.608 185.478 161.184C184.945 161.76 184.307 162.208 183.566 162.528C182.825 162.843 182.019 163 181.15 163H177.166L178.574 151.512H182.566C183.275 151.512 183.915 151.635 184.486 151.88C185.062 152.12 185.55 152.459 185.95 152.896C186.35 153.328 186.657 153.848 186.87 154.456C187.089 155.064 187.198 155.731 187.198 156.456ZM185.51 156.496C185.51 155.936 185.438 155.429 185.294 154.976C185.155 154.523 184.953 154.139 184.686 153.824C184.419 153.509 184.094 153.267 183.71 153.096C183.326 152.925 182.891 152.84 182.406 152.84H180.07L178.974 161.672H181.31C181.934 161.672 182.502 161.555 183.014 161.32C183.531 161.08 183.974 160.739 184.342 160.296C184.715 159.848 185.003 159.304 185.206 158.664C185.409 158.024 185.51 157.301 185.51 156.496ZM191.374 152.848L190.918 156.56H194.878L194.71 157.848H190.758L190.294 161.664H195.23L195.062 163H188.478L189.886 151.512H196.47L196.302 152.848H191.374ZM203.776 153.368C203.717 153.453 203.656 153.517 203.592 153.56C203.533 153.597 203.461 153.616 203.376 153.616C203.285 153.616 203.187 153.571 203.08 153.48C202.979 153.389 202.848 153.291 202.688 153.184C202.533 153.077 202.344 152.979 202.12 152.888C201.901 152.797 201.629 152.752 201.304 152.752C200.973 152.752 200.68 152.803 200.424 152.904C200.168 153.005 199.952 153.144 199.776 153.32C199.6 153.491 199.467 153.693 199.376 153.928C199.285 154.163 199.24 154.413 199.24 154.68C199.24 154.947 199.304 155.173 199.432 155.36C199.56 155.541 199.728 155.699 199.936 155.832C200.144 155.96 200.379 156.075 200.64 156.176C200.907 156.277 201.179 156.384 201.456 156.496C201.733 156.603 202.003 156.725 202.264 156.864C202.531 156.997 202.768 157.163 202.976 157.36C203.184 157.557 203.352 157.797 203.48 158.08C203.608 158.357 203.672 158.696 203.672 159.096C203.672 159.645 203.576 160.165 203.384 160.656C203.197 161.141 202.928 161.568 202.576 161.936C202.224 162.304 201.797 162.595 201.296 162.808C200.795 163.021 200.232 163.128 199.608 163.128C199.267 163.128 198.939 163.091 198.624 163.016C198.315 162.947 198.024 162.848 197.752 162.72C197.48 162.587 197.229 162.429 197 162.248C196.776 162.061 196.576 161.853 196.4 161.624L196.976 160.84C197.029 160.781 197.091 160.731 197.16 160.688C197.229 160.645 197.304 160.624 197.384 160.624C197.453 160.624 197.525 160.653 197.6 160.712C197.68 160.765 197.765 160.835 197.856 160.92C197.952 161.005 198.059 161.096 198.176 161.192C198.293 161.288 198.429 161.379 198.584 161.464C198.739 161.549 198.917 161.621 199.12 161.68C199.323 161.733 199.555 161.76 199.816 161.76C200.168 161.76 200.483 161.707 200.76 161.6C201.043 161.488 201.283 161.333 201.48 161.136C201.677 160.939 201.827 160.701 201.928 160.424C202.035 160.147 202.088 159.84 202.088 159.504C202.088 159.216 202.024 158.979 201.896 158.792C201.773 158.605 201.608 158.448 201.4 158.32C201.192 158.187 200.955 158.072 200.688 157.976C200.427 157.88 200.157 157.781 199.88 157.68C199.608 157.579 199.339 157.464 199.072 157.336C198.811 157.208 198.576 157.045 198.368 156.848C198.16 156.645 197.992 156.4 197.864 156.112C197.741 155.819 197.68 155.459 197.68 155.032C197.68 154.557 197.765 154.101 197.936 153.664C198.112 153.221 198.363 152.832 198.688 152.496C199.013 152.16 199.408 151.893 199.872 151.696C200.341 151.493 200.869 151.392 201.456 151.392C202.053 151.392 202.592 151.509 203.072 151.744C203.557 151.973 203.952 152.283 204.256 152.672L203.776 153.368ZM206.876 163H205.228L206.628 151.512H208.284L206.876 163ZM215.541 157.44H218.901L218.357 161.888C218.063 162.096 217.762 162.277 217.453 162.432C217.149 162.587 216.826 162.717 216.485 162.824C216.143 162.925 215.783 163 215.405 163.048C215.026 163.101 214.618 163.128 214.181 163.128C213.482 163.128 212.847 163.003 212.277 162.752C211.711 162.501 211.226 162.152 210.821 161.704C210.421 161.256 210.111 160.723 209.893 160.104C209.674 159.48 209.565 158.8 209.565 158.064C209.565 157.408 209.634 156.789 209.773 156.208C209.911 155.621 210.109 155.08 210.365 154.584C210.626 154.088 210.941 153.643 211.309 153.248C211.677 152.853 212.087 152.517 212.541 152.24C212.994 151.963 213.485 151.752 214.013 151.608C214.541 151.459 215.098 151.384 215.685 151.384C216.138 151.384 216.546 151.424 216.909 151.504C217.277 151.579 217.61 151.683 217.909 151.816C218.207 151.949 218.477 152.109 218.717 152.296C218.957 152.483 219.175 152.683 219.373 152.896L218.845 153.576C218.759 153.699 218.655 153.776 218.533 153.808C218.415 153.835 218.29 153.808 218.157 153.728C218.029 153.648 217.893 153.555 217.749 153.448C217.605 153.341 217.434 153.243 217.237 153.152C217.039 153.056 216.805 152.976 216.533 152.912C216.266 152.843 215.943 152.808 215.565 152.808C214.93 152.808 214.346 152.931 213.812 153.176C213.285 153.421 212.829 153.771 212.445 154.224C212.066 154.677 211.77 155.224 211.557 155.864C211.349 156.504 211.245 157.219 211.245 158.008C211.245 158.595 211.319 159.123 211.469 159.592C211.623 160.061 211.839 160.461 212.117 160.792C212.399 161.117 212.738 161.368 213.133 161.544C213.527 161.715 213.967 161.8 214.453 161.8C214.714 161.8 214.957 161.787 215.181 161.76C215.41 161.728 215.626 161.685 215.829 161.632C216.031 161.579 216.223 161.515 216.405 161.44C216.591 161.36 216.775 161.272 216.957 161.176L217.26 158.688H215.749C215.642 158.688 215.559 158.659 215.501 158.6C215.447 158.541 215.426 158.467 215.437 158.376L215.541 157.44ZM230.56 151.512L229.144 163H228.312C228.184 163 228.077 162.976 227.992 162.928C227.912 162.88 227.834 162.803 227.76 162.696L222.928 154.168C222.917 154.397 222.901 154.597 222.88 154.768L221.872 163H220.432L221.84 151.512H222.696C222.84 151.512 222.944 151.528 223.008 151.56C223.072 151.592 223.141 151.667 223.216 151.784L228.048 160.312C228.058 160.179 228.069 160.053 228.08 159.936C228.09 159.819 228.101 159.707 228.112 159.6L229.112 151.512H230.56Z" fill="white" fill-opacity="0.7"/>
<path d="M455.879 134.72L454.175 130.264C454.053 129.96 453.93 129.576 453.807 129.112C453.749 129.341 453.687 129.555 453.623 129.752C453.565 129.949 453.506 130.125 453.447 130.28L451.751 134.72H455.879ZM459.247 139H457.935C457.786 139 457.663 138.963 457.567 138.888C457.471 138.813 457.402 138.717 457.359 138.6L456.343 135.936H451.279L450.263 138.6C450.226 138.701 450.157 138.795 450.055 138.88C449.954 138.96 449.831 139 449.687 139H448.375L452.951 127.512H454.671L459.247 139ZM461.794 132C461.97 131.813 462.154 131.643 462.346 131.488C462.538 131.333 462.741 131.203 462.954 131.096C463.173 130.984 463.405 130.899 463.65 130.84C463.901 130.776 464.168 130.744 464.45 130.744C464.898 130.744 465.29 130.819 465.626 130.968C465.968 131.117 466.253 131.328 466.482 131.6C466.712 131.867 466.885 132.189 467.002 132.568C467.12 132.947 467.178 133.365 467.178 133.824V139H465.61V133.824C465.61 133.243 465.477 132.792 465.21 132.472C464.944 132.147 464.536 131.984 463.986 131.984C463.586 131.984 463.21 132.08 462.858 132.272C462.512 132.459 462.189 132.715 461.89 133.04V139H460.33V130.872H461.266C461.485 130.872 461.621 130.976 461.674 131.184L461.794 132ZM474.962 130.872V139H473.402V130.872H474.962ZM475.258 128.36C475.258 128.504 475.229 128.643 475.17 128.776C475.112 128.904 475.032 129.019 474.93 129.12C474.834 129.216 474.72 129.293 474.586 129.352C474.453 129.405 474.314 129.432 474.17 129.432C474.026 129.432 473.89 129.405 473.762 129.352C473.634 129.293 473.52 129.216 473.418 129.12C473.322 129.019 473.245 128.904 473.186 128.776C473.133 128.643 473.106 128.504 473.106 128.36C473.106 128.211 473.133 128.072 473.186 127.944C473.245 127.811 473.322 127.696 473.418 127.6C473.52 127.499 473.634 127.421 473.762 127.368C473.89 127.309 474.026 127.28 474.17 127.28C474.314 127.28 474.453 127.309 474.586 127.368C474.72 127.421 474.834 127.499 474.93 127.6C475.032 127.696 475.112 127.811 475.17 127.944C475.229 128.072 475.258 128.211 475.258 128.36ZM488.104 133.256C488.104 134.115 487.966 134.904 487.688 135.624C487.416 136.339 487.03 136.957 486.528 137.48C486.027 137.997 485.427 138.4 484.728 138.688C484.03 138.976 483.254 139.12 482.4 139.12C481.552 139.12 480.776 138.976 480.072 138.688C479.374 138.4 478.774 137.997 478.272 137.48C477.776 136.957 477.39 136.339 477.112 135.624C476.835 134.904 476.696 134.115 476.696 133.256C476.696 132.403 476.835 131.616 477.112 130.896C477.39 130.176 477.776 129.557 478.272 129.04C478.774 128.517 479.374 128.112 480.072 127.824C480.776 127.531 481.552 127.384 482.4 127.384C483.254 127.384 484.03 127.531 484.728 127.824C485.427 128.112 486.027 128.517 486.528 129.04C487.03 129.557 487.416 130.176 487.688 130.896C487.966 131.616 488.104 132.403 488.104 133.256ZM486.36 133.256C486.36 132.573 486.267 131.96 486.08 131.416C485.894 130.872 485.627 130.411 485.28 130.032C484.939 129.653 484.523 129.363 484.032 129.16C483.547 128.957 483.003 128.856 482.4 128.856C481.798 128.856 481.251 128.957 480.76 129.16C480.275 129.363 479.859 129.653 479.512 130.032C479.166 130.411 478.899 130.872 478.712 131.416C478.526 131.96 478.432 132.573 478.432 133.256C478.432 133.944 478.526 134.56 478.712 135.104C478.899 135.643 479.166 136.101 479.512 136.48C479.859 136.859 480.275 137.149 480.76 137.352C481.251 137.549 481.798 137.648 482.4 137.648C483.003 137.648 483.547 137.549 484.032 137.352C484.523 137.149 484.939 136.859 485.28 136.48C485.627 136.101 485.894 135.643 486.08 135.104C486.267 134.56 486.36 133.944 486.36 133.256ZM496.188 129.384C496.135 129.475 496.079 129.541 496.02 129.584C495.961 129.627 495.887 129.648 495.796 129.648C495.7 129.648 495.591 129.605 495.468 129.52C495.345 129.429 495.191 129.331 495.004 129.224C494.823 129.112 494.604 129.013 494.348 128.928C494.092 128.837 493.785 128.792 493.428 128.792C493.092 128.792 492.796 128.837 492.54 128.928C492.289 129.013 492.079 129.133 491.908 129.288C491.737 129.437 491.607 129.616 491.516 129.824C491.431 130.027 491.388 130.248 491.388 130.488C491.388 130.797 491.465 131.053 491.62 131.256C491.78 131.459 491.988 131.632 492.244 131.776C492.5 131.92 492.791 132.045 493.116 132.152C493.441 132.259 493.775 132.371 494.116 132.488C494.457 132.6 494.791 132.731 495.116 132.88C495.441 133.029 495.732 133.219 495.988 133.448C496.244 133.672 496.449 133.949 496.604 134.28C496.764 134.605 496.844 135.005 496.844 135.48C496.844 135.987 496.756 136.461 496.58 136.904C496.409 137.347 496.159 137.733 495.828 138.064C495.497 138.395 495.089 138.656 494.604 138.848C494.124 139.035 493.577 139.128 492.964 139.128C492.596 139.128 492.239 139.091 491.892 139.016C491.545 138.947 491.217 138.848 490.908 138.72C490.599 138.587 490.308 138.429 490.036 138.248C489.769 138.061 489.529 137.853 489.316 137.624L489.804 136.808C489.852 136.744 489.908 136.691 489.972 136.648C490.041 136.605 490.119 136.584 490.204 136.584C490.316 136.584 490.444 136.643 490.588 136.76C490.737 136.877 490.919 137.008 491.132 137.152C491.351 137.291 491.609 137.419 491.908 137.536C492.212 137.653 492.58 137.712 493.012 137.712C493.364 137.712 493.679 137.667 493.956 137.576C494.233 137.48 494.465 137.347 494.652 137.176C494.844 137 494.991 136.789 495.092 136.544C495.193 136.299 495.244 136.027 495.244 135.728C495.244 135.392 495.167 135.117 495.012 134.904C494.857 134.691 494.652 134.512 494.396 134.368C494.14 134.224 493.849 134.101 493.524 134C493.199 133.899 492.865 133.795 492.524 133.688C492.183 133.576 491.849 133.448 491.524 133.304C491.199 133.16 490.908 132.973 490.652 132.744C490.396 132.509 490.191 132.219 490.036 131.872C489.881 131.52 489.804 131.088 489.804 130.576C489.804 130.165 489.884 129.768 490.044 129.384C490.204 129 490.436 128.661 490.74 128.368C491.049 128.069 491.428 127.832 491.876 127.656C492.324 127.475 492.836 127.384 493.412 127.384C494.057 127.384 494.649 127.488 495.188 127.696C495.732 127.899 496.204 128.192 496.604 128.576L496.188 129.384ZM503.21 139V132.152L502.362 132.048C502.239 132.021 502.138 131.979 502.058 131.92C501.983 131.856 501.946 131.765 501.946 131.648V131H503.21V130.264C503.21 129.8 503.277 129.387 503.41 129.024C503.543 128.661 503.733 128.355 503.978 128.104C504.229 127.848 504.527 127.656 504.874 127.528C505.226 127.395 505.621 127.328 506.058 127.328C506.426 127.328 506.765 127.381 507.074 127.488L507.042 128.272C507.037 128.341 507.015 128.395 506.978 128.432C506.941 128.464 506.89 128.488 506.826 128.504C506.767 128.52 506.693 128.531 506.602 128.536C506.517 128.536 506.423 128.536 506.322 128.536C506.082 128.536 505.863 128.565 505.666 128.624C505.469 128.683 505.301 128.781 505.162 128.92C505.023 129.059 504.917 129.243 504.842 129.472C504.767 129.696 504.73 129.976 504.73 130.312V131H507.01V132.136H504.778V139H503.21ZM513.449 134.032C513.449 133.723 513.403 133.437 513.313 133.176C513.227 132.915 513.099 132.688 512.929 132.496C512.758 132.304 512.55 132.155 512.305 132.048C512.059 131.941 511.777 131.888 511.457 131.888C510.801 131.888 510.283 132.077 509.905 132.456C509.531 132.835 509.294 133.36 509.193 134.032H513.449ZM514.737 137.84C514.545 138.064 514.323 138.259 514.073 138.424C513.822 138.584 513.555 138.715 513.273 138.816C512.99 138.917 512.697 138.992 512.393 139.04C512.094 139.088 511.798 139.112 511.505 139.112C510.945 139.112 510.425 139.019 509.945 138.832C509.47 138.64 509.057 138.363 508.705 138C508.358 137.632 508.086 137.179 507.889 136.64C507.697 136.096 507.601 135.472 507.601 134.768C507.601 134.203 507.689 133.677 507.865 133.192C508.041 132.701 508.291 132.275 508.617 131.912C508.947 131.549 509.35 131.264 509.825 131.056C510.299 130.848 510.833 130.744 511.425 130.744C511.921 130.744 512.377 130.827 512.793 130.992C513.214 131.152 513.577 131.387 513.881 131.696C514.185 132.005 514.422 132.387 514.593 132.84C514.769 133.293 514.857 133.811 514.857 134.392C514.857 134.632 514.83 134.795 514.777 134.88C514.723 134.96 514.625 135 514.481 135H509.153C509.169 135.485 509.238 135.909 509.361 136.272C509.483 136.629 509.651 136.928 509.865 137.168C510.083 137.408 510.342 137.587 510.641 137.704C510.939 137.821 511.273 137.88 511.641 137.88C511.987 137.88 512.286 137.84 512.537 137.76C512.793 137.68 513.011 137.595 513.193 137.504C513.379 137.408 513.534 137.32 513.657 137.24C513.785 137.16 513.897 137.12 513.993 137.12C514.121 137.12 514.219 137.168 514.289 137.264L514.737 137.84ZM520.902 135.392C520.267 135.413 519.728 135.464 519.286 135.544C518.843 135.619 518.483 135.72 518.206 135.848C517.928 135.976 517.728 136.128 517.606 136.304C517.483 136.475 517.422 136.667 517.422 136.88C517.422 137.083 517.454 137.259 517.518 137.408C517.587 137.552 517.678 137.672 517.789 137.768C517.907 137.859 518.043 137.925 518.198 137.968C518.352 138.011 518.52 138.032 518.702 138.032C518.942 138.032 519.16 138.008 519.358 137.96C519.56 137.912 519.75 137.845 519.926 137.76C520.102 137.669 520.27 137.56 520.43 137.432C520.59 137.304 520.747 137.157 520.902 136.992V135.392ZM516.326 132.008C516.779 131.576 517.27 131.253 517.798 131.04C518.331 130.827 518.915 130.72 519.549 130.72C520.014 130.72 520.424 130.797 520.782 130.952C521.139 131.101 521.44 131.312 521.686 131.584C521.931 131.856 522.115 132.181 522.238 132.56C522.366 132.939 522.43 133.357 522.43 133.816V139H521.734C521.579 139 521.462 138.976 521.382 138.928C521.302 138.875 521.238 138.779 521.19 138.64L521.022 137.928C520.814 138.12 520.608 138.291 520.406 138.44C520.203 138.584 519.99 138.709 519.766 138.816C519.547 138.917 519.312 138.995 519.062 139.048C518.811 139.101 518.534 139.128 518.23 139.128C517.91 139.128 517.608 139.085 517.326 139C517.048 138.909 516.806 138.773 516.598 138.592C516.39 138.411 516.224 138.184 516.102 137.912C515.984 137.64 515.926 137.323 515.926 136.96C515.926 136.64 516.011 136.333 516.182 136.04C516.358 135.741 516.64 135.475 517.03 135.24C517.424 135.005 517.936 134.813 518.566 134.664C519.2 134.515 519.979 134.429 520.902 134.408V133.816C520.902 133.203 520.771 132.744 520.51 132.44C520.248 132.136 519.864 131.984 519.358 131.984C519.016 131.984 518.728 132.027 518.494 132.112C518.264 132.197 518.064 132.293 517.894 132.4C517.728 132.501 517.582 132.595 517.454 132.68C517.331 132.765 517.203 132.808 517.07 132.808C516.963 132.808 516.87 132.779 516.79 132.72C516.715 132.661 516.654 132.592 516.606 132.512L516.326 132.008ZM526.953 139.128C526.297 139.128 525.79 138.944 525.433 138.576C525.081 138.208 524.905 137.683 524.905 137V132.136H523.961C523.87 132.136 523.793 132.109 523.729 132.056C523.67 131.997 523.641 131.912 523.641 131.8V131.168L524.961 130.984L525.312 128.56C525.334 128.469 525.374 128.4 525.433 128.352C525.497 128.299 525.577 128.272 525.673 128.272H526.465V131H528.769V132.136H526.465V136.896C526.465 137.216 526.542 137.456 526.697 137.616C526.857 137.771 527.059 137.848 527.305 137.848C527.449 137.848 527.571 137.829 527.673 137.792C527.779 137.755 527.87 137.715 527.945 137.672C528.019 137.624 528.083 137.581 528.137 137.544C528.19 137.507 528.238 137.488 528.281 137.488C528.334 137.488 528.374 137.501 528.401 137.528C528.433 137.549 528.465 137.587 528.497 137.64L528.961 138.392C528.705 138.627 528.401 138.808 528.049 138.936C527.697 139.064 527.331 139.128 526.953 139.128ZM536.965 130.872V139H536.029C535.816 139 535.677 138.896 535.613 138.688L535.501 137.872C535.325 138.059 535.141 138.229 534.949 138.384C534.757 138.539 534.552 138.672 534.333 138.784C534.115 138.891 533.883 138.973 533.637 139.032C533.392 139.096 533.128 139.128 532.845 139.128C532.397 139.128 532.003 139.053 531.661 138.904C531.325 138.755 531.043 138.547 530.813 138.28C530.584 138.008 530.411 137.683 530.293 137.304C530.176 136.925 530.117 136.507 530.117 136.048V130.872H531.685V136.048C531.685 136.629 531.819 137.083 532.085 137.408C532.352 137.728 532.76 137.888 533.309 137.888C533.709 137.888 534.083 137.795 534.429 137.608C534.776 137.416 535.101 137.155 535.405 136.824V130.872H536.965ZM540.615 132.432C540.876 131.899 541.191 131.48 541.559 131.176C541.927 130.872 542.37 130.72 542.887 130.72C543.063 130.72 543.228 130.741 543.383 130.784C543.543 130.821 543.682 130.88 543.799 130.96L543.695 132.136C543.658 132.28 543.57 132.352 543.431 132.352C543.356 132.352 543.244 132.339 543.095 132.312C542.946 132.28 542.786 132.264 542.615 132.264C542.364 132.264 542.143 132.301 541.951 132.376C541.759 132.445 541.586 132.552 541.431 132.696C541.282 132.835 541.148 133.008 541.031 133.216C540.914 133.419 540.804 133.651 540.703 133.912V139H539.143V130.872H540.039C540.21 130.872 540.324 130.904 540.383 130.968C540.447 131.027 540.492 131.133 540.519 131.288L540.615 132.432ZM550.089 134.032C550.089 133.723 550.044 133.437 549.953 133.176C549.868 132.915 549.74 132.688 549.569 132.496C549.399 132.304 549.191 132.155 548.945 132.048C548.7 131.941 548.417 131.888 548.097 131.888C547.441 131.888 546.924 132.077 546.545 132.456C546.172 132.835 545.935 133.36 545.833 134.032H550.089ZM551.377 137.84C551.185 138.064 550.964 138.259 550.713 138.424C550.463 138.584 550.196 138.715 549.913 138.816C549.631 138.917 549.337 138.992 549.033 139.04C548.735 139.088 548.439 139.112 548.145 139.112C547.585 139.112 547.065 139.019 546.585 138.832C546.111 138.64 545.697 138.363 545.345 138C544.999 137.632 544.727 137.179 544.529 136.64C544.337 136.096 544.241 135.472 544.241 134.768C544.241 134.203 544.329 133.677 544.505 133.192C544.681 132.701 544.932 132.275 545.257 131.912C545.588 131.549 545.991 131.264 546.465 131.056C546.94 130.848 547.473 130.744 548.065 130.744C548.561 130.744 549.017 130.827 549.433 130.992C549.855 131.152 550.217 131.387 550.521 131.696C550.825 132.005 551.063 132.387 551.233 132.84C551.409 133.293 551.497 133.811 551.497 134.392C551.497 134.632 551.471 134.795 551.417 134.88C551.364 134.96 551.265 135 551.121 135H545.793C545.809 135.485 545.879 135.909 546.001 136.272C546.124 136.629 546.292 136.928 546.505 137.168C546.724 137.408 546.983 137.587 547.281 137.704C547.58 137.821 547.913 137.88 548.281 137.88C548.628 137.88 548.927 137.84 549.177 137.76C549.433 137.68 549.652 137.595 549.833 137.504C550.02 137.408 550.175 137.32 550.297 137.24C550.425 137.16 550.537 137.12 550.633 137.12C550.761 137.12 550.86 137.168 550.929 137.264L551.377 137.84ZM559.765 139.128C559.109 139.128 558.602 138.944 558.245 138.576C557.893 138.208 557.717 137.683 557.717 137V132.136H556.773C556.682 132.136 556.605 132.109 556.541 132.056C556.482 131.997 556.453 131.912 556.453 131.8V131.168L557.773 130.984L558.125 128.56C558.146 128.469 558.186 128.4 558.245 128.352C558.309 128.299 558.389 128.272 558.485 128.272H559.277V131H561.581V132.136H559.277V136.896C559.277 137.216 559.354 137.456 559.509 137.616C559.669 137.771 559.872 137.848 560.117 137.848C560.261 137.848 560.384 137.829 560.485 137.792C560.592 137.755 560.682 137.715 560.757 137.672C560.832 137.624 560.896 137.581 560.949 137.544C561.002 137.507 561.05 137.488 561.093 137.488C561.146 137.488 561.186 137.501 561.213 137.528C561.245 137.549 561.277 137.587 561.309 137.64L561.773 138.392C561.517 138.627 561.213 138.808 560.861 138.936C560.509 139.064 560.144 139.128 559.765 139.128ZM564.578 131.904C564.919 131.557 565.295 131.277 565.706 131.064C566.122 130.851 566.599 130.744 567.138 130.744C567.586 130.744 567.978 130.819 568.314 130.968C568.655 131.117 568.941 131.328 569.17 131.6C569.399 131.867 569.573 132.189 569.69 132.568C569.807 132.947 569.866 133.365 569.866 133.824V139H568.298V133.824C568.298 133.243 568.165 132.792 567.898 132.472C567.631 132.147 567.223 131.984 566.674 131.984C566.274 131.984 565.898 132.08 565.546 132.272C565.199 132.459 564.877 132.715 564.578 133.04V139H563.018V127.192H564.578V131.904ZM576.339 135.392C575.704 135.413 575.166 135.464 574.723 135.544C574.28 135.619 573.92 135.72 573.643 135.848C573.366 135.976 573.166 136.128 573.043 136.304C572.92 136.475 572.859 136.667 572.859 136.88C572.859 137.083 572.891 137.259 572.955 137.408C573.024 137.552 573.115 137.672 573.227 137.768C573.344 137.859 573.48 137.925 573.635 137.968C573.79 138.011 573.958 138.032 574.139 138.032C574.379 138.032 574.598 138.008 574.795 137.96C574.998 137.912 575.187 137.845 575.363 137.76C575.539 137.669 575.707 137.56 575.867 137.432C576.027 137.304 576.184 137.157 576.339 136.992V135.392ZM571.763 132.008C572.216 131.576 572.707 131.253 573.235 131.04C573.768 130.827 574.352 130.72 574.987 130.72C575.451 130.72 575.862 130.797 576.219 130.952C576.576 131.101 576.878 131.312 577.123 131.584C577.368 131.856 577.552 132.181 577.675 132.56C577.803 132.939 577.867 133.357 577.867 133.816V139H577.171C577.016 139 576.899 138.976 576.819 138.928C576.739 138.875 576.675 138.779 576.627 138.64L576.459 137.928C576.251 138.12 576.046 138.291 575.843 138.44C575.64 138.584 575.427 138.709 575.203 138.816C574.984 138.917 574.75 138.995 574.499 139.048C574.248 139.101 573.971 139.128 573.667 139.128C573.347 139.128 573.046 139.085 572.763 139C572.486 138.909 572.243 138.773 572.035 138.592C571.827 138.411 571.662 138.184 571.539 137.912C571.422 137.64 571.363 137.323 571.363 136.96C571.363 136.64 571.448 136.333 571.619 136.04C571.795 135.741 572.078 135.475 572.467 135.24C572.862 135.005 573.374 134.813 574.003 134.664C574.638 134.515 575.416 134.429 576.339 134.408V133.816C576.339 133.203 576.208 132.744 575.947 132.44C575.686 132.136 575.302 131.984 574.795 131.984C574.454 131.984 574.166 132.027 573.931 132.112C573.702 132.197 573.502 132.293 573.331 132.4C573.166 132.501 573.019 132.595 572.891 132.68C572.768 132.765 572.64 132.808 572.507 132.808C572.4 132.808 572.307 132.779 572.227 132.72C572.152 132.661 572.091 132.592 572.043 132.512L571.763 132.008ZM582.39 139.128C581.734 139.128 581.227 138.944 580.87 138.576C580.518 138.208 580.342 137.683 580.342 137V132.136H579.398C579.307 132.136 579.23 132.109 579.166 132.056C579.107 131.997 579.078 131.912 579.078 131.8V131.168L580.398 130.984L580.75 128.56C580.771 128.469 580.811 128.4 580.87 128.352C580.934 128.299 581.014 128.272 581.11 128.272H581.902V131H584.206V132.136H581.902V136.896C581.902 137.216 581.979 137.456 582.134 137.616C582.294 137.771 582.497 137.848 582.742 137.848C582.886 137.848 583.009 137.829 583.11 137.792C583.217 137.755 583.307 137.715 583.382 137.672C583.457 137.624 583.521 137.581 583.574 137.544C583.627 137.507 583.675 137.488 583.718 137.488C583.771 137.488 583.811 137.501 583.838 137.528C583.87 137.549 583.902 137.587 583.934 137.64L584.398 138.392C584.142 138.627 583.838 138.808 583.486 138.936C583.134 139.064 582.769 139.128 582.39 139.128ZM591.25 137C591.506 137.336 591.783 137.571 592.082 137.704C592.38 137.837 592.706 137.904 593.058 137.904C593.783 137.904 594.34 137.645 594.73 137.128C595.124 136.611 595.322 135.829 595.322 134.784C595.322 133.819 595.148 133.112 594.802 132.664C594.455 132.211 593.964 131.984 593.33 131.984C592.882 131.984 592.492 132.085 592.162 132.288C591.836 132.491 591.532 132.779 591.25 133.152V137ZM591.25 131.992C591.586 131.619 591.967 131.317 592.394 131.088C592.82 130.859 593.306 130.744 593.85 130.744C594.324 130.744 594.751 130.837 595.13 131.024C595.514 131.205 595.839 131.469 596.106 131.816C596.372 132.157 596.578 132.573 596.722 133.064C596.866 133.555 596.938 134.109 596.938 134.728C596.938 135.384 596.855 135.981 596.69 136.52C596.53 137.059 596.298 137.52 595.994 137.904C595.695 138.288 595.33 138.587 594.898 138.8C594.466 139.008 593.98 139.112 593.442 139.112C593.18 139.112 592.94 139.085 592.722 139.032C592.503 138.984 592.3 138.912 592.114 138.816C591.932 138.72 591.764 138.603 591.61 138.464C591.455 138.325 591.308 138.168 591.17 137.992L591.098 138.672C591.055 138.891 590.922 139 590.698 139H589.69V127.192H591.25V131.992ZM600.146 132.432C600.407 131.899 600.722 131.48 601.09 131.176C601.458 130.872 601.901 130.72 602.418 130.72C602.594 130.72 602.759 130.741 602.914 130.784C603.074 130.821 603.213 130.88 603.33 130.96L603.226 132.136C603.189 132.28 603.101 132.352 602.962 132.352C602.887 132.352 602.775 132.339 602.626 132.312C602.477 132.28 602.317 132.264 602.146 132.264C601.895 132.264 601.674 132.301 601.482 132.376C601.29 132.445 601.117 132.552 600.962 132.696C600.813 132.835 600.679 133.008 600.562 133.216C600.445 133.419 600.335 133.651 600.234 133.912V139H598.674V130.872H599.57C599.741 130.872 599.855 130.904 599.914 130.968C599.978 131.027 600.023 131.133 600.05 131.288L600.146 132.432ZM606.166 130.872V139H604.606V130.872H606.166ZM606.462 128.36C606.462 128.504 606.432 128.643 606.374 128.776C606.315 128.904 606.235 129.019 606.134 129.12C606.038 129.216 605.923 129.293 605.789 129.352C605.656 129.405 605.518 129.432 605.374 129.432C605.23 129.432 605.094 129.405 604.966 129.352C604.838 129.293 604.723 129.216 604.622 129.12C604.526 129.019 604.448 128.904 604.39 128.776C604.336 128.643 604.31 128.504 604.31 128.36C604.31 128.211 604.336 128.072 604.39 127.944C604.448 127.811 604.526 127.696 604.622 127.6C604.723 127.499 604.838 127.421 604.966 127.368C605.094 127.309 605.23 127.28 605.374 127.28C605.518 127.28 605.656 127.309 605.789 127.368C605.923 127.421 606.038 127.499 606.134 127.6C606.235 127.696 606.315 127.811 606.374 127.944C606.432 128.072 606.462 128.211 606.462 128.36ZM609.888 132C610.064 131.813 610.248 131.643 610.44 131.488C610.632 131.333 610.835 131.203 611.048 131.096C611.267 130.984 611.499 130.899 611.744 130.84C611.995 130.776 612.261 130.744 612.544 130.744C612.992 130.744 613.384 130.819 613.72 130.968C614.061 131.117 614.347 131.328 614.576 131.6C614.805 131.867 614.979 132.189 615.096 132.568C615.213 132.947 615.272 133.365 615.272 133.824V139H613.704V133.824C613.704 133.243 613.571 132.792 613.304 132.472C613.037 132.147 612.629 131.984 612.08 131.984C611.68 131.984 611.304 132.08 610.952 132.272C610.605 132.459 610.283 132.715 609.984 133.04V139H608.424V130.872H609.36C609.579 130.872 609.715 130.976 609.768 131.184L609.888 132ZM620.233 134.944C620.511 134.944 620.753 134.907 620.961 134.832C621.175 134.757 621.351 134.653 621.489 134.52C621.633 134.381 621.74 134.216 621.809 134.024C621.884 133.832 621.921 133.621 621.921 133.392C621.921 132.923 621.777 132.549 621.489 132.272C621.207 131.989 620.788 131.848 620.233 131.848C619.684 131.848 619.265 131.989 618.977 132.272C618.695 132.549 618.553 132.923 618.553 133.392C618.553 133.621 618.588 133.832 618.657 134.024C618.732 134.211 618.839 134.373 618.977 134.512C619.121 134.645 619.297 134.752 619.505 134.832C619.719 134.907 619.961 134.944 620.233 134.944ZM622.721 139.424C622.721 139.232 622.668 139.08 622.561 138.968C622.455 138.851 622.308 138.76 622.121 138.696C621.94 138.627 621.727 138.579 621.481 138.552C621.236 138.52 620.977 138.496 620.705 138.48C620.439 138.464 620.164 138.451 619.881 138.44C619.599 138.424 619.327 138.397 619.065 138.36C618.788 138.499 618.559 138.667 618.377 138.864C618.201 139.061 618.113 139.293 618.113 139.56C618.113 139.731 618.156 139.891 618.241 140.04C618.332 140.189 618.468 140.317 618.649 140.424C618.836 140.536 619.068 140.621 619.345 140.68C619.628 140.744 619.964 140.776 620.353 140.776C620.737 140.776 621.076 140.741 621.369 140.672C621.663 140.608 621.908 140.515 622.105 140.392C622.308 140.275 622.46 140.133 622.561 139.968C622.668 139.803 622.721 139.621 622.721 139.424ZM624.305 131.176V131.76C624.305 131.952 624.185 132.072 623.945 132.12L623.073 132.248C623.148 132.413 623.207 132.589 623.249 132.776C623.292 132.957 623.313 133.149 623.313 133.352C623.313 133.752 623.236 134.115 623.081 134.44C622.927 134.76 622.713 135.035 622.441 135.264C622.169 135.493 621.844 135.669 621.465 135.792C621.092 135.915 620.681 135.976 620.233 135.976C619.865 135.976 619.521 135.936 619.201 135.856C619.041 135.952 618.919 136.059 618.833 136.176C618.753 136.288 618.713 136.4 618.713 136.512C618.713 136.699 618.791 136.837 618.945 136.928C619.105 137.019 619.311 137.085 619.561 137.128C619.817 137.165 620.108 137.189 620.433 137.2C620.764 137.211 621.097 137.229 621.433 137.256C621.775 137.277 622.108 137.32 622.433 137.384C622.764 137.443 623.055 137.541 623.305 137.68C623.561 137.813 623.767 138 623.921 138.24C624.081 138.475 624.161 138.781 624.161 139.16C624.161 139.512 624.073 139.853 623.897 140.184C623.727 140.515 623.476 140.808 623.145 141.064C622.815 141.32 622.412 141.525 621.937 141.68C621.463 141.835 620.924 141.912 620.321 141.912C619.719 141.912 619.193 141.853 618.745 141.736C618.303 141.619 617.932 141.461 617.633 141.264C617.34 141.067 617.119 140.837 616.969 140.576C616.825 140.315 616.753 140.043 616.753 139.76C616.753 139.365 616.876 139.032 617.121 138.76C617.367 138.483 617.705 138.267 618.137 138.112C617.903 138.005 617.716 137.861 617.577 137.68C617.439 137.493 617.369 137.248 617.369 136.944C617.369 136.827 617.391 136.707 617.433 136.584C617.476 136.456 617.54 136.331 617.625 136.208C617.716 136.08 617.825 135.96 617.953 135.848C618.087 135.736 618.239 135.635 618.409 135.544C618.009 135.32 617.695 135.024 617.465 134.656C617.236 134.283 617.121 133.848 617.121 133.352C617.121 132.952 617.199 132.592 617.353 132.272C617.508 131.952 617.721 131.677 617.993 131.448C618.271 131.219 618.599 131.043 618.977 130.92C619.361 130.797 619.78 130.736 620.233 130.736C620.937 130.736 621.543 130.883 622.049 131.176H624.305ZM630.529 132.272C630.486 132.341 630.441 132.392 630.393 132.424C630.345 132.451 630.283 132.464 630.209 132.464C630.123 132.464 630.027 132.435 629.921 132.376C629.819 132.317 629.694 132.253 629.545 132.184C629.401 132.115 629.23 132.051 629.033 131.992C628.835 131.933 628.601 131.904 628.329 131.904C628.105 131.904 627.899 131.933 627.713 131.992C627.531 132.045 627.377 132.123 627.249 132.224C627.121 132.32 627.022 132.437 626.953 132.576C626.883 132.709 626.849 132.853 626.849 133.008C626.849 133.211 626.907 133.379 627.025 133.512C627.147 133.645 627.305 133.76 627.497 133.856C627.694 133.952 627.915 134.04 628.161 134.12C628.411 134.195 628.665 134.275 628.921 134.36C629.182 134.445 629.435 134.544 629.681 134.656C629.931 134.763 630.153 134.899 630.345 135.064C630.542 135.224 630.699 135.419 630.817 135.648C630.939 135.877 631.001 136.157 631.001 136.488C631.001 136.867 630.931 137.219 630.793 137.544C630.659 137.864 630.459 138.141 630.193 138.376C629.931 138.611 629.606 138.795 629.217 138.928C628.827 139.061 628.382 139.128 627.881 139.128C627.321 139.128 626.803 139.035 626.329 138.848C625.854 138.661 625.457 138.424 625.137 138.136L625.505 137.536C625.547 137.461 625.601 137.405 625.665 137.368C625.729 137.325 625.814 137.304 625.921 137.304C626.022 137.304 626.126 137.341 626.233 137.416C626.339 137.491 626.467 137.573 626.617 137.664C626.766 137.749 626.947 137.829 627.161 137.904C627.374 137.973 627.641 138.008 627.961 138.008C628.227 138.008 628.459 137.976 628.657 137.912C628.854 137.843 629.017 137.752 629.145 137.64C629.278 137.523 629.377 137.389 629.441 137.24C629.505 137.091 629.537 136.933 629.537 136.768C629.537 136.555 629.475 136.379 629.353 136.24C629.235 136.096 629.078 135.973 628.881 135.872C628.689 135.771 628.467 135.683 628.217 135.608C627.966 135.533 627.71 135.453 627.449 135.368C627.187 135.283 626.931 135.184 626.681 135.072C626.43 134.96 626.206 134.819 626.009 134.648C625.817 134.477 625.659 134.269 625.537 134.024C625.419 133.779 625.361 133.48 625.361 133.128C625.361 132.813 625.425 132.512 625.553 132.224C625.686 131.936 625.875 131.683 626.121 131.464C626.371 131.245 626.678 131.072 627.041 130.944C627.409 130.811 627.827 130.744 628.297 130.744C628.835 130.744 629.321 130.829 629.753 131C630.19 131.171 630.563 131.405 630.873 131.704L630.529 132.272ZM425.831 155.392C425.197 155.413 424.658 155.464 424.215 155.544C423.773 155.619 423.413 155.72 423.135 155.848C422.858 155.976 422.658 156.128 422.535 156.304C422.413 156.475 422.351 156.667 422.351 156.88C422.351 157.083 422.383 157.259 422.447 157.408C422.517 157.552 422.607 157.672 422.719 157.768C422.837 157.859 422.973 157.925 423.127 157.968C423.282 158.011 423.45 158.032 423.631 158.032C423.871 158.032 424.09 158.008 424.287 157.96C424.49 157.912 424.679 157.845 424.855 157.76C425.031 157.669 425.199 157.56 425.359 157.432C425.519 157.304 425.677 157.157 425.831 156.992V155.392ZM421.255 152.008C421.709 151.576 422.199 151.253 422.727 151.04C423.261 150.827 423.845 150.72 424.479 150.72C424.943 150.72 425.354 150.797 425.711 150.952C426.069 151.101 426.37 151.312 426.615 151.584C426.861 151.856 427.045 152.181 427.167 152.56C427.295 152.939 427.359 153.357 427.359 153.816V159H426.663C426.509 159 426.391 158.976 426.311 158.928C426.231 158.875 426.167 158.779 426.119 158.64L425.951 157.928C425.743 158.12 425.538 158.291 425.335 158.44C425.133 158.584 424.919 158.709 424.695 158.816C424.477 158.917 424.242 158.995 423.991 159.048C423.741 159.101 423.463 159.128 423.159 159.128C422.839 159.128 422.538 159.085 422.255 159C421.978 158.909 421.735 158.773 421.527 158.592C421.319 158.411 421.154 158.184 421.031 157.912C420.914 157.64 420.855 157.323 420.855 156.96C420.855 156.64 420.941 156.333 421.111 156.04C421.287 155.741 421.57 155.475 421.959 155.24C422.354 155.005 422.866 154.813 423.495 154.664C424.13 154.515 424.909 154.429 425.831 154.408V153.816C425.831 153.203 425.701 152.744 425.439 152.44C425.178 152.136 424.794 151.984 424.287 151.984C423.946 151.984 423.658 152.027 423.423 152.112C423.194 152.197 422.994 152.293 422.823 152.4C422.658 152.501 422.511 152.595 422.383 152.68C422.261 152.765 422.133 152.808 421.999 152.808C421.893 152.808 421.799 152.779 421.719 152.72C421.645 152.661 421.583 152.592 421.535 152.512L421.255 152.008ZM440.689 150.872L438.073 159H436.825C436.676 159 436.574 158.901 436.521 158.704L434.809 153.408C434.766 153.275 434.729 153.144 434.697 153.016C434.665 152.883 434.636 152.749 434.609 152.616C434.561 152.893 434.494 153.163 434.409 153.424L432.673 158.704C432.62 158.901 432.505 159 432.329 159H431.145L428.521 150.872H429.753C429.876 150.872 429.977 150.901 430.057 150.96C430.142 151.019 430.198 151.093 430.225 151.184L431.689 156.176C431.737 156.379 431.78 156.576 431.817 156.768C431.854 156.96 431.889 157.152 431.921 157.344C431.969 157.152 432.02 156.96 432.073 156.768C432.132 156.576 432.19 156.379 432.249 156.176L433.873 151.152C433.9 151.061 433.95 150.989 434.025 150.936C434.1 150.877 434.19 150.848 434.297 150.848H434.977C435.094 150.848 435.19 150.877 435.265 150.936C435.345 150.989 435.398 151.061 435.425 151.152L437.009 156.176C437.068 156.379 437.124 156.579 437.177 156.776C437.23 156.968 437.278 157.163 437.321 157.36C437.353 157.168 437.39 156.976 437.433 156.784C437.476 156.587 437.524 156.384 437.577 156.176L439.065 151.184C439.092 151.093 439.145 151.019 439.225 150.96C439.31 150.901 439.406 150.872 439.513 150.872H440.689ZM446.284 155.392C445.65 155.413 445.111 155.464 444.668 155.544C444.226 155.619 443.866 155.72 443.588 155.848C443.311 155.976 443.111 156.128 442.988 156.304C442.866 156.475 442.804 156.667 442.804 156.88C442.804 157.083 442.836 157.259 442.9 157.408C442.97 157.552 443.06 157.672 443.172 157.768C443.29 157.859 443.426 157.925 443.58 157.968C443.735 158.011 443.903 158.032 444.084 158.032C444.324 158.032 444.543 158.008 444.74 157.96C444.943 157.912 445.132 157.845 445.308 157.76C445.484 157.669 445.652 157.56 445.812 157.432C445.972 157.304 446.13 157.157 446.284 156.992V155.392ZM441.708 152.008C442.162 151.576 442.652 151.253 443.18 151.04C443.714 150.827 444.298 150.72 444.932 150.72C445.396 150.72 445.807 150.797 446.164 150.952C446.522 151.101 446.823 151.312 447.068 151.584C447.314 151.856 447.498 152.181 447.62 152.56C447.748 152.939 447.812 153.357 447.812 153.816V159H447.116C446.962 159 446.844 158.976 446.764 158.928C446.684 158.875 446.62 158.779 446.572 158.64L446.404 157.928C446.196 158.12 445.991 158.291 445.788 158.44C445.586 158.584 445.372 158.709 445.148 158.816C444.93 158.917 444.695 158.995 444.444 159.048C444.194 159.101 443.916 159.128 443.612 159.128C443.292 159.128 442.991 159.085 442.708 159C442.431 158.909 442.188 158.773 441.98 158.592C441.772 158.411 441.607 158.184 441.484 157.912C441.367 157.64 441.308 157.323 441.308 156.96C441.308 156.64 441.394 156.333 441.564 156.04C441.74 155.741 442.023 155.475 442.412 155.24C442.807 155.005 443.319 154.813 443.948 154.664C444.583 154.515 445.362 154.429 446.284 154.408V153.816C446.284 153.203 446.154 152.744 445.892 152.44C445.631 152.136 445.247 151.984 444.74 151.984C444.399 151.984 444.111 152.027 443.876 152.112C443.647 152.197 443.447 152.293 443.276 152.4C443.111 152.501 442.964 152.595 442.836 152.68C442.714 152.765 442.586 152.808 442.452 152.808C442.346 152.808 442.252 152.779 442.172 152.72C442.098 152.661 442.036 152.592 441.988 152.512L441.708 152.008ZM451.373 152.432C451.634 151.899 451.949 151.48 452.317 151.176C452.685 150.872 453.127 150.72 453.645 150.72C453.821 150.72 453.986 150.741 454.141 150.784C454.301 150.821 454.439 150.88 454.557 150.96L454.453 152.136C454.415 152.28 454.327 152.352 454.189 152.352C454.114 152.352 454.002 152.339 453.853 152.312C453.703 152.28 453.543 152.264 453.373 152.264C453.122 152.264 452.901 152.301 452.709 152.376C452.517 152.445 452.343 152.552 452.189 152.696C452.039 152.835 451.906 153.008 451.789 153.216C451.671 153.419 451.562 153.651 451.461 153.912V159H449.901V150.872H450.797C450.967 150.872 451.082 150.904 451.141 150.968C451.205 151.027 451.25 151.133 451.277 151.288L451.373 152.432ZM460.847 154.032C460.847 153.723 460.802 153.437 460.711 153.176C460.626 152.915 460.498 152.688 460.327 152.496C460.157 152.304 459.949 152.155 459.703 152.048C459.458 151.941 459.175 151.888 458.855 151.888C458.199 151.888 457.682 152.077 457.303 152.456C456.93 152.835 456.693 153.36 456.591 154.032H460.847ZM462.135 157.84C461.943 158.064 461.722 158.259 461.471 158.424C461.221 158.584 460.954 158.715 460.671 158.816C460.389 158.917 460.095 158.992 459.791 159.04C459.493 159.088 459.197 159.112 458.903 159.112C458.343 159.112 457.823 159.019 457.343 158.832C456.869 158.64 456.455 158.363 456.103 158C455.757 157.632 455.485 157.179 455.287 156.64C455.095 156.096 454.999 155.472 454.999 154.768C454.999 154.203 455.087 153.677 455.263 153.192C455.439 152.701 455.69 152.275 456.015 151.912C456.346 151.549 456.749 151.264 457.223 151.056C457.698 150.848 458.231 150.744 458.823 150.744C459.319 150.744 459.775 150.827 460.191 150.992C460.613 151.152 460.975 151.387 461.279 151.696C461.583 152.005 461.821 152.387 461.991 152.84C462.167 153.293 462.255 153.811 462.255 154.392C462.255 154.632 462.229 154.795 462.175 154.88C462.122 154.96 462.023 155 461.879 155H456.551C456.567 155.485 456.637 155.909 456.759 156.272C456.882 156.629 457.05 156.928 457.263 157.168C457.482 157.408 457.741 157.587 458.039 157.704C458.338 157.821 458.671 157.88 459.039 157.88C459.386 157.88 459.685 157.84 459.935 157.76C460.191 157.68 460.41 157.595 460.591 157.504C460.778 157.408 460.933 157.32 461.055 157.24C461.183 157.16 461.295 157.12 461.391 157.12C461.519 157.12 461.618 157.168 461.687 157.264L462.135 157.84ZM465.396 152C465.572 151.813 465.756 151.643 465.948 151.488C466.14 151.333 466.343 151.203 466.556 151.096C466.775 150.984 467.007 150.899 467.252 150.84C467.503 150.776 467.769 150.744 468.052 150.744C468.5 150.744 468.892 150.819 469.228 150.968C469.569 151.117 469.855 151.328 470.084 151.6C470.313 151.867 470.487 152.189 470.604 152.568C470.721 152.947 470.78 153.365 470.78 153.824V159H469.212V153.824C469.212 153.243 469.079 152.792 468.812 152.472C468.545 152.147 468.137 151.984 467.588 151.984C467.188 151.984 466.812 152.08 466.46 152.272C466.113 152.459 465.791 152.715 465.492 153.04V159H463.932V150.872H464.868C465.087 150.872 465.223 150.976 465.276 151.184L465.396 152ZM478.269 154.032C478.269 153.723 478.224 153.437 478.133 153.176C478.048 152.915 477.92 152.688 477.749 152.496C477.578 152.304 477.37 152.155 477.125 152.048C476.88 151.941 476.597 151.888 476.277 151.888C475.621 151.888 475.104 152.077 474.725 152.456C474.352 152.835 474.114 153.36 474.013 154.032H478.269ZM479.557 157.84C479.365 158.064 479.144 158.259 478.893 158.424C478.642 158.584 478.376 158.715 478.093 158.816C477.81 158.917 477.517 158.992 477.213 159.04C476.914 159.088 476.618 159.112 476.325 159.112C475.765 159.112 475.245 159.019 474.765 158.832C474.29 158.64 473.877 158.363 473.525 158C473.178 157.632 472.906 157.179 472.709 156.64C472.517 156.096 472.421 155.472 472.421 154.768C472.421 154.203 472.509 153.677 472.685 153.192C472.861 152.701 473.112 152.275 473.437 151.912C473.768 151.549 474.17 151.264 474.645 151.056C475.12 150.848 475.653 150.744 476.245 150.744C476.741 150.744 477.197 150.827 477.613 150.992C478.034 151.152 478.397 151.387 478.701 151.696C479.005 152.005 479.242 152.387 479.413 152.84C479.589 153.293 479.677 153.811 479.677 154.392C479.677 154.632 479.65 154.795 479.597 154.88C479.544 154.96 479.445 155 479.301 155H473.973C473.989 155.485 474.058 155.909 474.181 156.272C474.304 156.629 474.472 156.928 474.685 157.168C474.904 157.408 475.162 157.587 475.461 157.704C475.76 157.821 476.093 157.88 476.461 157.88C476.808 157.88 477.106 157.84 477.357 157.76C477.613 157.68 477.832 157.595 478.013 157.504C478.2 157.408 478.354 157.32 478.477 157.24C478.605 157.16 478.717 157.12 478.813 157.12C478.941 157.12 479.04 157.168 479.109 157.264L479.557 157.84ZM486.146 152.272C486.103 152.341 486.058 152.392 486.01 152.424C485.962 152.451 485.9 152.464 485.826 152.464C485.74 152.464 485.644 152.435 485.538 152.376C485.436 152.317 485.311 152.253 485.162 152.184C485.018 152.115 484.847 152.051 484.65 151.992C484.452 151.933 484.218 151.904 483.946 151.904C483.722 151.904 483.516 151.933 483.33 151.992C483.148 152.045 482.994 152.123 482.866 152.224C482.738 152.32 482.639 152.437 482.57 152.576C482.5 152.709 482.466 152.853 482.466 153.008C482.466 153.211 482.524 153.379 482.642 153.512C482.764 153.645 482.922 153.76 483.114 153.856C483.311 153.952 483.532 154.04 483.778 154.12C484.028 154.195 484.282 154.275 484.538 154.36C484.799 154.445 485.052 154.544 485.298 154.656C485.548 154.763 485.77 154.899 485.962 155.064C486.159 155.224 486.316 155.419 486.434 155.648C486.556 155.877 486.618 156.157 486.618 156.488C486.618 156.867 486.548 157.219 486.41 157.544C486.276 157.864 486.076 158.141 485.81 158.376C485.548 158.611 485.223 158.795 484.834 158.928C484.444 159.061 483.999 159.128 483.498 159.128C482.938 159.128 482.42 159.035 481.946 158.848C481.471 158.661 481.074 158.424 480.754 158.136L481.122 157.536C481.164 157.461 481.218 157.405 481.282 157.368C481.346 157.325 481.431 157.304 481.538 157.304C481.639 157.304 481.743 157.341 481.85 157.416C481.956 157.491 482.084 157.573 482.234 157.664C482.383 157.749 482.564 157.829 482.778 157.904C482.991 157.973 483.258 158.008 483.578 158.008C483.844 158.008 484.076 157.976 484.274 157.912C484.471 157.843 484.634 157.752 484.762 157.64C484.895 157.523 484.994 157.389 485.058 157.24C485.122 157.091 485.154 156.933 485.154 156.768C485.154 156.555 485.092 156.379 484.97 156.24C484.852 156.096 484.695 155.973 484.498 155.872C484.306 155.771 484.084 155.683 483.834 155.608C483.583 155.533 483.327 155.453 483.066 155.368C482.804 155.283 482.548 155.184 482.298 155.072C482.047 154.96 481.823 154.819 481.626 154.648C481.434 154.477 481.276 154.269 481.154 154.024C481.036 153.779 480.978 153.48 480.978 153.128C480.978 152.813 481.042 152.512 481.17 152.224C481.303 151.936 481.492 151.683 481.738 151.464C481.988 151.245 482.295 151.072 482.658 150.944C483.026 150.811 483.444 150.744 483.914 150.744C484.452 150.744 484.938 150.829 485.37 151C485.807 151.171 486.18 151.405 486.49 151.704L486.146 152.272ZM493.099 152.272C493.056 152.341 493.011 152.392 492.963 152.424C492.915 152.451 492.854 152.464 492.779 152.464C492.694 152.464 492.598 152.435 492.491 152.376C492.39 152.317 492.264 152.253 492.115 152.184C491.971 152.115 491.8 152.051 491.603 151.992C491.406 151.933 491.171 151.904 490.899 151.904C490.675 151.904 490.47 151.933 490.283 151.992C490.102 152.045 489.947 152.123 489.819 152.224C489.691 152.32 489.592 152.437 489.523 152.576C489.454 152.709 489.419 152.853 489.419 153.008C489.419 153.211 489.478 153.379 489.595 153.512C489.718 153.645 489.875 153.76 490.067 153.856C490.264 153.952 490.486 154.04 490.731 154.12C490.982 154.195 491.235 154.275 491.491 154.36C491.752 154.445 492.006 154.544 492.251 154.656C492.502 154.763 492.723 154.899 492.915 155.064C493.112 155.224 493.27 155.419 493.387 155.648C493.51 155.877 493.571 156.157 493.571 156.488C493.571 156.867 493.502 157.219 493.363 157.544C493.23 157.864 493.03 158.141 492.763 158.376C492.502 158.611 492.176 158.795 491.787 158.928C491.398 159.061 490.952 159.128 490.451 159.128C489.891 159.128 489.374 159.035 488.899 158.848C488.424 158.661 488.027 158.424 487.707 158.136L488.075 157.536C488.118 157.461 488.171 157.405 488.235 157.368C488.299 157.325 488.384 157.304 488.491 157.304C488.592 157.304 488.696 157.341 488.803 157.416C488.91 157.491 489.038 157.573 489.187 157.664C489.336 157.749 489.518 157.829 489.731 157.904C489.944 157.973 490.211 158.008 490.531 158.008C490.798 158.008 491.03 157.976 491.227 157.912C491.424 157.843 491.587 157.752 491.715 157.64C491.848 157.523 491.947 157.389 492.011 157.24C492.075 157.091 492.107 156.933 492.107 156.768C492.107 156.555 492.046 156.379 491.923 156.24C491.806 156.096 491.648 155.973 491.451 155.872C491.259 155.771 491.038 155.683 490.787 155.608C490.536 155.533 490.28 155.453 490.019 155.368C489.758 155.283 489.502 155.184 489.251 155.072C489 154.96 488.776 154.819 488.579 154.648C488.387 154.477 488.23 154.269 488.107 154.024C487.99 153.779 487.931 153.48 487.931 153.128C487.931 152.813 487.995 152.512 488.123 152.224C488.256 151.936 488.446 151.683 488.691 151.464C488.942 151.245 489.248 151.072 489.611 150.944C489.979 150.811 490.398 150.744 490.867 150.744C491.406 150.744 491.891 150.829 492.323 151C492.76 151.171 493.134 151.405 493.443 151.704L493.099 152.272ZM502.771 150.744C503.368 150.744 503.907 150.843 504.387 151.04C504.872 151.232 505.283 151.512 505.619 151.88C505.96 152.243 506.222 152.683 506.403 153.2C506.584 153.712 506.675 154.288 506.675 154.928C506.675 155.568 506.584 156.147 506.403 156.664C506.222 157.181 505.96 157.621 505.619 157.984C505.283 158.347 504.872 158.627 504.387 158.824C503.907 159.016 503.368 159.112 502.771 159.112C502.168 159.112 501.624 159.016 501.139 158.824C500.659 158.627 500.248 158.347 499.907 157.984C499.566 157.621 499.302 157.181 499.115 156.664C498.934 156.147 498.843 155.568 498.843 154.928C498.843 154.288 498.934 153.712 499.115 153.2C499.302 152.683 499.566 152.243 499.907 151.88C500.248 151.512 500.659 151.232 501.139 151.04C501.624 150.843 502.168 150.744 502.771 150.744ZM502.771 157.896C503.539 157.896 504.112 157.637 504.491 157.12C504.87 156.603 505.059 155.875 505.059 154.936C505.059 153.997 504.87 153.269 504.491 152.752C504.112 152.229 503.539 151.968 502.771 151.968C501.992 151.968 501.411 152.229 501.027 152.752C500.648 153.269 500.459 153.997 500.459 154.936C500.459 155.875 500.648 156.603 501.027 157.12C501.411 157.637 501.992 157.896 502.771 157.896ZM509.88 152C510.056 151.813 510.24 151.643 510.432 151.488C510.624 151.333 510.827 151.203 511.04 151.096C511.259 150.984 511.491 150.899 511.736 150.84C511.987 150.776 512.254 150.744 512.536 150.744C512.984 150.744 513.376 150.819 513.712 150.968C514.054 151.117 514.339 151.328 514.568 151.6C514.798 151.867 514.971 152.189 515.088 152.568C515.206 152.947 515.264 153.365 515.264 153.824V159H513.696V153.824C513.696 153.243 513.563 152.792 513.296 152.472C513.03 152.147 512.622 151.984 512.072 151.984C511.672 151.984 511.296 152.08 510.944 152.272C510.598 152.459 510.275 152.715 509.976 153.04V159H508.416V150.872H509.352C509.571 150.872 509.707 150.976 509.76 151.184L509.88 152ZM526.8 154.032C526.8 153.723 526.755 153.437 526.664 153.176C526.579 152.915 526.451 152.688 526.28 152.496C526.11 152.304 525.902 152.155 525.656 152.048C525.411 151.941 525.128 151.888 524.808 151.888C524.152 151.888 523.635 152.077 523.256 152.456C522.883 152.835 522.646 153.36 522.544 154.032H526.8ZM528.088 157.84C527.896 158.064 527.675 158.259 527.424 158.424C527.174 158.584 526.907 158.715 526.624 158.816C526.342 158.917 526.048 158.992 525.744 159.04C525.446 159.088 525.15 159.112 524.856 159.112C524.296 159.112 523.776 159.019 523.296 158.832C522.822 158.64 522.408 158.363 522.056 158C521.71 157.632 521.438 157.179 521.24 156.64C521.048 156.096 520.952 155.472 520.952 154.768C520.952 154.203 521.04 153.677 521.216 153.192C521.392 152.701 521.643 152.275 521.968 151.912C522.299 151.549 522.702 151.264 523.176 151.056C523.651 150.848 524.184 150.744 524.776 150.744C525.272 150.744 525.728 150.827 526.144 150.992C526.566 151.152 526.928 151.387 527.232 151.696C527.536 152.005 527.774 152.387 527.944 152.84C528.12 153.293 528.208 153.811 528.208 154.392C528.208 154.632 528.182 154.795 528.128 154.88C528.075 154.96 527.976 155 527.832 155H522.504C522.52 155.485 522.59 155.909 522.712 156.272C522.835 156.629 523.003 156.928 523.216 157.168C523.435 157.408 523.694 157.587 523.992 157.704C524.291 157.821 524.624 157.88 524.992 157.88C525.339 157.88 525.638 157.84 525.888 157.76C526.144 157.68 526.363 157.595 526.544 157.504C526.731 157.408 526.886 157.32 527.008 157.24C527.136 157.16 527.248 157.12 527.344 157.12C527.472 157.12 527.571 157.168 527.64 157.264L528.088 157.84ZM536.592 159H535.088C534.965 159 534.866 158.968 534.792 158.904C534.722 158.835 534.666 158.763 534.624 158.688L532.664 155.592C532.637 155.672 532.61 155.749 532.584 155.824C532.557 155.899 532.522 155.968 532.48 156.032L530.68 158.688C530.626 158.763 530.565 158.835 530.496 158.904C530.426 158.968 530.336 159 530.224 159H528.832L531.664 154.816L528.944 150.872H530.448C530.57 150.872 530.658 150.891 530.712 150.928C530.77 150.965 530.821 151.021 530.864 151.096L532.792 154.064C532.818 153.984 532.848 153.907 532.88 153.832C532.912 153.752 532.954 153.669 533.008 153.584L534.664 151.128C534.76 150.957 534.888 150.872 535.048 150.872H536.48L533.76 154.744L536.592 159ZM543.175 152.392C543.127 152.451 543.079 152.499 543.031 152.536C542.988 152.568 542.924 152.584 542.839 152.584C542.753 152.584 542.663 152.552 542.567 152.488C542.476 152.419 542.359 152.347 542.215 152.272C542.076 152.192 541.905 152.12 541.703 152.056C541.505 151.987 541.26 151.952 540.967 151.952C540.583 151.952 540.244 152.021 539.951 152.16C539.657 152.299 539.412 152.496 539.215 152.752C539.023 153.008 538.876 153.32 538.775 153.688C538.673 154.056 538.623 154.469 538.623 154.928C538.623 155.403 538.676 155.827 538.783 156.2C538.889 156.568 539.041 156.88 539.239 157.136C539.436 157.387 539.676 157.579 539.959 157.712C540.241 157.84 540.556 157.904 540.903 157.904C541.239 157.904 541.516 157.864 541.735 157.784C541.953 157.699 542.135 157.608 542.279 157.512C542.423 157.416 542.543 157.328 542.639 157.248C542.735 157.163 542.833 157.12 542.935 157.12C543.063 157.12 543.161 157.168 543.231 157.264L543.679 157.84C543.492 158.069 543.281 158.264 543.047 158.424C542.817 158.584 542.572 158.715 542.311 158.816C542.049 158.917 541.775 158.992 541.487 159.04C541.204 159.088 540.916 159.112 540.623 159.112C540.116 159.112 539.641 159.019 539.199 158.832C538.761 158.645 538.38 158.373 538.055 158.016C537.735 157.659 537.481 157.221 537.295 156.704C537.108 156.181 537.015 155.589 537.015 154.928C537.015 154.325 537.097 153.768 537.263 153.256C537.433 152.744 537.681 152.304 538.007 151.936C538.337 151.563 538.743 151.272 539.223 151.064C539.703 150.851 540.252 150.744 540.871 150.744C541.452 150.744 541.964 150.837 542.407 151.024C542.849 151.211 543.244 151.475 543.591 151.816L543.175 152.392ZM550.378 154.032C550.378 153.723 550.333 153.437 550.242 153.176C550.157 152.915 550.029 152.688 549.858 152.496C549.688 152.304 549.48 152.155 549.234 152.048C548.989 151.941 548.706 151.888 548.386 151.888C547.73 151.888 547.213 152.077 546.834 152.456C546.461 152.835 546.224 153.36 546.122 154.032H550.378ZM551.666 157.84C551.474 158.064 551.253 158.259 551.002 158.424C550.752 158.584 550.485 158.715 550.202 158.816C549.92 158.917 549.626 158.992 549.322 159.04C549.024 159.088 548.728 159.112 548.434 159.112C547.874 159.112 547.354 159.019 546.874 158.832C546.4 158.64 545.986 158.363 545.634 158C545.288 157.632 545.016 157.179 544.818 156.64C544.626 156.096 544.53 155.472 544.53 154.768C544.53 154.203 544.618 153.677 544.794 153.192C544.97 152.701 545.221 152.275 545.546 151.912C545.877 151.549 546.28 151.264 546.754 151.056C547.229 150.848 547.762 150.744 548.354 150.744C548.85 150.744 549.306 150.827 549.722 150.992C550.144 151.152 550.506 151.387 550.81 151.696C551.114 152.005 551.352 152.387 551.522 152.84C551.698 153.293 551.786 153.811 551.786 154.392C551.786 154.632 551.76 154.795 551.706 154.88C551.653 154.96 551.554 155 551.41 155H546.082C546.098 155.485 546.168 155.909 546.29 156.272C546.413 156.629 546.581 156.928 546.794 157.168C547.013 157.408 547.272 157.587 547.57 157.704C547.869 157.821 548.202 157.88 548.57 157.88C548.917 157.88 549.216 157.84 549.466 157.76C549.722 157.68 549.941 157.595 550.122 157.504C550.309 157.408 550.464 157.32 550.586 157.24C550.714 157.16 550.826 157.12 550.922 157.12C551.05 157.12 551.149 157.168 551.218 157.264L551.666 157.84ZM558.255 152.272C558.213 152.341 558.167 152.392 558.119 152.424C558.071 152.451 558.01 152.464 557.935 152.464C557.85 152.464 557.754 152.435 557.647 152.376C557.546 152.317 557.421 152.253 557.271 152.184C557.127 152.115 556.957 152.051 556.759 151.992C556.562 151.933 556.327 151.904 556.055 151.904C555.831 151.904 555.626 151.933 555.439 151.992C555.258 152.045 555.103 152.123 554.975 152.224C554.847 152.32 554.749 152.437 554.679 152.576C554.61 152.709 554.575 152.853 554.575 153.008C554.575 153.211 554.634 153.379 554.751 153.512C554.874 153.645 555.031 153.76 555.223 153.856C555.421 153.952 555.642 154.04 555.887 154.12C556.138 154.195 556.391 154.275 556.647 154.36C556.909 154.445 557.162 154.544 557.407 154.656C557.658 154.763 557.879 154.899 558.071 155.064C558.269 155.224 558.426 155.419 558.543 155.648C558.666 155.877 558.727 156.157 558.727 156.488C558.727 156.867 558.658 157.219 558.519 157.544C558.386 157.864 558.186 158.141 557.919 158.376C557.658 158.611 557.333 158.795 556.943 158.928C556.554 159.061 556.109 159.128 555.607 159.128C555.047 159.128 554.53 159.035 554.055 158.848C553.581 158.661 553.183 158.424 552.863 158.136L553.231 157.536C553.274 157.461 553.327 157.405 553.391 157.368C553.455 157.325 553.541 157.304 553.647 157.304C553.749 157.304 553.853 157.341 553.959 157.416C554.066 157.491 554.194 157.573 554.343 157.664C554.493 157.749 554.674 157.829 554.887 157.904C555.101 157.973 555.367 158.008 555.687 158.008C555.954 158.008 556.186 157.976 556.383 157.912C556.581 157.843 556.743 157.752 556.871 157.64C557.005 157.523 557.103 157.389 557.167 157.24C557.231 157.091 557.263 156.933 557.263 156.768C557.263 156.555 557.202 156.379 557.079 156.24C556.962 156.096 556.805 155.973 556.607 155.872C556.415 155.771 556.194 155.683 555.943 155.608C555.693 155.533 555.437 155.453 555.175 155.368C554.914 155.283 554.658 155.184 554.407 155.072C554.157 154.96 553.933 154.819 553.735 154.648C553.543 154.477 553.386 154.269 553.263 154.024C553.146 153.779 553.087 153.48 553.087 153.128C553.087 152.813 553.151 152.512 553.279 152.224C553.413 151.936 553.602 151.683 553.847 151.464C554.098 151.245 554.405 151.072 554.767 150.944C555.135 150.811 555.554 150.744 556.023 150.744C556.562 150.744 557.047 150.829 557.479 151C557.917 151.171 558.29 151.405 558.599 151.704L558.255 152.272ZM565.208 152.272C565.166 152.341 565.12 152.392 565.072 152.424C565.024 152.451 564.963 152.464 564.888 152.464C564.803 152.464 564.707 152.435 564.6 152.376C564.499 152.317 564.374 152.253 564.224 152.184C564.08 152.115 563.91 152.051 563.712 151.992C563.515 151.933 563.28 151.904 563.008 151.904C562.784 151.904 562.579 151.933 562.392 151.992C562.211 152.045 562.056 152.123 561.928 152.224C561.8 152.32 561.702 152.437 561.632 152.576C561.563 152.709 561.528 152.853 561.528 153.008C561.528 153.211 561.587 153.379 561.704 153.512C561.827 153.645 561.984 153.76 562.176 153.856C562.374 153.952 562.595 154.04 562.84 154.12C563.091 154.195 563.344 154.275 563.6 154.36C563.862 154.445 564.115 154.544 564.36 154.656C564.611 154.763 564.832 154.899 565.024 155.064C565.222 155.224 565.379 155.419 565.496 155.648C565.619 155.877 565.68 156.157 565.68 156.488C565.68 156.867 565.611 157.219 565.472 157.544C565.339 157.864 565.139 158.141 564.872 158.376C564.611 158.611 564.286 158.795 563.896 158.928C563.507 159.061 563.062 159.128 562.56 159.128C562 159.128 561.483 159.035 561.008 158.848C560.534 158.661 560.136 158.424 559.816 158.136L560.184 157.536C560.227 157.461 560.28 157.405 560.344 157.368C560.408 157.325 560.494 157.304 560.6 157.304C560.702 157.304 560.806 157.341 560.912 157.416C561.019 157.491 561.147 157.573 561.296 157.664C561.446 157.749 561.627 157.829 561.84 157.904C562.054 157.973 562.32 158.008 562.64 158.008C562.907 158.008 563.139 157.976 563.336 157.912C563.534 157.843 563.696 157.752 563.824 157.64C563.958 157.523 564.056 157.389 564.12 157.24C564.184 157.091 564.216 156.933 564.216 156.768C564.216 156.555 564.155 156.379 564.032 156.24C563.915 156.096 563.758 155.973 563.56 155.872C563.368 155.771 563.147 155.683 562.896 155.608C562.646 155.533 562.39 155.453 562.128 155.368C561.867 155.283 561.611 155.184 561.36 155.072C561.11 154.96 560.886 154.819 560.688 154.648C560.496 154.477 560.339 154.269 560.216 154.024C560.099 153.779 560.04 153.48 560.04 153.128C560.04 152.813 560.104 152.512 560.232 152.224C560.366 151.936 560.555 151.683 560.8 151.464C561.051 151.245 561.358 151.072 561.72 150.944C562.088 150.811 562.507 150.744 562.976 150.744C563.515 150.744 564 150.829 564.432 151C564.87 151.171 565.243 151.405 565.552 151.704L565.208 152.272ZM569.001 150.872V159H567.441V150.872H569.001ZM569.297 148.36C569.297 148.504 569.268 148.643 569.209 148.776C569.151 148.904 569.071 149.019 568.969 149.12C568.873 149.216 568.759 149.293 568.625 149.352C568.492 149.405 568.353 149.432 568.209 149.432C568.065 149.432 567.929 149.405 567.801 149.352C567.673 149.293 567.559 149.216 567.457 149.12C567.361 149.019 567.284 148.904 567.225 148.776C567.172 148.643 567.145 148.504 567.145 148.36C567.145 148.211 567.172 148.072 567.225 147.944C567.284 147.811 567.361 147.696 567.457 147.6C567.559 147.499 567.673 147.421 567.801 147.368C567.929 147.309 568.065 147.28 568.209 147.28C568.353 147.28 568.492 147.309 568.625 147.368C568.759 147.421 568.873 147.499 568.969 147.6C569.071 147.696 569.151 147.811 569.209 147.944C569.268 148.072 569.297 148.211 569.297 148.36ZM578.316 150.872L575.02 159H573.612L570.316 150.872H571.604C571.727 150.872 571.828 150.901 571.908 150.96C571.988 151.019 572.041 151.093 572.068 151.184L574.012 156.176C574.081 156.384 574.14 156.592 574.188 156.8C574.241 157.003 574.289 157.205 574.332 157.408C574.375 157.205 574.423 157.003 574.476 156.8C574.529 156.597 574.593 156.389 574.668 156.176L576.636 151.184C576.668 151.093 576.724 151.019 576.804 150.96C576.884 150.901 576.98 150.872 577.092 150.872H578.316ZM584.707 154.032C584.707 153.723 584.661 153.437 584.571 153.176C584.485 152.915 584.357 152.688 584.187 152.496C584.016 152.304 583.808 152.155 583.563 152.048C583.317 151.941 583.035 151.888 582.715 151.888C582.059 151.888 581.541 152.077 581.163 152.456C580.789 152.835 580.552 153.36 580.451 154.032H584.707ZM585.995 157.84C585.803 158.064 585.581 158.259 585.331 158.424C585.08 158.584 584.813 158.715 584.531 158.816C584.248 158.917 583.955 158.992 583.651 159.04C583.352 159.088 583.056 159.112 582.763 159.112C582.203 159.112 581.683 159.019 581.203 158.832C580.728 158.64 580.315 158.363 579.963 158C579.616 157.632 579.344 157.179 579.147 156.64C578.955 156.096 578.859 155.472 578.859 154.768C578.859 154.203 578.947 153.677 579.123 153.192C579.299 152.701 579.549 152.275 579.875 151.912C580.205 151.549 580.608 151.264 581.083 151.056C581.557 150.848 582.091 150.744 582.683 150.744C583.179 150.744 583.635 150.827 584.051 150.992C584.472 151.152 584.835 151.387 585.139 151.696C585.443 152.005 585.68 152.387 585.851 152.84C586.027 153.293 586.115 153.811 586.115 154.392C586.115 154.632 586.088 154.795 586.035 154.88C585.981 154.96 585.883 155 585.739 155H580.411C580.427 155.485 580.496 155.909 580.619 156.272C580.741 156.629 580.909 156.928 581.123 157.168C581.341 157.408 581.6 157.587 581.899 157.704C582.197 157.821 582.531 157.88 582.899 157.88C583.245 157.88 583.544 157.84 583.795 157.76C584.051 157.68 584.269 157.595 584.451 157.504C584.637 157.408 584.792 157.32 584.915 157.24C585.043 157.16 585.155 157.12 585.251 157.12C585.379 157.12 585.477 157.168 585.547 157.264L585.995 157.84ZM593.398 157C593.654 157.336 593.929 157.571 594.222 157.704C594.521 157.837 594.854 157.904 595.222 157.904C595.937 157.904 596.489 157.648 596.878 157.136C597.273 156.619 597.47 155.867 597.47 154.88C597.47 154.363 597.425 153.923 597.334 153.56C597.249 153.192 597.121 152.893 596.95 152.664C596.785 152.429 596.58 152.259 596.334 152.152C596.089 152.04 595.812 151.984 595.502 151.984C595.049 151.984 594.654 152.085 594.318 152.288C593.988 152.491 593.681 152.779 593.398 153.152V157ZM593.318 152.088C593.489 151.885 593.67 151.701 593.862 151.536C594.06 151.365 594.27 151.221 594.494 151.104C594.718 150.981 594.956 150.888 595.206 150.824C595.462 150.755 595.734 150.72 596.022 150.72C596.486 150.72 596.905 150.811 597.278 150.992C597.657 151.173 597.98 151.44 598.246 151.792C598.513 152.144 598.718 152.579 598.862 153.096C599.012 153.613 599.086 154.208 599.086 154.88C599.086 155.483 599.004 156.043 598.838 156.56C598.678 157.072 598.446 157.517 598.142 157.896C597.844 158.275 597.476 158.573 597.038 158.792C596.606 159.005 596.118 159.112 595.574 159.112C595.089 159.112 594.673 159.032 594.326 158.872C593.98 158.712 593.67 158.488 593.398 158.2V161.728H591.838V150.872H592.774C592.993 150.872 593.129 150.976 593.182 151.184L593.318 152.088ZM602.398 151.904C602.74 151.557 603.116 151.277 603.526 151.064C603.942 150.851 604.42 150.744 604.958 150.744C605.406 150.744 605.798 150.819 606.134 150.968C606.476 151.117 606.761 151.328 606.99 151.6C607.22 151.867 607.393 152.189 607.51 152.568C607.628 152.947 607.686 153.365 607.686 153.824V159H606.118V153.824C606.118 153.243 605.985 152.792 605.718 152.472C605.452 152.147 605.044 151.984 604.494 151.984C604.094 151.984 603.718 152.08 603.366 152.272C603.02 152.459 602.697 152.715 602.398 153.04V159H600.838V147.192H602.398V151.904ZM613.255 150.744C613.853 150.744 614.391 150.843 614.871 151.04C615.357 151.232 615.767 151.512 616.103 151.88C616.445 152.243 616.706 152.683 616.887 153.2C617.069 153.712 617.159 154.288 617.159 154.928C617.159 155.568 617.069 156.147 616.887 156.664C616.706 157.181 616.445 157.621 616.103 157.984C615.767 158.347 615.357 158.627 614.871 158.824C614.391 159.016 613.853 159.112 613.255 159.112C612.653 159.112 612.109 159.016 611.623 158.824C611.143 158.627 610.733 158.347 610.391 157.984C610.05 157.621 609.786 157.181 609.599 156.664C609.418 156.147 609.327 155.568 609.327 154.928C609.327 154.288 609.418 153.712 609.599 153.2C609.786 152.683 610.05 152.243 610.391 151.88C610.733 151.512 611.143 151.232 611.623 151.04C612.109 150.843 612.653 150.744 613.255 150.744ZM613.255 157.896C614.023 157.896 614.597 157.637 614.975 157.12C615.354 156.603 615.543 155.875 615.543 154.936C615.543 153.997 615.354 153.269 614.975 152.752C614.597 152.229 614.023 151.968 613.255 151.968C612.477 151.968 611.895 152.229 611.511 152.752C611.133 153.269 610.943 153.997 610.943 154.936C610.943 155.875 611.133 156.603 611.511 157.12C611.895 157.637 612.477 157.896 613.255 157.896ZM620.365 152C620.541 151.813 620.725 151.643 620.917 151.488C621.109 151.333 621.311 151.203 621.525 151.096C621.743 150.984 621.975 150.899 622.221 150.84C622.471 150.776 622.738 150.744 623.021 150.744C623.469 150.744 623.861 150.819 624.197 150.968C624.538 151.117 624.823 151.328 625.053 151.6C625.282 151.867 625.455 152.189 625.573 152.568C625.69 152.947 625.749 153.365 625.749 153.824V159H624.181V153.824C624.181 153.243 624.047 152.792 623.781 152.472C623.514 152.147 623.106 151.984 622.557 151.984C622.157 151.984 621.781 152.08 621.429 152.272C621.082 152.459 620.759 152.715 620.461 153.04V159H618.901V150.872H619.837C620.055 150.872 620.191 150.976 620.245 151.184L620.365 152ZM633.238 154.032C633.238 153.723 633.192 153.437 633.102 153.176C633.016 152.915 632.888 152.688 632.718 152.496C632.547 152.304 632.339 152.155 632.094 152.048C631.848 151.941 631.566 151.888 631.246 151.888C630.59 151.888 630.072 152.077 629.694 152.456C629.32 152.835 629.083 153.36 628.982 154.032H633.238ZM634.526 157.84C634.334 158.064 634.112 158.259 633.862 158.424C633.611 158.584 633.344 158.715 633.062 158.816C632.779 158.917 632.486 158.992 632.182 159.04C631.883 159.088 631.587 159.112 631.294 159.112C630.734 159.112 630.214 159.019 629.734 158.832C629.259 158.64 628.846 158.363 628.494 158C628.147 157.632 627.875 157.179 627.678 156.64C627.486 156.096 627.39 155.472 627.39 154.768C627.39 154.203 627.478 153.677 627.654 153.192C627.83 152.701 628.08 152.275 628.406 151.912C628.736 151.549 629.139 151.264 629.614 151.056C630.088 150.848 630.622 150.744 631.214 150.744C631.71 150.744 632.166 150.827 632.582 150.992C633.003 151.152 633.366 151.387 633.67 151.696C633.974 152.005 634.211 152.387 634.382 152.84C634.558 153.293 634.646 153.811 634.646 154.392C634.646 154.632 634.619 154.795 634.566 154.88C634.512 154.96 634.414 155 634.27 155H628.942C628.958 155.485 629.027 155.909 629.15 156.272C629.272 156.629 629.44 156.928 629.654 157.168C629.872 157.408 630.131 157.587 630.43 157.704C630.728 157.821 631.062 157.88 631.43 157.88C631.776 157.88 632.075 157.84 632.326 157.76C632.582 157.68 632.8 157.595 632.982 157.504C633.168 157.408 633.323 157.32 633.446 157.24C633.574 157.16 633.686 157.12 633.782 157.12C633.91 157.12 634.008 157.168 634.078 157.264L634.526 157.84ZM647.129 150.872V159H646.193C645.98 159 645.841 158.896 645.777 158.688L645.665 157.872C645.489 158.059 645.305 158.229 645.113 158.384C644.921 158.539 644.716 158.672 644.497 158.784C644.279 158.891 644.047 158.973 643.801 159.032C643.556 159.096 643.292 159.128 643.009 159.128C642.561 159.128 642.167 159.053 641.825 158.904C641.489 158.755 641.207 158.547 640.977 158.28C640.748 158.008 640.575 157.683 640.457 157.304C640.34 156.925 640.281 156.507 640.281 156.048V150.872H641.849V156.048C641.849 156.629 641.983 157.083 642.249 157.408C642.516 157.728 642.924 157.888 643.473 157.888C643.873 157.888 644.247 157.795 644.593 157.608C644.94 157.416 645.265 157.155 645.569 156.824V150.872H647.129ZM654.099 152.272C654.056 152.341 654.011 152.392 653.963 152.424C653.915 152.451 653.854 152.464 653.779 152.464C653.694 152.464 653.598 152.435 653.491 152.376C653.39 152.317 653.264 152.253 653.115 152.184C652.971 152.115 652.8 152.051 652.603 151.992C652.406 151.933 652.171 151.904 651.899 151.904C651.675 151.904 651.47 151.933 651.283 151.992C651.102 152.045 650.947 152.123 650.819 152.224C650.691 152.32 650.592 152.437 650.523 152.576C650.454 152.709 650.419 152.853 650.419 153.008C650.419 153.211 650.478 153.379 650.595 153.512C650.718 153.645 650.875 153.76 651.067 153.856C651.264 153.952 651.486 154.04 651.731 154.12C651.982 154.195 652.235 154.275 652.491 154.36C652.752 154.445 653.006 154.544 653.251 154.656C653.502 154.763 653.723 154.899 653.915 155.064C654.112 155.224 654.27 155.419 654.387 155.648C654.51 155.877 654.571 156.157 654.571 156.488C654.571 156.867 654.502 157.219 654.363 157.544C654.23 157.864 654.03 158.141 653.763 158.376C653.502 158.611 653.176 158.795 652.787 158.928C652.398 159.061 651.952 159.128 651.451 159.128C650.891 159.128 650.374 159.035 649.899 158.848C649.424 158.661 649.027 158.424 648.707 158.136L649.075 157.536C649.118 157.461 649.171 157.405 649.235 157.368C649.299 157.325 649.384 157.304 649.491 157.304C649.592 157.304 649.696 157.341 649.803 157.416C649.91 157.491 650.038 157.573 650.187 157.664C650.336 157.749 650.518 157.829 650.731 157.904C650.944 157.973 651.211 158.008 651.531 158.008C651.798 158.008 652.03 157.976 652.227 157.912C652.424 157.843 652.587 157.752 652.715 157.64C652.848 157.523 652.947 157.389 653.011 157.24C653.075 157.091 653.107 156.933 653.107 156.768C653.107 156.555 653.046 156.379 652.923 156.24C652.806 156.096 652.648 155.973 652.451 155.872C652.259 155.771 652.038 155.683 651.787 155.608C651.536 155.533 651.28 155.453 651.019 155.368C650.758 155.283 650.502 155.184 650.251 155.072C650 154.96 649.776 154.819 649.579 154.648C649.387 154.477 649.23 154.269 649.107 154.024C648.99 153.779 648.931 153.48 648.931 153.128C648.931 152.813 648.995 152.512 649.123 152.224C649.256 151.936 649.446 151.683 649.691 151.464C649.942 151.245 650.248 151.072 650.611 150.944C650.979 150.811 651.398 150.744 651.867 150.744C652.406 150.744 652.891 150.829 653.323 151C653.76 151.171 654.134 151.405 654.443 151.704L654.099 152.272ZM661.644 154.032C661.644 153.723 661.599 153.437 661.508 153.176C661.423 152.915 661.295 152.688 661.124 152.496C660.953 152.304 660.745 152.155 660.5 152.048C660.255 151.941 659.972 151.888 659.652 151.888C658.996 151.888 658.479 152.077 658.1 152.456C657.727 152.835 657.489 153.36 657.388 154.032H661.644ZM662.932 157.84C662.74 158.064 662.519 158.259 662.268 158.424C662.017 158.584 661.751 158.715 661.468 158.816C661.185 158.917 660.892 158.992 660.588 159.04C660.289 159.088 659.993 159.112 659.7 159.112C659.14 159.112 658.62 159.019 658.14 158.832C657.665 158.64 657.252 158.363 656.9 158C656.553 157.632 656.281 157.179 656.084 156.64C655.892 156.096 655.796 155.472 655.796 154.768C655.796 154.203 655.884 153.677 656.06 153.192C656.236 152.701 656.487 152.275 656.812 151.912C657.143 151.549 657.545 151.264 658.02 151.056C658.495 150.848 659.028 150.744 659.62 150.744C660.116 150.744 660.572 150.827 660.988 150.992C661.409 151.152 661.772 151.387 662.076 151.696C662.38 152.005 662.617 152.387 662.788 152.84C662.964 153.293 663.052 153.811 663.052 154.392C663.052 154.632 663.025 154.795 662.972 154.88C662.919 154.96 662.82 155 662.676 155H657.348C657.364 155.485 657.433 155.909 657.556 156.272C657.679 156.629 657.847 156.928 658.06 157.168C658.279 157.408 658.537 157.587 658.836 157.704C659.135 157.821 659.468 157.88 659.836 157.88C660.183 157.88 660.481 157.84 660.732 157.76C660.988 157.68 661.207 157.595 661.388 157.504C661.575 157.408 661.729 157.32 661.852 157.24C661.98 157.16 662.092 157.12 662.188 157.12C662.316 157.12 662.415 157.168 662.484 157.264L662.932 157.84Z" fill="white" fill-opacity="0.9"/>
<g filter="url(#filter1_i)">
<path fill-rule="evenodd" clip-rule="evenodd" d="M309.548 4H305.865C292.893 23.2435 293.84 51.9756 308.869 92.1938C322.853 129.616 312.683 170.557 294.028 206.731C279.242 235.403 259.209 260.908 242 279H246.122C263.046 260.881 282.314 235.99 296.694 208.106C315.514 171.614 326.095 129.722 311.679 91.1437C296.26 49.8809 296.204 22.0014 309.548 4ZM402.452 279C400.354 277.623 398.397 276.168 396.578 274.635C384.44 264.415 378.55 250.936 377.039 235.463C375.532 220.033 378.373 202.592 383.684 184.295C388.998 165.985 396.816 146.721 405.341 127.62C410.675 115.671 416.305 103.745 421.779 92.1493L421.779 92.1482L421.781 92.1449C425.048 85.2239 428.259 78.4205 431.319 71.8001C439.526 54.0445 446.657 37.5725 450.988 23.425C453.19 16.2299 454.64 9.72083 455.167 4L458.179 4C457.643 10.136 456.102 16.9667 453.856 24.3031C449.461 38.6634 442.252 55.2969 434.043 73.0588C430.96 79.7277 427.739 86.5512 424.468 93.4802C419.006 105.05 413.406 116.914 408.081 128.843C399.576 147.898 391.823 167.016 386.565 185.131C381.303 203.258 378.57 220.281 380.024 235.171C381.474 250.018 387.08 262.716 398.51 272.341C401.373 274.752 404.612 276.978 408.255 279H402.452ZM699.395 4C711.545 6.81503 719.842 10.4572 725.024 14.9406C730.595 19.7598 732.495 25.4939 731.797 31.8521C731.112 38.0793 727.947 44.844 723.613 51.9498C719.703 58.3612 714.746 65.1993 709.582 72.3235C709.006 73.1176 708.428 73.9151 707.849 74.7161C702.051 82.7285 696.089 91.1057 691.012 99.7709C680.838 117.133 674.39 135.358 679.715 153.752C690.826 192.138 685.699 232.459 651.603 260.576C643.137 267.557 632.907 273.766 620.728 279H612.697C627.717 273.338 639.941 266.304 649.694 258.261C682.598 231.128 687.721 192.199 676.833 154.586C671.157 134.98 678.125 115.829 688.423 98.2542C693.582 89.4506 699.621 80.9684 705.418 72.9574C705.995 72.1604 706.569 71.3684 707.139 70.5814L707.146 70.5723C712.326 63.4263 717.208 56.69 721.052 50.3878C725.332 43.3685 728.205 37.0707 728.814 31.5245C729.409 26.1092 727.858 21.359 723.062 17.2094C718.162 12.9708 709.816 9.3116 696.718 6.47461C692.492 5.55925 687.788 4.73291 682.569 4L699.395 4Z" fill="white"/>
</g>
<g filter="url(#filter2_d)">
<rect x="492" y="199" width="100" height="30" rx="10" fill="#FFA800"/>
</g>
<path d="M517.742 208.969L513.654 219H512.436L508.348 208.969H509.433C509.554 208.969 509.652 208.999 509.727 209.06C509.801 209.121 509.857 209.198 509.895 209.291L512.723 216.368C512.783 216.527 512.842 216.699 512.898 216.886C512.958 217.073 513.012 217.269 513.059 217.474C513.105 217.269 513.154 217.073 513.206 216.886C513.257 216.699 513.313 216.527 513.374 216.368L516.195 209.291C516.223 209.212 516.276 209.139 516.356 209.074C516.44 209.004 516.54 208.969 516.657 208.969H517.742ZM520.083 211.909V219H518.837V211.909H520.083ZM520.349 209.683C520.349 209.804 520.324 209.919 520.272 210.026C520.226 210.129 520.16 210.222 520.076 210.306C519.997 210.385 519.901 210.448 519.789 210.495C519.682 210.542 519.568 210.565 519.446 210.565C519.325 210.565 519.211 210.542 519.103 210.495C519.001 210.448 518.91 210.385 518.83 210.306C518.751 210.222 518.688 210.129 518.641 210.026C518.595 209.919 518.571 209.804 518.571 209.683C518.571 209.562 518.595 209.447 518.641 209.34C518.688 209.228 518.751 209.132 518.83 209.053C518.91 208.969 519.001 208.904 519.103 208.857C519.211 208.81 519.325 208.787 519.446 208.787C519.568 208.787 519.682 208.81 519.789 208.857C519.901 208.904 519.997 208.969 520.076 209.053C520.16 209.132 520.226 209.228 520.272 209.34C520.324 209.447 520.349 209.562 520.349 209.683ZM526.877 214.681C526.877 214.392 526.835 214.128 526.751 213.89C526.671 213.647 526.552 213.44 526.394 213.267C526.24 213.09 526.051 212.954 525.827 212.861C525.603 212.763 525.348 212.714 525.064 212.714C524.466 212.714 523.993 212.889 523.643 213.239C523.297 213.584 523.083 214.065 522.999 214.681H526.877ZM527.885 218.006C527.731 218.193 527.546 218.356 527.332 218.496C527.117 218.631 526.886 218.743 526.639 218.832C526.396 218.921 526.144 218.986 525.883 219.028C525.621 219.075 525.362 219.098 525.106 219.098C524.616 219.098 524.163 219.016 523.748 218.853C523.337 218.685 522.98 218.442 522.677 218.125C522.378 217.803 522.145 217.406 521.977 216.935C521.809 216.464 521.725 215.922 521.725 215.311C521.725 214.816 521.799 214.354 521.949 213.925C522.103 213.496 522.322 213.125 522.607 212.812C522.891 212.495 523.239 212.247 523.65 212.07C524.06 211.888 524.522 211.797 525.036 211.797C525.46 211.797 525.852 211.869 526.212 212.014C526.576 212.154 526.888 212.359 527.15 212.63C527.416 212.896 527.623 213.227 527.773 213.624C527.922 214.016 527.997 214.464 527.997 214.968C527.997 215.164 527.976 215.295 527.934 215.36C527.892 215.425 527.812 215.458 527.696 215.458H522.957C522.971 215.906 523.031 216.296 523.139 216.627C523.251 216.958 523.405 217.236 523.601 217.46C523.797 217.679 524.03 217.845 524.301 217.957C524.571 218.064 524.875 218.118 525.211 218.118C525.523 218.118 525.792 218.083 526.016 218.013C526.244 217.938 526.44 217.859 526.604 217.775C526.767 217.691 526.902 217.614 527.01 217.544C527.122 217.469 527.217 217.432 527.297 217.432C527.399 217.432 527.479 217.472 527.535 217.551L527.885 218.006ZM539.238 211.909L536.942 219H535.955C535.833 219 535.749 218.921 535.703 218.762L534.135 213.953C534.097 213.846 534.067 213.738 534.044 213.631C534.02 213.519 533.997 213.409 533.974 213.302C533.95 213.409 533.927 213.519 533.904 213.631C533.88 213.738 533.85 213.848 533.813 213.96L532.217 218.762C532.175 218.921 532.081 219 531.937 219H530.999L528.703 211.909H529.683C529.781 211.909 529.862 211.935 529.928 211.986C529.998 212.037 530.044 212.098 530.068 212.168L531.426 216.732C531.505 217.068 531.568 217.385 531.615 217.684C531.657 217.53 531.699 217.374 531.741 217.215C531.787 217.056 531.836 216.895 531.888 216.732L533.386 212.14C533.409 212.07 533.449 212.012 533.505 211.965C533.565 211.918 533.638 211.895 533.722 211.895H534.268C534.361 211.895 534.438 211.918 534.499 211.965C534.559 212.012 534.601 212.07 534.625 212.14L536.088 216.732C536.139 216.895 536.186 217.056 536.228 217.215C536.27 217.374 536.309 217.53 536.347 217.684C536.37 217.53 536.398 217.376 536.431 217.222C536.468 217.063 536.508 216.9 536.55 216.732L537.936 212.168C537.959 212.093 538.003 212.033 538.069 211.986C538.134 211.935 538.211 211.909 538.3 211.909H539.238ZM554.477 208.969V219H553.287V211.629C553.287 211.531 553.289 211.426 553.294 211.314C553.303 211.202 553.312 211.088 553.322 210.971L549.878 217.243C549.77 217.453 549.607 217.558 549.388 217.558H549.192C548.972 217.558 548.809 217.453 548.702 217.243L545.188 210.943C545.216 211.19 545.23 211.419 545.23 211.629V219H544.04V208.969H545.041C545.162 208.969 545.255 208.981 545.321 209.004C545.386 209.027 545.449 209.093 545.51 209.2L548.975 215.374C549.031 215.486 549.084 215.603 549.136 215.724C549.192 215.845 549.243 215.969 549.29 216.095C549.336 215.969 549.385 215.845 549.437 215.724C549.488 215.598 549.544 215.479 549.605 215.367L553.007 209.2C553.063 209.093 553.123 209.027 553.189 209.004C553.259 208.981 553.354 208.969 553.476 208.969H554.477ZM559.518 211.797C560.036 211.797 560.503 211.883 560.918 212.056C561.333 212.229 561.688 212.474 561.982 212.791C562.276 213.108 562.5 213.493 562.654 213.946C562.813 214.394 562.892 214.896 562.892 215.451C562.892 216.011 562.813 216.515 562.654 216.963C562.5 217.411 562.276 217.794 561.982 218.111C561.688 218.428 561.333 218.673 560.918 218.846C560.503 219.014 560.036 219.098 559.518 219.098C558.995 219.098 558.524 219.014 558.104 218.846C557.689 218.673 557.334 218.428 557.04 218.111C556.746 217.794 556.52 217.411 556.361 216.963C556.207 216.515 556.13 216.011 556.13 215.451C556.13 214.896 556.207 214.394 556.361 213.946C556.52 213.493 556.746 213.108 557.04 212.791C557.334 212.474 557.689 212.229 558.104 212.056C558.524 211.883 558.995 211.797 559.518 211.797ZM559.518 218.125C560.218 218.125 560.741 217.892 561.086 217.425C561.431 216.954 561.604 216.298 561.604 215.458C561.604 214.613 561.431 213.955 561.086 213.484C560.741 213.013 560.218 212.777 559.518 212.777C559.163 212.777 558.853 212.838 558.587 212.959C558.326 213.08 558.106 213.255 557.929 213.484C557.756 213.713 557.626 213.995 557.537 214.331C557.453 214.662 557.411 215.038 557.411 215.458C557.411 216.298 557.584 216.954 557.929 217.425C558.279 217.892 558.809 218.125 559.518 218.125ZM565.655 213.33C565.879 212.845 566.155 212.467 566.481 212.196C566.808 211.921 567.207 211.783 567.678 211.783C567.828 211.783 567.97 211.799 568.105 211.832C568.245 211.865 568.369 211.916 568.476 211.986L568.385 212.917C568.357 213.034 568.287 213.092 568.175 213.092C568.11 213.092 568.014 213.078 567.888 213.05C567.762 213.022 567.62 213.008 567.461 213.008C567.237 213.008 567.037 213.041 566.859 213.106C566.687 213.171 566.53 213.269 566.39 213.4C566.255 213.526 566.131 213.685 566.019 213.876C565.912 214.063 565.814 214.277 565.725 214.52V219H564.472V211.909H565.186C565.322 211.909 565.415 211.935 565.466 211.986C565.518 212.037 565.553 212.126 565.571 212.252L565.655 213.33ZM574.031 214.681C574.031 214.392 573.989 214.128 573.905 213.89C573.826 213.647 573.707 213.44 573.548 213.267C573.394 213.09 573.205 212.954 572.981 212.861C572.757 212.763 572.503 212.714 572.218 212.714C571.621 212.714 571.147 212.889 570.797 213.239C570.452 213.584 570.237 214.065 570.153 214.681H574.031ZM575.039 218.006C574.885 218.193 574.701 218.356 574.486 218.496C574.271 218.631 574.04 218.743 573.793 218.832C573.55 218.921 573.298 218.986 573.037 219.028C572.776 219.075 572.517 219.098 572.26 219.098C571.77 219.098 571.317 219.016 570.902 218.853C570.491 218.685 570.134 218.442 569.831 218.125C569.532 217.803 569.299 217.406 569.131 216.935C568.963 216.464 568.879 215.922 568.879 215.311C568.879 214.816 568.954 214.354 569.103 213.925C569.257 213.496 569.476 213.125 569.761 212.812C570.046 212.495 570.393 212.247 570.804 212.07C571.215 211.888 571.677 211.797 572.19 211.797C572.615 211.797 573.007 211.869 573.366 212.014C573.73 212.154 574.043 212.359 574.304 212.63C574.57 212.896 574.778 213.227 574.927 213.624C575.076 214.016 575.151 214.464 575.151 214.968C575.151 215.164 575.13 215.295 575.088 215.36C575.046 215.425 574.967 215.458 574.85 215.458H570.111C570.125 215.906 570.186 216.296 570.293 216.627C570.405 216.958 570.559 217.236 570.755 217.46C570.951 217.679 571.184 217.845 571.455 217.957C571.726 218.064 572.029 218.118 572.365 218.118C572.678 218.118 572.946 218.083 573.17 218.013C573.399 217.938 573.595 217.859 573.758 217.775C573.921 217.691 574.057 217.614 574.164 217.544C574.276 217.469 574.372 217.432 574.451 217.432C574.554 217.432 574.633 217.472 574.689 217.551L575.039 218.006Z" fill="white"/>
<defs>
<filter id="filter0_dd" x="0" y="0" width="763" height="288" filterUnits="userSpaceOnUse" color-interpolation-filters="sRGB">
<feFlood flood-opacity="0" result="BackgroundImageFix"/>
<feColorMatrix in="SourceAlpha" type="matrix" values="0 0 0 0 0 0 0 0 0 0 0 0 0 0 0 0 0 0 127 0"/>
<feOffset dx="4" dy="4"/>
<feGaussianBlur stdDeviation="2.5"/>
<feColorMatrix type="matrix" values="0 0 0 0 0 0 0 0 0 0 0 0 0 0 0 0 0 0 0.25 0"/>
<feBlend mode="normal" in2="BackgroundImageFix" result="effect1_dropShadow"/>
<feColorMatrix in="SourceAlpha" type="matrix" values="0 0 0 0 0 0 0 0 0 0 0 0 0 0 0 0 0 0 127 0"/>
<feOffset dx="-2" dy="-2"/>
<feGaussianBlur stdDeviation="1"/>
<feColorMatrix type="matrix" values="0 0 0 0 0 0 0 0 0 0 0 0 0 0 0 0 0 0 0.25 0"/>
<feBlend mode="normal" in2="effect1_dropShadow" result="effect2_dropShadow"/>
<feBlend mode="normal" in="SourceGraphic" in2="effect2_dropShadow" result="shape"/>
</filter>
<filter id="filter1_i" x="242" y="4" width="491.935" height="277" filterUnits="userSpaceOnUse" color-interpolation-filters="sRGB">
<feFlood flood-opacity="0" result="BackgroundImageFix"/>
<feBlend mode="normal" in="SourceGraphic" in2="BackgroundImageFix" result="shape"/>
<feColorMatrix in="SourceAlpha" type="matrix" values="0 0 0 0 0 0 0 0 0 0 0 0 0 0 0 0 0 0 127 0" result="hardAlpha"/>
<feOffset dx="2" dy="4"/>
<feGaussianBlur stdDeviation="1"/>
<feComposite in2="hardAlpha" operator="arithmetic" k2="-1" k3="1"/>
<feColorMatrix type="matrix" values="0 0 0 0 0.113785 0 0 0 0 0.116421 0 0 0 0 0.117904 0 0 0 0.25 0"/>
<feBlend mode="normal" in2="shape" result="effect1_innerShadow"/>
</filter>
<filter id="filter2_d" x="492" y="199" width="104" height="34" filterUnits="userSpaceOnUse" color-interpolation-filters="sRGB">
<feFlood flood-opacity="0" result="BackgroundImageFix"/>
<feColorMatrix in="SourceAlpha" type="matrix" values="0 0 0 0 0 0 0 0 0 0 0 0 0 0 0 0 0 0 127 0"/>
<feOffset dx="2" dy="2"/>
<feGaussianBlur stdDeviation="1"/>
<feColorMatrix type="matrix" values="0 0 0 0 0 0 0 0 0 0 0 0 0 0 0 0 0 0 0.25 0"/>
<feBlend mode="normal" in2="BackgroundImageFix" result="effect1_dropShadow"/>
<feBlend mode="normal" in="SourceGraphic" in2="effect1_dropShadow" result="shape"/>
</filter>
</defs>
</svg>
