<?xml version="1.0" encoding="utf-8"?>
<!-- Generator: Adobe Illustrator 22.0.1, SVG Export Plug-In . SVG Version: 6.00 Build 0)  -->
<svg version="1.1" id="Layer_1" xmlns="http://www.w3.org/2000/svg" xmlns:xlink="http://www.w3.org/1999/xlink" x="0px" y="0px"
	 width="275px" height="175px" viewBox="0 0 275 175" style="enable-background:new 0 0 275 175;" xml:space="preserve">
<style type="text/css">
	.st0{fill:none;}
	.st1{fill:#FFD789;}
	.st2{fill:url(#SVGID_1_);}
</style>
<pattern  width="394.8" height="439.8" patternUnits="userSpaceOnUse" id="New_Pattern_4" viewBox="13.1 -439.8 394.8 439.8" style="overflow:visible;">
	<g>
		<rect x="13.1" y="-439.8" class="st0" width="394.8" height="439.8"/>
		<g>
			<path d="M323-23.3c-0.3,0-0.6,0.2-0.7,0.6l-0.5,2.8c0,0.3-0.3,0.5-0.6,0.6l-2.8,0.5c-0.8,0.1-0.8,1.3,0,1.4l2.8,0.5
				c0.3,0,0.5,0.3,0.6,0.6l0.5,2.8c0.1,0.4,0.4,0.6,0.7,0.6s0.6-0.2,0.7-0.6l0.5-2.8c0-0.3,0.3-0.5,0.6-0.6l2.8-0.5
				c0.8-0.1,0.8-1.3,0-1.4l-2.8-0.5c-0.3,0-0.5-0.3-0.6-0.6l-0.5-2.8C323.6-23.1,323.3-23.3,323-23.3 M323-25.3c1.3,0,2.5,1,2.7,2.3
				l0.3,1.9l1.9,0.3c1.3,0.2,2.3,1.3,2.3,2.7s-1,2.5-2.3,2.7l-1.9,0.3l-0.3,1.9c-0.2,1.3-1.3,2.3-2.7,2.3c-1.3,0-2.5-1-2.7-2.3
				l-0.3-1.9l-1.9-0.3c-1.3-0.2-2.3-1.3-2.3-2.7s1-2.5,2.3-2.7l1.9-0.3l0.3-1.9C320.5-24.4,321.7-25.3,323-25.3L323-25.3z"/>
			<path d="M374.4-75c-0.3,0-0.6,0.2-0.7,0.6l-0.5,2.8c0,0.3-0.3,0.5-0.6,0.6l-2.8,0.5c-0.8,0.1-0.8,1.3,0,1.4l2.8,0.5
				c0.3,0,0.5,0.3,0.6,0.6l0.5,2.8c0.1,0.4,0.4,0.6,0.7,0.6s0.6-0.2,0.7-0.6l0.5-2.8c0-0.3,0.3-0.5,0.6-0.6l2.8-0.5
				c0.8-0.1,0.8-1.3,0-1.4l-2.8-0.5c-0.3,0-0.5-0.3-0.6-0.6l-0.5-2.8C375-74.8,374.7-75,374.4-75 M374.4-77c1.3,0,2.5,1,2.7,2.3
				l0.3,1.9l1.9,0.3c1.3,0.2,2.3,1.3,2.3,2.7s-1,2.5-2.3,2.7l-1.9,0.3l-0.3,1.9c-0.2,1.3-1.3,2.3-2.7,2.3c-1.3,0-2.5-1-2.7-2.3
				l-0.3-1.9l-1.9-0.3c-1.3-0.2-2.3-1.3-2.3-2.7s1-2.5,2.3-2.7l1.9-0.3l0.3-1.9C371.9-76,373-77,374.4-77L374.4-77z"/>
			<path d="M374.6-20.7c-1.4,0-2.5,1.1-2.5,2.5c0,1.4,1.1,2.5,2.5,2.5s2.5-1.1,2.5-2.5C377.1-19.5,376-20.7,374.6-20.7 M374.6-22.7
				c2.5,0,4.5,2,4.5,4.5s-2,4.5-4.5,4.5c-2.5,0-4.5-2-4.5-4.5S372.2-22.7,374.6-22.7L374.6-22.7z"/>
			<path d="M322.7-72.3c-1.4,0-2.5,1.1-2.5,2.5c0,1.4,1.1,2.5,2.5,2.5s2.5-1.1,2.5-2.5C325.2-71.2,324.1-72.3,322.7-72.3
				 M322.7-74.3c2.5,0,4.5,2,4.5,4.5s-2,4.5-4.5,4.5c-2.5,0-4.5-2-4.5-4.5S320.2-74.3,322.7-74.3L322.7-74.3z"/>
		</g>
		<g>
			<path d="M224.3-23.3c-0.3,0-0.6,0.2-0.7,0.6l-0.5,2.8c0,0.3-0.3,0.5-0.6,0.6l-2.8,0.5c-0.8,0.1-0.8,1.3,0,1.4l2.8,0.5
				c0.3,0,0.5,0.3,0.6,0.6l0.5,2.8c0.1,0.4,0.4,0.6,0.7,0.6c0.3,0,0.6-0.2,0.7-0.6l0.5-2.8c0-0.3,0.3-0.5,0.6-0.6l2.8-0.5
				c0.8-0.1,0.8-1.3,0-1.4l-2.8-0.5c-0.3,0-0.5-0.3-0.6-0.6l-0.5-2.8C224.9-23.1,224.6-23.3,224.3-23.3 M224.3-25.3
				c1.3,0,2.5,1,2.7,2.3l0.3,1.9l1.9,0.3c1.3,0.2,2.3,1.3,2.3,2.7s-1,2.5-2.3,2.7l-1.9,0.3l-0.3,1.9c-0.2,1.3-1.3,2.3-2.7,2.3
				c-1.3,0-2.5-1-2.7-2.3l-0.3-1.9l-1.9-0.3c-1.3-0.2-2.3-1.3-2.3-2.7s1-2.5,2.3-2.7l1.9-0.3l0.3-1.9
				C221.8-24.4,223-25.3,224.3-25.3L224.3-25.3z"/>
			<path d="M275.7-75c-0.3,0-0.6,0.2-0.7,0.6l-0.5,2.8c0,0.3-0.3,0.5-0.6,0.6l-2.8,0.5c-0.8,0.1-0.8,1.3,0,1.4l2.8,0.5
				c0.3,0,0.5,0.3,0.6,0.6l0.5,2.8c0.1,0.4,0.4,0.6,0.7,0.6s0.6-0.2,0.7-0.6l0.5-2.8c0-0.3,0.3-0.5,0.6-0.6l2.8-0.5
				c0.8-0.1,0.8-1.3,0-1.4l-2.8-0.5c-0.3,0-0.5-0.3-0.6-0.6l-0.5-2.8C276.3-74.8,276-75,275.7-75 M275.7-77c1.3,0,2.5,1,2.7,2.3
				l0.3,1.9l1.9,0.3c1.3,0.2,2.3,1.3,2.3,2.7s-1,2.5-2.3,2.7l-1.9,0.3l-0.3,1.9c-0.2,1.3-1.3,2.3-2.7,2.3c-1.3,0-2.5-1-2.7-2.3
				l-0.3-1.9l-1.9-0.3c-1.3-0.2-2.3-1.3-2.3-2.7s1-2.5,2.3-2.7l1.9-0.3l0.3-1.9C273.2-76,274.3-77,275.7-77L275.7-77z"/>
			<path d="M275.9-20.7c-1.4,0-2.5,1.1-2.5,2.5c0,1.4,1.1,2.5,2.5,2.5s2.5-1.1,2.5-2.5C278.4-19.5,277.3-20.7,275.9-20.7
				 M275.9-22.7c2.5,0,4.5,2,4.5,4.5s-2,4.5-4.5,4.5c-2.5,0-4.5-2-4.5-4.5S273.5-22.7,275.9-22.7L275.9-22.7z"/>
			<path d="M224-72.3c-1.4,0-2.5,1.1-2.5,2.5c0,1.4,1.1,2.5,2.5,2.5s2.5-1.1,2.5-2.5C226.5-71.2,225.4-72.3,224-72.3 M224-74.3
				c2.5,0,4.5,2,4.5,4.5s-2,4.5-4.5,4.5s-4.5-2-4.5-4.5S221.5-74.3,224-74.3L224-74.3z"/>
		</g>
		<g>
			<path d="M125.6-23.3c-0.3,0-0.6,0.2-0.7,0.6l-0.5,2.8c0,0.3-0.3,0.5-0.6,0.6l-2.8,0.5c-0.8,0.1-0.8,1.3,0,1.4l2.8,0.5
				c0.3,0,0.5,0.3,0.6,0.6l0.5,2.8c0.1,0.4,0.4,0.6,0.7,0.6c0.3,0,0.6-0.2,0.7-0.6l0.5-2.8c0-0.3,0.3-0.5,0.6-0.6l2.8-0.5
				c0.8-0.1,0.8-1.3,0-1.4l-2.8-0.5c-0.3,0-0.5-0.3-0.6-0.6l-0.5-2.8C126.2-23.1,125.9-23.3,125.6-23.3 M125.6-25.3
				c1.3,0,2.5,1,2.7,2.3l0.3,1.9l1.9,0.3c1.3,0.2,2.3,1.3,2.3,2.7s-1,2.5-2.3,2.7l-1.9,0.3l-0.3,1.9c-0.2,1.3-1.3,2.3-2.7,2.3
				c-1.3,0-2.5-1-2.7-2.3l-0.3-1.9l-1.9-0.3c-1.3-0.2-2.3-1.3-2.3-2.7s1-2.5,2.3-2.7l1.9-0.3l0.3-1.9
				C123.1-24.4,124.3-25.3,125.6-25.3L125.6-25.3z"/>
			<path d="M177-75c-0.3,0-0.6,0.2-0.7,0.6l-0.5,2.8c0,0.3-0.3,0.5-0.6,0.6l-2.8,0.5c-0.8,0.1-0.8,1.3,0,1.4l2.8,0.5
				c0.3,0,0.5,0.3,0.6,0.6l0.5,2.8c0.1,0.4,0.4,0.6,0.7,0.6c0.3,0,0.6-0.2,0.7-0.6l0.5-2.8c0-0.3,0.3-0.5,0.6-0.6l2.8-0.5
				c0.8-0.1,0.8-1.3,0-1.4l-2.8-0.5c-0.3,0-0.5-0.3-0.6-0.6l-0.5-2.8C177.6-74.8,177.3-75,177-75 M177-77c1.3,0,2.5,1,2.7,2.3
				l0.3,1.9l1.9,0.3c1.3,0.2,2.3,1.3,2.3,2.7s-1,2.5-2.3,2.7l-1.9,0.3l-0.3,1.9c-0.2,1.3-1.3,2.3-2.7,2.3c-1.3,0-2.5-1-2.7-2.3
				l-0.3-1.9l-1.9-0.3c-1.3-0.2-2.3-1.3-2.3-2.7s1-2.5,2.3-2.7l1.9-0.3l0.3-1.9C174.5-76,175.6-77,177-77L177-77z"/>
			<path d="M177.2-20.7c-1.4,0-2.5,1.1-2.5,2.5c0,1.4,1.1,2.5,2.5,2.5c1.4,0,2.5-1.1,2.5-2.5C179.7-19.5,178.6-20.7,177.2-20.7
				 M177.2-22.7c2.5,0,4.5,2,4.5,4.5s-2,4.5-4.5,4.5s-4.5-2-4.5-4.5S174.8-22.7,177.2-22.7L177.2-22.7z"/>
			<path d="M125.3-72.3c-1.4,0-2.5,1.1-2.5,2.5c0,1.4,1.1,2.5,2.5,2.5s2.5-1.1,2.5-2.5C127.8-71.2,126.7-72.3,125.3-72.3
				 M125.3-74.3c2.5,0,4.5,2,4.5,4.5s-2,4.5-4.5,4.5s-4.5-2-4.5-4.5S122.8-74.3,125.3-74.3L125.3-74.3z"/>
		</g>
		<g>
			<path d="M26.9-23.3c-0.3,0-0.6,0.2-0.7,0.6l-0.5,2.8c0,0.3-0.3,0.5-0.6,0.6l-2.8,0.5c-0.8,0.1-0.8,1.3,0,1.4l2.8,0.5
				c0.3,0,0.5,0.3,0.6,0.6l0.5,2.8c0.1,0.4,0.4,0.6,0.7,0.6c0.3,0,0.6-0.2,0.7-0.6l0.5-2.8c0-0.3,0.3-0.5,0.6-0.6l2.8-0.5
				c0.8-0.1,0.8-1.3,0-1.4l-2.8-0.5c-0.3,0-0.5-0.3-0.6-0.6l-0.5-2.8C27.5-23.1,27.2-23.3,26.9-23.3 M26.9-25.3c1.3,0,2.5,1,2.7,2.3
				l0.3,1.9l1.9,0.3c1.3,0.2,2.3,1.3,2.3,2.7s-1,2.5-2.3,2.7l-1.9,0.3l-0.3,1.9C29.3-12,28.2-11,26.9-11c-1.3,0-2.5-1-2.7-2.3
				l-0.3-1.9L22-15.5c-1.3-0.2-2.3-1.3-2.3-2.7s1-2.5,2.3-2.7l1.9-0.3l0.3-1.9C24.4-24.4,25.6-25.3,26.9-25.3L26.9-25.3z"/>
			<path d="M78.3-75c-0.3,0-0.6,0.2-0.7,0.6l-0.5,2.8c0,0.3-0.3,0.5-0.6,0.6l-2.8,0.5c-0.8,0.1-0.8,1.3,0,1.4l2.8,0.5
				c0.3,0,0.5,0.3,0.6,0.6l0.5,2.8c0.1,0.4,0.4,0.6,0.7,0.6c0.3,0,0.6-0.2,0.7-0.6l0.5-2.8c0-0.3,0.3-0.5,0.6-0.6l2.8-0.5
				c0.8-0.1,0.8-1.3,0-1.4L80-71c-0.3,0-0.5-0.3-0.6-0.6L79-74.4C78.9-74.8,78.6-75,78.3-75 M78.3-77c1.3,0,2.5,1,2.7,2.3l0.3,1.9
				l1.9,0.3c1.3,0.2,2.3,1.3,2.3,2.7s-1,2.5-2.3,2.7l-1.9,0.3l-0.3,1.9c-0.2,1.3-1.3,2.3-2.7,2.3c-1.3,0-2.5-1-2.7-2.3l-0.3-1.9
				l-1.9-0.3c-1.3-0.2-2.3-1.3-2.3-2.7s1-2.5,2.3-2.7l1.9-0.3l0.3-1.9C75.8-76,77-77,78.3-77L78.3-77z"/>
			<path d="M78.5-20.7c-1.4,0-2.5,1.1-2.5,2.5c0,1.4,1.1,2.5,2.5,2.5c1.4,0,2.5-1.1,2.5-2.5C81-19.5,79.9-20.7,78.5-20.7 M78.5-22.7
				c2.5,0,4.5,2,4.5,4.5s-2,4.5-4.5,4.5s-4.5-2-4.5-4.5S76.1-22.7,78.5-22.7L78.5-22.7z"/>
			<path d="M26.6-72.3c-1.4,0-2.5,1.1-2.5,2.5c0,1.4,1.1,2.5,2.5,2.5s2.5-1.1,2.5-2.5C29.1-71.2,28-72.3,26.6-72.3 M26.6-74.3
				c2.5,0,4.5,2,4.5,4.5s-2,4.5-4.5,4.5s-4.5-2-4.5-4.5S24.1-74.3,26.6-74.3L26.6-74.3z"/>
		</g>
		<g>
			<path d="M401.9-111.3c-0.3,0-0.6,0.2-0.7,0.6l-0.5,2.8c0,0.3-0.3,0.5-0.6,0.6l-2.8,0.5c-0.8,0.1-0.8,1.3,0,1.4l2.8,0.5
				c0.3,0,0.5,0.3,0.6,0.6l0.5,2.8c0.1,0.4,0.4,0.6,0.7,0.6s0.6-0.2,0.7-0.6l0.5-2.8c0-0.3,0.3-0.5,0.6-0.6l2.8-0.5
				c0.8-0.1,0.8-1.3,0-1.4l-2.8-0.5c-0.3,0-0.5-0.3-0.6-0.6l-0.5-2.8C402.6-111.1,402.3-111.3,401.9-111.3 M401.9-113.3
				c1.3,0,2.5,1,2.7,2.3l0.3,1.9l1.9,0.3c1.3,0.2,2.3,1.3,2.3,2.7s-1,2.5-2.3,2.7l-1.9,0.3l-0.3,1.9c-0.2,1.3-1.3,2.3-2.7,2.3
				c-1.3,0-2.5-1-2.7-2.3l-0.3-1.9l-1.9-0.3c-1.3-0.2-2.3-1.3-2.3-2.7s1-2.5,2.3-2.7l1.9-0.3l0.3-1.9
				C399.5-112.3,400.6-113.3,401.9-113.3L401.9-113.3z"/>
			<path d="M401.7-160.3c-1.4,0-2.5,1.1-2.5,2.5c0,1.4,1.1,2.5,2.5,2.5s2.5-1.1,2.5-2.5C404.2-159.2,403.1-160.3,401.7-160.3
				 M401.7-162.3c2.5,0,4.5,2,4.5,4.5s-2,4.5-4.5,4.5c-2.5,0-4.5-2-4.5-4.5S399.2-162.3,401.7-162.3L401.7-162.3z"/>
		</g>
		<g>
			<path d="M303.2-111.3c-0.3,0-0.6,0.2-0.7,0.6l-0.5,2.8c0,0.3-0.3,0.5-0.6,0.6l-2.8,0.5c-0.8,0.1-0.8,1.3,0,1.4l2.8,0.5
				c0.3,0,0.5,0.3,0.6,0.6l0.5,2.8c0.1,0.4,0.4,0.6,0.7,0.6s0.6-0.2,0.7-0.6l0.5-2.8c0-0.3,0.3-0.5,0.6-0.6l2.8-0.5
				c0.8-0.1,0.8-1.3,0-1.4l-2.8-0.5c-0.3,0-0.5-0.3-0.6-0.6l-0.5-2.8C303.9-111.1,303.6-111.3,303.2-111.3 M303.2-113.3
				c1.3,0,2.5,1,2.7,2.3l0.3,1.9l1.9,0.3c1.3,0.2,2.3,1.3,2.3,2.7s-1,2.5-2.3,2.7l-1.9,0.3l-0.3,1.9c-0.2,1.3-1.3,2.3-2.7,2.3
				c-1.3,0-2.5-1-2.7-2.3l-0.3-1.9l-1.9-0.3c-1.3-0.2-2.3-1.3-2.3-2.7s1-2.5,2.3-2.7l1.9-0.3l0.3-1.9
				C300.8-112.3,301.9-113.3,303.2-113.3L303.2-113.3z"/>
			<path d="M354.6-162.9c-0.3,0-0.6,0.2-0.7,0.6l-0.5,2.8c0,0.3-0.3,0.5-0.6,0.6l-2.8,0.5c-0.8,0.1-0.8,1.3,0,1.4l2.8,0.5
				c0.3,0,0.5,0.3,0.6,0.6l0.5,2.8c0.1,0.4,0.4,0.6,0.7,0.6s0.6-0.2,0.7-0.6l0.5-2.8c0-0.3,0.3-0.5,0.6-0.6l2.8-0.5
				c0.8-0.1,0.8-1.3,0-1.4l-2.8-0.5c-0.3,0-0.5-0.3-0.6-0.6l-0.5-2.8C355.3-162.7,354.9-162.9,354.6-162.9 M354.6-164.9
				c1.3,0,2.5,1,2.7,2.3l0.3,1.9l1.9,0.3c1.3,0.2,2.3,1.3,2.3,2.7s-1,2.5-2.3,2.7l-1.9,0.3l-0.3,1.9c-0.2,1.3-1.3,2.3-2.7,2.3
				c-1.3,0-2.5-1-2.7-2.3l-0.3-1.9l-1.9-0.3c-1.3-0.2-2.3-1.3-2.3-2.7s1-2.5,2.3-2.7l1.9-0.3l0.3-1.9
				C352.2-164,353.3-164.9,354.6-164.9L354.6-164.9z"/>
			<path d="M354.9-108.6c-1.4,0-2.5,1.1-2.5,2.5c0,1.4,1.1,2.5,2.5,2.5s2.5-1.1,2.5-2.5C357.4-107.5,356.3-108.6,354.9-108.6
				 M354.9-110.6c2.5,0,4.5,2,4.5,4.5s-2,4.5-4.5,4.5c-2.5,0-4.5-2-4.5-4.5S352.4-110.6,354.9-110.6L354.9-110.6z"/>
			<path d="M303-160.3c-1.4,0-2.5,1.1-2.5,2.5c0,1.4,1.1,2.5,2.5,2.5s2.5-1.1,2.5-2.5C305.5-159.2,304.4-160.3,303-160.3 M303-162.3
				c2.5,0,4.5,2,4.5,4.5s-2,4.5-4.5,4.5c-2.5,0-4.5-2-4.5-4.5S300.5-162.3,303-162.3L303-162.3z"/>
		</g>
		<g>
			<path d="M204.5-111.3c-0.3,0-0.6,0.2-0.7,0.6l-0.5,2.8c0,0.3-0.3,0.5-0.6,0.6l-2.8,0.5c-0.8,0.1-0.8,1.3,0,1.4l2.8,0.5
				c0.3,0,0.5,0.3,0.6,0.6l0.5,2.8c0.1,0.4,0.4,0.6,0.7,0.6c0.3,0,0.6-0.2,0.7-0.6l0.5-2.8c0-0.3,0.3-0.5,0.6-0.6l2.8-0.5
				c0.8-0.1,0.8-1.3,0-1.4l-2.8-0.5c-0.3,0-0.5-0.3-0.6-0.6l-0.5-2.8C205.2-111.1,204.9-111.3,204.5-111.3 M204.5-113.3
				c1.3,0,2.5,1,2.7,2.3l0.3,1.9l1.9,0.3c1.3,0.2,2.3,1.3,2.3,2.7s-1,2.5-2.3,2.7l-1.9,0.3l-0.3,1.9c-0.2,1.3-1.3,2.3-2.7,2.3
				c-1.3,0-2.5-1-2.7-2.3l-0.3-1.9l-1.9-0.3c-1.3-0.2-2.3-1.3-2.3-2.7s1-2.5,2.3-2.7l1.9-0.3l0.3-1.9
				C202.1-112.3,203.2-113.3,204.5-113.3L204.5-113.3z"/>
			<path d="M255.9-162.9c-0.3,0-0.6,0.2-0.7,0.6l-0.5,2.8c0,0.3-0.3,0.5-0.6,0.6l-2.8,0.5c-0.8,0.1-0.8,1.3,0,1.4l2.8,0.5
				c0.3,0,0.5,0.3,0.6,0.6l0.5,2.8c0.1,0.4,0.4,0.6,0.7,0.6c0.3,0,0.6-0.2,0.7-0.6l0.5-2.8c0-0.3,0.3-0.5,0.6-0.6l2.8-0.5
				c0.8-0.1,0.8-1.3,0-1.4l-2.8-0.5c-0.3,0-0.5-0.3-0.6-0.6l-0.5-2.8C256.6-162.7,256.2-162.9,255.9-162.9 M255.9-164.9
				c1.3,0,2.5,1,2.7,2.3l0.3,1.9l1.9,0.3c1.3,0.2,2.3,1.3,2.3,2.7s-1,2.5-2.3,2.7l-1.9,0.3l-0.3,1.9c-0.2,1.3-1.3,2.3-2.7,2.3
				c-1.3,0-2.5-1-2.7-2.3l-0.3-1.9l-1.9-0.3c-1.3-0.2-2.3-1.3-2.3-2.7s1-2.5,2.3-2.7l1.9-0.3l0.3-1.9
				C253.5-164,254.6-164.9,255.9-164.9L255.9-164.9z"/>
			<path d="M256.2-108.6c-1.4,0-2.5,1.1-2.5,2.5c0,1.4,1.1,2.5,2.5,2.5s2.5-1.1,2.5-2.5C258.7-107.5,257.6-108.6,256.2-108.6
				 M256.2-110.6c2.5,0,4.5,2,4.5,4.5s-2,4.5-4.5,4.5c-2.5,0-4.5-2-4.5-4.5S253.7-110.6,256.2-110.6L256.2-110.6z"/>
			<path d="M204.3-160.3c-1.4,0-2.5,1.1-2.5,2.5c0,1.4,1.1,2.5,2.5,2.5s2.5-1.1,2.5-2.5C206.8-159.2,205.7-160.3,204.3-160.3
				 M204.3-162.3c2.5,0,4.5,2,4.5,4.5s-2,4.5-4.5,4.5s-4.5-2-4.5-4.5S201.8-162.3,204.3-162.3L204.3-162.3z"/>
		</g>
		<g>
			<path d="M105.9-111.3c-0.3,0-0.6,0.2-0.7,0.6l-0.5,2.8c0,0.3-0.3,0.5-0.6,0.6l-2.8,0.5c-0.8,0.1-0.8,1.3,0,1.4l2.8,0.5
				c0.3,0,0.5,0.3,0.6,0.6l0.5,2.8c0.1,0.4,0.4,0.6,0.7,0.6c0.3,0,0.6-0.2,0.7-0.6l0.5-2.8c0-0.3,0.3-0.5,0.6-0.6l2.8-0.5
				c0.8-0.1,0.8-1.3,0-1.4l-2.8-0.5c-0.3,0-0.5-0.3-0.6-0.6l-0.5-2.8C106.5-111.1,106.2-111.3,105.9-111.3 M105.9-113.3
				c1.3,0,2.5,1,2.7,2.3l0.3,1.9l1.9,0.3c1.3,0.2,2.3,1.3,2.3,2.7s-1,2.5-2.3,2.7l-1.9,0.3l-0.3,1.9c-0.2,1.3-1.3,2.3-2.7,2.3
				c-1.3,0-2.5-1-2.7-2.3l-0.3-1.9l-1.9-0.3c-1.3-0.2-2.3-1.3-2.3-2.7s1-2.5,2.3-2.7l1.9-0.3l0.3-1.9
				C103.4-112.3,104.5-113.3,105.9-113.3L105.9-113.3z"/>
			<path d="M157.2-162.9c-0.3,0-0.6,0.2-0.7,0.6l-0.5,2.8c0,0.3-0.3,0.5-0.6,0.6l-2.8,0.5c-0.8,0.1-0.8,1.3,0,1.4l2.8,0.5
				c0.3,0,0.5,0.3,0.6,0.6l0.5,2.8c0.1,0.4,0.4,0.6,0.7,0.6c0.3,0,0.6-0.2,0.7-0.6l0.5-2.8c0-0.3,0.3-0.5,0.6-0.6l2.8-0.5
				c0.8-0.1,0.8-1.3,0-1.4l-2.8-0.5c-0.3,0-0.5-0.3-0.6-0.6l-0.5-2.8C157.9-162.7,157.6-162.9,157.2-162.9 M157.2-164.9
				c1.3,0,2.5,1,2.7,2.3l0.3,1.9l1.9,0.3c1.3,0.2,2.3,1.3,2.3,2.7s-1,2.5-2.3,2.7l-1.9,0.3l-0.3,1.9c-0.2,1.3-1.3,2.3-2.7,2.3
				c-1.3,0-2.5-1-2.7-2.3l-0.3-1.9l-1.9-0.3c-1.3-0.2-2.3-1.3-2.3-2.7s1-2.5,2.3-2.7l1.9-0.3l0.3-1.9
				C154.8-164,155.9-164.9,157.2-164.9L157.2-164.9z"/>
			<path d="M157.5-108.6c-1.4,0-2.5,1.1-2.5,2.5c0,1.4,1.1,2.5,2.5,2.5c1.4,0,2.5-1.1,2.5-2.5C160-107.5,158.9-108.6,157.5-108.6
				 M157.5-110.6c2.5,0,4.5,2,4.5,4.5s-2,4.5-4.5,4.5s-4.5-2-4.5-4.5S155-110.6,157.5-110.6L157.5-110.6z"/>
			<path d="M105.6-160.3c-1.4,0-2.5,1.1-2.5,2.5c0,1.4,1.1,2.5,2.5,2.5s2.5-1.1,2.5-2.5C108.1-159.2,107-160.3,105.6-160.3
				 M105.6-162.3c2.5,0,4.5,2,4.5,4.5s-2,4.5-4.5,4.5s-4.5-2-4.5-4.5S103.1-162.3,105.6-162.3L105.6-162.3z"/>
		</g>
		<g>
			<path d="M7.2-111.3c-0.3,0-0.6,0.2-0.7,0.6L6-107.9c0,0.3-0.3,0.5-0.6,0.6l-2.8,0.5c-0.8,0.1-0.8,1.3,0,1.4l2.8,0.5
				c0.3,0,0.5,0.3,0.6,0.6l0.5,2.8c0.1,0.4,0.4,0.6,0.7,0.6c0.3,0,0.6-0.2,0.7-0.6l0.5-2.8c0-0.3,0.3-0.5,0.6-0.6l2.8-0.5
				c0.8-0.1,0.8-1.3,0-1.4l-2.8-0.5c-0.3,0-0.5-0.3-0.6-0.6l-0.5-2.8C7.8-111.1,7.5-111.3,7.2-111.3 M7.2-113.3c1.3,0,2.5,1,2.7,2.3
				l0.3,1.9l1.9,0.3c1.3,0.2,2.3,1.3,2.3,2.7s-1,2.5-2.3,2.7l-1.9,0.3l-0.3,1.9C9.6-99.9,8.5-99,7.2-99c-1.3,0-2.5-1-2.7-2.3
				l-0.3-1.9l-1.9-0.3C1-103.7,0-104.8,0-106.1s1-2.5,2.3-2.7l1.9-0.3l0.3-1.9C4.7-112.3,5.8-113.3,7.2-113.3L7.2-113.3z"/>
			<path d="M58.5-162.9c-0.3,0-0.6,0.2-0.7,0.6l-0.5,2.8c0,0.3-0.3,0.5-0.6,0.6l-2.8,0.5c-0.8,0.1-0.8,1.3,0,1.4l2.8,0.5
				c0.3,0,0.5,0.3,0.6,0.6l0.5,2.8c0.1,0.4,0.4,0.6,0.7,0.6c0.3,0,0.6-0.2,0.7-0.6l0.5-2.8c0-0.3,0.3-0.5,0.6-0.6l2.8-0.5
				c0.8-0.1,0.8-1.3,0-1.4l-2.8-0.5c-0.3,0-0.5-0.3-0.6-0.6l-0.5-2.8C59.2-162.7,58.9-162.9,58.5-162.9 M58.5-164.9
				c1.3,0,2.5,1,2.7,2.3l0.3,1.9l1.9,0.3c1.3,0.2,2.3,1.3,2.3,2.7s-1,2.5-2.3,2.7l-1.9,0.3l-0.3,1.9c-0.2,1.3-1.3,2.3-2.7,2.3
				c-1.3,0-2.5-1-2.7-2.3l-0.3-1.9l-1.9-0.3c-1.3-0.2-2.3-1.3-2.3-2.7s1-2.5,2.3-2.7l1.9-0.3l0.3-1.9
				C56.1-164,57.2-164.9,58.5-164.9L58.5-164.9z"/>
			<path d="M58.8-108.6c-1.4,0-2.5,1.1-2.5,2.5c0,1.4,1.1,2.5,2.5,2.5c1.4,0,2.5-1.1,2.5-2.5C61.3-107.5,60.2-108.6,58.8-108.6
				 M58.8-110.6c2.5,0,4.5,2,4.5,4.5s-2,4.5-4.5,4.5s-4.5-2-4.5-4.5S56.3-110.6,58.8-110.6L58.8-110.6z"/>
		</g>
		<g>
			<path d="M382.2-199.2c-0.3,0-0.6,0.2-0.7,0.6l-0.5,2.8c0,0.3-0.3,0.5-0.6,0.6l-2.8,0.5c-0.8,0.1-0.8,1.3,0,1.4l2.8,0.5
				c0.3,0,0.5,0.3,0.6,0.6l0.5,2.8c0.1,0.4,0.4,0.6,0.7,0.6c0.3,0,0.6-0.2,0.7-0.6l0.5-2.8c0-0.3,0.3-0.5,0.6-0.6l2.8-0.5
				c0.8-0.1,0.8-1.3,0-1.4l-2.8-0.5c-0.3,0-0.5-0.3-0.6-0.6l-0.5-2.8C382.8-199,382.5-199.2,382.2-199.2 M382.2-201.2
				c1.3,0,2.5,1,2.7,2.3l0.3,1.9l1.9,0.3c1.3,0.2,2.3,1.3,2.3,2.7s-1,2.5-2.3,2.7l-1.9,0.3l-0.3,1.9c-0.2,1.3-1.3,2.3-2.7,2.3
				s-2.5-1-2.7-2.3l-0.3-1.9l-1.9-0.3c-1.3-0.2-2.3-1.3-2.3-2.7s1-2.5,2.3-2.7l1.9-0.3l0.3-1.9C379.8-200.3,380.9-201.2,382.2-201.2
				L382.2-201.2z"/>
			<path d="M381.9-248.2c-1.4,0-2.5,1.1-2.5,2.5c0,1.4,1.1,2.5,2.5,2.5s2.5-1.1,2.5-2.5C384.4-247.1,383.3-248.2,381.9-248.2
				 M381.9-250.2c2.5,0,4.5,2,4.5,4.5s-2,4.5-4.5,4.5c-2.5,0-4.5-2-4.5-4.5S379.5-250.2,381.9-250.2L381.9-250.2z"/>
		</g>
		<g>
			<path d="M283.5-199.2c-0.3,0-0.6,0.2-0.7,0.6l-0.5,2.8c0,0.3-0.3,0.5-0.6,0.6l-2.8,0.5c-0.8,0.1-0.8,1.3,0,1.4l2.8,0.5
				c0.3,0,0.5,0.3,0.6,0.6l0.5,2.8c0.1,0.4,0.4,0.6,0.7,0.6c0.3,0,0.6-0.2,0.7-0.6l0.5-2.8c0-0.3,0.3-0.5,0.6-0.6l2.8-0.5
				c0.8-0.1,0.8-1.3,0-1.4l-2.8-0.5c-0.3,0-0.5-0.3-0.6-0.6l-0.5-2.8C284.1-199,283.8-199.2,283.5-199.2 M283.5-201.2
				c1.3,0,2.5,1,2.7,2.3l0.3,1.9l1.9,0.3c1.3,0.2,2.3,1.3,2.3,2.7s-1,2.5-2.3,2.7l-1.9,0.3l-0.3,1.9c-0.2,1.3-1.3,2.3-2.7,2.3
				s-2.5-1-2.7-2.3l-0.3-1.9l-1.9-0.3c-1.3-0.2-2.3-1.3-2.3-2.7s1-2.5,2.3-2.7l1.9-0.3l0.3-1.9C281.1-200.3,282.2-201.2,283.5-201.2
				L283.5-201.2z"/>
			<path d="M334.9-250.9c-0.3,0-0.6,0.2-0.7,0.6l-0.5,2.8c0,0.3-0.3,0.5-0.6,0.6l-2.8,0.5c-0.8,0.1-0.8,1.3,0,1.4l2.8,0.5
				c0.3,0,0.5,0.3,0.6,0.6l0.5,2.8c0.1,0.4,0.4,0.6,0.7,0.6c0.3,0,0.6-0.2,0.7-0.6l0.5-2.8c0-0.3,0.3-0.5,0.6-0.6l2.8-0.5
				c0.8-0.1,0.8-1.3,0-1.4l-2.8-0.5c-0.3,0-0.5-0.3-0.6-0.6l-0.5-2.8C335.5-250.7,335.2-250.9,334.9-250.9 M334.9-252.9
				c1.3,0,2.5,1,2.7,2.3l0.3,1.9l1.9,0.3c1.3,0.2,2.3,1.3,2.3,2.7s-1,2.5-2.3,2.7l-1.9,0.3l-0.3,1.9c-0.2,1.3-1.3,2.3-2.7,2.3
				c-1.3,0-2.5-1-2.7-2.3l-0.3-1.9l-1.9-0.3c-1.3-0.2-2.3-1.3-2.3-2.7s1-2.5,2.3-2.7l1.9-0.3l0.3-1.9
				C332.4-251.9,333.6-252.9,334.9-252.9L334.9-252.9z"/>
			<path d="M335.2-196.6c-1.4,0-2.5,1.1-2.5,2.5c0,1.4,1.1,2.5,2.5,2.5c1.4,0,2.5-1.1,2.5-2.5C337.7-195.5,336.5-196.6,335.2-196.6
				 M335.2-198.6c2.5,0,4.5,2,4.5,4.5s-2,4.5-4.5,4.5c-2.5,0-4.5-2-4.5-4.5S332.7-198.6,335.2-198.6L335.2-198.6z"/>
			<path d="M283.2-248.2c-1.4,0-2.5,1.1-2.5,2.5c0,1.4,1.1,2.5,2.5,2.5s2.5-1.1,2.5-2.5C285.7-247.1,284.6-248.2,283.2-248.2
				 M283.2-250.2c2.5,0,4.5,2,4.5,4.5s-2,4.5-4.5,4.5c-2.5,0-4.5-2-4.5-4.5S280.8-250.2,283.2-250.2L283.2-250.2z"/>
		</g>
		<g>
			<path d="M184.8-199.2c-0.3,0-0.6,0.2-0.7,0.6l-0.5,2.8c0,0.3-0.3,0.5-0.6,0.6l-2.8,0.5c-0.8,0.1-0.8,1.3,0,1.4l2.8,0.5
				c0.3,0,0.5,0.3,0.6,0.6l0.5,2.8c0.1,0.4,0.4,0.6,0.7,0.6c0.3,0,0.6-0.2,0.7-0.6l0.5-2.8c0-0.3,0.3-0.5,0.6-0.6l2.8-0.5
				c0.8-0.1,0.8-1.3,0-1.4l-2.8-0.5c-0.3,0-0.5-0.3-0.6-0.6l-0.5-2.8C185.4-199,185.1-199.2,184.8-199.2 M184.8-201.2
				c1.3,0,2.5,1,2.7,2.3l0.3,1.9l1.9,0.3c1.3,0.2,2.3,1.3,2.3,2.7s-1,2.5-2.3,2.7l-1.9,0.3l-0.3,1.9c-0.2,1.3-1.3,2.3-2.7,2.3
				c-1.3,0-2.5-1-2.7-2.3l-0.3-1.9l-1.9-0.3c-1.3-0.2-2.3-1.3-2.3-2.7s1-2.5,2.3-2.7l1.9-0.3l0.3-1.9
				C182.4-200.3,183.5-201.2,184.8-201.2L184.8-201.2z"/>
			<path d="M236.2-250.9c-0.3,0-0.6,0.2-0.7,0.6l-0.5,2.8c0,0.3-0.3,0.5-0.6,0.6l-2.8,0.5c-0.8,0.1-0.8,1.3,0,1.4l2.8,0.5
				c0.3,0,0.5,0.3,0.6,0.6l0.5,2.8c0.1,0.4,0.4,0.6,0.7,0.6c0.3,0,0.6-0.2,0.7-0.6l0.5-2.8c0-0.3,0.3-0.5,0.6-0.6l2.8-0.5
				c0.8-0.1,0.8-1.3,0-1.4l-2.8-0.5c-0.3,0-0.5-0.3-0.6-0.6l-0.5-2.8C236.8-250.7,236.5-250.9,236.2-250.9 M236.2-252.9
				c1.3,0,2.5,1,2.7,2.3l0.3,1.9l1.9,0.3c1.3,0.2,2.3,1.3,2.3,2.7s-1,2.5-2.3,2.7l-1.9,0.3l-0.3,1.9c-0.2,1.3-1.3,2.3-2.7,2.3
				c-1.3,0-2.5-1-2.7-2.3l-0.3-1.9l-1.9-0.3c-1.3-0.2-2.3-1.3-2.3-2.7s1-2.5,2.3-2.7l1.9-0.3l0.3-1.9
				C233.7-251.9,234.9-252.9,236.2-252.9L236.2-252.9z"/>
			<path d="M236.5-196.6c-1.4,0-2.5,1.1-2.5,2.5c0,1.4,1.1,2.5,2.5,2.5c1.4,0,2.5-1.1,2.5-2.5C239-195.5,237.8-196.6,236.5-196.6
				 M236.5-198.6c2.5,0,4.5,2,4.5,4.5s-2,4.5-4.5,4.5s-4.5-2-4.5-4.5S234-198.6,236.5-198.6L236.5-198.6z"/>
			<path d="M184.5-248.2c-1.4,0-2.5,1.1-2.5,2.5c0,1.4,1.1,2.5,2.5,2.5s2.5-1.1,2.5-2.5C187-247.1,185.9-248.2,184.5-248.2
				 M184.5-250.2c2.5,0,4.5,2,4.5,4.5s-2,4.5-4.5,4.5s-4.5-2-4.5-4.5S182.1-250.2,184.5-250.2L184.5-250.2z"/>
		</g>
		<g>
			<path d="M86.1-199.2c-0.3,0-0.6,0.2-0.7,0.6l-0.5,2.8c0,0.3-0.3,0.5-0.6,0.6l-2.8,0.5c-0.8,0.1-0.8,1.3,0,1.4l2.8,0.5
				c0.3,0,0.5,0.3,0.6,0.6l0.5,2.8c0.1,0.4,0.4,0.6,0.7,0.6c0.3,0,0.6-0.2,0.7-0.6l0.5-2.8c0-0.3,0.3-0.5,0.6-0.6l2.8-0.5
				c0.8-0.1,0.8-1.3,0-1.4l-2.8-0.5c-0.3,0-0.5-0.3-0.6-0.6l-0.5-2.8C86.7-199,86.4-199.2,86.1-199.2 M86.1-201.2
				c1.3,0,2.5,1,2.7,2.3l0.3,1.9l1.9,0.3c1.3,0.2,2.3,1.3,2.3,2.7s-1,2.5-2.3,2.7l-1.9,0.3l-0.3,1.9c-0.2,1.3-1.3,2.3-2.7,2.3
				c-1.3,0-2.5-1-2.7-2.3l-0.3-1.9l-1.9-0.3c-1.3-0.2-2.3-1.3-2.3-2.7s1-2.5,2.3-2.7l1.9-0.3l0.3-1.9
				C83.7-200.3,84.8-201.2,86.1-201.2L86.1-201.2z"/>
			<path d="M137.5-250.9c-0.3,0-0.6,0.2-0.7,0.6l-0.5,2.8c0,0.3-0.3,0.5-0.6,0.6l-2.8,0.5c-0.8,0.1-0.8,1.3,0,1.4l2.8,0.5
				c0.3,0,0.5,0.3,0.6,0.6l0.5,2.8c0.1,0.4,0.4,0.6,0.7,0.6c0.3,0,0.6-0.2,0.7-0.6l0.5-2.8c0-0.3,0.3-0.5,0.6-0.6l2.8-0.5
				c0.8-0.1,0.8-1.3,0-1.4l-2.8-0.5c-0.3,0-0.5-0.3-0.6-0.6l-0.5-2.8C138.1-250.7,137.8-250.9,137.5-250.9 M137.5-252.9
				c1.3,0,2.5,1,2.7,2.3l0.3,1.9l1.9,0.3c1.3,0.2,2.3,1.3,2.3,2.7s-1,2.5-2.3,2.7l-1.9,0.3l-0.3,1.9c-0.2,1.3-1.3,2.3-2.7,2.3
				c-1.3,0-2.5-1-2.7-2.3l-0.3-1.9l-1.9-0.3c-1.3-0.2-2.3-1.3-2.3-2.7s1-2.5,2.3-2.7l1.9-0.3l0.3-1.9
				C135-251.9,136.2-252.9,137.5-252.9L137.5-252.9z"/>
			<path d="M137.8-196.6c-1.4,0-2.5,1.1-2.5,2.5c0,1.4,1.1,2.5,2.5,2.5c1.4,0,2.5-1.1,2.5-2.5C140.3-195.5,139.1-196.6,137.8-196.6
				 M137.8-198.6c2.5,0,4.5,2,4.5,4.5s-2,4.5-4.5,4.5s-4.5-2-4.5-4.5S135.3-198.6,137.8-198.6L137.8-198.6z"/>
			<path d="M85.8-248.2c-1.4,0-2.5,1.1-2.5,2.5c0,1.4,1.1,2.5,2.5,2.5s2.5-1.1,2.5-2.5C88.3-247.1,87.2-248.2,85.8-248.2
				 M85.8-250.2c2.5,0,4.5,2,4.5,4.5s-2,4.5-4.5,4.5s-4.5-2-4.5-4.5S83.4-250.2,85.8-250.2L85.8-250.2z"/>
		</g>
		<g>
			<path d="M38.8-250.9c-0.3,0-0.6,0.2-0.7,0.6l-0.5,2.8c0,0.3-0.3,0.5-0.6,0.6l-2.8,0.5c-0.8,0.1-0.8,1.3,0,1.4l2.8,0.5
				c0.3,0,0.5,0.3,0.6,0.6l0.5,2.8c0.1,0.4,0.4,0.6,0.7,0.6c0.3,0,0.6-0.2,0.7-0.6L40-244c0-0.3,0.3-0.5,0.6-0.6l2.8-0.5
				c0.8-0.1,0.8-1.3,0-1.4l-2.8-0.5c-0.3,0-0.5-0.3-0.6-0.6l-0.5-2.8C39.4-250.7,39.1-250.9,38.8-250.9 M38.8-252.9
				c1.3,0,2.5,1,2.7,2.3l0.3,1.9l1.9,0.3c1.3,0.2,2.3,1.3,2.3,2.7s-1,2.5-2.3,2.7l-1.9,0.3l-0.3,1.9c-0.2,1.3-1.3,2.3-2.7,2.3
				c-1.3,0-2.5-1-2.7-2.3l-0.3-1.9l-1.9-0.3c-1.3-0.2-2.3-1.3-2.3-2.7s1-2.5,2.3-2.7l1.9-0.3l0.3-1.9
				C36.4-251.9,37.5-252.9,38.8-252.9L38.8-252.9z"/>
			<path d="M39.1-196.6c-1.4,0-2.5,1.1-2.5,2.5c0,1.4,1.1,2.5,2.5,2.5c1.4,0,2.5-1.1,2.5-2.5C41.6-195.5,40.5-196.6,39.1-196.6
				 M39.1-198.6c2.5,0,4.5,2,4.5,4.5s-2,4.5-4.5,4.5s-4.5-2-4.5-4.5S36.6-198.6,39.1-198.6L39.1-198.6z"/>
		</g>
		<g>
			<path d="M362.5-287.2c-0.3,0-0.6,0.2-0.7,0.6l-0.5,2.8c0,0.3-0.3,0.5-0.6,0.6l-2.8,0.5c-0.8,0.1-0.8,1.3,0,1.4l2.8,0.5
				c0.3,0,0.5,0.3,0.6,0.6l0.5,2.8c0.1,0.4,0.4,0.6,0.7,0.6s0.6-0.2,0.7-0.6l0.5-2.8c0-0.3,0.3-0.5,0.6-0.6l2.8-0.5
				c0.8-0.1,0.8-1.3,0-1.4l-2.8-0.5c-0.3,0-0.5-0.3-0.6-0.6l-0.5-2.8C363.1-287,362.8-287.2,362.5-287.2 M362.5-289.2
				c1.3,0,2.5,1,2.7,2.3l0.3,1.9l1.9,0.3c1.3,0.2,2.3,1.3,2.3,2.7s-1,2.5-2.3,2.7l-1.9,0.3l-0.3,1.9c-0.2,1.3-1.3,2.3-2.7,2.3
				c-1.3,0-2.5-1-2.7-2.3l-0.3-1.9l-1.9-0.3c-1.3-0.2-2.3-1.3-2.3-2.7s1-2.5,2.3-2.7l1.9-0.3l0.3-1.9
				C360-288.3,361.1-289.2,362.5-289.2L362.5-289.2z"/>
			<path d="M413.8-338.9c-0.3,0-0.6,0.2-0.7,0.6l-0.5,2.8c0,0.3-0.3,0.5-0.6,0.6l-2.8,0.5c-0.8,0.1-0.8,1.3,0,1.4l2.8,0.5
				c0.3,0,0.5,0.3,0.6,0.6l0.5,2.8c0.1,0.4,0.4,0.6,0.7,0.6s0.6-0.2,0.7-0.6l0.5-2.8c0-0.3,0.3-0.5,0.6-0.6l2.8-0.5
				c0.8-0.1,0.8-1.3,0-1.4l-2.8-0.5c-0.3,0-0.5-0.3-0.6-0.6l-0.5-2.8C414.5-338.7,414.2-338.9,413.8-338.9 M413.8-340.9
				c1.3,0,2.5,1,2.7,2.3l0.3,1.9l1.9,0.3c1.3,0.2,2.3,1.3,2.3,2.7c0,1.3-1,2.5-2.3,2.7l-1.9,0.3l-0.3,1.9c-0.2,1.3-1.3,2.3-2.7,2.3
				c-1.3,0-2.5-1-2.7-2.3l-0.3-1.9L409-331c-1.3-0.2-2.3-1.3-2.3-2.7c0-1.3,1-2.5,2.3-2.7l1.9-0.3l0.3-1.9
				C411.4-339.9,412.5-340.9,413.8-340.9L413.8-340.9z"/>
			<path d="M362.2-336.2c-1.4,0-2.5,1.1-2.5,2.5s1.1,2.5,2.5,2.5s2.5-1.1,2.5-2.5S363.6-336.2,362.2-336.2 M362.2-338.2
				c2.5,0,4.5,2,4.5,4.5c0,2.5-2,4.5-4.5,4.5c-2.5,0-4.5-2-4.5-4.5C357.7-336.2,359.7-338.2,362.2-338.2L362.2-338.2z"/>
		</g>
		<g>
			<path d="M263.8-287.2c-0.3,0-0.6,0.2-0.7,0.6l-0.5,2.8c0,0.3-0.3,0.5-0.6,0.6l-2.8,0.5c-0.8,0.1-0.8,1.3,0,1.4l2.8,0.5
				c0.3,0,0.5,0.3,0.6,0.6l0.5,2.8c0.1,0.4,0.4,0.6,0.7,0.6s0.6-0.2,0.7-0.6l0.5-2.8c0-0.3,0.3-0.5,0.6-0.6l2.8-0.5
				c0.8-0.1,0.8-1.3,0-1.4l-2.8-0.5c-0.3,0-0.5-0.3-0.6-0.6l-0.5-2.8C264.4-287,264.1-287.2,263.8-287.2 M263.8-289.2
				c1.3,0,2.5,1,2.7,2.3l0.3,1.9l1.9,0.3c1.3,0.2,2.3,1.3,2.3,2.7s-1,2.5-2.3,2.7l-1.9,0.3l-0.3,1.9c-0.2,1.3-1.3,2.3-2.7,2.3
				c-1.3,0-2.5-1-2.7-2.3l-0.3-1.9l-1.9-0.3c-1.3-0.2-2.3-1.3-2.3-2.7s1-2.5,2.3-2.7l1.9-0.3l0.3-1.9
				C261.3-288.3,262.4-289.2,263.8-289.2L263.8-289.2z"/>
			<path d="M315.2-338.9c-0.3,0-0.6,0.2-0.7,0.6l-0.5,2.8c0,0.3-0.3,0.5-0.6,0.6l-2.8,0.5c-0.8,0.1-0.8,1.3,0,1.4l2.8,0.5
				c0.3,0,0.5,0.3,0.6,0.6l0.5,2.8c0.1,0.4,0.4,0.6,0.7,0.6s0.6-0.2,0.7-0.6l0.5-2.8c0-0.3,0.3-0.5,0.6-0.6l2.8-0.5
				c0.8-0.1,0.8-1.3,0-1.4l-2.8-0.5c-0.3,0-0.5-0.3-0.6-0.6l-0.5-2.8C315.8-338.7,315.5-338.9,315.2-338.9 M315.2-340.9
				c1.3,0,2.5,1,2.7,2.3l0.3,1.9l1.9,0.3c1.3,0.2,2.3,1.3,2.3,2.7c0,1.3-1,2.5-2.3,2.7l-1.9,0.3l-0.3,1.9c-0.2,1.3-1.3,2.3-2.7,2.3
				c-1.3,0-2.5-1-2.7-2.3l-0.3-1.9l-1.9-0.3c-1.3-0.2-2.3-1.3-2.3-2.7c0-1.3,1-2.5,2.3-2.7l1.9-0.3l0.3-1.9
				C312.7-339.9,313.8-340.9,315.2-340.9L315.2-340.9z"/>
			<path d="M315.4-284.5c-1.4,0-2.5,1.1-2.5,2.5c0,1.4,1.1,2.5,2.5,2.5s2.5-1.1,2.5-2.5C317.9-283.4,316.8-284.5,315.4-284.5
				 M315.4-286.5c2.5,0,4.5,2,4.5,4.5s-2,4.5-4.5,4.5c-2.5,0-4.5-2-4.5-4.5S312.9-286.5,315.4-286.5L315.4-286.5z"/>
			<path d="M263.5-336.2c-1.4,0-2.5,1.1-2.5,2.5s1.1,2.5,2.5,2.5s2.5-1.1,2.5-2.5S264.9-336.2,263.5-336.2 M263.5-338.2
				c2.5,0,4.5,2,4.5,4.5c0,2.5-2,4.5-4.5,4.5c-2.5,0-4.5-2-4.5-4.5C259-336.2,261-338.2,263.5-338.2L263.5-338.2z"/>
		</g>
		<g>
			<path d="M165.1-287.2c-0.3,0-0.6,0.2-0.7,0.6l-0.5,2.8c0,0.3-0.3,0.5-0.6,0.6l-2.8,0.5c-0.8,0.1-0.8,1.3,0,1.4l2.8,0.5
				c0.3,0,0.5,0.3,0.6,0.6l0.5,2.8c0.1,0.4,0.4,0.6,0.7,0.6c0.3,0,0.6-0.2,0.7-0.6l0.5-2.8c0-0.3,0.3-0.5,0.6-0.6l2.8-0.5
				c0.8-0.1,0.8-1.3,0-1.4l-2.8-0.5c-0.3,0-0.5-0.3-0.6-0.6l-0.5-2.8C165.7-287,165.4-287.2,165.1-287.2 M165.1-289.2
				c1.3,0,2.5,1,2.7,2.3l0.3,1.9l1.9,0.3c1.3,0.2,2.3,1.3,2.3,2.7s-1,2.5-2.3,2.7l-1.9,0.3l-0.3,1.9c-0.2,1.3-1.3,2.3-2.7,2.3
				c-1.3,0-2.5-1-2.7-2.3l-0.3-1.9l-1.9-0.3c-1.3-0.2-2.3-1.3-2.3-2.7s1-2.5,2.3-2.7l1.9-0.3l0.3-1.9
				C162.6-288.3,163.7-289.2,165.1-289.2L165.1-289.2z"/>
			<path d="M216.5-338.9c-0.3,0-0.6,0.2-0.7,0.6l-0.5,2.8c0,0.3-0.3,0.5-0.6,0.6l-2.8,0.5c-0.8,0.1-0.8,1.3,0,1.4l2.8,0.5
				c0.3,0,0.5,0.3,0.6,0.6l0.5,2.8c0.1,0.4,0.4,0.6,0.7,0.6c0.3,0,0.6-0.2,0.7-0.6l0.5-2.8c0-0.3,0.3-0.5,0.6-0.6l2.8-0.5
				c0.8-0.1,0.8-1.3,0-1.4l-2.8-0.5c-0.3,0-0.5-0.3-0.6-0.6l-0.5-2.8C217.1-338.7,216.8-338.9,216.5-338.9 M216.5-340.9
				c1.3,0,2.5,1,2.7,2.3l0.3,1.9l1.9,0.3c1.3,0.2,2.3,1.3,2.3,2.7c0,1.3-1,2.5-2.3,2.7l-1.9,0.3l-0.3,1.9c-0.2,1.3-1.3,2.3-2.7,2.3
				c-1.3,0-2.5-1-2.7-2.3l-0.3-1.9l-1.9-0.3c-1.3-0.2-2.3-1.3-2.3-2.7c0-1.3,1-2.5,2.3-2.7l1.9-0.3l0.3-1.9
				C214-339.9,215.1-340.9,216.5-340.9L216.5-340.9z"/>
			<path d="M216.7-284.5c-1.4,0-2.5,1.1-2.5,2.5c0,1.4,1.1,2.5,2.5,2.5c1.4,0,2.5-1.1,2.5-2.5C219.2-283.4,218.1-284.5,216.7-284.5
				 M216.7-286.5c2.5,0,4.5,2,4.5,4.5s-2,4.5-4.5,4.5s-4.5-2-4.5-4.5S214.2-286.5,216.7-286.5L216.7-286.5z"/>
			<path d="M164.8-336.2c-1.4,0-2.5,1.1-2.5,2.5s1.1,2.5,2.5,2.5s2.5-1.1,2.5-2.5S166.2-336.2,164.8-336.2 M164.8-338.2
				c2.5,0,4.5,2,4.5,4.5c0,2.5-2,4.5-4.5,4.5s-4.5-2-4.5-4.5C160.3-336.2,162.3-338.2,164.8-338.2L164.8-338.2z"/>
		</g>
		<g>
			<path d="M66.4-287.2c-0.3,0-0.6,0.2-0.7,0.6l-0.5,2.8c0,0.3-0.3,0.5-0.6,0.6l-2.8,0.5c-0.8,0.1-0.8,1.3,0,1.4l2.8,0.5
				c0.3,0,0.5,0.3,0.6,0.6l0.5,2.8c0.1,0.4,0.4,0.6,0.7,0.6c0.3,0,0.6-0.2,0.7-0.6l0.5-2.8c0-0.3,0.3-0.5,0.6-0.6l2.8-0.5
				c0.8-0.1,0.8-1.3,0-1.4l-2.8-0.5c-0.3,0-0.5-0.3-0.6-0.6l-0.5-2.8C67-287,66.7-287.2,66.4-287.2 M66.4-289.2c1.3,0,2.5,1,2.7,2.3
				l0.3,1.9l1.9,0.3c1.3,0.2,2.3,1.3,2.3,2.7s-1,2.5-2.3,2.7l-1.9,0.3l-0.3,1.9c-0.2,1.3-1.3,2.3-2.7,2.3c-1.3,0-2.5-1-2.7-2.3
				l-0.3-1.9l-1.9-0.3c-1.3-0.2-2.3-1.3-2.3-2.7s1-2.5,2.3-2.7l1.9-0.3l0.3-1.9C63.9-288.3,65-289.2,66.4-289.2L66.4-289.2z"/>
			<path d="M117.8-338.9c-0.3,0-0.6,0.2-0.7,0.6l-0.5,2.8c0,0.3-0.3,0.5-0.6,0.6l-2.8,0.5c-0.8,0.1-0.8,1.3,0,1.4l2.8,0.5
				c0.3,0,0.5,0.3,0.6,0.6l0.5,2.8c0.1,0.4,0.4,0.6,0.7,0.6c0.3,0,0.6-0.2,0.7-0.6l0.5-2.8c0-0.3,0.3-0.5,0.6-0.6l2.8-0.5
				c0.8-0.1,0.8-1.3,0-1.4l-2.8-0.5c-0.3,0-0.5-0.3-0.6-0.6l-0.5-2.8C118.4-338.7,118.1-338.9,117.8-338.9 M117.8-340.9
				c1.3,0,2.5,1,2.7,2.3l0.3,1.9l1.9,0.3c1.3,0.2,2.3,1.3,2.3,2.7c0,1.3-1,2.5-2.3,2.7l-1.9,0.3l-0.3,1.9c-0.2,1.3-1.3,2.3-2.7,2.3
				c-1.3,0-2.5-1-2.7-2.3l-0.3-1.9l-1.9-0.3c-1.3-0.2-2.3-1.3-2.3-2.7c0-1.3,1-2.5,2.3-2.7l1.9-0.3l0.3-1.9
				C115.3-339.9,116.4-340.9,117.8-340.9L117.8-340.9z"/>
			<path d="M118-284.5c-1.4,0-2.5,1.1-2.5,2.5c0,1.4,1.1,2.5,2.5,2.5c1.4,0,2.5-1.1,2.5-2.5C120.5-283.4,119.4-284.5,118-284.5
				 M118-286.5c2.5,0,4.5,2,4.5,4.5s-2,4.5-4.5,4.5s-4.5-2-4.5-4.5S115.5-286.5,118-286.5L118-286.5z"/>
			<path d="M66.1-336.2c-1.4,0-2.5,1.1-2.5,2.5s1.1,2.5,2.5,2.5s2.5-1.1,2.5-2.5S67.5-336.2,66.1-336.2 M66.1-338.2
				c2.5,0,4.5,2,4.5,4.5c0,2.5-2,4.5-4.5,4.5s-4.5-2-4.5-4.5C61.6-336.2,63.6-338.2,66.1-338.2L66.1-338.2z"/>
		</g>
		<g>
			<path d="M19.1-338.9c-0.3,0-0.6,0.2-0.7,0.6l-0.5,2.8c0,0.3-0.3,0.5-0.6,0.6l-2.8,0.5c-0.8,0.1-0.8,1.3,0,1.4l2.8,0.5
				c0.3,0,0.5,0.3,0.6,0.6l0.5,2.8c0.1,0.4,0.4,0.6,0.7,0.6c0.3,0,0.6-0.2,0.7-0.6l0.5-2.8c0-0.3,0.3-0.5,0.6-0.6l2.8-0.5
				c0.8-0.1,0.8-1.3,0-1.4l-2.8-0.5c-0.3,0-0.5-0.3-0.6-0.6l-0.5-2.8C19.7-338.7,19.4-338.9,19.1-338.9 M19.1-340.9
				c1.3,0,2.5,1,2.7,2.3l0.3,1.9l1.9,0.3c1.3,0.2,2.3,1.3,2.3,2.7c0,1.3-1,2.5-2.3,2.7l-1.9,0.3l-0.3,1.9c-0.2,1.3-1.3,2.3-2.7,2.3
				c-1.3,0-2.5-1-2.7-2.3l-0.3-1.9l-1.9-0.3c-1.3-0.2-2.3-1.3-2.3-2.7c0-1.3,1-2.5,2.3-2.7l1.9-0.3l0.3-1.9
				C16.6-339.9,17.7-340.9,19.1-340.9L19.1-340.9z"/>
			<path d="M19.3-284.5c-1.4,0-2.5,1.1-2.5,2.5c0,1.4,1.1,2.5,2.5,2.5c1.4,0,2.5-1.1,2.5-2.5C21.8-283.4,20.7-284.5,19.3-284.5
				 M19.3-286.5c2.5,0,4.5,2,4.5,4.5s-2,4.5-4.5,4.5s-4.5-2-4.5-4.5S16.8-286.5,19.3-286.5L19.3-286.5z"/>
		</g>
		<g>
			<path d="M342.7-375.2c-0.3,0-0.6,0.2-0.7,0.6l-0.5,2.8c0,0.3-0.3,0.5-0.6,0.6l-2.8,0.5c-0.8,0.1-0.8,1.3,0,1.4l2.8,0.5
				c0.3,0,0.5,0.3,0.6,0.6l0.5,2.8c0.1,0.4,0.4,0.6,0.7,0.6c0.3,0,0.6-0.2,0.7-0.6l0.5-2.8c0-0.3,0.3-0.5,0.6-0.6l2.8-0.5
				c0.8-0.1,0.8-1.3,0-1.4l-2.8-0.5c-0.3,0-0.5-0.3-0.6-0.6l-0.5-2.8C343.4-375,343-375.2,342.7-375.2 M342.7-377.2
				c1.3,0,2.5,1,2.7,2.3l0.3,1.9l1.9,0.3c1.3,0.2,2.3,1.3,2.3,2.7s-1,2.5-2.3,2.7l-1.9,0.3l-0.3,1.9c-0.2,1.3-1.3,2.3-2.7,2.3
				s-2.5-1-2.7-2.3l-0.3-1.9l-1.9-0.3c-1.3-0.2-2.3-1.3-2.3-2.7s1-2.5,2.3-2.7l1.9-0.3l0.3-1.9C340.3-376.2,341.4-377.2,342.7-377.2
				L342.7-377.2z"/>
			<path d="M394.1-426.8c-0.3,0-0.6,0.2-0.7,0.6l-0.5,2.8c0,0.3-0.3,0.5-0.6,0.6l-2.8,0.5c-0.8,0.1-0.8,1.3,0,1.4l2.8,0.5
				c0.3,0,0.5,0.3,0.6,0.6l0.5,2.8c0.1,0.4,0.4,0.6,0.7,0.6c0.3,0,0.6-0.2,0.7-0.6l0.5-2.8c0-0.3,0.3-0.5,0.6-0.6l2.8-0.5
				c0.8-0.1,0.8-1.3,0-1.4l-2.8-0.5c-0.3,0-0.5-0.3-0.6-0.6l-0.5-2.8C394.7-426.6,394.4-426.8,394.1-426.8 M394.1-428.8
				c1.3,0,2.5,1,2.7,2.3l0.3,1.9l1.9,0.3c1.3,0.2,2.3,1.3,2.3,2.7c0,1.3-1,2.5-2.3,2.7l-1.9,0.3l-0.3,1.9c-0.2,1.3-1.3,2.3-2.7,2.3
				c-1.3,0-2.5-1-2.7-2.3l-0.3-1.9l-1.9-0.3c-1.3-0.2-2.3-1.3-2.3-2.7c0-1.3,1-2.5,2.3-2.7l1.9-0.3l0.3-1.9
				C391.7-427.9,392.8-428.8,394.1-428.8L394.1-428.8z"/>
			<path d="M394.4-372.5c-1.4,0-2.5,1.1-2.5,2.5c0,1.4,1.1,2.5,2.5,2.5c1.4,0,2.5-1.1,2.5-2.5C396.9-371.4,395.8-372.5,394.4-372.5
				 M394.4-374.5c2.5,0,4.5,2,4.5,4.5s-2,4.5-4.5,4.5c-2.5,0-4.5-2-4.5-4.5S391.9-374.5,394.4-374.5L394.4-374.5z"/>
			<path d="M342.5-424.2c-1.4,0-2.5,1.1-2.5,2.5c0,1.4,1.1,2.5,2.5,2.5s2.5-1.1,2.5-2.5C345-423,343.8-424.2,342.5-424.2
				 M342.5-426.2c2.5,0,4.5,2,4.5,4.5c0,2.5-2,4.5-4.5,4.5c-2.5,0-4.5-2-4.5-4.5C338-424.1,340-426.2,342.5-426.2L342.5-426.2z"/>
		</g>
		<g>
			<path d="M244-375.2c-0.3,0-0.6,0.2-0.7,0.6l-0.5,2.8c0,0.3-0.3,0.5-0.6,0.6l-2.8,0.5c-0.8,0.1-0.8,1.3,0,1.4l2.8,0.5
				c0.3,0,0.5,0.3,0.6,0.6l0.5,2.8c0.1,0.4,0.4,0.6,0.7,0.6c0.3,0,0.6-0.2,0.7-0.6l0.5-2.8c0-0.3,0.3-0.5,0.6-0.6l2.8-0.5
				c0.8-0.1,0.8-1.3,0-1.4l-2.8-0.5c-0.3,0-0.5-0.3-0.6-0.6l-0.5-2.8C244.7-375,244.3-375.2,244-375.2 M244-377.2
				c1.3,0,2.5,1,2.7,2.3l0.3,1.9l1.9,0.3c1.3,0.2,2.3,1.3,2.3,2.7s-1,2.5-2.3,2.7L247-367l-0.3,1.9c-0.2,1.3-1.3,2.3-2.7,2.3
				c-1.3,0-2.5-1-2.7-2.3L241-367l-1.9-0.3c-1.3-0.2-2.3-1.3-2.3-2.7s1-2.5,2.3-2.7l1.9-0.3l0.3-1.9
				C241.6-376.2,242.7-377.2,244-377.2L244-377.2z"/>
			<path d="M295.4-426.8c-0.3,0-0.6,0.2-0.7,0.6l-0.5,2.8c0,0.3-0.3,0.5-0.6,0.6l-2.8,0.5c-0.8,0.1-0.8,1.3,0,1.4l2.8,0.5
				c0.3,0,0.5,0.3,0.6,0.6l0.5,2.8c0.1,0.4,0.4,0.6,0.7,0.6c0.3,0,0.6-0.2,0.7-0.6l0.5-2.8c0-0.3,0.3-0.5,0.6-0.6l2.8-0.5
				c0.8-0.1,0.8-1.3,0-1.4l-2.8-0.5c-0.3,0-0.5-0.3-0.6-0.6l-0.5-2.8C296-426.6,295.7-426.8,295.4-426.8 M295.4-428.8
				c1.3,0,2.5,1,2.7,2.3l0.3,1.9l1.9,0.3c1.3,0.2,2.3,1.3,2.3,2.7c0,1.3-1,2.5-2.3,2.7l-1.9,0.3l-0.3,1.9c-0.2,1.3-1.3,2.3-2.7,2.3
				c-1.3,0-2.5-1-2.7-2.3l-0.3-1.9l-1.9-0.3c-1.3-0.2-2.3-1.3-2.3-2.7c0-1.3,1-2.5,2.3-2.7l1.9-0.3l0.3-1.9
				C293-427.9,294.1-428.8,295.4-428.8L295.4-428.8z"/>
			<path d="M295.7-372.5c-1.4,0-2.5,1.1-2.5,2.5c0,1.4,1.1,2.5,2.5,2.5c1.4,0,2.5-1.1,2.5-2.5C298.2-371.4,297.1-372.5,295.7-372.5
				 M295.7-374.5c2.5,0,4.5,2,4.5,4.5s-2,4.5-4.5,4.5c-2.5,0-4.5-2-4.5-4.5S293.2-374.5,295.7-374.5L295.7-374.5z"/>
			<path d="M243.8-424.2c-1.4,0-2.5,1.1-2.5,2.5c0,1.4,1.1,2.5,2.5,2.5s2.5-1.1,2.5-2.5C246.3-423,245.1-424.2,243.8-424.2
				 M243.8-426.2c2.5,0,4.5,2,4.5,4.5c0,2.5-2,4.5-4.5,4.5s-4.5-2-4.5-4.5C239.3-424.1,241.3-426.2,243.8-426.2L243.8-426.2z"/>
		</g>
		<g>
			<path d="M145.3-375.2c-0.3,0-0.6,0.2-0.7,0.6l-0.5,2.8c0,0.3-0.3,0.5-0.6,0.6l-2.8,0.5c-0.8,0.1-0.8,1.3,0,1.4l2.8,0.5
				c0.3,0,0.5,0.3,0.6,0.6l0.5,2.8c0.1,0.4,0.4,0.6,0.7,0.6c0.3,0,0.6-0.2,0.7-0.6l0.5-2.8c0-0.3,0.3-0.5,0.6-0.6l2.8-0.5
				c0.8-0.1,0.8-1.3,0-1.4l-2.8-0.5c-0.3,0-0.5-0.3-0.6-0.6l-0.5-2.8C146-375,145.6-375.2,145.3-375.2 M145.3-377.2
				c1.3,0,2.5,1,2.7,2.3l0.3,1.9l1.9,0.3c1.3,0.2,2.3,1.3,2.3,2.7s-1,2.5-2.3,2.7l-1.9,0.3l-0.3,1.9c-0.2,1.3-1.3,2.3-2.7,2.3
				c-1.3,0-2.5-1-2.7-2.3l-0.3-1.9l-1.9-0.3c-1.3-0.2-2.3-1.3-2.3-2.7s1-2.5,2.3-2.7l1.9-0.3l0.3-1.9
				C142.9-376.2,144-377.2,145.3-377.2L145.3-377.2z"/>
			<path d="M196.7-426.8c-0.3,0-0.6,0.2-0.7,0.6l-0.5,2.8c0,0.3-0.3,0.5-0.6,0.6l-2.8,0.5c-0.8,0.1-0.8,1.3,0,1.4l2.8,0.5
				c0.3,0,0.5,0.3,0.6,0.6l0.5,2.8c0.1,0.4,0.4,0.6,0.7,0.6c0.3,0,0.6-0.2,0.7-0.6l0.5-2.8c0-0.3,0.3-0.5,0.6-0.6l2.8-0.5
				c0.8-0.1,0.8-1.3,0-1.4l-2.8-0.5c-0.3,0-0.5-0.3-0.6-0.6l-0.5-2.8C197.3-426.6,197-426.8,196.7-426.8 M196.7-428.8
				c1.3,0,2.5,1,2.7,2.3l0.3,1.9l1.9,0.3c1.3,0.2,2.3,1.3,2.3,2.7c0,1.3-1,2.5-2.3,2.7l-1.9,0.3l-0.3,1.9c-0.2,1.3-1.3,2.3-2.7,2.3
				c-1.3,0-2.5-1-2.7-2.3l-0.3-1.9l-1.9-0.3c-1.3-0.2-2.3-1.3-2.3-2.7c0-1.3,1-2.5,2.3-2.7l1.9-0.3l0.3-1.9
				C194.3-427.9,195.4-428.8,196.7-428.8L196.7-428.8z"/>
			<path d="M197-372.5c-1.4,0-2.5,1.1-2.5,2.5c0,1.4,1.1,2.5,2.5,2.5c1.4,0,2.5-1.1,2.5-2.5C199.5-371.4,198.4-372.5,197-372.5
				 M197-374.5c2.5,0,4.5,2,4.5,4.5s-2,4.5-4.5,4.5s-4.5-2-4.5-4.5S194.5-374.5,197-374.5L197-374.5z"/>
			<path d="M145.1-424.2c-1.4,0-2.5,1.1-2.5,2.5c0,1.4,1.1,2.5,2.5,2.5s2.5-1.1,2.5-2.5C147.6-423,146.4-424.2,145.1-424.2
				 M145.1-426.2c2.5,0,4.5,2,4.5,4.5c0,2.5-2,4.5-4.5,4.5s-4.5-2-4.5-4.5C140.6-424.1,142.6-426.2,145.1-426.2L145.1-426.2z"/>
		</g>
		<g>
			<path d="M46.6-375.2c-0.3,0-0.6,0.2-0.7,0.6l-0.5,2.8c0,0.3-0.3,0.5-0.6,0.6l-2.8,0.5c-0.8,0.1-0.8,1.3,0,1.4l2.8,0.5
				c0.3,0,0.5,0.3,0.6,0.6l0.5,2.8c0.1,0.4,0.4,0.6,0.7,0.6c0.3,0,0.6-0.2,0.7-0.6l0.5-2.8c0-0.3,0.3-0.5,0.6-0.6l2.8-0.5
				c0.8-0.1,0.8-1.3,0-1.4l-2.8-0.5c-0.3,0-0.5-0.3-0.6-0.6l-0.5-2.8C47.3-375,46.9-375.2,46.6-375.2 M46.6-377.2
				c1.3,0,2.5,1,2.7,2.3l0.3,1.9l1.9,0.3c1.3,0.2,2.3,1.3,2.3,2.7s-1,2.5-2.3,2.7l-1.9,0.3l-0.3,1.9c-0.2,1.3-1.3,2.3-2.7,2.3
				c-1.3,0-2.5-1-2.7-2.3l-0.3-1.9l-1.9-0.3c-1.3-0.2-2.3-1.3-2.3-2.7s1-2.5,2.3-2.7l1.9-0.3l0.3-1.9
				C44.2-376.2,45.3-377.2,46.6-377.2L46.6-377.2z"/>
			<path d="M98-426.8c-0.3,0-0.6,0.2-0.7,0.6l-0.5,2.8c0,0.3-0.3,0.5-0.6,0.6l-2.8,0.5c-0.8,0.1-0.8,1.3,0,1.4l2.8,0.5
				c0.3,0,0.5,0.3,0.6,0.6l0.5,2.8c0.1,0.4,0.4,0.6,0.7,0.6c0.3,0,0.6-0.2,0.7-0.6l0.5-2.8c0-0.3,0.3-0.5,0.6-0.6l2.8-0.5
				c0.8-0.1,0.8-1.3,0-1.4l-2.8-0.5c-0.3,0-0.5-0.3-0.6-0.6l-0.5-2.8C98.6-426.6,98.3-426.8,98-426.8 M98-428.8c1.3,0,2.5,1,2.7,2.3
				l0.3,1.9l1.9,0.3c1.3,0.2,2.3,1.3,2.3,2.7c0,1.3-1,2.5-2.3,2.7l-1.9,0.3l-0.3,1.9c-0.2,1.3-1.3,2.3-2.7,2.3c-1.3,0-2.5-1-2.7-2.3
				l-0.3-1.9l-1.9-0.3c-1.3-0.2-2.3-1.3-2.3-2.7c0-1.3,1-2.5,2.3-2.7l1.9-0.3l0.3-1.9C95.6-427.9,96.7-428.8,98-428.8L98-428.8z"/>
			<path d="M98.3-372.5c-1.4,0-2.5,1.1-2.5,2.5c0,1.4,1.1,2.5,2.5,2.5c1.4,0,2.5-1.1,2.5-2.5C100.8-371.4,99.7-372.5,98.3-372.5
				 M98.3-374.5c2.5,0,4.5,2,4.5,4.5s-2,4.5-4.5,4.5s-4.5-2-4.5-4.5S95.8-374.5,98.3-374.5L98.3-374.5z"/>
			<path d="M46.4-424.2c-1.4,0-2.5,1.1-2.5,2.5c0,1.4,1.1,2.5,2.5,2.5s2.5-1.1,2.5-2.5C48.9-423,47.7-424.2,46.4-424.2 M46.4-426.2
				c2.5,0,4.5,2,4.5,4.5c0,2.5-2,4.5-4.5,4.5s-4.5-2-4.5-4.5C41.9-424.1,43.9-426.2,46.4-426.2L46.4-426.2z"/>
		</g>
	</g>
</pattern>
<g>
	<g>
		<path class="st1" d="M270,155c0,5.5-4.5,10-10,10H18.4c-5.5,0-10-4.5-10-10V25c0-5.5,4.5-10,10-10H260c5.5,0,10,4.5,10,10V155z"/>
	</g>
	<g>
		<pattern  id="SVGID_1_" xlink:href="#New_Pattern_4" patternTransform="matrix(1 0 0 1 -147 -199)">
		</pattern>
		<path class="st2" d="M267,155c0,5.5-4.5,10-10,10H18.4c-5.5,0-10-4.5-10-10V25c0-5.5,4.5-10,10-10H257c5.5,0,10,4.5,10,10V155z"/>
	</g>
	<g>
		<path class="st1" d="M226,94c0,5.5-4.5,10-10,10H74c-5.5,0-10-4.5-10-10V83c0-5.5,4.5-10,10-10h142c5.5,0,10,4.5,10,10V94z"/>
	</g>
	<g>
		<path d="M73.9,76.5h-5.9v4.1h5.4v3.1h-5.4v6.5h-3.8V73.5h9.7V76.5z"/>
		<path d="M84.9,90.6c-2.4,0-4.4-0.8-5.9-2.3s-2.3-3.6-2.3-6.1c0-2.7,0.8-4.8,2.3-6.4s3.6-2.5,6.1-2.5c2.4,0,4.3,0.8,5.8,2.4
			s2.2,3.6,2.2,6.2c0,2.6-0.8,4.8-2.3,6.4S87.4,90.6,84.9,90.6z M85.1,76.4c-1.3,0-2.4,0.5-3.2,1.5s-1.2,2.3-1.2,4
			c0,1.7,0.4,3,1.2,3.9s1.8,1.5,3.1,1.5c1.3,0,2.3-0.5,3.1-1.4s1.1-2.2,1.1-3.9c0-1.7-0.4-3.1-1.1-4.1S86.4,76.4,85.1,76.4z"/>
		<path d="M109.3,89.7c-1.2,0.6-2.8,0.9-4.8,0.9c-2.6,0-4.6-0.8-6.1-2.3s-2.2-3.5-2.2-6.1c0-2.7,0.8-4.9,2.5-6.5s3.8-2.5,6.5-2.5
			c1.6,0,3,0.2,4.1,0.6v3.6c-1.1-0.7-2.4-1-3.8-1c-1.6,0-2.9,0.5-3.8,1.5s-1.5,2.3-1.5,4c0,1.6,0.5,2.9,1.4,3.9s2.1,1.4,3.7,1.4
			c1.5,0,2.8-0.4,4.1-1.1V89.7z"/>
		<path d="M127.1,83c0,5-2.4,7.6-7.1,7.6c-4.6,0-6.8-2.5-6.8-7.4v-9.7h3.8v9.8c0,2.7,1.1,4.1,3.2,4.1c2.1,0,3.1-1.3,3.1-3.9v-9.9
			h3.8V83z"/>
		<path d="M131.2,89.6v-3.8c0.7,0.6,1.4,1,2.2,1.3s1.6,0.4,2.4,0.4c0.5,0,0.9,0,1.2-0.1s0.7-0.2,0.9-0.4s0.4-0.3,0.5-0.5
			s0.2-0.4,0.2-0.7c0-0.3-0.1-0.6-0.3-0.9s-0.4-0.5-0.8-0.7s-0.7-0.4-1.2-0.6s-0.9-0.4-1.4-0.6c-1.3-0.5-2.3-1.2-2.9-2s-1-1.7-1-2.9
			c0-0.9,0.2-1.6,0.5-2.3s0.8-1.1,1.4-1.6s1.3-0.7,2.1-0.9s1.6-0.3,2.5-0.3c0.9,0,1.7,0.1,2.3,0.2s1.3,0.3,1.9,0.5v3.5
			c-0.3-0.2-0.6-0.4-0.9-0.5s-0.7-0.3-1-0.4s-0.7-0.2-1-0.2s-0.7-0.1-1-0.1c-0.4,0-0.8,0-1.2,0.1s-0.6,0.2-0.9,0.3s-0.4,0.3-0.6,0.5
			s-0.2,0.4-0.2,0.7c0,0.3,0.1,0.5,0.2,0.8s0.4,0.4,0.6,0.6s0.6,0.4,1,0.6s0.8,0.4,1.3,0.6c0.7,0.3,1.3,0.6,1.8,0.9s1,0.7,1.4,1.1
			s0.7,0.9,0.9,1.4s0.3,1.1,0.3,1.8c0,0.9-0.2,1.7-0.5,2.4s-0.8,1.2-1.4,1.5s-1.3,0.7-2.1,0.8s-1.7,0.3-2.6,0.3
			c-0.9,0-1.8-0.1-2.6-0.2S131.8,89.9,131.2,89.6z"/>
		<path d="M173.6,90.3h-3.7V80.2c0-1.1,0-2.3,0.1-3.6h-0.1c-0.2,1-0.4,1.8-0.5,2.2l-3.9,11.4h-3.1l-4-11.3c-0.1-0.3-0.3-1.1-0.5-2.3
			h-0.1c0.1,1.7,0.2,3.1,0.2,4.4v9.3h-3.4V73.5h5.5l3.4,10c0.3,0.8,0.5,1.6,0.6,2.4h0.1c0.2-0.9,0.4-1.7,0.7-2.4l3.4-9.9h5.4V90.3z"
			/>
		<path d="M185.7,90.6c-2.4,0-4.4-0.8-5.9-2.3s-2.3-3.6-2.3-6.1c0-2.7,0.8-4.8,2.3-6.4s3.6-2.5,6.1-2.5c2.4,0,4.3,0.8,5.8,2.4
			s2.2,3.6,2.2,6.2c0,2.6-0.8,4.8-2.3,6.4S188.2,90.6,185.7,90.6z M185.9,76.4c-1.3,0-2.4,0.5-3.2,1.5s-1.2,2.3-1.2,4
			c0,1.7,0.4,3,1.2,3.9s1.8,1.5,3.1,1.5c1.3,0,2.3-0.5,3.1-1.4s1.1-2.2,1.1-3.9c0-1.7-0.4-3.1-1.1-4.1S187.2,76.4,185.9,76.4z"/>
		<path d="M198,90.3V73.5h6c6,0,9,2.7,9,8.2c0,2.6-0.8,4.7-2.4,6.3s-3.8,2.3-6.5,2.3H198z M201.8,76.5v10.7h1.9
			c1.6,0,2.9-0.5,3.9-1.5s1.4-2.3,1.4-4c0-1.6-0.5-2.9-1.4-3.8s-2.2-1.4-3.9-1.4H201.8z"/>
		<path d="M227,90.3h-10.1V73.5h9.7v3.1h-5.9v3.7h5.5v3.1h-5.5v3.8h6.3V90.3z"/>
		<path d="M120.7,101.5c0.3,0,0.6-0.1,0.8-0.2c0.2-0.1,0.4-0.2,0.6-0.4s0.3-0.4,0.4-0.6s0.1-0.5,0.1-0.8v-4.4h1v4.4
			c0,0.4-0.1,0.8-0.2,1.1c-0.1,0.4-0.3,0.7-0.6,0.9c-0.2,0.3-0.5,0.5-0.9,0.6c-0.4,0.1-0.8,0.2-1.2,0.2c-0.4,0-0.8-0.1-1.2-0.2
			c-0.4-0.1-0.7-0.3-0.9-0.6c-0.2-0.3-0.4-0.6-0.6-0.9c-0.1-0.4-0.2-0.7-0.2-1.1v-4.4h1v4.3c0,0.3,0,0.6,0.1,0.8s0.2,0.5,0.4,0.6
			c0.2,0.2,0.4,0.3,0.6,0.4C120.2,101.4,120.4,101.5,120.7,101.5z"/>
		<path d="M127.4,98.6l-2.4-3.5h1c0.1,0,0.1,0,0.2,0s0.1,0.1,0.1,0.1l1.9,2.9c0-0.1,0.1-0.1,0.1-0.2l1.8-2.6c0,0,0.1-0.1,0.1-0.1
			c0,0,0.1,0,0.1,0h0.9l-2.4,3.4l2.5,3.7h-1c-0.1,0-0.1,0-0.2-0.1c0,0-0.1-0.1-0.1-0.1l-1.9-3c0,0.1-0.1,0.1-0.1,0.2l-1.9,2.8
			c0,0-0.1,0.1-0.1,0.1c0,0-0.1,0.1-0.2,0.1h-0.9L127.4,98.6z"/>
		<path d="M141.2,98.7c0,0.5-0.1,1-0.3,1.5c-0.2,0.4-0.4,0.8-0.7,1.1c-0.3,0.3-0.7,0.6-1.1,0.7c-0.4,0.2-0.9,0.3-1.4,0.3h-2.7v-7.2
			h2.7c0.5,0,1,0.1,1.4,0.3c0.4,0.2,0.8,0.4,1.1,0.7c0.3,0.3,0.5,0.7,0.7,1.1C141.1,97.7,141.2,98.1,141.2,98.7z M140.2,98.7
			c0-0.4-0.1-0.8-0.2-1.2c-0.1-0.3-0.3-0.6-0.5-0.9c-0.2-0.2-0.5-0.4-0.8-0.6c-0.3-0.1-0.7-0.2-1-0.2h-1.7v5.6h1.7
			c0.4,0,0.7-0.1,1-0.2c0.3-0.1,0.6-0.3,0.8-0.5s0.4-0.5,0.5-0.9C140.1,99.5,140.2,99.1,140.2,98.7z"/>
		<path d="M147.3,95.1v0.8h-3.4v2.4h2.8V99h-2.8v2.4h3.4v0.8h-4.4v-7.2H147.3z"/>
		<path d="M152.9,96.2c0,0-0.1,0.1-0.1,0.1c0,0-0.1,0-0.1,0c-0.1,0-0.1,0-0.2-0.1c-0.1-0.1-0.2-0.1-0.3-0.2
			c-0.1-0.1-0.3-0.1-0.4-0.2c-0.2-0.1-0.4-0.1-0.6-0.1c-0.2,0-0.4,0-0.6,0.1c-0.2,0.1-0.3,0.1-0.4,0.2c-0.1,0.1-0.2,0.2-0.3,0.4
			s-0.1,0.3-0.1,0.4c0,0.2,0,0.4,0.1,0.5s0.2,0.2,0.4,0.3c0.2,0.1,0.3,0.2,0.5,0.2s0.4,0.1,0.6,0.2c0.2,0.1,0.4,0.2,0.6,0.2
			s0.4,0.2,0.5,0.3c0.2,0.1,0.3,0.3,0.4,0.5c0.1,0.2,0.1,0.5,0.1,0.8c0,0.3-0.1,0.6-0.2,0.9c-0.1,0.3-0.3,0.5-0.5,0.7
			s-0.5,0.4-0.8,0.5c-0.3,0.1-0.6,0.2-1,0.2c-0.5,0-0.9-0.1-1.3-0.3c-0.4-0.2-0.7-0.4-1-0.7l0.3-0.5c0,0,0.1-0.1,0.1-0.1
			c0,0,0.1,0,0.1,0c0.1,0,0.1,0,0.2,0.1c0.1,0.1,0.2,0.2,0.3,0.2c0.1,0.1,0.3,0.2,0.5,0.2c0.2,0.1,0.4,0.1,0.7,0.1
			c0.2,0,0.4,0,0.6-0.1c0.2-0.1,0.3-0.2,0.5-0.3c0.1-0.1,0.2-0.3,0.3-0.4c0.1-0.2,0.1-0.3,0.1-0.5c0-0.2,0-0.4-0.1-0.5
			s-0.2-0.3-0.4-0.3c-0.2-0.1-0.3-0.2-0.5-0.2c-0.2-0.1-0.4-0.1-0.6-0.2s-0.4-0.1-0.6-0.2s-0.4-0.2-0.5-0.4
			c-0.2-0.1-0.3-0.3-0.4-0.5c-0.1-0.2-0.1-0.5-0.1-0.8c0-0.3,0-0.5,0.1-0.7c0.1-0.2,0.2-0.4,0.4-0.6c0.2-0.2,0.4-0.3,0.7-0.4
			c0.3-0.1,0.6-0.2,0.9-0.2c0.4,0,0.8,0.1,1.1,0.2c0.3,0.1,0.6,0.3,0.9,0.5L152.9,96.2z"/>
		<path d="M156.1,102.3h-1v-7.2h1V102.3z"/>
		<path d="M161.6,101.6c0.2,0,0.4,0,0.5,0c0.2,0,0.3,0,0.5-0.1c0.1,0,0.3-0.1,0.4-0.1s0.3-0.1,0.4-0.2v-1.6h-1.1
			c-0.1,0-0.1,0-0.2-0.1c0,0-0.1-0.1-0.1-0.1v-0.6h2.2v2.8c-0.2,0.1-0.4,0.2-0.6,0.3c-0.2,0.1-0.4,0.2-0.6,0.2
			c-0.2,0.1-0.5,0.1-0.7,0.1c-0.3,0-0.5,0-0.8,0c-0.5,0-1-0.1-1.4-0.3s-0.8-0.4-1.1-0.8c-0.3-0.3-0.6-0.7-0.7-1.2
			c-0.2-0.5-0.3-0.9-0.3-1.5c0-0.5,0.1-1,0.3-1.5c0.2-0.5,0.4-0.8,0.7-1.2s0.7-0.6,1.2-0.7c0.5-0.2,1-0.3,1.5-0.3
			c0.3,0,0.5,0,0.8,0.1c0.2,0,0.5,0.1,0.7,0.2c0.2,0.1,0.4,0.2,0.6,0.3c0.2,0.1,0.3,0.2,0.5,0.4l-0.3,0.4c-0.1,0.1-0.1,0.1-0.2,0.1
			c-0.1,0-0.1,0-0.2-0.1c-0.1,0-0.2-0.1-0.3-0.2c-0.1-0.1-0.2-0.1-0.4-0.2c-0.1-0.1-0.3-0.1-0.5-0.2c-0.2,0-0.4-0.1-0.7-0.1
			c-0.4,0-0.8,0.1-1.1,0.2c-0.3,0.1-0.6,0.3-0.8,0.6s-0.4,0.5-0.5,0.9c-0.1,0.3-0.2,0.7-0.2,1.2c0,0.5,0.1,0.9,0.2,1.2
			c0.1,0.4,0.3,0.7,0.5,0.9c0.2,0.2,0.5,0.4,0.8,0.6C160.9,101.5,161.3,101.6,161.6,101.6z"/>
		<path d="M166.9,95.1c0,0,0.1,0.1,0.1,0.1l4.1,5.4c0-0.1,0-0.2,0-0.3s0-0.2,0-0.2v-5.1h0.9v7.2h-0.5c-0.1,0-0.1,0-0.2,0
			s-0.1-0.1-0.2-0.1l-4.1-5.4c0,0.1,0,0.2,0,0.2s0,0.2,0,0.2v5.1h-0.9v-7.2h0.5C166.8,95.1,166.9,95.1,166.9,95.1z"/>
	</g>
	<g>
		<path d="M256.6,12c5.5,0,10,4.5,10,10v130c0,5.5-4.5,10-10,10H15c-5.5,0-10-4.5-10-10V22c0-5.5,4.5-10,10-10H256.6 M256.6,10.8H15
			c-6.2,0-11.3,5-11.3,11.3v130c0,6.2,5,11.3,11.3,11.3h241.6c6.2,0,11.3-5,11.3-11.3V22C267.9,15.8,262.8,10.8,256.6,10.8
			L256.6,10.8z"/>
	</g>
</g>
</svg>
