<?xml version="1.0" encoding="utf-8"?>
<!-- Generator: Adobe Illustrator 22.0.1, SVG Export Plug-In . SVG Version: 6.00 Build 0)  -->
<svg version="1.1" id="Layer_1" xmlns="http://www.w3.org/2000/svg" xmlns:xlink="http://www.w3.org/1999/xlink" x="0px" y="0px"
	 width="631.17px" height="330.52px" viewBox="0 0 631.17 330.52" style="enable-background:new 0 0 631.17 330.52;"
	 xml:space="preserve">
<style type="text/css">
	.st0{fill:#E5CADF;}
	.st1{fill:none;stroke:#000000;stroke-width:1.25;stroke-miterlimit:10;}
	.st2{fill:url(#SVGID_1_);}
	.st3{fill:url(#SVGID_2_);}
	.st4{fill:url(#SVGID_3_);}
	.st5{fill:#ECCA75;}
	.st6{fill:#888782;}
	.st7{fill:#BABEC1;}
	.st8{fill:url(#SVGID_4_);}
	.st9{fill:url(#SVGID_5_);}
	.st10{fill:url(#SVGID_6_);}
	.st11{fill:#F1F1F2;}
	.st12{fill:#8BC53F;}
	.st13{fill:url(#SVGID_7_);}
	.st14{fill:#383C3F;}
</style>
<g>
	<g>
		<rect x="25.73" y="4.51" class="st0" width="600" height="300"/>
	</g>
	<rect x="5.43" y="26.01" class="st1" width="600" height="300"/>
	<g>
		<g>
			<g>
				<g>
					<linearGradient id="SVGID_1_" gradientUnits="userSpaceOnUse" x1="106.4968" y1="145.9487" x2="195.1812" y2="145.9487">
						<stop  offset="0" style="stop-color:#FFA3AC"/>
						<stop  offset="0.5326" style="stop-color:#FFB1CB"/>
						<stop  offset="1" style="stop-color:#FFBFEA"/>
					</linearGradient>
					<path class="st2" d="M195.18,137.19c0-24.49-19.85-44.34-44.34-44.34s-44.34,19.85-44.34,44.34c0,16.5,12.41,28.72,12.41,28.72
						c5.49,5.4,9.98,15.07,9.98,21.48c0,6.41,6.3,11.66,14,11.66h16.34c7.7,0,14-5.31,14-11.79c0-6.48,4.45-16.25,9.9-21.69
						C183.13,165.57,195.18,153.51,195.18,137.19z"/>
				</g>
				<linearGradient id="SVGID_2_" gradientUnits="userSpaceOnUse" x1="129.832" y1="220.3192" x2="172.5112" y2="220.3192">
					<stop  offset="0" style="stop-color:#FFA3AC"/>
					<stop  offset="0.5326" style="stop-color:#FFB1CB"/>
					<stop  offset="1" style="stop-color:#FFBFEA"/>
				</linearGradient>
				<path class="st3" d="M129.84,215.65c0,0.07-0.01,0.13-0.01,0.19c0,5.05,9.55,9.14,21.34,9.14c11.79,0,21.34-4.09,21.34-9.14
					c0-0.06-0.01-0.13-0.01-0.19H129.84z"/>
				<linearGradient id="SVGID_3_" gradientUnits="userSpaceOnUse" x1="128.7231" y1="204.0653" x2="173.4166" y2="204.0653">
					<stop  offset="0" style="stop-color:#FFA3AC"/>
					<stop  offset="0.5326" style="stop-color:#FFB1CB"/>
					<stop  offset="1" style="stop-color:#FFBFEA"/>
				</linearGradient>
				<rect x="128.72" y="190.93" class="st4" width="44.69" height="26.27"/>
			</g>
			<g>
				<g>
					<path class="st5" d="M204,128.38c0-24.49-19.85-44.34-44.34-44.34s-44.34,19.85-44.34,44.34c0,16.5,12.41,28.72,12.41,28.72
						c5.49,5.4,9.98,15.07,9.98,21.48c0,6.41,6.3,11.66,14,11.66h16.34c7.7,0,14-5.31,14-11.79c0-6.48,4.45-16.25,9.9-21.69
						C191.94,156.75,204,144.7,204,128.38z"/>
				</g>
				<path class="st6" d="M138.66,206.83c0,0.07-0.01,0.13-0.01,0.19c0,5.05,9.55,9.14,21.34,9.14c11.79,0,21.34-4.09,21.34-9.14
					c0-0.06-0.01-0.13-0.01-0.19H138.66z"/>
				<rect x="137.54" y="182.11" class="st7" width="44.69" height="26.27"/>
			</g>
		</g>
		<g>
			<g>
				<g>
					<linearGradient id="SVGID_4_" gradientUnits="userSpaceOnUse" x1="294.1221" y1="123.3546" x2="318.1736" y2="123.3546">
						<stop  offset="0" style="stop-color:#FFA3AC"/>
						<stop  offset="0.5326" style="stop-color:#FFB1CB"/>
						<stop  offset="1" style="stop-color:#FFBFEA"/>
					</linearGradient>
					<polyline class="st8" points="318.17,146.83 318.17,99.88 294.12,99.88 294.12,146.83 					"/>
					<g>
						<linearGradient id="SVGID_5_" gradientUnits="userSpaceOnUse" x1="254.7357" y1="185.9095" x2="357.5605" y2="185.9095">
							<stop  offset="0" style="stop-color:#FFA3AC"/>
							<stop  offset="0.5326" style="stop-color:#FFB1CB"/>
							<stop  offset="1" style="stop-color:#FFBFEA"/>
						</linearGradient>
						<path class="st9" d="M294.12,146.83L256.5,212c-4.13,7.14-0.75,12.99,7.5,12.99h84.3c8.25,0,11.62-5.85,7.5-12.99
							l-37.63-65.17"/>
					</g>
					<g>
						<linearGradient id="SVGID_6_" gradientUnits="userSpaceOnUse" x1="266.0087" y1="188.4746" x2="346.6566" y2="188.4746">
							<stop  offset="0" style="stop-color:#FFA3AC"/>
							<stop  offset="0.5326" style="stop-color:#FFB1CB"/>
							<stop  offset="1" style="stop-color:#FFBFEA"/>
						</linearGradient>
						<path class="st10" d="M296.64,156.98l-28.87,50.01c-4.13,7.14-0.75,12.99,7.5,12.99h62.13c8.25,0,11.63-5.85,7.5-12.99
							l-28.87-50.01"/>
					</g>
				</g>
			</g>
			<g>
				<polyline class="st11" points="332.6,138.01 332.6,91.06 308.55,91.06 308.55,138.01 				"/>
				<g>
					<path class="st11" d="M308.55,138.01l-37.63,65.17c-4.13,7.14-0.75,12.99,7.5,12.99h84.3c8.25,0,11.62-5.85,7.5-12.99
						l-37.63-65.17"/>
				</g>
				<g>
					<path class="st12" d="M311.06,148.16l-28.87,50.01c-4.13,7.14-0.75,12.99,7.5,12.99h62.13c8.25,0,11.63-5.85,7.5-12.99
						l-28.87-50.01"/>
				</g>
			</g>
		</g>
		<g>
			<linearGradient id="SVGID_7_" gradientUnits="userSpaceOnUse" x1="422.7247" y1="160.4332" x2="530.5449" y2="160.4332">
				<stop  offset="0" style="stop-color:#FFA3AC"/>
				<stop  offset="0.5326" style="stop-color:#FFB1CB"/>
				<stop  offset="1" style="stop-color:#FFBFEA"/>
			</linearGradient>
			<path class="st13" d="M450.97,213.17c3.77-4.23,4.91-9.89,3.55-14.98l0.12,0.11l48.02-53.82c7.8,2.38,16.63,0.22,22.41-6.26
				c5.79-6.49,6.93-15.5,3.68-22.98l-12.84,14.39l-10.16-2.16l-0.1-0.07l-3.2-9.77l12.84-14.39c-7.8-2.38-16.63-0.22-22.41,6.26
				c-5.79,6.49-6.93,15.5-3.68,22.98l-48.02,53.82l0.12,0.11c-5.22-0.78-10.71,1-14.48,5.23c-5.95,6.67-5.37,16.89,1.3,22.84
				C434.8,220.42,445.03,219.84,450.97,213.17z M433.13,197.53c2.78-3.11,7.55-3.38,10.66-0.61c3.11,2.78,3.38,7.55,0.61,10.66
				c-2.78,3.11-7.55,3.38-10.66,0.61C430.63,205.41,430.35,200.64,433.13,197.53z"/>
			<path class="st14" d="M465.4,212.11c3.77-4.23,4.91-9.89,3.55-14.98l0.12,0.11l48.02-53.82c7.8,2.38,16.63,0.22,22.41-6.26
				c5.79-6.49,6.93-15.5,3.68-22.98l-12.84,14.39l-10.16-2.16l-0.1-0.07l-3.2-9.77l12.84-14.39c-7.8-2.38-16.63-0.22-22.41,6.26
				c-5.79,6.49-6.93,15.5-3.68,22.98l-48.02,53.82l0.12,0.11c-5.22-0.78-10.71,1-14.48,5.23c-5.95,6.67-5.37,16.89,1.3,22.84
				C449.22,219.36,459.45,218.77,465.4,212.11z M447.56,196.47c2.78-3.11,7.55-3.38,10.66-0.61c3.11,2.78,3.38,7.55,0.61,10.66
				c-2.78,3.11-7.55,3.38-10.66,0.61C445.05,204.35,444.78,199.58,447.56,196.47z"/>
		</g>
	</g>
</g>
</svg>
