<svg width="75" height="75" viewBox="0 0 75 75" fill="none" xmlns="http://www.w3.org/2000/svg">
<circle cx="37.5" cy="37.5" r="37.5" fill="#0057FF"/>
<g filter="url(#filter0_di)">
<path d="M29.1709 41.59C29.3175 41.59 29.4475 41.6467 29.5609 41.76L30.6209 42.91C30.0342 43.6367 29.3109 44.1933 28.4509 44.58C27.5975 44.9667 26.5709 45.16 25.3709 45.16C24.2975 45.16 23.3309 44.9767 22.4709 44.61C21.6175 44.2433 20.8875 43.7333 20.2809 43.08C19.6742 42.4267 19.2075 41.6467 18.8809 40.74C18.5609 39.8333 18.4009 38.8433 18.4009 37.77C18.4009 36.6833 18.5742 35.69 18.9209 34.79C19.2675 33.8833 19.7542 33.1033 20.3809 32.45C21.0142 31.7967 21.7675 31.29 22.6409 30.93C23.5142 30.5633 24.4809 30.38 25.5409 30.38C26.5942 30.38 27.5275 30.5533 28.3409 30.9C29.1609 31.2467 29.8575 31.7 30.4309 32.26L29.5309 33.51C29.4775 33.59 29.4075 33.66 29.3209 33.72C29.2409 33.78 29.1275 33.81 28.9809 33.81C28.8809 33.81 28.7775 33.7833 28.6709 33.73C28.5642 33.67 28.4475 33.6 28.3209 33.52C28.1942 33.4333 28.0475 33.34 27.8809 33.24C27.7142 33.14 27.5209 33.05 27.3009 32.97C27.0809 32.8833 26.8242 32.8133 26.5309 32.76C26.2442 32.7 25.9109 32.67 25.5309 32.67C24.8842 32.67 24.2909 32.7867 23.7509 33.02C23.2175 33.2467 22.7575 33.58 22.3709 34.02C21.9842 34.4533 21.6842 34.9867 21.4709 35.62C21.2575 36.2467 21.1509 36.9633 21.1509 37.77C21.1509 38.5833 21.2642 39.3067 21.4909 39.94C21.7242 40.5733 22.0375 41.1067 22.4309 41.54C22.8242 41.9733 23.2875 42.3067 23.8209 42.54C24.3542 42.7667 24.9275 42.88 25.5409 42.88C25.9075 42.88 26.2375 42.86 26.5309 42.82C26.8309 42.78 27.1042 42.7167 27.3509 42.63C27.6042 42.5433 27.8409 42.4333 28.0609 42.3C28.2875 42.16 28.5109 41.99 28.7309 41.79C28.7975 41.73 28.8675 41.6833 28.9409 41.65C29.0142 41.61 29.0909 41.59 29.1709 41.59ZM53.7035 30.54L49.2135 45H46.7835L43.6235 35.12C43.5368 34.88 43.4568 34.5867 43.3835 34.24C43.3435 34.4067 43.3035 34.5633 43.2635 34.71C43.2235 34.8567 43.1802 34.9933 43.1335 35.12L39.9435 45H37.5035L33.0235 30.54H35.2735C35.5068 30.54 35.7002 30.5967 35.8535 30.71C36.0135 30.8167 36.1202 30.9633 36.1735 31.15L38.6335 39.8C38.6868 40.0133 38.7368 40.2467 38.7835 40.5C38.8368 40.7467 38.8902 41.0067 38.9435 41.28C38.9968 41 39.0535 40.7367 39.1135 40.49C39.1802 40.2433 39.2502 40.0133 39.3235 39.8L42.1635 31.15C42.2168 30.9967 42.3202 30.8567 42.4735 30.73C42.6335 30.6033 42.8268 30.54 43.0535 30.54H43.8435C44.0768 30.54 44.2668 30.5967 44.4135 30.71C44.5602 30.8233 44.6702 30.97 44.7435 31.15L47.5735 39.8C47.7135 40.2133 47.8402 40.69 47.9535 41.23C48.0402 40.7033 48.1368 40.2267 48.2435 39.8L50.7035 31.15C50.7435 30.9833 50.8435 30.84 51.0035 30.72C51.1702 30.6 51.3668 30.54 51.5935 30.54H53.7035Z" fill="#0057FF"/>
<path d="M29.5609 41.76L30.2962 41.0823L30.2824 41.0673L30.268 41.0529L29.5609 41.76ZM30.6209 42.91L31.3989 43.5382L31.941 42.8668L31.3562 42.2323L30.6209 42.91ZM28.4509 44.58L28.0408 43.6679L28.0381 43.6691L28.4509 44.58ZM22.4709 44.61L22.0761 45.5288L22.0787 45.5299L22.4709 44.61ZM20.2809 43.08L19.5481 43.7605L20.2809 43.08ZM18.8809 40.74L17.9378 41.0728L17.9401 41.079L18.8809 40.74ZM18.9209 34.79L19.854 35.1494L19.8549 35.1471L18.9209 34.79ZM20.3809 32.45L19.6628 31.754L19.6592 31.7578L20.3809 32.45ZM22.6409 30.93L23.022 31.8546L23.028 31.852L22.6409 30.93ZM28.3409 30.9L27.9488 31.8199L27.9515 31.8211L28.3409 30.9ZM30.4309 32.26L31.2424 32.8443L31.7452 32.1459L31.1296 31.5446L30.4309 32.26ZM29.5309 33.51L28.7193 32.9257L28.7088 32.9403L28.6988 32.9553L29.5309 33.51ZM29.3209 33.72L28.7516 32.8978L28.736 32.9086L28.7209 32.92L29.3209 33.72ZM28.6709 33.73L28.1806 34.6016L28.2018 34.6135L28.2236 34.6244L28.6709 33.73ZM28.3209 33.52L27.7562 34.3453L27.7713 34.3557L27.7869 34.3655L28.3209 33.52ZM27.8809 33.24L27.3664 34.0975H27.3664L27.8809 33.24ZM27.3009 32.97L26.9343 33.9004L26.9467 33.9053L26.9591 33.9098L27.3009 32.97ZM26.5309 32.76L26.326 33.7388L26.339 33.7415L26.352 33.7439L26.5309 32.76ZM23.7509 33.02L24.142 33.9403L24.1475 33.938L23.7509 33.02ZM22.3709 34.02L23.117 34.6858L23.122 34.6801L22.3709 34.02ZM21.4709 35.62L22.4175 35.9423L22.4185 35.9392L21.4709 35.62ZM21.4909 39.94L20.5493 40.277L20.5525 40.2857L21.4909 39.94ZM22.4309 41.54L21.6904 42.2121L22.4309 41.54ZM23.8209 42.54L23.42 43.4562L23.4297 43.4603L23.8209 42.54ZM26.5309 42.82L26.3987 41.8288L26.3957 41.8292L26.5309 42.82ZM27.3509 42.63L27.0272 41.6838L27.0194 41.6865L27.3509 42.63ZM28.0609 42.3L28.5792 43.1552L28.5864 43.1508L28.0609 42.3ZM28.7309 41.79L28.0619 41.0467L28.0582 41.0501L28.7309 41.79ZM28.9409 41.65L29.3547 42.5604L29.3878 42.5453L29.4197 42.5279L28.9409 41.65ZM29.1709 42.59C29.1115 42.59 29.0442 42.5777 28.9788 42.5492C28.9151 42.5214 28.8741 42.4875 28.8538 42.4671L30.268 41.0529C29.9863 40.7712 29.6087 40.59 29.1709 40.59V42.59ZM28.8256 42.4377L29.8856 43.5877L31.3562 42.2323L30.2962 41.0823L28.8256 42.4377ZM29.8428 42.2818C29.3558 42.8851 28.759 43.345 28.0408 43.6679L28.8609 45.4921C29.8628 45.0416 30.7126 44.3883 31.3989 43.5382L29.8428 42.2818ZM28.0381 43.6691C27.3455 43.983 26.467 44.16 25.3709 44.16V46.16C26.6747 46.16 27.8496 45.9503 28.8636 45.4909L28.0381 43.6691ZM25.3709 44.16C24.4125 44.16 23.582 43.9967 22.8631 43.6901L22.0787 45.5299C23.0797 45.9567 24.1826 46.16 25.3709 46.16V44.16ZM22.8656 43.6912C22.1349 43.3772 21.5215 42.9465 21.0137 42.3995L19.5481 43.7605C20.2535 44.5202 21.1002 45.1094 22.0761 45.5288L22.8656 43.6912ZM21.0137 42.3995C20.5058 41.8526 20.1064 41.1914 19.8217 40.401L17.9401 41.079C18.3086 42.1019 18.8426 43.0007 19.5481 43.7605L21.0137 42.3995ZM19.8238 40.4072C19.5457 39.6191 19.4009 38.743 19.4009 37.77H17.4009C17.4009 38.9436 17.576 40.0476 17.9379 41.0728L19.8238 40.4072ZM19.4009 37.77C19.4009 36.7908 19.5568 35.9212 19.854 35.1494L17.9877 34.4306C17.5916 35.4588 17.4009 36.5759 17.4009 37.77H19.4009ZM19.8549 35.1471C20.1574 34.3561 20.5749 33.6924 21.1025 33.1422L19.6592 31.7578C18.9335 32.5143 18.3777 33.4106 17.9868 34.4329L19.8549 35.1471ZM21.0989 33.146C21.6331 32.5949 22.2705 32.1643 23.022 31.8545L22.2598 30.0055C21.2646 30.4157 20.3953 30.9984 19.6628 31.754L21.0989 33.146ZM23.028 31.852C23.7649 31.5426 24.598 31.38 25.5409 31.38V29.38C24.3638 29.38 23.2634 29.584 22.2537 30.008L23.028 31.852ZM25.5409 31.38C26.4848 31.38 27.2807 31.5352 27.9488 31.8199L28.733 29.9801C27.7743 29.5715 26.7036 29.38 25.5409 29.38V31.38ZM27.9515 31.8211C28.6691 32.1245 29.2575 32.5118 29.7321 32.9754L31.1296 31.5446C30.4575 30.8882 29.6526 30.3689 28.7303 29.9789L27.9515 31.8211ZM29.6193 31.6757L28.7193 32.9257L30.3424 34.0943L31.2424 32.8443L29.6193 31.6757ZM28.6988 32.9553C28.7219 32.9207 28.7446 32.9027 28.7516 32.8978L29.8901 34.5422C30.0704 34.4173 30.2332 34.2593 30.3629 34.0647L28.6988 32.9553ZM28.7209 32.92C28.878 32.8021 29.008 32.81 28.9809 32.81V34.81C29.2471 34.81 29.6037 34.7579 29.9209 34.52L28.7209 32.92ZM28.9809 32.81C29.0633 32.81 29.1124 32.8327 29.1181 32.8356L28.2236 34.6244C28.4427 34.7339 28.6985 34.81 28.9809 34.81V32.81ZM29.1611 32.8584C29.0721 32.8083 28.9702 32.7474 28.8549 32.6745L27.7869 34.3655C27.9248 34.4526 28.0563 34.5317 28.1806 34.6016L29.1611 32.8584ZM28.8855 32.6947C28.7388 32.5943 28.5748 32.4902 28.3954 32.3825L27.3664 34.0975C27.5202 34.1898 27.6495 34.2724 27.7562 34.3453L28.8855 32.6947ZM28.3954 32.3825C28.1641 32.2438 27.9109 32.1278 27.6426 32.0302L26.9591 33.9098C27.1308 33.9722 27.2643 34.0362 27.3664 34.0975L28.3954 32.3825ZM27.6674 32.0396C27.3734 31.9238 27.0515 31.8383 26.7097 31.7761L26.352 33.7439C26.5969 33.7884 26.7883 33.8429 26.9343 33.9004L27.6674 32.0396ZM26.7357 31.7812C26.3652 31.7037 25.9606 31.67 25.5309 31.67V33.67C25.8612 33.67 26.1232 33.6963 26.326 33.7388L26.7357 31.7812ZM25.5309 31.67C24.7614 31.67 24.0314 31.8094 23.3542 32.102L24.1475 33.938C24.5503 33.7639 25.007 33.67 25.5309 33.67V31.67ZM23.3597 32.0997C22.6869 32.3856 22.1042 32.8085 21.6197 33.3599L23.122 34.6801C23.4108 34.3515 23.7482 34.1077 24.142 33.9403L23.3597 32.0997ZM21.6247 33.3542C21.1356 33.9023 20.7732 34.5586 20.5232 35.3008L22.4185 35.9392C22.5952 35.4147 22.8328 35.0043 23.117 34.6858L21.6247 33.3542ZM20.5242 35.2977C20.2688 36.048 20.1509 36.8768 20.1509 37.77H22.1509C22.1509 37.0498 22.2463 36.4453 22.4175 35.9423L20.5242 35.2977ZM20.1509 37.77C20.1509 38.6749 20.2768 39.5156 20.5493 40.277L22.4324 39.603C22.2515 39.0978 22.1509 38.4918 22.1509 37.77H20.1509ZM20.5525 40.2857C20.8235 41.0213 21.1986 41.6703 21.6904 42.2121L23.1713 40.8679C22.8765 40.5431 22.6249 40.1254 22.4292 39.5943L20.5525 40.2857ZM21.6904 42.2121C22.178 42.7492 22.7569 43.166 23.42 43.4562L24.2217 41.6238C23.8182 41.4473 23.4704 41.1974 23.1713 40.8679L21.6904 42.2121ZM23.4297 43.4603C24.0939 43.7426 24.8011 43.88 25.5409 43.88V41.88C25.054 41.88 24.6145 41.7907 24.212 41.6197L23.4297 43.4603ZM25.5409 43.88C25.9425 43.88 26.3188 43.8582 26.666 43.8108L26.3957 41.8292C26.1563 41.8618 25.8725 41.88 25.5409 41.88V43.88ZM26.663 43.8112C27.0206 43.7636 27.3619 43.6861 27.6823 43.5735L27.0194 41.6865C26.8465 41.7473 26.6412 41.7964 26.3987 41.8288L26.663 43.8112ZM27.6745 43.5762C27.9931 43.4672 28.2953 43.3272 28.5792 43.1552L27.5426 41.4448C27.3864 41.5394 27.2153 41.6195 27.0272 41.6838L27.6745 43.5762ZM28.5864 43.1508C28.871 42.975 29.1432 42.7666 29.4035 42.5299L28.0582 41.0501C27.8786 41.2134 27.704 41.345 27.5354 41.4492L28.5864 43.1508ZM29.3998 42.5333C29.399 42.534 29.3843 42.5469 29.3547 42.5604L28.5271 40.7396C28.3507 40.8198 28.196 40.926 28.0619 41.0467L29.3998 42.5333ZM29.4197 42.5279C29.3529 42.5643 29.2657 42.59 29.1709 42.59V40.59C28.916 40.59 28.6755 40.6557 28.462 40.7721L29.4197 42.5279ZM53.7035 30.54L54.6585 30.8365L55.0611 29.54H53.7035V30.54ZM49.2135 45V46H49.9501L50.1685 45.2965L49.2135 45ZM46.7835 45L45.831 45.3046L46.0535 46H46.7835V45ZM43.6235 35.12L44.576 34.8154L44.5704 34.7977L44.5641 34.7804L43.6235 35.12ZM43.3835 34.24L44.3619 34.033L42.4111 34.0066L43.3835 34.24ZM43.2635 34.71L42.2988 34.4469V34.4469L43.2635 34.71ZM43.1335 35.12L42.1952 34.7743L42.1881 34.7934L42.1819 34.8127L43.1335 35.12ZM39.9435 45V46H40.6715L40.8951 45.3073L39.9435 45ZM37.5035 45L36.5483 45.2959L36.7664 46H37.5035V45ZM33.0235 30.54V29.54H31.6668L32.0683 30.8359L33.0235 30.54ZM35.8535 30.71L35.2591 31.5142L35.2786 31.5286L35.2988 31.5421L35.8535 30.71ZM36.1735 31.15L37.1354 30.8765L37.135 30.8753L36.1735 31.15ZM38.6335 39.8L39.6037 39.5575L39.5998 39.5419L39.5954 39.5265L38.6335 39.8ZM38.7835 40.5L37.8001 40.6812L37.8029 40.6963L37.8061 40.7113L38.7835 40.5ZM38.9435 41.28L37.962 41.4715L39.9259 41.4671L38.9435 41.28ZM39.1135 40.49L38.1482 40.2291L38.1448 40.2413L38.1418 40.2536L39.1135 40.49ZM39.3235 39.8L40.2693 40.1251L40.2736 40.1119L39.3235 39.8ZM42.1635 31.15L41.219 30.8215L41.2161 30.8297L41.2134 30.8381L42.1635 31.15ZM42.4735 30.73L41.8528 29.946L41.8447 29.9524L41.8366 29.959L42.4735 30.73ZM44.4135 30.71L43.8021 31.5013L43.8021 31.5013L44.4135 30.71ZM44.7435 31.15L45.6939 30.8391L45.6829 30.8054L45.6696 30.7727L44.7435 31.15ZM47.5735 39.8L46.623 40.111L46.6264 40.1208L47.5735 39.8ZM47.9535 41.23L46.9748 41.4354L48.9402 41.3924L47.9535 41.23ZM48.2435 39.8L47.2817 39.5265L47.2773 39.5419L47.2734 39.5575L48.2435 39.8ZM50.7035 31.15L51.6654 31.4235L51.6711 31.4036L51.6759 31.3834L50.7035 31.15ZM51.0035 30.72L50.4192 29.9085L50.4113 29.9142L50.4035 29.92L51.0035 30.72ZM52.7485 30.2435L48.2585 44.7035L50.1685 45.2965L54.6585 30.8365L52.7485 30.2435ZM49.2135 44H46.7835V46H49.2135V44ZM47.736 44.6954L44.576 34.8154L42.671 35.4246L45.831 45.3046L47.736 44.6954ZM44.5641 34.7804C44.4977 34.5967 44.429 34.3506 44.3619 34.033L42.4052 34.447C42.4847 34.8228 42.576 35.1633 42.683 35.4596L44.5641 34.7804ZM42.4111 34.0066C42.3732 34.1646 42.3357 34.3112 42.2988 34.4469L44.2283 34.9731C44.2713 34.8154 44.3138 34.6488 44.3559 34.4734L42.4111 34.0066ZM42.2988 34.4469C42.2654 34.5691 42.2307 34.6779 42.1952 34.7743L44.0719 35.4657C44.1297 35.3088 44.1816 35.1443 44.2283 34.9731L42.2988 34.4469ZM42.1819 34.8127L38.9919 44.6927L40.8951 45.3073L44.0851 35.4273L42.1819 34.8127ZM39.9435 44H37.5035V46H39.9435V44ZM38.4587 44.7041L33.9787 30.2441L32.0683 30.8359L36.5483 45.2959L38.4587 44.7041ZM33.0235 31.54H35.2735V29.54H33.0235V31.54ZM35.2735 31.54C35.3097 31.54 35.32 31.5444 35.3122 31.5421C35.3083 31.541 35.3007 31.5384 35.2907 31.5335C35.2806 31.5285 35.2698 31.5221 35.2591 31.5142L36.4479 29.9058C36.087 29.639 35.672 29.54 35.2735 29.54V31.54ZM35.2988 31.5421C35.2864 31.5338 35.2651 31.5162 35.2448 31.4882C35.2245 31.4603 35.2152 31.436 35.212 31.4247L37.135 30.8753C37.0172 30.4628 36.7677 30.1176 36.4082 29.8779L35.2988 31.5421ZM35.2117 31.4235L37.6717 40.0735L39.5954 39.5265L37.1354 30.8765L35.2117 31.4235ZM37.6634 40.0425C37.7109 40.2325 37.7566 40.445 37.8001 40.6812L39.767 40.3188C39.7171 40.0483 39.6628 39.7942 39.6037 39.5575L37.6634 40.0425ZM37.8061 40.7113C37.8579 40.9508 37.9099 41.2041 37.962 41.4715L39.925 41.0885C39.8705 40.8092 39.8158 40.5426 39.7609 40.2887L37.8061 40.7113ZM39.9259 41.4671C39.9764 41.2016 40.0296 40.9549 40.0852 40.7264L38.1418 40.2536C38.0774 40.5185 38.0173 40.7984 37.9612 41.0929L39.9259 41.4671ZM40.0789 40.7509C40.1405 40.5231 40.204 40.3147 40.2692 40.1251L38.3778 39.4749C38.2963 39.712 38.2199 39.9636 38.1482 40.2291L40.0789 40.7509ZM40.2736 40.1119L43.1136 31.4619L41.2134 30.8381L38.3734 39.4881L40.2736 40.1119ZM43.108 31.4785C43.1039 31.4904 43.0993 31.5005 43.095 31.5086C43.0907 31.5166 43.0872 31.5217 43.0856 31.5239C43.0825 31.5281 43.0879 31.5196 43.1104 31.501L41.8366 29.959C41.5739 30.176 41.3447 30.4602 41.219 30.8215L43.108 31.4785ZM43.0942 31.514C43.0889 31.5182 43.0819 31.523 43.0734 31.5276C43.0649 31.5322 43.0567 31.5355 43.0498 31.5378C43.0352 31.5426 43.034 31.54 43.0535 31.54V29.54C42.628 29.54 42.2091 29.6639 41.8528 29.946L43.0942 31.514ZM43.0535 31.54H43.8435V29.54H43.0535V31.54ZM43.8435 31.54C43.88 31.54 43.8876 31.5445 43.8752 31.5408C43.8688 31.5389 43.8581 31.5351 43.8446 31.5283C43.8311 31.5214 43.8165 31.5124 43.8021 31.5013L45.025 29.9187C44.6621 29.6383 44.2399 29.54 43.8435 29.54V31.54ZM43.8021 31.5013C43.8039 31.5027 43.8047 31.5035 43.805 31.5038C43.8052 31.504 43.8055 31.5043 43.806 31.505C43.8066 31.5058 43.8111 31.5119 43.8174 31.5273L45.6696 30.7727C45.5331 30.4376 45.3181 30.1452 45.025 29.9187L43.8021 31.5013ZM43.7931 31.4609L46.6231 40.1109L48.5239 39.4891L45.6939 30.8391L43.7931 31.4609ZM46.6264 40.1208C46.7507 40.488 46.8677 40.9248 46.9748 41.4354L48.9322 41.0246C48.8127 40.4552 48.6763 39.9387 48.5207 39.4792L46.6264 40.1208ZM48.9402 41.3924C49.0234 40.8872 49.1148 40.4378 49.2137 40.0425L47.2734 39.5575C47.1589 40.0155 47.057 40.5195 46.9668 41.0676L48.9402 41.3924ZM49.2054 40.0735L51.6654 31.4235L49.7417 30.8765L47.2817 39.5265L49.2054 40.0735ZM51.6759 31.3834C51.6662 31.4239 51.6487 31.461 51.6286 31.4897C51.6098 31.5167 51.5965 31.5253 51.6035 31.52L50.4035 29.92C50.0899 30.1552 49.8343 30.4867 49.7311 30.9166L51.6759 31.3834ZM51.5878 31.5315C51.5857 31.5331 51.5823 31.5352 51.5781 31.5373C51.5738 31.5394 51.5702 31.5408 51.5678 31.5415C51.5655 31.5422 51.5658 31.5419 51.5695 31.5414C51.5732 31.5408 51.581 31.54 51.5935 31.54V29.54C51.18 29.54 50.7737 29.6532 50.4192 29.9085L51.5878 31.5315ZM51.5935 31.54H53.7035V29.54H51.5935V31.54Z" fill="#003BAE" fill-opacity="0.15"/>
</g>
<defs>
<filter id="filter0_di" x="16.4009" y="27.38" width="43.6603" height="22.78" filterUnits="userSpaceOnUse" color-interpolation-filters="sRGB">
<feFlood flood-opacity="0" result="BackgroundImageFix"/>
<feColorMatrix in="SourceAlpha" type="matrix" values="0 0 0 0 0 0 0 0 0 0 0 0 0 0 0 0 0 0 127 0"/>
<feOffset dx="2" dy="1"/>
<feGaussianBlur stdDeviation="1.5"/>
<feColorMatrix type="matrix" values="0 0 0 0 0.113785 0 0 0 0 0.116421 0 0 0 0 0.117904 0 0 0 0.5 0"/>
<feBlend mode="normal" in2="BackgroundImageFix" result="effect1_dropShadow"/>
<feBlend mode="normal" in="SourceGraphic" in2="effect1_dropShadow" result="shape"/>
<feColorMatrix in="SourceAlpha" type="matrix" values="0 0 0 0 0 0 0 0 0 0 0 0 0 0 0 0 0 0 127 0" result="hardAlpha"/>
<feOffset dy="4"/>
<feGaussianBlur stdDeviation="1"/>
<feComposite in2="hardAlpha" operator="arithmetic" k2="-1" k3="1"/>
<feColorMatrix type="matrix" values="0 0 0 0 0.113785 0 0 0 0 0.116421 0 0 0 0 0.117904 0 0 0 0.5 0"/>
<feBlend mode="normal" in2="shape" result="effect2_innerShadow"/>
</filter>
</defs>
</svg>
