<svg width="1440" height="572" viewBox="0 0 1440 572" fill="none" xmlns="http://www.w3.org/2000/svg">
<rect width="1440" height="572" fill="#64ADBD"/>
<path d="M587.932 271.98L576.252 301H570.812L559.132 271.98H563.972C564.492 271.98 564.912 272.107 565.232 272.36C565.566 272.6 565.812 272.913 565.972 273.3L572.252 290.02C572.492 290.647 572.726 291.333 572.952 292.08C573.192 292.813 573.412 293.587 573.612 294.4C573.786 293.587 573.972 292.813 574.172 292.08C574.386 291.333 574.612 290.647 574.852 290.02L581.092 273.3C581.226 272.967 581.459 272.667 581.792 272.4C582.139 272.12 582.566 271.98 583.072 271.98H587.932ZM598.658 301H592.618V271.98H598.658V301ZM622.448 277.54C622.261 277.847 622.068 278.073 621.868 278.22C621.681 278.353 621.434 278.42 621.128 278.42C620.834 278.42 620.514 278.32 620.168 278.12C619.834 277.907 619.441 277.68 618.988 277.44C618.534 277.2 618.014 276.98 617.428 276.78C616.841 276.567 616.154 276.46 615.368 276.46C613.981 276.46 612.941 276.773 612.248 277.4C611.554 278.013 611.208 278.82 611.208 279.82C611.208 280.46 611.394 280.993 611.768 281.42C612.154 281.833 612.654 282.193 613.268 282.5C613.894 282.807 614.601 283.08 615.388 283.32C616.174 283.56 616.981 283.827 617.808 284.12C618.634 284.4 619.441 284.733 620.228 285.12C621.014 285.507 621.714 285.993 622.328 286.58C622.954 287.167 623.454 287.887 623.828 288.74C624.214 289.58 624.408 290.607 624.408 291.82C624.408 293.14 624.174 294.38 623.708 295.54C623.254 296.687 622.594 297.693 621.728 298.56C620.861 299.413 619.788 300.087 618.508 300.58C617.241 301.073 615.801 301.32 614.188 301.32C613.268 301.32 612.348 301.227 611.428 301.04C610.521 300.853 609.641 300.593 608.788 300.26C607.948 299.927 607.154 299.527 606.408 299.06C605.661 298.593 605.008 298.073 604.448 297.5L606.208 294.66C606.354 294.447 606.548 294.273 606.788 294.14C607.028 293.993 607.281 293.92 607.548 293.92C607.908 293.92 608.288 294.053 608.688 294.32C609.088 294.587 609.548 294.88 610.068 295.2C610.588 295.52 611.188 295.813 611.868 296.08C612.561 296.347 613.388 296.48 614.348 296.48C615.748 296.48 616.828 296.16 617.588 295.52C618.361 294.88 618.748 293.927 618.748 292.66C618.748 291.927 618.554 291.333 618.168 290.88C617.794 290.427 617.301 290.047 616.688 289.74C616.074 289.433 615.374 289.173 614.588 288.96C613.801 288.733 612.994 288.487 612.168 288.22C611.341 287.953 610.534 287.633 609.748 287.26C608.961 286.887 608.261 286.393 607.648 285.78C607.034 285.167 606.534 284.407 606.148 283.5C605.774 282.593 605.588 281.467 605.588 280.12C605.588 279.04 605.801 277.993 606.228 276.98C606.654 275.967 607.281 275.067 608.108 274.28C608.934 273.493 609.948 272.86 611.148 272.38C612.361 271.9 613.748 271.66 615.308 271.66C617.054 271.66 618.668 271.933 620.148 272.48C621.641 273.013 622.901 273.76 623.928 274.72L622.448 277.54ZM642.639 296.2C643.612 296.2 644.485 296.04 645.259 295.72C646.032 295.387 646.685 294.92 647.219 294.32C647.752 293.72 648.159 292.993 648.439 292.14C648.719 291.287 648.859 290.327 648.859 289.26V271.98H654.859V289.26C654.859 291.02 654.572 292.64 653.999 294.12C653.439 295.587 652.632 296.853 651.579 297.92C650.525 298.987 649.245 299.82 647.739 300.42C646.232 301.02 644.532 301.32 642.639 301.32C640.745 301.32 639.039 301.02 637.519 300.42C636.012 299.82 634.732 298.987 633.679 297.92C632.625 296.853 631.812 295.587 631.239 294.12C630.679 292.64 630.399 291.02 630.399 289.26V271.98H636.399V289.26C636.399 290.327 636.539 291.287 636.819 292.14C637.099 292.993 637.505 293.72 638.039 294.32C638.572 294.92 639.225 295.387 639.999 295.72C640.772 296.04 641.652 296.2 642.639 296.2ZM677.141 289.98L674.001 281.1C673.815 280.633 673.615 280.087 673.401 279.46C673.201 278.833 673.008 278.153 672.821 277.42C672.635 278.167 672.435 278.86 672.221 279.5C672.021 280.127 671.828 280.673 671.641 281.14L668.521 289.98H677.141ZM687.221 301H682.561C682.041 301 681.615 300.88 681.281 300.64C680.961 300.387 680.721 300.067 680.561 299.68L678.601 294.14H667.041L665.081 299.68C664.948 300.013 664.715 300.32 664.381 300.6C664.048 300.867 663.628 301 663.121 301H658.421L669.761 271.98H675.901L687.221 301ZM709.127 296.12V301H691.907V271.98H697.907V296.12H709.127ZM751.107 286.48C751.107 288.6 750.747 290.553 750.027 292.34C749.32 294.113 748.314 295.64 747.007 296.92C745.714 298.2 744.154 299.2 742.327 299.92C740.5 300.64 738.474 301 736.247 301H725.087V271.98H736.247C738.474 271.98 740.5 272.34 742.327 273.06C744.154 273.78 745.714 274.787 747.007 276.08C748.314 277.36 749.32 278.887 750.027 280.66C750.747 282.433 751.107 284.373 751.107 286.48ZM744.947 286.48C744.947 284.96 744.747 283.593 744.347 282.38C743.947 281.167 743.374 280.14 742.627 279.3C741.88 278.46 740.967 277.813 739.887 277.36C738.82 276.907 737.607 276.68 736.247 276.68H731.127V296.3H736.247C737.607 296.3 738.82 296.08 739.887 295.64C740.967 295.187 741.88 294.54 742.627 293.7C743.374 292.847 743.947 291.813 744.347 290.6C744.747 289.387 744.947 288.013 744.947 286.48ZM763.557 276.68V284.14H773.237V288.68H763.557V296.3H775.997V301H757.517V271.98H775.997V276.68H763.557ZM798.205 277.54C798.019 277.847 797.825 278.073 797.625 278.22C797.439 278.353 797.192 278.42 796.885 278.42C796.592 278.42 796.272 278.32 795.925 278.12C795.592 277.907 795.199 277.68 794.745 277.44C794.292 277.2 793.772 276.98 793.185 276.78C792.599 276.567 791.912 276.46 791.125 276.46C789.739 276.46 788.699 276.773 788.005 277.4C787.312 278.013 786.965 278.82 786.965 279.82C786.965 280.46 787.152 280.993 787.525 281.42C787.912 281.833 788.412 282.193 789.025 282.5C789.652 282.807 790.359 283.08 791.145 283.32C791.932 283.56 792.739 283.827 793.565 284.12C794.392 284.4 795.199 284.733 795.985 285.12C796.772 285.507 797.472 285.993 798.085 286.58C798.712 287.167 799.212 287.887 799.585 288.74C799.972 289.58 800.165 290.607 800.165 291.82C800.165 293.14 799.932 294.38 799.465 295.54C799.012 296.687 798.352 297.693 797.485 298.56C796.619 299.413 795.545 300.087 794.265 300.58C792.999 301.073 791.559 301.32 789.945 301.32C789.025 301.32 788.105 301.227 787.185 301.04C786.279 300.853 785.399 300.593 784.545 300.26C783.705 299.927 782.912 299.527 782.165 299.06C781.419 298.593 780.765 298.073 780.205 297.5L781.965 294.66C782.112 294.447 782.305 294.273 782.545 294.14C782.785 293.993 783.039 293.92 783.305 293.92C783.665 293.92 784.045 294.053 784.445 294.32C784.845 294.587 785.305 294.88 785.825 295.2C786.345 295.52 786.945 295.813 787.625 296.08C788.319 296.347 789.145 296.48 790.105 296.48C791.505 296.48 792.585 296.16 793.345 295.52C794.119 294.88 794.505 293.927 794.505 292.66C794.505 291.927 794.312 291.333 793.925 290.88C793.552 290.427 793.059 290.047 792.445 289.74C791.832 289.433 791.132 289.173 790.345 288.96C789.559 288.733 788.752 288.487 787.925 288.22C787.099 287.953 786.292 287.633 785.505 287.26C784.719 286.887 784.019 286.393 783.405 285.78C782.792 285.167 782.292 284.407 781.905 283.5C781.532 282.593 781.345 281.467 781.345 280.12C781.345 279.04 781.559 277.993 781.985 276.98C782.412 275.967 783.039 275.067 783.865 274.28C784.692 273.493 785.705 272.86 786.905 272.38C788.119 271.9 789.505 271.66 791.065 271.66C792.812 271.66 794.425 271.933 795.905 272.48C797.399 273.013 798.659 273.76 799.685 274.72L798.205 277.54ZM812.557 301H806.517V271.98H812.557V301ZM834.746 286.22H844.706V298.2C843.226 299.28 841.646 300.073 839.966 300.58C838.299 301.073 836.533 301.32 834.666 301.32C832.279 301.32 830.119 300.953 828.186 300.22C826.253 299.473 824.599 298.44 823.226 297.12C821.853 295.8 820.793 294.233 820.046 292.42C819.299 290.607 818.926 288.627 818.926 286.48C818.926 284.307 819.279 282.313 819.986 280.5C820.706 278.687 821.726 277.127 823.046 275.82C824.366 274.513 825.959 273.493 827.826 272.76C829.706 272.027 831.806 271.66 834.126 271.66C835.326 271.66 836.446 271.76 837.486 271.96C838.526 272.147 839.486 272.413 840.366 272.76C841.246 273.093 842.053 273.493 842.786 273.96C843.519 274.427 844.186 274.94 844.786 275.5L843.046 278.18C842.779 278.607 842.433 278.867 842.006 278.96C841.579 279.053 841.113 278.947 840.606 278.64C840.126 278.347 839.653 278.087 839.186 277.86C838.733 277.62 838.246 277.413 837.726 277.24C837.206 277.067 836.639 276.933 836.026 276.84C835.413 276.747 834.706 276.7 833.906 276.7C832.559 276.7 831.339 276.933 830.246 277.4C829.153 277.867 828.219 278.527 827.446 279.38C826.686 280.233 826.099 281.26 825.686 282.46C825.273 283.66 825.066 285 825.066 286.48C825.066 288.08 825.293 289.513 825.746 290.78C826.199 292.033 826.839 293.093 827.666 293.96C828.493 294.827 829.479 295.487 830.626 295.94C831.786 296.393 833.073 296.62 834.486 296.62C835.446 296.62 836.299 296.527 837.046 296.34C837.806 296.14 838.546 295.873 839.266 295.54V290.66H835.986C835.599 290.66 835.293 290.56 835.066 290.36C834.853 290.147 834.746 289.88 834.746 289.56V286.22ZM876.47 271.98V301H873.37C872.904 301 872.51 300.927 872.19 300.78C871.87 300.62 871.557 300.353 871.25 299.98L856.79 281.58C856.83 282.047 856.857 282.507 856.87 282.96C856.897 283.413 856.91 283.833 856.91 284.22V301H851.61V271.98H854.77C855.024 271.98 855.237 271.993 855.41 272.02C855.597 272.033 855.764 272.08 855.91 272.16C856.057 272.227 856.197 272.32 856.33 272.44C856.464 272.56 856.61 272.72 856.77 272.92L871.33 291.4C871.277 290.893 871.237 290.407 871.21 289.94C871.184 289.46 871.17 289.007 871.17 288.58V271.98H876.47Z" fill="white"/>
</svg>
