<?xml version="1.0" encoding="utf-8"?>
<!-- Generator: Adobe Illustrator 22.0.1, SVG Export Plug-In . SVG Version: 6.00 Build 0)  -->
<svg version="1.1" id="Layer_1" xmlns="http://www.w3.org/2000/svg" xmlns:xlink="http://www.w3.org/1999/xlink" x="0px" y="0px"
	 width="631.2px" height="330.5px" viewBox="0 0 631.2 330.5" style="enable-background:new 0 0 631.2 330.5;" xml:space="preserve"
	>
<style type="text/css">
	.st0{fill:none;}
	.st1{fill:#FFFFFF;}
	.st2{opacity:0.46;fill:url(#SVGID_1_);enable-background:new    ;}
	.st3{fill:none;stroke:#000000;stroke-width:1.25;stroke-miterlimit:10;}
	.st4{opacity:0.24;fill:url(#SVGID_3_);}
</style>
<pattern  y="330.5" width="679" height="453.1" patternUnits="userSpaceOnUse" id="SVGID_2_" viewBox="0 -466.6 679 453.1" style="overflow:visible;">
	<g>
		<rect x="0" y="-466.6" class="st0" width="679" height="453.1"/>
		<g>
			<rect y="-466.6" class="st0" width="679" height="453.1"/>
			<g>
				<path class="st1" d="M576.2-471c-0.2-0.7-0.4-1.3-0.6-2l0.8-1.1c-0.6-1.2-1.3-2.2-2.3-3.1l-1.3,0.5c-0.5-0.4-1.1-0.9-1.7-1.2
					l0-1.4c-1.1-0.6-2.4-1-3.7-1.2l-0.8,1.2c-0.3,0-0.7-0.1-1-0.1s-0.7,0-1,0.1l-0.8-1.2c-1.3,0.2-2.5,0.6-3.7,1.2l0,1.4
					c-0.6,0.4-1.2,0.8-1.7,1.2l-1.3-0.5c-0.9,0.9-1.7,2-2.3,3.1l0.8,1.1c-0.3,0.6-0.5,1.3-0.6,2l-1.3,0.4c-0.1,0.6-0.2,1.3-0.2,1.9
					c0,0.7,0,1.3,0.2,1.9l1.3,0.4c0.2,0.7,0.4,1.3,0.6,2l-0.8,1.1c0.6,1.2,1.3,2.2,2.3,3.1l1.3-0.5c0.5,0.4,1.1,0.9,1.7,1.2l0,1.4
					c1.1,0.6,2.4,1,3.7,1.2l0.8-1.2c0.3,0,0.7,0.1,1,0.1s0.7,0,1-0.1l0.8,1.2c1.3-0.2,2.5-0.6,3.7-1.2l0-1.4
					c0.6-0.4,1.2-0.8,1.7-1.2l1.3,0.5c0.9-0.9,1.7-2,2.3-3.1l-0.8-1.1c0.3-0.6,0.5-1.3,0.6-2l1.3-0.4c0.1-0.6,0.2-1.3,0.2-1.9
					c0-0.7,0-1.3-0.2-1.9L576.2-471z M571-468.7c0,2.9-2.4,5.3-5.3,5.3c-2.9,0-5.3-2.4-5.3-5.3c0-2.9,2.4-5.3,5.3-5.3
					C568.6-474,571-471.6,571-468.7z"/>
				<path class="st1" d="M495.7-466l6.3,6.3l0.8-0.8l1,1.1l-0.8,0.8l-3.4,3.4l-0.9,0.9l-1-1l0.9-0.9l-6.3-6.3
					c-3.7,2.3-8.6,1.8-11.8-1.4c-3.8-3.8-3.8-9.9,0-13.7c3.8-3.8,9.9-3.8,13.7,0C497.3-474.5,497.8-469.7,495.7-466z"/>
				<path class="st1" d="M645.8-465.5l6.3,6.3l0.8-0.8l1,1l-0.8,0.8l-3.4,3.4l-0.9,0.9l-1-1l0.9-0.9l-6.3-6.3
					c-3.7,2.3-8.6,1.8-11.8-1.4c-3.8-3.8-3.8-9.9,0-13.7c3.8-3.8,9.9-3.8,13.7,0C647.5-474,648-469.2,645.8-465.5z"/>
			</g>
			<g>
				<path class="st1" d="M349.8-395.5c-0.1-0.7-0.4-1.3-0.6-1.9l0.9-1.1c-0.6-1.2-1.4-2.2-2.3-3.1l-1.3,0.5
					c-0.5-0.5-1.1-0.9-1.7-1.2l0-1.4c-1.1-0.6-2.4-1-3.7-1.2l-0.8,1.2c-0.3,0-0.7,0-1,0s-0.7,0-1,0l-0.8-1.2
					c-1.3,0.2-2.5,0.6-3.7,1.2l0,1.4c-0.6,0.4-1.1,0.8-1.7,1.2l-1.3-0.5c-0.9,0.9-1.7,2-2.3,3.1l0.9,1.1c-0.3,0.6-0.5,1.3-0.6,1.9
					l-1.3,0.4c-0.1,0.6-0.2,1.3-0.2,1.9c0,0.7,0,1.3,0.2,1.9l1.3,0.4c0.1,0.7,0.4,1.3,0.6,1.9l-0.9,1.1c0.6,1.2,1.4,2.2,2.3,3.1
					l1.3-0.5c0.5,0.5,1.1,0.9,1.7,1.2l0,1.4c1.1,0.6,2.4,1,3.7,1.2l0.8-1.2c0.3,0,0.7,0,1,0s0.7,0,1,0l0.8,1.2
					c1.3-0.2,2.5-0.6,3.7-1.2l0-1.4c0.6-0.4,1.1-0.8,1.7-1.2l1.3,0.5c0.9-0.9,1.7-2,2.3-3.1l-0.9-1.1c0.3-0.6,0.5-1.3,0.6-1.9
					l1.3-0.4c0.1-0.6,0.2-1.3,0.2-1.9c0-0.7,0-1.3-0.2-1.9L349.8-395.5z M344.6-393.2c0,2.9-2.4,5.3-5.3,5.3s-5.3-2.4-5.3-5.3
					c0-2.9,2.4-5.3,5.3-5.3S344.6-396.1,344.6-393.2z"/>
				<path class="st1" d="M273.8-469.1c-0.1-0.7-0.4-1.3-0.6-2l0.9-1.1c-0.6-1.2-1.4-2.2-2.3-3.1l-1.3,0.5c-0.5-0.4-1.1-0.9-1.7-1.2
					l0-1.4c-1.1-0.6-2.4-1-3.7-1.2l-0.8,1.2c-0.3,0-0.7-0.1-1-0.1s-0.7,0-1,0.1l-0.8-1.2c-1.3,0.2-2.5,0.6-3.7,1.2l0,1.4
					c-0.6,0.4-1.1,0.8-1.7,1.2l-1.3-0.5c-0.9,0.9-1.7,2-2.3,3.1l0.9,1.1c-0.3,0.6-0.5,1.3-0.6,2l-1.3,0.4c-0.1,0.6-0.2,1.3-0.2,1.9
					c0,0.7,0.1,1.3,0.2,1.9l1.3,0.4c0.1,0.7,0.4,1.3,0.6,2l-0.9,1.1c0.6,1.2,1.4,2.2,2.3,3.1l1.3-0.5c0.5,0.5,1.1,0.9,1.7,1.2l0,1.4
					c1.1,0.6,2.4,1,3.7,1.2l0.8-1.2c0.3,0,0.7,0,1,0s0.7,0,1,0l0.8,1.2c1.3-0.2,2.5-0.6,3.7-1.2l0-1.4c0.6-0.3,1.1-0.8,1.7-1.2
					l1.3,0.5c0.9-0.9,1.7-2,2.3-3.1l-0.9-1.1c0.3-0.6,0.5-1.3,0.6-2l1.3-0.4c0.1-0.6,0.2-1.3,0.2-1.9c0-0.7,0-1.3-0.2-1.9
					L273.8-469.1z M268.6-466.8c0,2.9-2.4,5.3-5.3,5.3s-5.3-2.4-5.3-5.3c0-2.9,2.4-5.3,5.3-5.3S268.6-469.7,268.6-466.8z"/>
				<path class="st1" d="M424.8-474.6c-0.1-0.7-0.4-1.3-0.6-2l0.9-1.1c-0.6-1.2-1.4-2.2-2.3-3.1l-1.3,0.5c-0.5-0.4-1.1-0.9-1.7-1.2
					l0-1.4c-1.1-0.6-2.4-1-3.7-1.2l-0.8,1.2c-0.3,0-0.7-0.1-1-0.1s-0.7,0-1,0.1l-0.8-1.2c-1.3,0.2-2.5,0.6-3.7,1.2l0,1.4
					c-0.6,0.4-1.1,0.8-1.7,1.2l-1.3-0.5c-0.9,0.9-1.7,2-2.3,3.1l0.9,1.1c-0.3,0.6-0.5,1.3-0.6,2l-1.3,0.4c-0.1,0.6-0.2,1.3-0.2,1.9
					c0,0.7,0,1.3,0.2,1.9l1.3,0.4c0.1,0.7,0.4,1.3,0.6,2l-0.9,1.1c0.6,1.2,1.4,2.2,2.3,3.1l1.3-0.5c0.5,0.5,1.1,0.9,1.7,1.2l0,1.4
					c1.1,0.6,2.4,1,3.7,1.2l0.8-1.2c0.3,0,0.7,0,1,0s0.7,0,1,0l0.8,1.2c1.3-0.2,2.5-0.6,3.7-1.2l0-1.4c0.6-0.4,1.1-0.8,1.7-1.2
					l1.3,0.5c0.9-0.9,1.7-2,2.3-3.1l-0.9-1.1c0.3-0.6,0.5-1.3,0.6-1.9l1.3-0.4c0.1-0.6,0.2-1.3,0.2-1.9c0-0.7,0-1.3-0.2-1.9
					L424.8-474.6z M419.6-472.2c0,2.9-2.4,5.3-5.3,5.3s-5.3-2.4-5.3-5.3c0-2.9,2.4-5.3,5.3-5.3S419.6-475.2,419.6-472.2z"/>
				<path class="st1" d="M269.3-390.5l6.3,6.3l0.8-0.8l1,1l-0.8,0.8l-3.4,3.4l-0.9,0.9l-1-1.1l0.9-0.9l-6.3-6.3
					c-3.7,2.3-8.6,1.8-11.8-1.4c-3.8-3.8-3.8-9.9,0-13.7c3.8-3.8,9.9-3.8,13.7,0C271-399,271.5-394.2,269.3-390.5z"/>
				<path class="st1" d="M344.3-465.5l6.3,6.3l0.8-0.8l1,1l-0.8,0.8l-3.4,3.4l-0.9,0.9l-1-1.1l0.9-0.9l-6.3-6.3
					c-3.7,2.3-8.6,1.8-11.8-1.4c-3.8-3.8-3.8-9.9,0-13.7c3.8-3.8,9.9-3.8,13.7,0C346-474,346.5-469.2,344.3-465.5z"/>
				<path class="st1" d="M419.5-389.9l6.3,6.3l0.8-0.8l1,1l-0.8,0.8l-3.4,3.4l-0.9,0.9l-1-1l0.9-0.9l-6.3-6.3
					c-3.7,2.3-8.6,1.8-11.8-1.4c-3.8-3.8-3.8-9.9,0-13.7c3.8-3.8,9.9-3.8,13.7,0C421.1-398.5,421.6-393.7,419.5-389.9z"/>
			</g>
			<g>
				<path class="st1" d="M123.5-320c-0.2-0.7-0.4-1.3-0.6-1.9l0.8-1.1c-0.6-1.2-1.3-2.2-2.3-3.1l-1.3,0.5c-0.5-0.4-1.1-0.9-1.7-1.2
					l0-1.4c-1.1-0.6-2.4-1-3.7-1.2l-0.8,1.2c-0.3,0-0.7-0.1-1-0.1s-0.7,0-1,0.1l-0.8-1.2c-1.3,0.2-2.5,0.6-3.7,1.2l0,1.4
					c-0.6,0.3-1.2,0.8-1.7,1.2l-1.3-0.5c-0.9,0.9-1.7,2-2.3,3.1l0.8,1.1c-0.3,0.6-0.5,1.3-0.6,1.9l-1.3,0.4
					c-0.1,0.6-0.2,1.3-0.2,1.9c0,0.7,0.1,1.3,0.2,1.9l1.3,0.4c0.2,0.7,0.4,1.3,0.6,1.9l-0.8,1.1c0.6,1.2,1.3,2.2,2.3,3.1l1.3-0.5
					c0.5,0.4,1.1,0.9,1.7,1.2l0,1.4c1.1,0.6,2.4,1,3.7,1.2l0.8-1.2c0.3,0,0.7,0.1,1,0.1s0.7,0,1-0.1l0.8,1.2
					c1.3-0.2,2.5-0.6,3.7-1.2l0-1.4c0.6-0.3,1.2-0.8,1.7-1.2l1.3,0.5c0.9-0.9,1.7-2,2.3-3.1l-0.8-1.1c0.3-0.6,0.5-1.3,0.6-1.9
					l1.3-0.4c0.1-0.6,0.2-1.3,0.2-1.9c0-0.7-0.1-1.3-0.2-1.9L123.5-320z M118.3-317.7c0,2.9-2.4,5.3-5.3,5.3s-5.3-2.4-5.3-5.3
					s2.4-5.3,5.3-5.3C116-323,118.3-320.6,118.3-317.7z"/>
				<path class="st1" d="M47.4-393.6c-0.2-0.7-0.4-1.3-0.6-1.9l0.8-1.1c-0.6-1.2-1.3-2.2-2.3-3.1l-1.3,0.5c-0.5-0.5-1.1-0.9-1.7-1.2
					l0-1.4c-1.1-0.6-2.4-1-3.7-1.2L38-402c-0.3,0-0.7,0-1,0s-0.7,0-1,0l-0.8-1.2c-1.3,0.2-2.5,0.6-3.7,1.2l0,1.4
					c-0.6,0.4-1.1,0.8-1.7,1.2l-1.3-0.5c-0.9,0.9-1.7,2-2.3,3.1l0.9,1.1c-0.3,0.6-0.5,1.3-0.6,1.9l-1.3,0.4
					c-0.1,0.6-0.2,1.3-0.2,1.9c0,0.7,0,1.3,0.2,1.9l1.3,0.4c0.1,0.7,0.4,1.3,0.6,1.9l-0.9,1.1c0.6,1.2,1.4,2.2,2.3,3.1l1.3-0.5
					c0.5,0.5,1.1,0.9,1.7,1.2l0,1.4c1.1,0.6,2.4,1,3.7,1.2l0.8-1.2c0.3,0,0.7,0,1,0s0.7,0,1,0l0.8,1.2c1.3-0.2,2.5-0.6,3.7-1.2
					l0-1.4c0.6-0.4,1.2-0.8,1.7-1.2l1.3,0.5c0.9-0.9,1.7-2,2.3-3.1l-0.8-1.1c0.3-0.6,0.5-1.3,0.6-1.9l1.3-0.4
					c0.1-0.6,0.2-1.3,0.2-1.9c0-0.7,0-1.3-0.2-1.9L47.4-393.6z M42.2-391.3c0,2.9-2.4,5.3-5.3,5.3c-2.9,0-5.3-2.4-5.3-5.3
					c0-2.9,2.4-5.3,5.3-5.3C39.9-396.6,42.2-394.2,42.2-391.3z"/>
				<path class="st1" d="M198.4-399c-0.1-0.7-0.4-1.3-0.6-1.9l0.9-1.1c-0.6-1.2-1.4-2.2-2.3-3.1l-1.3,0.5c-0.5-0.5-1.1-0.9-1.7-1.2
					l0-1.4c-1.1-0.6-2.4-1-3.7-1.2l-0.8,1.2c-0.3,0-0.7,0-1,0s-0.7,0-1,0l-0.8-1.2c-1.3,0.2-2.5,0.6-3.7,1.2l0,1.4
					c-0.6,0.3-1.1,0.8-1.7,1.2l-1.3-0.5c-0.9,0.9-1.7,2-2.3,3.1l0.9,1.1c-0.3,0.6-0.5,1.3-0.6,1.9l-1.3,0.4
					c-0.1,0.6-0.2,1.3-0.2,1.9c0,0.7,0.1,1.3,0.2,1.9l1.3,0.4c0.1,0.7,0.4,1.3,0.6,1.9l-0.9,1.1c0.6,1.2,1.4,2.2,2.3,3.1l1.3-0.5
					c0.5,0.5,1.1,0.9,1.7,1.2l0,1.4c1.1,0.6,2.4,1,3.7,1.2l0.8-1.2c0.3,0,0.7,0,1,0s0.7,0,1,0l0.8,1.2c1.3-0.2,2.5-0.6,3.7-1.2
					l0-1.4c0.6-0.3,1.1-0.8,1.7-1.2l1.3,0.5c0.9-0.9,1.7-2,2.3-3.1l-0.9-1.1c0.3-0.6,0.5-1.3,0.6-1.9l1.3-0.4
					c0.1-0.6,0.2-1.3,0.2-1.9c0-0.7-0.1-1.3-0.2-1.9L198.4-399z M193.2-396.7c0,2.9-2.4,5.3-5.3,5.3s-5.3-2.4-5.3-5.3
					c0-2.9,2.4-5.3,5.3-5.3C190.9-402,193.2-399.6,193.2-396.7z"/>
				<path class="st1" d="M43-314.9l6.3,6.3l0.8-0.8l1,1.1l-0.8,0.8l-3.4,3.4l-0.9,0.9l-1-1l0.9-0.9l-6.3-6.3
					c-3.7,2.3-8.6,1.8-11.8-1.4c-3.8-3.8-3.8-9.9,0-13.7c3.8-3.8,9.9-3.8,13.7,0C44.7-323.5,45.2-318.6,43-314.9z"/>
				<path class="st1" d="M43-464.8l6.3,6.3l0.8-0.8l1,1.1l-0.8,0.8L47-454l-0.9,0.9l-1-1l0.9-0.9l-6.3-6.3
					c-3.7,2.3-8.6,1.8-11.8-1.4c-3.8-3.8-3.8-9.9,0-13.7s9.9-3.8,13.7,0C44.7-473.3,45.2-468.5,43-464.8z"/>
				<path class="st1" d="M118-390l6.3,6.3l0.8-0.8l1.1,1.1l-0.8,0.8l-3.4,3.4l-0.9,0.9l-1.1-1l0.9-0.9l-6.3-6.3
					c-3.7,2.3-8.6,1.8-11.8-1.4c-3.8-3.8-3.8-9.9,0-13.7c3.8-3.8,9.9-3.8,13.7,0C119.6-398.5,120.1-393.7,118-390z"/>
				<path class="st1" d="M193.1-314.4l6.3,6.3l0.8-0.8l1.1,1.1l-0.8,0.8l-3.4,3.4l-0.9,0.9l-1.1-1l0.9-0.9l-6.3-6.3
					c-3.7,2.3-8.6,1.8-11.8-1.4c-3.8-3.8-3.8-9.9,0-13.7c3.8-3.8,9.9-3.8,13.7,0C194.8-323,195.3-318.1,193.1-314.4z"/>
				<path class="st1" d="M123.5-469.8c-0.2-0.7-0.4-1.3-0.6-2l0.8-1.1c-0.6-1.2-1.3-2.2-2.3-3.1l-1.3,0.5c-0.5-0.5-1.1-0.9-1.7-1.2
					l0-1.4c-1.1-0.6-2.4-1-3.7-1.2l-0.8,1.2c-0.3,0-0.7-0.1-1-0.1s-0.7,0-1,0.1l-0.8-1.2c-1.3,0.2-2.5,0.6-3.7,1.2l0,1.4
					c-0.6,0.4-1.2,0.8-1.7,1.2l-1.3-0.5c-0.9,0.9-1.7,2-2.3,3.1l0.8,1.1c-0.3,0.6-0.5,1.3-0.6,2l-1.3,0.4c-0.1,0.6-0.2,1.3-0.2,1.9
					c0,0.7,0.1,1.3,0.2,1.9l1.3,0.4c0.2,0.7,0.4,1.3,0.6,2l-0.8,1.1c0.6,1.2,1.3,2.2,2.3,3.1l1.3-0.5c0.5,0.4,1.1,0.9,1.7,1.2l0,1.4
					c1.1,0.6,2.4,1,3.7,1.2l0.8-1.2c0.3,0,0.7,0.1,1,0.1s0.7,0,1-0.1l0.8,1.2c1.3-0.2,2.5-0.6,3.7-1.2l0-1.4
					c0.6-0.4,1.2-0.8,1.7-1.2l1.3,0.5c0.9-0.9,1.7-2,2.3-3.1l-0.8-1.1c0.3-0.6,0.5-1.3,0.6-2l1.3-0.4c0.1-0.6,0.2-1.3,0.2-1.9
					c0-0.7-0.1-1.3-0.2-1.9L123.5-469.8z M118.3-467.5c0,2.9-2.4,5.3-5.3,5.3s-5.3-2.4-5.3-5.3c0-2.9,2.4-5.3,5.3-5.3
					C116-472.8,118.3-470.4,118.3-467.5z"/>
				<path class="st1" d="M193.1-464.8l6.3,6.3l0.8-0.8l1.1,1.1l-0.8,0.8l-3.4,3.4l-0.9,0.9l-1.1-1l0.9-0.9l-6.3-6.3
					c-3.7,2.3-8.6,1.8-11.8-1.4c-3.8-3.8-3.8-9.9,0-13.7c3.8-3.8,9.9-3.8,13.7,0C194.8-473.3,195.3-468.5,193.1-464.8z"/>
			</g>
			<g>
				<path class="st1" d="M576.2-244.5c-0.2-0.7-0.4-1.3-0.6-1.9l0.8-1.1c-0.6-1.2-1.3-2.2-2.3-3.1l-1.3,0.5
					c-0.5-0.4-1.1-0.9-1.7-1.2l0-1.4c-1.1-0.6-2.4-1-3.7-1.2l-0.8,1.2c-0.3,0-0.7-0.1-1-0.1s-0.7,0-1,0.1l-0.8-1.2
					c-1.3,0.2-2.5,0.6-3.7,1.2l0,1.4c-0.6,0.4-1.2,0.8-1.7,1.2l-1.3-0.5c-0.9,0.9-1.7,2-2.3,3.1l0.8,1.1c-0.3,0.6-0.5,1.3-0.6,1.9
					l-1.3,0.4c-0.1,0.6-0.2,1.3-0.2,1.9c0,0.7,0,1.3,0.2,1.9l1.3,0.4c0.2,0.7,0.4,1.3,0.6,1.9l-0.8,1.1c0.6,1.2,1.3,2.2,2.3,3.1
					l1.3-0.5c0.5,0.4,1.1,0.9,1.7,1.2l0,1.4c1.1,0.6,2.4,1,3.7,1.2l0.8-1.2c0.3,0,0.7,0.1,1,0.1s0.7,0,1-0.1l0.8,1.2
					c1.3-0.2,2.5-0.6,3.7-1.2l0-1.4c0.6-0.4,1.2-0.8,1.7-1.2l1.3,0.5c0.9-0.9,1.7-2,2.3-3.1l-0.8-1.1c0.3-0.6,0.5-1.3,0.6-1.9
					l1.3-0.4c0.1-0.6,0.2-1.3,0.2-1.9c0-0.7,0-1.3-0.2-1.9L576.2-244.5z M571-242.2c0,2.9-2.4,5.3-5.3,5.3c-2.9,0-5.3-2.4-5.3-5.3
					s2.4-5.3,5.3-5.3C568.6-247.4,571-245.1,571-242.2z"/>
				<path class="st1" d="M500.1-318.1c-0.1-0.7-0.4-1.3-0.6-1.9l0.9-1.1c-0.6-1.2-1.4-2.2-2.3-3.1l-1.3,0.5
					c-0.5-0.4-1.1-0.9-1.7-1.2l0-1.4c-1.1-0.6-2.4-1-3.7-1.2l-0.8,1.2c-0.3,0-0.7-0.1-1-0.1s-0.7,0-1,0.1l-0.8-1.2
					c-1.3,0.2-2.5,0.6-3.7,1.2l0,1.4c-0.6,0.3-1.1,0.8-1.7,1.2l-1.3-0.5c-0.9,0.9-1.7,2-2.3,3.1l0.9,1.1c-0.3,0.6-0.5,1.3-0.6,1.9
					l-1.3,0.4c-0.1,0.6-0.2,1.3-0.2,1.9c0,0.7,0,1.3,0.2,1.9l1.3,0.4c0.1,0.7,0.4,1.3,0.6,1.9l-0.9,1.1c0.6,1.2,1.4,2.2,2.3,3.1
					l1.3-0.5c0.5,0.4,1.1,0.9,1.7,1.2l0,1.4c1.1,0.6,2.4,1,3.7,1.2l0.8-1.2c0.3,0,0.7,0.1,1,0.1s0.7,0,1-0.1l0.8,1.2
					c1.3-0.2,2.5-0.6,3.7-1.2l0-1.4c0.6-0.3,1.1-0.8,1.7-1.2l1.3,0.5c0.9-0.9,1.7-2,2.3-3.1l-0.9-1.1c0.3-0.6,0.5-1.3,0.6-1.9
					l1.3-0.4c0.1-0.6,0.2-1.3,0.2-1.9c0-0.7,0-1.3-0.2-1.9L500.1-318.1z M494.9-315.8c0,2.9-2.4,5.3-5.3,5.3s-5.3-2.4-5.3-5.3
					c0-2.9,2.4-5.3,5.3-5.3S494.9-318.7,494.9-315.8z"/>
				<path class="st1" d="M651.1-323.5c-0.2-0.7-0.4-1.3-0.6-2l0.8-1.1c-0.6-1.2-1.3-2.2-2.3-3.1l-1.3,0.5c-0.5-0.5-1.1-0.9-1.7-1.2
					l0-1.4c-1.1-0.6-2.4-1-3.7-1.2l-0.8,1.2c-0.3,0-0.7,0-1,0s-0.7,0-1,0l-0.8-1.2c-1.3,0.2-2.5,0.6-3.7,1.2l0,1.4
					c-0.6,0.4-1.2,0.8-1.7,1.2l-1.3-0.5c-0.9,0.9-1.7,2-2.3,3.1l0.8,1.1c-0.3,0.6-0.5,1.3-0.6,2l-1.3,0.4c-0.1,0.6-0.2,1.3-0.2,1.9
					s0,1.3,0.2,1.9l1.3,0.4c0.2,0.7,0.4,1.3,0.6,2l-0.8,1.1c0.6,1.2,1.3,2.2,2.3,3.1l1.3-0.5c0.5,0.5,1.1,0.9,1.7,1.2l0,1.4
					c1.1,0.6,2.4,1,3.7,1.2l0.8-1.2c0.3,0,0.7,0,1,0s0.7,0,1,0l0.8,1.2c1.3-0.2,2.5-0.6,3.7-1.2l0-1.4c0.6-0.4,1.2-0.8,1.7-1.2
					l1.3,0.5c0.9-0.9,1.7-2,2.3-3.1l-0.8-1.1c0.3-0.6,0.5-1.3,0.6-2l1.3-0.4c0.1-0.6,0.2-1.3,0.2-1.9s0-1.3-0.2-1.9L651.1-323.5z
					 M645.9-321.2c0,2.9-2.4,5.3-5.3,5.3c-2.9,0-5.3-2.4-5.3-5.3s2.4-5.3,5.3-5.3C643.5-326.5,645.9-324.1,645.9-321.2z"/>
				<path class="st1" d="M495.7-239.4l6.3,6.3l0.8-0.8l1,1.1L503-232l-3.4,3.4l-0.9,0.9l-1-1.1l0.9-0.9l-6.3-6.3
					c-3.7,2.3-8.6,1.8-11.8-1.4c-3.8-3.8-3.8-9.9,0-13.7c3.8-3.8,9.9-3.8,13.7,0C497.3-248,497.8-243.1,495.7-239.4z"/>
				<path class="st1" d="M495.7-389.3l6.3,6.3l0.8-0.8l1,1l-0.8,0.8l-3.4,3.4l-0.9,0.9l-1-1.1l0.9-0.9l-6.3-6.3
					c-3.7,2.3-8.6,1.8-11.8-1.4c-3.8-3.8-3.8-9.9,0-13.7c3.8-3.8,9.9-3.8,13.7,0C497.3-397.8,497.8-393,495.7-389.3z"/>
				<path class="st1" d="M570.6-314.5l6.3,6.3l0.8-0.8l1,1.1l-0.8,0.8l-3.4,3.4l-0.9,0.9l-1-1.1l0.9-0.9l-6.3-6.3
					c-3.7,2.3-8.6,1.8-11.8-1.4c-3.8-3.8-3.8-9.9,0-13.7c3.8-3.8,9.9-3.8,13.7,0C572.3-323,572.8-318.2,570.6-314.5z"/>
				<path class="st1" d="M645.8-238.9l6.3,6.3l0.8-0.8l1,1.1l-0.8,0.8l-3.4,3.4l-0.9,0.9l-1-1.1l0.9-0.9l-6.3-6.3
					c-3.7,2.3-8.6,1.8-11.8-1.4c-3.8-3.8-3.8-9.9,0-13.7c3.8-3.8,9.9-3.8,13.7,0C647.5-247.4,648-242.6,645.8-238.9z"/>
				<path class="st1" d="M576.2-394.3c-0.2-0.7-0.4-1.3-0.6-1.9l0.8-1.1c-0.6-1.2-1.3-2.2-2.3-3.1l-1.3,0.5
					c-0.5-0.5-1.1-0.9-1.7-1.2l0-1.4c-1.1-0.6-2.4-1-3.7-1.2l-0.8,1.2c-0.3,0-0.7,0-1,0s-0.7,0-1,0l-0.8-1.2
					c-1.3,0.2-2.5,0.6-3.7,1.2l0,1.4c-0.6,0.4-1.2,0.8-1.7,1.2l-1.3-0.5c-0.9,0.9-1.7,2-2.3,3.1l0.8,1.1c-0.3,0.6-0.5,1.3-0.6,1.9
					l-1.3,0.4c-0.1,0.6-0.2,1.3-0.2,1.9c0,0.7,0,1.3,0.2,1.9l1.3,0.4c0.2,0.7,0.4,1.3,0.6,1.9l-0.8,1.1c0.6,1.2,1.3,2.2,2.3,3.1
					l1.3-0.5c0.5,0.5,1.1,0.9,1.7,1.2l0,1.4c1.1,0.6,2.4,1,3.7,1.2l0.8-1.2c0.3,0,0.7,0,1,0s0.7,0,1,0l0.8,1.2
					c1.3-0.2,2.5-0.6,3.7-1.2l0-1.4c0.6-0.4,1.2-0.8,1.7-1.2l1.3,0.5c0.9-0.9,1.7-2,2.3-3.1l-0.8-1.1c0.3-0.6,0.5-1.3,0.6-1.9
					l1.3-0.4c0.1-0.6,0.2-1.3,0.2-1.9c0-0.7,0-1.3-0.2-1.9L576.2-394.3z M571-392c0,2.9-2.4,5.3-5.3,5.3c-2.9,0-5.3-2.4-5.3-5.3
					s2.4-5.3,5.3-5.3C568.6-397.3,571-394.9,571-392z"/>
				<path class="st1" d="M645.8-389.3l6.3,6.3l0.8-0.8l1,1l-0.8,0.8l-3.4,3.4l-0.9,0.9l-1-1.1l0.9-0.9l-6.3-6.3
					c-3.7,2.3-8.6,1.8-11.8-1.4c-3.8-3.8-3.8-9.9,0-13.7c3.8-3.8,9.9-3.8,13.7,0C647.5-397.8,648-393,645.8-389.3z"/>
			</g>
			<g>
				<path class="st1" d="M349.8-168.9c-0.1-0.7-0.4-1.3-0.6-2l0.9-1.1c-0.6-1.2-1.4-2.2-2.3-3.1l-1.3,0.5c-0.5-0.5-1.1-0.9-1.7-1.2
					l0-1.4c-1.1-0.6-2.4-1-3.7-1.2l-0.8,1.2c-0.3,0-0.7,0-1,0s-0.7,0-1,0l-0.8-1.2c-1.3,0.2-2.5,0.6-3.7,1.2l0,1.4
					c-0.6,0.4-1.1,0.8-1.7,1.2l-1.3-0.5c-0.9,0.9-1.7,2-2.3,3.1l0.9,1.1c-0.3,0.6-0.5,1.3-0.6,2l-1.3,0.4c-0.1,0.6-0.2,1.3-0.2,1.9
					c0,0.7,0,1.3,0.2,1.9l1.3,0.4c0.1,0.7,0.4,1.3,0.6,2l-0.9,1.1c0.6,1.2,1.4,2.2,2.3,3.1l1.3-0.5c0.5,0.5,1.1,0.9,1.7,1.2l0,1.4
					c1.1,0.6,2.4,1,3.7,1.2l0.8-1.2c0.3,0,0.7,0,1,0s0.7,0,1,0l0.8,1.2c1.3-0.2,2.5-0.6,3.7-1.2l0-1.4c0.6-0.4,1.1-0.8,1.7-1.2
					l1.3,0.5c0.9-0.9,1.7-2,2.3-3.1l-0.9-1.1c0.3-0.6,0.5-1.3,0.6-2l1.3-0.4c0.1-0.6,0.2-1.3,0.2-1.9c0-0.7,0-1.3-0.2-1.9
					L349.8-168.9z M344.6-166.6c0,2.9-2.4,5.3-5.3,5.3s-5.3-2.4-5.3-5.3s2.4-5.3,5.3-5.3S344.6-169.5,344.6-166.6z"/>
				<path class="st1" d="M273.8-242.6c-0.1-0.7-0.4-1.3-0.6-1.9l0.9-1.1c-0.6-1.2-1.4-2.2-2.3-3.1l-1.3,0.5
					c-0.5-0.4-1.1-0.9-1.7-1.2l0-1.4c-1.1-0.6-2.4-1-3.7-1.2l-0.8,1.2c-0.3,0-0.7-0.1-1-0.1s-0.7,0-1,0.1l-0.8-1.2
					c-1.3,0.2-2.5,0.6-3.7,1.2l0,1.4c-0.6,0.4-1.1,0.8-1.7,1.2l-1.3-0.5c-0.9,0.9-1.7,2-2.3,3.1l0.9,1.1c-0.3,0.6-0.5,1.3-0.6,1.9
					l-1.3,0.4c-0.1,0.6-0.2,1.3-0.2,1.9c0,0.7,0.1,1.3,0.2,1.9l1.3,0.4c0.1,0.7,0.4,1.3,0.6,1.9l-0.9,1.1c0.6,1.2,1.4,2.2,2.3,3.1
					l1.3-0.5c0.5,0.4,1.1,0.9,1.7,1.2l0,1.4c1.1,0.6,2.4,1,3.7,1.2l0.8-1.2c0.3,0,0.7,0.1,1,0.1s0.7,0,1-0.1l0.8,1.2
					c1.3-0.2,2.5-0.6,3.7-1.2l0-1.4c0.6-0.4,1.1-0.8,1.7-1.2l1.3,0.5c0.9-0.9,1.7-2,2.3-3.1l-0.9-1.1c0.3-0.6,0.5-1.3,0.6-1.9
					l1.3-0.4c0.1-0.6,0.2-1.3,0.2-1.9c0-0.7,0-1.3-0.2-1.9L273.8-242.6z M268.6-240.3c0,2.9-2.4,5.3-5.3,5.3s-5.3-2.4-5.3-5.3
					s2.4-5.3,5.3-5.3S268.6-243.2,268.6-240.3z"/>
				<path class="st1" d="M424.8-248c-0.1-0.7-0.4-1.3-0.6-1.9l0.9-1.1c-0.6-1.2-1.4-2.2-2.3-3.1l-1.3,0.5c-0.5-0.4-1.1-0.9-1.7-1.2
					l0-1.4c-1.1-0.6-2.4-1-3.7-1.2l-0.8,1.2c-0.3,0-0.7,0-1,0s-0.7,0-1,0l-0.8-1.2c-1.3,0.2-2.5,0.6-3.7,1.2l0,1.4
					c-0.6,0.4-1.1,0.8-1.7,1.2l-1.3-0.5c-0.9,0.9-1.7,2-2.3,3.1l0.9,1.1c-0.3,0.6-0.5,1.3-0.6,1.9l-1.3,0.4
					c-0.1,0.6-0.2,1.3-0.2,1.9s0,1.3,0.2,1.9l1.3,0.4c0.1,0.7,0.4,1.3,0.6,1.9l-0.9,1.1c0.6,1.2,1.4,2.2,2.3,3.1l1.3-0.5
					c0.5,0.4,1.1,0.9,1.7,1.2l0,1.4c1.1,0.6,2.4,1,3.7,1.2l0.8-1.2c0.3,0,0.7,0.1,1,0.1s0.7,0,1-0.1l0.8,1.2
					c1.3-0.2,2.5-0.6,3.7-1.2l0-1.4c0.6-0.4,1.1-0.8,1.7-1.2l1.3,0.5c0.9-0.9,1.7-2,2.3-3.1l-0.9-1.1c0.3-0.6,0.5-1.3,0.6-1.9
					l1.3-0.4c0.1-0.6,0.2-1.3,0.2-1.9s0-1.3-0.2-1.9L424.8-248z M419.6-245.7c0,2.9-2.4,5.3-5.3,5.3s-5.3-2.4-5.3-5.3
					s2.4-5.3,5.3-5.3S419.6-248.6,419.6-245.7z"/>
				<path class="st1" d="M269.3-163.9l6.3,6.3l0.8-0.8l1,1l-0.8,0.8l-3.4,3.4l-0.9,0.9l-1-1l0.9-0.9l-6.3-6.3
					c-3.7,2.3-8.6,1.8-11.8-1.4c-3.8-3.8-3.8-9.9,0-13.7s9.9-3.8,13.7,0C271-172.4,271.5-167.6,269.3-163.9z"/>
				<path class="st1" d="M269.3-313.7l6.3,6.3l0.8-0.8l1,1.1l-0.8,0.8l-3.4,3.4l-0.9,0.9l-1-1l0.9-0.9l-6.3-6.3
					c-3.7,2.3-8.6,1.8-11.8-1.4c-3.8-3.8-3.8-9.9,0-13.7c3.8-3.8,9.9-3.8,13.7,0C271-322.3,271.5-317.4,269.3-313.7z"/>
				<path class="st1" d="M344.3-239l6.3,6.3l0.8-0.8l1,1.1l-0.8,0.8l-3.4,3.4l-0.9,0.9l-1-1.1l0.9-0.9l-6.3-6.3
					c-3.7,2.3-8.6,1.8-11.8-1.4c-3.8-3.8-3.8-9.9,0-13.7c3.8-3.8,9.9-3.8,13.7,0C346-247.5,346.5-242.7,344.3-239z"/>
				<path class="st1" d="M419.5-163.4l6.3,6.3l0.8-0.8l1,1l-0.8,0.8l-3.4,3.4l-0.9,0.9l-1-1l0.9-0.9l-6.3-6.3
					c-3.7,2.3-8.6,1.8-11.8-1.4c-3.8-3.8-3.8-9.9,0-13.7s9.9-3.8,13.7,0C421.1-171.9,421.6-167.1,419.5-163.4z"/>
				<path class="st1" d="M349.8-318.8c-0.1-0.7-0.4-1.3-0.6-1.9l0.9-1.1c-0.6-1.2-1.4-2.2-2.3-3.1l-1.3,0.5
					c-0.5-0.4-1.1-0.9-1.7-1.2l0-1.4c-1.1-0.6-2.4-1-3.7-1.2l-0.8,1.2c-0.3,0-0.7-0.1-1-0.1s-0.7,0-1,0.1l-0.8-1.2
					c-1.3,0.2-2.5,0.6-3.7,1.2l0,1.4c-0.6,0.3-1.1,0.8-1.7,1.2L331-325c-0.9,0.9-1.7,2-2.3,3.1l0.9,1.1c-0.3,0.6-0.5,1.3-0.6,1.9
					l-1.3,0.4c-0.1,0.6-0.2,1.3-0.2,1.9c0,0.7,0,1.3,0.2,1.9l1.3,0.4c0.1,0.7,0.4,1.3,0.6,1.9l-0.9,1.1c0.6,1.2,1.4,2.2,2.3,3.1
					l1.3-0.5c0.5,0.4,1.1,0.9,1.7,1.2l0,1.4c1.1,0.6,2.4,1,3.7,1.2l0.8-1.2c0.3,0,0.7,0.1,1,0.1s0.7,0,1-0.1l0.8,1.2
					c1.3-0.2,2.5-0.6,3.7-1.2l0-1.4c0.6-0.3,1.1-0.8,1.7-1.2l1.3,0.5c0.9-0.9,1.7-2,2.3-3.1l-0.9-1.1c0.3-0.6,0.5-1.3,0.6-1.9
					l1.3-0.4c0.1-0.6,0.2-1.3,0.2-1.9c0-0.7,0-1.3-0.2-1.9L349.8-318.8z M344.6-316.5c0,2.9-2.4,5.3-5.3,5.3s-5.3-2.4-5.3-5.3
					c0-2.9,2.4-5.3,5.3-5.3S344.6-319.4,344.6-316.5z"/>
				<path class="st1" d="M419.5-313.7l6.3,6.3l0.8-0.8l1,1.1l-0.8,0.8l-3.4,3.4l-0.9,0.9l-1-1l0.9-0.9l-6.3-6.3
					c-3.7,2.3-8.6,1.8-11.8-1.4c-3.8-3.8-3.8-9.9,0-13.7c3.8-3.8,9.9-3.8,13.7,0C421.1-322.3,421.6-317.4,419.5-313.7z"/>
			</g>
			<g>
				<path class="st1" d="M123.5-93.4c-0.2-0.7-0.4-1.3-0.6-2l0.8-1.1c-0.6-1.2-1.3-2.2-2.3-3.1l-1.3,0.5c-0.5-0.5-1.1-0.9-1.7-1.2
					l0-1.4c-1.1-0.6-2.4-1-3.7-1.2l-0.8,1.2c-0.3,0-0.7,0-1,0s-0.7,0-1,0l-0.8-1.2c-1.3,0.2-2.5,0.6-3.7,1.2l0,1.4
					c-0.6,0.4-1.2,0.8-1.7,1.2l-1.3-0.5c-0.9,0.9-1.7,2-2.3,3.1l0.8,1.1c-0.3,0.6-0.5,1.3-0.6,2l-1.3,0.4c-0.1,0.6-0.2,1.3-0.2,1.9
					c0,0.7,0.1,1.3,0.2,1.9l1.3,0.4c0.2,0.7,0.4,1.3,0.6,2l-0.8,1.1c0.6,1.2,1.3,2.2,2.3,3.1l1.3-0.5c0.5,0.5,1.1,0.9,1.7,1.2l0,1.4
					c1.1,0.6,2.4,1,3.7,1.2l0.8-1.2c0.3,0,0.7,0,1,0s0.7,0,1,0l0.8,1.2c1.3-0.2,2.5-0.6,3.7-1.2l0-1.4c0.6-0.4,1.2-0.8,1.7-1.2
					l1.3,0.5c0.9-0.9,1.7-2,2.3-3.1l-0.8-1.1c0.3-0.6,0.5-1.3,0.6-2l1.3-0.4c0.1-0.6,0.2-1.3,0.2-1.9c0-0.7-0.1-1.3-0.2-1.9
					L123.5-93.4z M118.3-91.1c0,2.9-2.4,5.3-5.3,5.3s-5.3-2.4-5.3-5.3s2.4-5.3,5.3-5.3C116-96.4,118.3-94,118.3-91.1z"/>
				<path class="st1" d="M47.4-167.1c-0.2-0.7-0.4-1.3-0.6-2l0.8-1.1c-0.6-1.2-1.3-2.2-2.3-3.1l-1.3,0.5c-0.5-0.5-1.1-0.9-1.7-1.2
					l0-1.4c-1.1-0.6-2.4-1-3.7-1.2l-0.8,1.2c-0.3,0-0.7,0-1,0s-0.7,0-1,0l-0.8-1.2c-1.3,0.2-2.5,0.6-3.7,1.2l0,1.4
					c-0.6,0.4-1.1,0.8-1.7,1.2l-1.3-0.5c-0.9,0.9-1.7,2-2.3,3.1l0.9,1.1c-0.3,0.6-0.5,1.3-0.6,2l-1.3,0.4c-0.1,0.6-0.2,1.3-0.2,1.9
					c0,0.7,0,1.3,0.2,1.9l1.3,0.4c0.1,0.7,0.4,1.3,0.6,2l-0.9,1.1c0.6,1.2,1.4,2.2,2.3,3.1l1.3-0.5c0.5,0.5,1.1,0.9,1.7,1.2l0,1.4
					c1.1,0.6,2.4,1,3.7,1.2l0.8-1.2c0.3,0,0.7,0,1,0s0.7,0,1,0l0.8,1.2c1.3-0.2,2.5-0.6,3.7-1.2l0-1.4c0.6-0.4,1.2-0.8,1.7-1.2
					l1.3,0.5c0.9-0.9,1.7-2,2.3-3.1l-0.8-1.1c0.3-0.6,0.5-1.3,0.6-2l1.3-0.4c0.1-0.6,0.2-1.3,0.2-1.9c0-0.7,0-1.3-0.2-1.9
					L47.4-167.1z M42.2-164.8c0,2.9-2.4,5.3-5.3,5.3c-2.9,0-5.3-2.4-5.3-5.3S34-170,37-170C39.9-170,42.2-167.7,42.2-164.8z"/>
				<path class="st1" d="M198.4-172.5c-0.1-0.7-0.4-1.3-0.6-2l0.9-1.1c-0.6-1.2-1.4-2.2-2.3-3.1l-1.3,0.5c-0.5-0.5-1.1-0.9-1.7-1.2
					l0-1.4c-1.1-0.6-2.4-1-3.7-1.2l-0.8,1.2c-0.3,0-0.7,0-1,0s-0.7,0-1,0l-0.8-1.2c-1.3,0.2-2.5,0.6-3.7,1.2l0,1.4
					c-0.6,0.4-1.1,0.8-1.7,1.2l-1.3-0.5c-0.9,0.9-1.7,2-2.3,3.1l0.9,1.1c-0.3,0.6-0.5,1.3-0.6,2l-1.3,0.4c-0.1,0.6-0.2,1.3-0.2,1.9
					s0.1,1.3,0.2,1.9l1.3,0.4c0.1,0.7,0.4,1.3,0.6,2l-0.9,1.1c0.6,1.2,1.4,2.2,2.3,3.1l1.3-0.5c0.5,0.5,1.1,0.9,1.7,1.2l0,1.4
					c1.1,0.6,2.4,1,3.7,1.2l0.8-1.2c0.3,0,0.7,0,1,0s0.7,0,1,0l0.8,1.2c1.3-0.2,2.5-0.6,3.7-1.2l0-1.4c0.6-0.4,1.1-0.8,1.7-1.2
					l1.3,0.5c0.9-0.9,1.7-2,2.3-3.1l-0.9-1.1c0.3-0.6,0.5-1.3,0.6-2l1.3-0.4c0.1-0.6,0.2-1.3,0.2-1.9s-0.1-1.3-0.2-1.9L198.4-172.5z
					 M193.2-170.2c0,2.9-2.4,5.3-5.3,5.3s-5.3-2.4-5.3-5.3s2.4-5.3,5.3-5.3C190.9-175.4,193.2-173.1,193.2-170.2z"/>
				<path class="st1" d="M43-88.4l6.3,6.3l0.8-0.8l1,1L50.4-81L47-77.6l-0.9,0.9l-1-1l0.9-0.9L39.7-85c-3.7,2.3-8.6,1.8-11.8-1.4
					c-3.8-3.8-3.8-9.9,0-13.7s9.9-3.8,13.7,0C44.7-96.9,45.2-92.1,43-88.4z"/>
				<path class="st1" d="M43-238.2l6.3,6.3l0.8-0.8l1,1.1l-0.8,0.8l-3.4,3.4l-0.9,0.9l-1-1l0.9-0.9l-6.3-6.3
					c-3.7,2.3-8.6,1.8-11.8-1.4c-3.8-3.8-3.8-9.9,0-13.7c3.8-3.8,9.9-3.8,13.7,0C44.7-246.8,45.2-241.9,43-238.2z"/>
				<path class="st1" d="M118-163.4l6.3,6.3l0.8-0.8l1.1,1l-0.8,0.8l-3.4,3.4l-0.9,0.9l-1.1-1l0.9-0.9l-6.3-6.3
					c-3.7,2.3-8.6,1.8-11.8-1.4c-3.8-3.8-3.8-9.9,0-13.7c3.8-3.8,9.9-3.8,13.7,0C119.6-172,120.1-167.1,118-163.4z"/>
				<path class="st1" d="M193.1-87.9l6.3,6.3l0.8-0.8l1.1,1l-0.8,0.8l-3.4,3.4l-0.9,0.9l-1.1-1l0.9-0.9l-6.3-6.3
					c-3.7,2.3-8.6,1.8-11.8-1.4c-3.8-3.8-3.8-9.9,0-13.7c3.8-3.8,9.9-3.8,13.7,0C194.8-96.4,195.3-91.6,193.1-87.9z"/>
				<path class="st1" d="M123.5-243.3c-0.2-0.7-0.4-1.3-0.6-1.9l0.8-1.1c-0.6-1.2-1.3-2.2-2.3-3.1l-1.3,0.5
					c-0.5-0.4-1.1-0.9-1.7-1.2l0-1.4c-1.1-0.6-2.4-1-3.7-1.2l-0.8,1.2c-0.3,0-0.7-0.1-1-0.1s-0.7,0-1,0.1l-0.8-1.2
					c-1.3,0.2-2.5,0.6-3.7,1.2l0,1.4c-0.6,0.4-1.2,0.8-1.7,1.2l-1.3-0.5c-0.9,0.9-1.7,2-2.3,3.1l0.8,1.1c-0.3,0.6-0.5,1.3-0.6,1.9
					l-1.3,0.4c-0.1,0.6-0.2,1.3-0.2,1.9c0,0.7,0.1,1.3,0.2,1.9l1.3,0.4c0.2,0.7,0.4,1.3,0.6,1.9l-0.8,1.1c0.6,1.2,1.3,2.2,2.3,3.1
					l1.3-0.5c0.5,0.4,1.1,0.9,1.7,1.2l0,1.4c1.1,0.6,2.4,1,3.7,1.2l0.8-1.2c0.3,0,0.7,0.1,1,0.1s0.7,0,1-0.1l0.8,1.2
					c1.3-0.2,2.5-0.6,3.7-1.2l0-1.4c0.6-0.4,1.2-0.8,1.7-1.2l1.3,0.5c0.9-0.9,1.7-2,2.3-3.1l-0.8-1.1c0.3-0.6,0.5-1.3,0.6-1.9
					l1.3-0.4c0.1-0.6,0.2-1.3,0.2-1.9c0-0.7-0.1-1.3-0.2-1.9L123.5-243.3z M118.3-241c0,2.9-2.4,5.3-5.3,5.3s-5.3-2.4-5.3-5.3
					s2.4-5.3,5.3-5.3C116-246.2,118.3-243.9,118.3-241z"/>
				<path class="st1" d="M193.1-238.2l6.3,6.3l0.8-0.8l1.1,1.1l-0.8,0.8l-3.4,3.4l-0.9,0.9l-1.1-1l0.9-0.9l-6.3-6.3
					c-3.7,2.3-8.6,1.8-11.8-1.4c-3.8-3.8-3.8-9.9,0-13.7c3.8-3.8,9.9-3.8,13.7,0C194.8-246.8,195.3-241.9,193.1-238.2z"/>
			</g>
			<g>
				<path class="st1" d="M576.2-17.9c-0.2-0.7-0.4-1.3-0.6-2l0.8-1.1c-0.6-1.2-1.3-2.2-2.3-3.1l-1.3,0.5c-0.5-0.5-1.1-0.9-1.7-1.2
					l0-1.4c-1.1-0.6-2.4-1-3.7-1.2l-0.8,1.2c-0.3,0-0.7,0-1,0s-0.7,0-1,0l-0.8-1.2c-1.3,0.2-2.5,0.6-3.7,1.2l0,1.4
					c-0.6,0.4-1.2,0.8-1.7,1.2l-1.3-0.5c-0.9,0.9-1.7,2-2.3,3.1l0.8,1.1c-0.3,0.6-0.5,1.3-0.6,2l-1.3,0.4c-0.1,0.6-0.2,1.3-0.2,1.9
					c0,0.7,0,1.3,0.2,1.9l1.3,0.4c0.2,0.7,0.4,1.3,0.6,2l-0.8,1.1c0.6,1.2,1.3,2.2,2.3,3.1l1.3-0.5c0.5,0.5,1.1,0.9,1.7,1.2l0,1.4
					c1.1,0.6,2.4,1,3.7,1.2l0.8-1.2c0.3,0,0.7,0,1,0s0.7,0,1,0l0.8,1.2c1.3-0.2,2.5-0.6,3.7-1.2l0-1.4c0.6-0.4,1.2-0.8,1.7-1.2
					l1.3,0.5c0.9-0.9,1.7-2,2.3-3.1l-0.8-1.1c0.3-0.6,0.5-1.3,0.6-2l1.3-0.4c0.1-0.6,0.2-1.3,0.2-1.9c0-0.7,0-1.3-0.2-1.9
					L576.2-17.9z M571-15.6c0,2.9-2.4,5.3-5.3,5.3c-2.9,0-5.3-2.4-5.3-5.3s2.4-5.3,5.3-5.3C568.6-20.9,571-18.5,571-15.6z"/>
				<path class="st1" d="M500.1-91.5c-0.1-0.7-0.4-1.3-0.6-2l0.9-1.1c-0.6-1.2-1.4-2.2-2.3-3.1l-1.3,0.5c-0.5-0.5-1.1-0.9-1.7-1.2
					l0-1.4c-1.1-0.6-2.4-1-3.7-1.2l-0.8,1.2c-0.3,0-0.7,0-1,0s-0.7,0-1,0l-0.8-1.2c-1.3,0.2-2.5,0.6-3.7,1.2l0,1.4
					c-0.6,0.4-1.1,0.8-1.7,1.2l-1.3-0.5c-0.9,0.9-1.7,2-2.3,3.1l0.9,1.1c-0.3,0.6-0.5,1.3-0.6,2l-1.3,0.4c-0.1,0.6-0.2,1.3-0.2,1.9
					c0,0.7,0,1.3,0.2,1.9l1.3,0.4c0.1,0.7,0.4,1.3,0.6,2l-0.9,1.1c0.6,1.2,1.4,2.2,2.3,3.1l1.3-0.5c0.5,0.5,1.1,0.9,1.7,1.2l0,1.4
					c1.1,0.6,2.4,1,3.7,1.2l0.8-1.2c0.3,0,0.7,0,1,0s0.7,0,1,0l0.8,1.2c1.3-0.2,2.5-0.6,3.7-1.2l0-1.4c0.6-0.4,1.1-0.8,1.7-1.2
					l1.3,0.5c0.9-0.9,1.7-2,2.3-3.1l-0.9-1.1c0.3-0.6,0.5-1.3,0.6-2l1.3-0.4c0.1-0.6,0.2-1.3,0.2-1.9c0-0.7,0-1.3-0.2-1.9
					L500.1-91.5z M494.9-89.2c0,2.9-2.4,5.3-5.3,5.3s-5.3-2.4-5.3-5.3s2.4-5.3,5.3-5.3S494.9-92.2,494.9-89.2z"/>
				<path class="st1" d="M651.1-97c-0.2-0.7-0.4-1.3-0.6-2l0.8-1.1c-0.6-1.2-1.3-2.2-2.3-3.1l-1.3,0.5c-0.5-0.5-1.1-0.9-1.7-1.2
					l0-1.4c-1.1-0.6-2.4-1-3.7-1.2l-0.8,1.2c-0.3,0-0.7,0-1,0s-0.7,0-1,0l-0.8-1.2c-1.3,0.2-2.5,0.6-3.7,1.2l0,1.4
					c-0.6,0.4-1.2,0.8-1.7,1.2l-1.3-0.5c-0.9,0.9-1.7,2-2.3,3.1l0.8,1.1c-0.3,0.6-0.5,1.3-0.6,2l-1.3,0.4c-0.1,0.6-0.2,1.3-0.2,1.9
					c0,0.7,0,1.3,0.2,1.9l1.3,0.4c0.2,0.7,0.4,1.3,0.6,2l-0.8,1.1c0.6,1.2,1.3,2.2,2.3,3.1l1.3-0.5c0.5,0.5,1.1,0.9,1.7,1.2l0,1.4
					c1.1,0.6,2.4,1,3.7,1.2l0.8-1.2c0.3,0,0.7,0,1,0s0.7,0,1,0l0.8,1.2c1.3-0.2,2.5-0.6,3.7-1.2l0-1.4c0.6-0.4,1.2-0.8,1.7-1.2
					l1.3,0.5c0.9-0.9,1.7-2,2.3-3.1l-0.8-1.1c0.3-0.6,0.5-1.3,0.6-2l1.3-0.4c0.1-0.6,0.2-1.3,0.2-1.9c0-0.7,0-1.3-0.2-1.9L651.1-97z
					 M645.9-94.6c0,2.9-2.4,5.3-5.3,5.3c-2.9,0-5.3-2.4-5.3-5.3s2.4-5.3,5.3-5.3C643.5-99.9,645.9-97.6,645.9-94.6z"/>
				<path class="st1" d="M495.7-12.9l6.3,6.3l0.8-0.8l1,1L503-5.5l-3.4,3.4l-0.9,0.9l-1-1l0.9-0.9l-6.3-6.3
					c-3.7,2.3-8.6,1.8-11.8-1.4c-3.8-3.8-3.8-9.9,0-13.7c3.8-3.8,9.9-3.8,13.7,0C497.3-21.4,497.8-16.6,495.7-12.9z"/>
				<path class="st1" d="M495.7-162.7l6.3,6.3l0.8-0.8l1,1l-0.8,0.8l-3.4,3.4l-0.9,0.9l-1-1l0.9-0.9l-6.3-6.3
					c-3.7,2.3-8.6,1.8-11.8-1.4c-3.8-3.8-3.8-9.9,0-13.7c3.8-3.8,9.9-3.8,13.7,0C497.3-171.2,497.8-166.4,495.7-162.7z"/>
				<path class="st1" d="M570.6-87.9l6.3,6.3l0.8-0.8l1,1l-0.8,0.8l-3.4,3.4l-0.9,0.9l-1-1l0.9-0.9l-6.3-6.3
					c-3.7,2.3-8.6,1.8-11.8-1.4c-3.8-3.8-3.8-9.9,0-13.7c3.8-3.8,9.9-3.8,13.7,0C572.3-96.5,572.8-91.6,570.6-87.9z"/>
				<path class="st1" d="M645.8-12.4l6.3,6.3l0.8-0.8l1,1L653.2-5l-3.4,3.4l-0.9,0.9l-1-1l0.9-0.9L642.4-9
					c-3.7,2.3-8.6,1.8-11.8-1.4c-3.8-3.8-3.8-9.9,0-13.7c3.8-3.8,9.9-3.8,13.7,0C647.5-20.9,648-16.1,645.8-12.4z"/>
				<path class="st1" d="M576.2-167.7c-0.2-0.7-0.4-1.3-0.6-2l0.8-1.1c-0.6-1.2-1.3-2.2-2.3-3.1l-1.3,0.5c-0.5-0.5-1.1-0.9-1.7-1.2
					l0-1.4c-1.1-0.6-2.4-1-3.7-1.2l-0.8,1.2c-0.3,0-0.7,0-1,0s-0.7,0-1,0l-0.8-1.2c-1.3,0.2-2.5,0.6-3.7,1.2l0,1.4
					c-0.6,0.4-1.2,0.8-1.7,1.2l-1.3-0.5c-0.9,0.9-1.7,2-2.3,3.1l0.8,1.1c-0.3,0.6-0.5,1.3-0.6,2l-1.3,0.4c-0.1,0.6-0.2,1.3-0.2,1.9
					c0,0.7,0,1.3,0.2,1.9l1.3,0.4c0.2,0.7,0.4,1.3,0.6,2L555-160c0.6,1.2,1.3,2.2,2.3,3.1l1.3-0.5c0.5,0.5,1.1,0.9,1.7,1.2l0,1.4
					c1.1,0.6,2.4,1,3.7,1.2l0.8-1.2c0.3,0,0.7,0,1,0s0.7,0,1,0l0.8,1.2c1.3-0.2,2.5-0.6,3.7-1.2l0-1.4c0.6-0.4,1.2-0.8,1.7-1.2
					l1.3,0.5c0.9-0.9,1.7-2,2.3-3.1l-0.8-1.1c0.3-0.6,0.5-1.3,0.6-2l1.3-0.4c0.1-0.6,0.2-1.3,0.2-1.9c0-0.7,0-1.3-0.2-1.9
					L576.2-167.7z M571-165.4c0,2.9-2.4,5.3-5.3,5.3c-2.9,0-5.3-2.4-5.3-5.3s2.4-5.3,5.3-5.3C568.6-170.7,571-168.4,571-165.4z"/>
				<path class="st1" d="M645.8-162.7l6.3,6.3l0.8-0.8l1,1l-0.8,0.8l-3.4,3.4l-0.9,0.9l-1-1l0.9-0.9l-6.3-6.3
					c-3.7,2.3-8.6,1.8-11.8-1.4c-3.8-3.8-3.8-9.9,0-13.7c3.8-3.8,9.9-3.8,13.7,0C647.5-171.2,648-166.4,645.8-162.7z"/>
			</g>
			<g>
				<path class="st1" d="M273.8-16c-0.1-0.7-0.4-1.3-0.6-2l0.9-1.1c-0.6-1.2-1.4-2.2-2.3-3.1l-1.3,0.5c-0.5-0.5-1.1-0.9-1.7-1.2
					l0-1.4c-1.1-0.6-2.4-1-3.7-1.2l-0.8,1.2c-0.3,0-0.7,0-1,0s-0.7,0-1,0l-0.8-1.2c-1.3,0.2-2.5,0.6-3.7,1.2l0,1.4
					c-0.6,0.4-1.1,0.8-1.7,1.2l-1.3-0.5c-0.9,0.9-1.7,2-2.3,3.1l0.9,1.1c-0.3,0.6-0.5,1.3-0.6,2l-1.3,0.4c-0.1,0.6-0.2,1.3-0.2,1.9
					c0,0.7,0.1,1.3,0.2,1.9l1.3,0.4c0.1,0.7,0.4,1.3,0.6,2l-0.9,1.1c0.6,1.2,1.4,2.2,2.3,3.1l1.3-0.5c0.5,0.5,1.1,0.9,1.7,1.2l0,1.4
					c1.1,0.6,2.4,1,3.7,1.2l0.8-1.2c0.3,0,0.7,0,1,0s0.7,0,1,0l0.8,1.2c1.3-0.2,2.5-0.6,3.7-1.2l0-1.4c0.6-0.4,1.1-0.8,1.7-1.2
					l1.3,0.5c0.9-0.9,1.7-2,2.3-3.1l-0.9-1.1c0.3-0.6,0.5-1.3,0.6-2l1.3-0.4c0.1-0.6,0.2-1.3,0.2-1.9c0-0.7,0-1.3-0.2-1.9L273.8-16z
					 M268.6-13.7c0,2.9-2.4,5.3-5.3,5.3s-5.3-2.4-5.3-5.3s2.4-5.3,5.3-5.3S268.6-16.6,268.6-13.7z"/>
				<path class="st1" d="M424.8-21.4c-0.1-0.7-0.4-1.3-0.6-2l0.9-1.1c-0.6-1.2-1.4-2.2-2.3-3.1l-1.3,0.5c-0.5-0.5-1.1-0.9-1.7-1.2
					l0-1.4c-1.1-0.6-2.4-1-3.7-1.2l-0.8,1.2c-0.3,0-0.7,0-1,0s-0.7,0-1,0l-0.8-1.2c-1.3,0.2-2.5,0.6-3.7,1.2l0,1.4
					c-0.6,0.4-1.1,0.8-1.7,1.2l-1.3-0.5c-0.9,0.9-1.7,2-2.3,3.1l0.9,1.1c-0.3,0.6-0.5,1.3-0.6,2l-1.3,0.4c-0.1,0.6-0.2,1.3-0.2,1.9
					c0,0.7,0,1.3,0.2,1.9l1.3,0.4c0.1,0.7,0.4,1.3,0.6,2l-0.9,1.1c0.6,1.2,1.4,2.2,2.3,3.1l1.3-0.5c0.5,0.5,1.1,0.9,1.7,1.2l0,1.4
					c1.1,0.6,2.4,1,3.7,1.2l0.8-1.2c0.3,0,0.7,0,1,0s0.7,0,1,0l0.8,1.2c1.3-0.2,2.5-0.6,3.7-1.2l0-1.4c0.6-0.4,1.1-0.8,1.7-1.2
					l1.3,0.5c0.9-0.9,1.7-2,2.3-3.1l-0.9-1.1c0.3-0.6,0.5-1.3,0.6-2l1.3-0.4c0.1-0.6,0.2-1.3,0.2-1.9c0-0.7,0-1.3-0.2-1.9
					L424.8-21.4z M419.6-19.1c0,2.9-2.4,5.3-5.3,5.3s-5.3-2.4-5.3-5.3s2.4-5.3,5.3-5.3S419.6-22,419.6-19.1z"/>
				<path class="st1" d="M269.3-87.2l6.3,6.3l0.8-0.8l1,1l-0.8,0.8l-3.4,3.4l-0.9,0.9l-1-1l0.9-0.9l-6.3-6.3
					c-3.7,2.3-8.6,1.8-11.8-1.4c-3.8-3.8-3.8-9.9,0-13.7s9.9-3.8,13.7,0C271-95.7,271.5-90.9,269.3-87.2z"/>
				<path class="st1" d="M344.3-12.4l6.3,6.3l0.8-0.8l1,1L351.7-5l-3.4,3.4l-0.9,0.9l-1-1l0.9-0.9L340.9-9
					c-3.7,2.3-8.6,1.8-11.8-1.4c-3.8-3.8-3.8-9.9,0-13.7c3.8-3.8,9.9-3.8,13.7,0C346-20.9,346.5-16.1,344.3-12.4z"/>
				<path class="st1" d="M349.8-92.2c-0.1-0.7-0.4-1.3-0.6-2l0.9-1.1c-0.6-1.2-1.4-2.2-2.3-3.1l-1.3,0.5c-0.5-0.5-1.1-0.9-1.7-1.2
					l0-1.4c-1.1-0.6-2.4-1-3.7-1.2l-0.8,1.2c-0.3,0-0.7,0-1,0s-0.7,0-1,0l-0.8-1.2c-1.3,0.2-2.5,0.6-3.7,1.2l0,1.4
					c-0.6,0.4-1.1,0.8-1.7,1.2l-1.3-0.5c-0.9,0.9-1.7,2-2.3,3.1l0.9,1.1c-0.3,0.6-0.5,1.3-0.6,2l-1.3,0.4c-0.1,0.6-0.2,1.3-0.2,1.9
					c0,0.7,0,1.3,0.2,1.9l1.3,0.4c0.1,0.7,0.4,1.3,0.6,2l-0.9,1.1c0.6,1.2,1.4,2.2,2.3,3.1l1.3-0.5c0.5,0.5,1.1,0.9,1.7,1.2l0,1.4
					c1.1,0.6,2.4,1,3.7,1.2l0.8-1.2c0.3,0,0.7,0,1,0s0.7,0,1,0l0.8,1.2c1.3-0.2,2.5-0.6,3.7-1.2l0-1.4c0.6-0.4,1.1-0.8,1.7-1.2
					l1.3,0.5c0.9-0.9,1.7-2,2.3-3.1l-0.9-1.1c0.3-0.6,0.5-1.3,0.6-2l1.3-0.4c0.1-0.6,0.2-1.3,0.2-1.9c0-0.7,0-1.3-0.2-1.9
					L349.8-92.2z M344.6-89.9c0,2.9-2.4,5.3-5.3,5.3s-5.3-2.4-5.3-5.3s2.4-5.3,5.3-5.3S344.6-92.8,344.6-89.9z"/>
				<path class="st1" d="M419.5-87.2l6.3,6.3l0.8-0.8l1,1l-0.8,0.8l-3.4,3.4l-0.9,0.9l-1-1l0.9-0.9l-6.3-6.3
					c-3.7,2.3-8.6,1.8-11.8-1.4c-3.8-3.8-3.8-9.9,0-13.7s9.9-3.8,13.7,0C421.1-95.7,421.6-90.9,419.5-87.2z"/>
			</g>
			<g>
				<path class="st1" d="M43-11.7l6.3,6.3l0.8-0.8l1,1l-0.8,0.8L47-0.9L46.1,0l-1-1L46-2l-6.3-6.3C36-6,31-6.5,27.8-9.7
					c-3.8-3.8-3.8-9.9,0-13.7s9.9-3.8,13.7,0C44.7-20.2,45.2-15.4,43-11.7z"/>
				<path class="st1" d="M123.5-16.7c-0.2-0.7-0.4-1.3-0.6-2l0.8-1.1c-0.6-1.2-1.3-2.2-2.3-3.1l-1.3,0.5c-0.5-0.5-1.1-0.9-1.7-1.2
					l0-1.4c-1.1-0.6-2.4-1-3.7-1.2l-0.8,1.2c-0.3,0-0.7,0-1,0s-0.7,0-1,0l-0.8-1.2c-1.3,0.2-2.5,0.6-3.7,1.2l0,1.4
					c-0.6,0.4-1.2,0.8-1.7,1.2l-1.3-0.5c-0.9,0.9-1.7,2-2.3,3.1l0.8,1.1c-0.3,0.6-0.5,1.3-0.6,2l-1.3,0.4c-0.1,0.6-0.2,1.3-0.2,1.9
					c0,0.7,0.1,1.3,0.2,1.9l1.3,0.4c0.2,0.7,0.4,1.3,0.6,2L102.4-9c0.6,1.2,1.3,2.2,2.3,3.1l1.3-0.5c0.5,0.5,1.1,0.9,1.7,1.2l0,1.4
					c1.1,0.6,2.4,1,3.7,1.2l0.8-1.2c0.3,0,0.7,0,1,0s0.7,0,1,0l0.8,1.2c1.3-0.2,2.5-0.6,3.7-1.2l0-1.4c0.6-0.4,1.2-0.8,1.7-1.2
					l1.3,0.5c0.9-0.9,1.7-2,2.3-3.1l-0.8-1.1c0.3-0.6,0.5-1.3,0.6-2l1.3-0.4c0.1-0.6,0.2-1.3,0.2-1.9c0-0.7-0.1-1.3-0.2-1.9
					L123.5-16.7z M118.3-14.4c0,2.9-2.4,5.3-5.3,5.3s-5.3-2.4-5.3-5.3s2.4-5.3,5.3-5.3C116-19.7,118.3-17.3,118.3-14.4z"/>
				<path class="st1" d="M193.1-11.7l6.3,6.3l0.8-0.8l1.1,1l-0.8,0.8l-3.4,3.4L196.2,0l-1.1-1l0.9-0.9l-6.3-6.3
					c-3.7,2.3-8.6,1.8-11.8-1.4c-3.8-3.8-3.8-9.9,0-13.7c3.8-3.8,9.9-3.8,13.7,0C194.8-20.2,195.3-15.4,193.1-11.7z"/>
			</g>
		</g>
	</g>
</pattern>
<linearGradient id="SVGID_1_" gradientUnits="userSpaceOnUse" x1="29.3333" y1="172.74" x2="711.2615" y2="172.74" gradientTransform="matrix(1 0 0 -1 0 329)">
	<stop  offset="0.4736" style="stop-color:#8DC0E7"/>
	<stop  offset="1" style="stop-color:#8DC0E7;stop-opacity:0.6"/>
</linearGradient>
<rect x="25.3" y="6.3" class="st2" width="600" height="300"/>
<rect x="5.8" y="26.8" class="st3" width="600" height="300"/>
<pattern  id="SVGID_3_" xlink:href="#SVGID_2_" patternTransform="matrix(1 0 0 -1 -329.92 -17903.5195)">
</pattern>
<rect x="26.3" y="6.3" class="st4" width="599" height="300"/>
<image style="overflow:visible;enable-background:new    ;" width="1500" height="1500" xlink:href="1D1E487.png"  transform="matrix(0.2307 0 0 0.2307 152.3333 -7.7385)">
</image>
</svg>
