<?xml version="1.0" encoding="utf-8"?>
<!-- Generator: Adobe Illustrator 22.0.1, SVG Export Plug-In . SVG Version: 6.00 Build 0)  -->
<svg version="1.1" id="Layer_1" xmlns="http://www.w3.org/2000/svg" xmlns:xlink="http://www.w3.org/1999/xlink" x="0px" y="0px"
	 width="631.17px" height="330.52px" viewBox="0 0 631.17 330.52" style="enable-background:new 0 0 631.17 330.52;"
	 xml:space="preserve">
<style type="text/css">
	.st0{fill:#F46771;}
	.st1{fill:none;stroke:#000000;stroke-width:1.25;stroke-miterlimit:10;}
	.st2{clip-path:url(#SVGID_2_);}
	.st3{clip-path:url(#SVGID_4_);}
	.st4{opacity:0.65;clip-path:url(#SVGID_6_);}
	.st5{clip-path:url(#SVGID_8_);}
	.st6{clip-path:url(#SVGID_10_);fill:url(#SVGID_11_);}
	.st7{fill:#2497C7;}
	.st8{fill:#22A6D6;}
	.st9{fill:#F4F5F5;}
	.st10{fill:#929497;}
	.st11{clip-path:url(#SVGID_13_);fill:none;stroke:#184860;stroke-width:3;stroke-miterlimit:2;}
	.st12{fill:none;stroke:#184860;stroke-width:3;stroke-miterlimit:2;}
	.st13{clip-path:url(#SVGID_15_);fill:none;stroke:#184860;stroke-width:3;stroke-miterlimit:2;}
	.st14{clip-path:url(#SVGID_17_);fill:#22A6D6;}
	.st15{clip-path:url(#SVGID_17_);fill:none;stroke:#184961;stroke-width:2;}
</style>
<g>
	<rect x="25.33" y="5.01" class="st0" width="600" height="300"/>
	<rect x="5.83" y="25.51" class="st1" width="600" height="300"/>
	<g>
		<defs>
			<rect id="SVGID_1_" x="25.33" y="26.01" width="581" height="279"/>
		</defs>
		<clipPath id="SVGID_2_">
			<use xlink:href="#SVGID_1_"  style="overflow:visible;"/>
		</clipPath>
		<g class="st2">
			<defs>
				<rect id="SVGID_3_" x="-105.15" y="195.01" width="515.76" height="192"/>
			</defs>
			<clipPath id="SVGID_4_">
				<use xlink:href="#SVGID_3_"  style="overflow:visible;"/>
			</clipPath>
			<g class="st3">
				<defs>
					<rect id="SVGID_5_" x="-105.15" y="195.01" width="515.76" height="192"/>
				</defs>
				<clipPath id="SVGID_6_">
					<use xlink:href="#SVGID_5_"  style="overflow:visible;"/>
				</clipPath>
				<g class="st4">
					<g>
						<defs>
							<rect id="SVGID_7_" x="-115.15" y="91.92" width="544.18" height="298.4"/>
						</defs>
						<clipPath id="SVGID_8_">
							<use xlink:href="#SVGID_7_"  style="overflow:visible;"/>
						</clipPath>
						<g class="st5">
							<defs>
								<path id="SVGID_9_" d="M-105.15,237.79c0,0,259.72,29.29,512.25-42.77l3.51,12.23c0,0-320.51,143.11-475.23,179.77
									L-105.15,237.79z"/>
							</defs>
							<clipPath id="SVGID_10_">
								<use xlink:href="#SVGID_9_"  style="overflow:visible;"/>
							</clipPath>
							
								<linearGradient id="SVGID_11_" gradientUnits="userSpaceOnUse" x1="-163.8286" y1="445.8764" x2="-163.0803" y2="445.8764" gradientTransform="matrix(651.4869 -186.8109 -186.8109 -651.4869 189952.8125 260233.6875)">
								<stop  offset="0" style="stop-color:#81C3DE"/>
								<stop  offset="0.1183" style="stop-color:#75B4CF"/>
								<stop  offset="0.9932" style="stop-color:#1E4A60"/>
								<stop  offset="1" style="stop-color:#1E4A60"/>
							</linearGradient>
							<polygon class="st6" points="-156.02,209.6 371.43,58.36 461.49,372.42 -65.96,523.67 							"/>
						</g>
					</g>
				</g>
			</g>
		</g>
		<g class="st2">
			<polygon class="st7" points="237.88,41.78 116.34,53.22 158,81.63 279.55,70.18 			"/>
			<polygon class="st8" points="179.07,185.36 179.59,415.82 301.14,404.37 300.62,173.92 			"/>
			<polygon class="st8" points="158,81.63 179.07,185.36 300.62,173.92 279.55,70.18 			"/>
			<polygon class="st7" points="158,81.63 179.07,185.36 179.59,415.82 117.12,373.1 116.34,53.22 			"/>
			<polygon class="st9" points="186.85,105.22 264.99,97.86 274.45,146.25 196.31,153.61 			"/>
			<polygon class="st10" points="196.31,153.61 274.45,146.25 273.23,147.1 195.09,154.46 			"/>
			<polygon class="st10" points="186.85,105.22 196.31,153.61 195.09,154.46 185.63,106.06 			"/>
			<g>
				<defs>
					<rect id="SVGID_12_" x="109.33" y="41.78" width="191.8" height="384.23"/>
				</defs>
				<clipPath id="SVGID_13_">
					<use xlink:href="#SVGID_12_"  style="overflow:visible;"/>
				</clipPath>
				<polygon class="st11" points="110.83,61.77 232.38,50.32 274.05,78.73 152.5,90.17 				"/>
				<polygon class="st11" points="173.57,193.91 295.12,182.46 295.63,412.92 174.09,424.36 				"/>
			</g>
			<polygon class="st12" points="152.5,90.17 274.05,78.73 295.12,182.46 173.57,193.91 			"/>
			<g>
				<defs>
					<rect id="SVGID_14_" x="109.33" y="41.78" width="191.8" height="384.23"/>
				</defs>
				<clipPath id="SVGID_15_">
					<use xlink:href="#SVGID_14_"  style="overflow:visible;"/>
				</clipPath>
				<polygon class="st13" points="152.5,90.17 173.57,193.91 174.09,424.36 111.62,381.65 110.83,61.77 				"/>
			</g>
			<polygon class="st12" points="181.35,113.76 259.48,106.4 268.94,154.8 190.81,162.15 			"/>
		</g>
		<g class="st2">
			<g>
				<defs>
					<rect id="SVGID_16_" x="355.33" y="119.89" width="230.23" height="104.12"/>
				</defs>
				<clipPath id="SVGID_17_">
					<use xlink:href="#SVGID_16_"  style="overflow:visible;"/>
				</clipPath>
				<path class="st14" d="M390.32,190.84c0,0-26.99-29.79-29.85-34.53c-2.85-4.74,16.08-5.32,16.08-5.32s37.23,23.88,47.7,23.19
					l54.06-20.07l-9.8-19.63c0,0,14.67-5.34,18.11-2.6l15.2,13.32l49.83-20.13c0,0,15.47-6.84,25.81,3.73c0,0,6.85,0.77,7.67,2.8
					c0,0,4.69,8.13-16.96,25.13l-47.81,20.5c0,0-2.4,33.4-4.79,36.73c0,0-15.87,7-16.28,5.99c-0.41-1.01,0.61,1.52,0.61,1.52
					l-8.08-33.89l-47.82,19.32c0,0-14.28,2.82-30.62,0.57c0,0-1.36,7.04-4.96,12.03c0,0-8.01,6.78-9.24,3.73l-0.72-16.81
					c0,0-17.33-0.08-19.17-4.64c0,0-1.43-2.37-0.84-5.56L390.32,190.84z"/>
				<path class="st15" d="M386.47,188.84c0,0-26.99-29.79-29.85-34.53c-2.85-4.74,16.08-5.32,16.08-5.32s37.23,23.88,47.7,23.19
					l54.06-20.07l-9.8-19.63c0,0,14.67-5.34,18.11-2.6l15.2,13.32l49.83-20.13c0,0,15.47-6.84,25.81,3.73c0,0,6.86,0.77,7.67,2.8
					c0,0,4.69,8.13-16.96,25.13l-47.81,20.5c0,0-2.4,33.4-4.79,36.73c0,0-15.87,7-16.28,5.99c-0.41-1.01,0.61,1.52,0.61,1.52
					l-8.08-33.89l-47.82,19.32c0,0-14.28,2.82-30.62,0.57c0,0-1.36,7.04-4.96,12.03c0,0-8.01,6.78-9.24,3.73l-0.72-16.81
					c0,0-17.33-0.08-19.17-4.64c0,0-1.43-2.37-0.84-5.56L386.47,188.84z"/>
			</g>
		</g>
	</g>
</g>
</svg>
