<?xml version="1.0" encoding="utf-8"?>
<!-- Generator: Adobe Illustrator 22.0.1, SVG Export Plug-In . SVG Version: 6.00 Build 0)  -->
<svg version="1.1" id="Layer_1" xmlns="http://www.w3.org/2000/svg" xmlns:xlink="http://www.w3.org/1999/xlink" x="0px" y="0px"
	 width="200px" height="223.8px" viewBox="0 0 200 223.8" style="enable-background:new 0 0 200 223.8;" xml:space="preserve">
<style type="text/css">
	.st0{fill:#FFFFFF;}
	.st1{fill:none;stroke:#FEA802;stroke-width:4;stroke-linecap:round;stroke-miterlimit:10;}
	.st2{fill:#FEA802;}
	.st3{fill:#21213A;}
	.st4{fill:none;stroke:#1D1E1E;stroke-width:1.5;stroke-miterlimit:10;}
	.st5{enable-background:new    ;}
	.st6{fill:#1D1E1E;}
</style>
<title>Sun</title>
<circle class="st0" cx="51.8" cy="154.6" r="9.1"/>
<ellipse class="st0" cx="137" cy="129.4" rx="32.3" ry="16.1"/>
<circle class="st0" cx="164" cy="145.3" r="9.3"/>
<line class="st1" x1="100" y1="77" x2="100" y2="33.3"/>
<line class="st1" x1="164.7" y1="188.5" x2="133.8" y2="157.6"/>
<line class="st1" x1="66.2" y1="90" x2="35.3" y2="59.1"/>
<line class="st1" x1="190.5" y1="123.8" x2="146.8" y2="123.8"/>
<line class="st1" x1="164.7" y1="59.1" x2="133.8" y2="90"/>
<line class="st1" x1="66.2" y1="157.6" x2="35.3" y2="188.5"/>
<line class="st1" x1="53.2" y1="123.8" x2="9.5" y2="123.8"/>
<line class="st1" x1="100" y1="214.3" x2="100" y2="170.6"/>
<circle class="st2" cx="100" cy="123.8" r="39.8"/>
<circle class="st3" cx="85.2" cy="124.6" r="2"/>
<circle class="st3" cx="114.8" cy="124.6" r="2"/>
<path class="st4" d="M94.8,128.4c0,0,5.5,2.9,10.4,0"/>
<g>
	<g class="st5">
		<path class="st6" d="M20.6,50.4l2.3,2.1l2.1-2.2l-2.3-2.1l1.3-1.3l5.9,5.6l-1.3,1.3l-2.5-2.3l-2.1,2.2l2.5,2.3l-1.3,1.3l-5.9-5.6
			L20.6,50.4z"/>
	</g>
	<g class="st5">
		<path class="st6" d="M32,45.8l-2.2,2l1.3,1.4l2.5-2.3l1,1.1l-3.8,3.5l-5.5-6l3.7-3.4l1,1.1l-2.3,2.1l1.1,1.2l2.2-2L32,45.8z"/>
	</g>
	<g class="st5">
		<path class="st6" d="M30.2,41.2l1.4-1.2l4.1,5.1l2.5-2l1,1.2l-3.9,3.2L30.2,41.2z"/>
	</g>
	<g class="st5">
		<path class="st6" d="M35.1,37.3l1.5-1.1l3.8,5.3l2.6-1.9l0.9,1.2l-4.1,2.9L35.1,37.3z"/>
	</g>
	<g class="st5">
		<path class="st6" d="M48.2,33.3c1.4,2.3,0.9,4.5-1.1,5.7c-2,1.3-4.2,0.5-5.4-1.5c-1.3-2.1-0.9-4.4,1.1-5.7
			C44.9,30.6,47,31.4,48.2,33.3z M43.3,36.5c0.8,1.3,2.1,1.9,3.1,1.3c1.1-0.7,1-2,0.2-3.4c-0.8-1.2-2-1.9-3.1-1.3
			C42.5,33.8,42.5,35.2,43.3,36.5z"/>
	</g>
	<g class="st5">
		<path class="st6" d="M49.7,28.1l4.4-2.2l0.7,1.3L52,28.6l0.8,1.7l2.6-1.3l0.7,1.3l-2.6,1.3l1.5,2.9l-1.6,0.8L49.7,28.1z"/>
	</g>
	<g class="st5">
		<path class="st6" d="M55.6,25.3c0.5-0.3,1.3-0.7,2.2-1.1c1.1-0.5,1.9-0.6,2.7-0.4c0.6,0.2,1.1,0.6,1.3,1.3c0.4,1,0,1.9-0.5,2.4
			l0,0c0.6,0,1.1,0.4,1.6,1c0.6,0.7,1.2,1.6,1.5,1.8L62.6,31c-0.2-0.2-0.6-0.7-1.3-1.5c-0.6-0.8-1-1-1.7-0.7L59.1,29l1.2,2.9
			l-1.7,0.7L55.6,25.3z M58.6,27.8l0.7-0.3c0.8-0.4,1.2-1,0.9-1.6c-0.3-0.7-0.9-0.8-1.7-0.5c-0.4,0.2-0.6,0.3-0.7,0.4L58.6,27.8z"/>
	</g>
	<g class="st5">
		<path class="st6" d="M70.6,23.8c0.8,2.5-0.2,4.5-2.4,5.3c-2.3,0.8-4.2-0.5-4.9-2.7c-0.8-2.3,0.1-4.5,2.4-5.3
			C68,20.4,69.9,21.7,70.6,23.8z M65.1,25.8c0.5,1.5,1.6,2.3,2.7,1.9c1.2-0.4,1.5-1.7,1-3.2c-0.5-1.4-1.5-2.3-2.7-1.9
			C64.9,22.9,64.6,24.3,65.1,25.8z"/>
	</g>
	<g class="st5">
		<path class="st6" d="M78.6,22.9c-0.3-0.9-0.6-2.1-0.8-3.2l0,0c0,1.1-0.1,2.3-0.2,3.3l-0.2,3.3L76,26.6l-1.6-2.8
			c-0.5-0.9-1-1.9-1.4-2.9l0,0c0.2,1.1,0.5,2.3,0.6,3.3l0.6,3l-1.6,0.4l-1.4-8l2.4-0.6l1.4,2.4c0.5,0.9,0.9,1.8,1.3,2.7l0,0
			c0-1,0-2.1,0.1-3l0.2-2.8l2.3-0.6l2.3,7.8l-1.7,0.4L78.6,22.9z"/>
	</g>
	<g class="st5">
		<path class="st6" d="M84.5,23.1c0.5,0.2,1.3,0.3,2.1,0.2c0.8-0.1,1.2-0.5,1.2-1c-0.1-0.5-0.5-0.7-1.5-1c-1.4-0.3-2.4-0.9-2.5-2.1
			c-0.2-1.4,0.8-2.6,2.7-2.8c0.9-0.1,1.6,0,2.1,0.1l-0.2,1.5c-0.3-0.1-0.9-0.3-1.7-0.2c-0.8,0.1-1.1,0.5-1.1,0.9
			c0.1,0.5,0.5,0.7,1.6,0.9c1.5,0.3,2.2,1,2.4,2.1c0.2,1.3-0.7,2.6-2.9,2.9c-0.9,0.1-1.8,0-2.3-0.2L84.5,23.1z"/>
	</g>
	<g class="st5">
		<path class="st6" d="M92,16l0.3,4.6c0.1,1.4,0.7,2.1,1.6,2c1-0.1,1.4-0.8,1.4-2.2L95,15.8l1.8-0.1l0.3,4.5c0.2,2.5-1,3.8-3.1,3.9
			c-2,0.1-3.3-0.9-3.5-3.5l-0.3-4.5L92,16z"/>
	</g>
	<g class="st5">
		<path class="st6" d="M98.5,23.7l0.1-8.1l2.1,0l1.6,3c0.5,0.9,0.9,1.9,1.3,2.8l0,0c-0.1-1.1-0.1-2.2-0.1-3.4l0-2.4l1.7,0l-0.1,8.1
			l-1.9,0l-1.7-3.1c-0.5-0.9-1-1.9-1.4-2.9l0,0c0,1.1,0,2.2,0,3.5l0,2.4L98.5,23.7z"/>
	</g>
	<g class="st5">
		<path class="st6" d="M106.5,23.9l0.8-8l2.1,0.2l1.4,3.1c0.4,0.9,0.8,1.9,1,2.9l0,0c0-1.1,0.1-2.2,0.2-3.4l0.2-2.4l1.7,0.2l-0.8,8
			l-1.9-0.2l-1.4-3.3c-0.4-0.9-0.8-2-1.1-3l0,0c-0.1,1.1-0.1,2.2-0.3,3.5l-0.2,2.4L106.5,23.9z"/>
	</g>
	<g class="st5">
		<path class="st6" d="M116.1,25.1l0.6-3.3l-1.7-5.1L117,17l0.5,2.1c0.1,0.6,0.2,1.1,0.4,1.6l0,0c0.3-0.5,0.5-0.9,0.9-1.4l1.1-1.8
			l2,0.3l-3.4,4.2l-0.6,3.3L116.1,25.1z"/>
	</g>
	<g class="st5">
		<path class="st6" d="M123.8,24.7c0.4,0.4,1.1,0.8,1.8,1c0.8,0.2,1.3,0,1.5-0.5c0.1-0.5-0.2-0.9-1-1.4c-1.2-0.8-1.8-1.7-1.5-2.9
			c0.4-1.3,1.7-2.1,3.6-1.6c0.9,0.2,1.5,0.6,1.9,0.9l-0.8,1.3c-0.3-0.2-0.8-0.6-1.5-0.8c-0.8-0.2-1.2,0-1.3,0.5
			c-0.1,0.5,0.3,0.8,1.2,1.5c1.2,0.9,1.7,1.8,1.4,2.9c-0.3,1.3-1.7,2.2-3.8,1.6c-0.9-0.2-1.7-0.7-2.1-1.1L123.8,24.7z"/>
	</g>
	<g class="st5">
		<path class="st6" d="M131.6,26.7l-1.2,1.8l-1.8-0.6l4.9-6.9l2.3,0.8l-0.2,8.5l-1.9-0.6l0.1-2.2L131.6,26.7z M134,26.1l0.1-1.8
			c0-0.5,0.1-1.1,0.1-1.6l0,0c-0.3,0.4-0.6,1-0.9,1.4l-1,1.5L134,26.1z"/>
	</g>
	<g class="st5">
		<path class="st6" d="M136.2,30.5l3.2-7.4l2,0.8l0.4,3.4c0.1,1,0.2,2.1,0.1,3.1l0,0c0.3-1,0.7-2,1.2-3.2L144,25l1.5,0.7l-3.2,7.4
			l-1.8-0.7l-0.4-3.5c-0.1-1-0.2-2.1-0.2-3.2l0,0c-0.4,1-0.8,2.1-1.3,3.3l-1,2.2L136.2,30.5z"/>
	</g>
	<g class="st5">
		<path class="st6" d="M149.6,27.8c0.6,0.2,1.4,0.6,2.2,1.1c1.3,0.7,2.1,1.5,2.5,2.4c0.4,1,0.4,2.1-0.3,3.3c-0.8,1.4-1.8,2-2.8,2.2
			c-1.1,0.2-2.4-0.1-3.8-0.9c-0.8-0.5-1.4-0.8-1.8-1.1L149.6,27.8z M148,34.5c0.1,0.1,0.3,0.2,0.5,0.3c1.4,0.8,2.8,0.5,3.8-1.1
			c0.8-1.5,0.4-2.7-1-3.5c-0.4-0.2-0.6-0.3-0.8-0.3L148,34.5z"/>
	</g>
	<g class="st5">
		<path class="st6" d="M158.6,32.9l-4.3,6.9l-1.6-1l4.3-6.9L158.6,32.9z"/>
	</g>
	<g class="st5">
		<path class="st6" d="M161.2,40.4l-2.4-1.7l-1.1,1.6l2.7,1.9l-0.9,1.2l-4.2-3l4.6-6.6l4.1,2.9l-0.9,1.2l-2.6-1.8l-1,1.4l2.4,1.7
			L161.2,40.4z"/>
	</g>
	<g class="st5">
		<path class="st6" d="M165.8,47.9c-0.6-0.2-1.6-0.7-2.4-1.3c-1.1-0.9-1.7-1.9-1.9-2.9c-0.1-1,0.2-2.1,1-3c1.7-2.1,4.2-2.1,6.2-0.4
			c0.8,0.7,1.3,1.3,1.5,1.7l-1.2,0.9c-0.2-0.4-0.6-0.9-1.2-1.5c-1.2-1-2.6-1-3.7,0.4c-1,1.3-0.8,2.7,0.3,3.7
			c0.3,0.3,0.6,0.4,0.8,0.5l1.1-1.3l-1-0.8l0.9-1.1l2.3,1.9L165.8,47.9z"/>
	</g>
	<g class="st5">
		<path class="st6" d="M174.6,51c-1.8,1.9-4.1,2-5.8,0.4c-1.8-1.7-1.5-3.9,0.1-5.6c1.7-1.8,4.1-2,5.8-0.4
			C176.4,47,176.1,49.3,174.6,51z M170.3,47c-1.1,1.2-1.3,2.5-0.4,3.3c0.9,0.9,2.2,0.5,3.3-0.7c1-1.1,1.4-2.5,0.4-3.3
			C172.7,45.5,171.3,45.9,170.3,47z"/>
	</g>
	<g class="st5">
		<path class="st6" d="M172.8,53.8c0.5-0.4,1.1-0.4,1.5,0s0.4,1.1-0.1,1.5c-0.5,0.4-1.1,0.4-1.5,0S172.4,54.3,172.8,53.8z M174.3,53
			l3.8-3.9l1.3,1.4l-4.1,3.5L174.3,53z"/>
	</g>
</g>
</svg>
