<svg id="Layer_1" data-name="Layer 1" xmlns="http://www.w3.org/2000/svg" width="200.03" height="223.8" viewBox="0 0 200.03 223.8"><defs><style>.cls-1{fill:#fff;}.cls-2,.cls-5{fill:none;stroke-miterlimit:10;}.cls-2{stroke:#fea802;stroke-linecap:round;stroke-width:4px;}.cls-3{fill:#fea802;}.cls-4{fill:#000065;}.cls-5{stroke:#1d1e1e;stroke-width:1.5px;}.cls-6{font-size:12px;fill:#1d1e1e;font-family:MyriadPro-Semibold, Myriad Pro;font-weight:700;}</style></defs><title>Sun</title><circle class="cls-1" cx="51.79" cy="154.6" r="9.14"/><ellipse class="cls-1" cx="136.98" cy="129.4" rx="32.33" ry="16.06"/><circle class="cls-1" cx="164" cy="145.28" r="9.31"/><line class="cls-2" x1="100.02" y1="77.01" x2="100.02" y2="33.26"/><line class="cls-2" x1="164.72" y1="188.49" x2="133.79" y2="157.56"/><line class="cls-2" x1="66.24" y1="90.01" x2="35.31" y2="59.08"/><line class="cls-2" x1="190.54" y1="123.78" x2="146.79" y2="123.78"/><line class="cls-2" x1="164.72" y1="59.08" x2="133.79" y2="90.01"/><line class="cls-2" x1="66.24" y1="157.56" x2="35.31" y2="188.49"/><line class="cls-2" x1="53.24" y1="123.78" x2="9.49" y2="123.78"/><line class="cls-2" x1="100.02" y1="214.31" x2="100.02" y2="170.56"/><circle class="cls-3" cx="100.02" cy="123.78" r="39.77"/><circle class="cls-4" cx="85.2" cy="124.63" r="2"/><circle class="cls-4" cx="114.83" cy="124.63" r="2"/><path class="cls-5" d="M91.8,123.39s5.46,2.85,10.43,0" transform="translate(3 5.01)"/><text class="cls-6" transform="translate(24.71 57.86) rotate(-46.53)">H</text><text class="cls-6" transform="matrix(0.74, -0.68, 0.68, 0.74, 30.19, 52.12)">E</text><text class="cls-6" transform="matrix(0.78, -0.63, 0.63, 0.78, 34.65, 48.03)">L</text><text class="cls-6" transform="matrix(0.81, -0.58, 0.58, 0.81, 39.17, 44.35)">L</text><text class="cls-6" transform="matrix(0.85, -0.53, 0.53, 0.85, 43.44, 41.19)">O</text><text class="cls-6" transform="matrix(0.88, -0.48, 0.48, 0.88, 50.54, 36.84)"> </text><text class="cls-6" transform="translate(52.63 35.64) rotate(-26.5)">F</text><text class="cls-6" transform="translate(57.96 32.96) rotate(-22.84)">R</text><text class="cls-6" transform="translate(64.12 30.33) rotate(-18.52)">O</text><text class="cls-6" transform="translate(71.94 27.67) rotate(-13.38)">M</text><text class="cls-6" transform="translate(81.52 25.51) rotate(-10.43)"> </text><text class="cls-6" transform="matrix(0.99, -0.13, 0.13, 0.99, 83.88, 25.05)">S</text><text class="cls-6" transform="translate(89.92 24.21) rotate(-3.57)">U</text><text class="cls-6" transform="translate(97.75 23.72) rotate(0.96)">N</text><text class="cls-6" transform="translate(105.71 23.84) rotate(5.55)">N</text><text class="cls-6" transform="translate(113.47 24.61) rotate(9.7)">Y</text><text class="cls-6" transform="translate(120.17 25.8) rotate(12.35)"> </text><text class="cls-6" transform="translate(122.54 26.28) rotate(14.82)">S</text><text class="cls-6" transform="translate(128.42 27.8) rotate(18.72)">A</text><text class="cls-6" transform="matrix(0.92, 0.39, -0.39, 0.92, 135.51, 30.19)">N</text><text class="cls-6" transform="translate(142.84 33.4) rotate(26.11)"> </text><text class="cls-6" transform="translate(145.02 34.38) rotate(29.1)">D</text><text class="cls-6" transform="matrix(0.85, 0.53, -0.53, 0.85, 152.05, 38.37)">I</text><text class="cls-6" transform="translate(154.68 39.99) rotate(34.9)">E</text><text class="cls-6" transform="translate(159.65 43.42) rotate(38.84)">G</text><text class="cls-6" transform="matrix(0.73, 0.69, -0.69, 0.73, 165.77, 48.32)">O</text><text class="cls-6" transform="translate(171.76 54.1) rotate(46.64)">!</text></svg>