<?xml version="1.0" encoding="utf-8"?>
<!-- Generator: Adobe Illustrator 22.0.1, SVG Export Plug-In . SVG Version: 6.00 Build 0)  -->
<svg version="1.1" id="Layer_1" xmlns="http://www.w3.org/2000/svg" xmlns:xlink="http://www.w3.org/1999/xlink" x="0px" y="0px"
	 width="275px" height="175px" viewBox="0 0 275 175" style="enable-background:new 0 0 275 175;" xml:space="preserve">
<style type="text/css">
	.st0{fill-rule:evenodd;clip-rule:evenodd;fill:none;}
	.st1{fill:none;stroke:#000000;stroke-width:1.5;stroke-miterlimit:10;}
	.st2{fill-rule:evenodd;clip-rule:evenodd;fill:none;stroke:#000000;stroke-width:1.5;stroke-miterlimit:10;}
	.st3{fill-rule:evenodd;clip-rule:evenodd;}
	.st4{fill:#899DFF;}
	.st5{fill:url(#SVGID_1_);}
</style>
<pattern  width="130.6" height="132.6" patternUnits="userSpaceOnUse" id="New_Pattern_2" viewBox="9.7 -132.6 130.6 132.6" style="overflow:visible;">
	<g>
		<rect x="9.7" y="-132.6" class="st0" width="130.6" height="132.6"/>
		<g>
			<line class="st1" x1="22.3" y1="-12.9" x2="37.4" y2="-28"/>
			<path class="st2" d="M33.1-30.3c0,0-5.8,5.2-2.2,8.9s8.9-2.2,8.9-2.2"/>
			<polygon class="st3" points="38.7,-29.3 35.9,-28.5 38,-26.4 			"/>
			<polygon class="st3" points="34,-31.6 31.1,-30.8 33.2,-28.7 			"/>
			<polygon class="st3" points="41.1,-24.5 38.2,-23.8 40.3,-21.6 			"/>
		</g>
		<g>
			<line class="st1" x1="87.6" y1="-12.9" x2="102.7" y2="-28"/>
			<path class="st2" d="M98.4-30.3c0,0-5.8,5.2-2.2,8.9s8.9-2.2,8.9-2.2"/>
			<polygon class="st3" points="104.1,-29.3 101.2,-28.5 103.3,-26.4 			"/>
			<polygon class="st3" points="99.3,-31.6 96.4,-30.8 98.5,-28.7 			"/>
			<polygon class="st3" points="106.4,-24.5 103.5,-23.8 105.6,-21.6 			"/>
		</g>
		<g>
			<line class="st1" x1="0.5" y1="-57.1" x2="15.7" y2="-72.2"/>
			<path class="st2" d="M11.3-74.5c0,0-5.8,5.2-2.2,8.9c3.6,3.6,8.9-2.2,8.9-2.2"/>
			<polygon class="st3" points="17,-73.5 14.1,-72.7 16.2,-70.6 			"/>
			<polygon class="st3" points="12.2,-75.8 9.3,-75 11.4,-72.9 			"/>
			<polygon class="st3" points="19.3,-68.7 16.4,-68 18.5,-65.9 			"/>
		</g>
		<g>
			<line class="st1" x1="65.8" y1="-57.1" x2="81" y2="-72.2"/>
			<path class="st2" d="M76.6-74.5c0,0-5.8,5.2-2.2,8.9c3.6,3.6,8.9-2.2,8.9-2.2"/>
			<polygon class="st3" points="82.3,-73.5 79.4,-72.7 81.5,-70.6 			"/>
			<polygon class="st3" points="77.5,-75.8 74.6,-75 76.8,-72.9 			"/>
			<polygon class="st3" points="84.6,-68.7 81.7,-68 83.8,-65.9 			"/>
		</g>
		<g>
			<line class="st1" x1="131.1" y1="-57.1" x2="146.3" y2="-72.2"/>
			<path class="st2" d="M141.9-74.5c0,0-5.8,5.2-2.2,8.9c3.6,3.6,8.9-2.2,8.9-2.2"/>
			<polygon class="st3" points="142.8,-75.8 139.9,-75 142.1,-72.9 			"/>
		</g>
		<g>
			<line class="st1" x1="44.1" y1="-101.3" x2="59.2" y2="-116.4"/>
			<path class="st2" d="M54.8-118.7c0,0-5.8,5.2-2.2,8.9s8.9-2.2,8.9-2.2"/>
			<polygon class="st3" points="60.5,-117.7 57.6,-116.9 59.7,-114.8 			"/>
			<polygon class="st3" points="55.8,-120 52.9,-119.2 55,-117.1 			"/>
			<polygon class="st3" points="62.8,-112.9 59.9,-112.2 62.1,-110.1 			"/>
		</g>
		<g>
			<line class="st1" x1="109.4" y1="-101.3" x2="124.5" y2="-116.4"/>
			<path class="st2" d="M120.1-118.7c0,0-5.8,5.2-2.2,8.9c3.6,3.6,8.9-2.2,8.9-2.2"/>
			<polygon class="st3" points="125.8,-117.7 122.9,-116.9 125,-114.8 			"/>
			<polygon class="st3" points="121.1,-120 118.2,-119.2 120.3,-117.1 			"/>
			<polygon class="st3" points="128.1,-112.9 125.3,-112.2 127.4,-110.1 			"/>
		</g>
	</g>
</pattern>
<g>
	<path class="st4" d="M270.2,154.6c0,5.5-4.5,10-10,10l-241.6,0.7c-5.5,0-10-4.5-10-10l-0.4-130c0-5.5,4.5-10,10-10l241.6-0.7
		c5.5,0,10,4.5,10,10L270.2,154.6z"/>
</g>
<g>
	<pattern  id="SVGID_1_" xlink:href="#New_Pattern_2" patternTransform="matrix(1 0 0 1 -132.7937 -71.3905)">
	</pattern>
	<path class="st5" d="M270,154.2c0,5.5-4.5,10-10,10L18.5,165c-5.5,0-10-4.5-10-10L8,24.8c0-5.5,4.5-10,10-10L259.5,14
		c5.5,0,10,4.5,10,10L270,154.2z"/>
</g>
<g>
	<path class="st4" d="M205,94.8c0,5.5-4.5,10-10,10l-111,0.3c-5.5,0-10-4.5-10-10l-0.1-22c0-5.5,4.5-10,10-10l111-0.3
		c5.5,0,10,4.5,10,10L205,94.8z"/>
</g>
<g>
	<path d="M256.4,11.6c5.5,0,10,4.5,10,10l0.4,130c0,5.5-4.5,10-10,10l-241.6,0.7c0,0,0,0,0,0c-5.5,0-10-4.5-10-10l-0.4-130
		c0-5.5,4.5-10,10-10L256.4,11.6C256.4,11.6,256.4,11.6,256.4,11.6 M256.4,10.4L256.4,10.4L256.4,10.4L14.8,11.1
		c-3,0-5.8,1.2-7.9,3.3c-2.1,2.1-3.3,5-3.3,8l0.4,130c0,6.2,5.1,11.2,11.2,11.2l241.6-0.7c6.2,0,11.2-5.1,11.2-11.3l-0.4-130
		C267.6,15.4,262.6,10.4,256.4,10.4L256.4,10.4z"/>
</g>
<g>
	<path d="M89.2,77.6l-4.8,0l0,13.7l-3.8,0l0-13.7l-4.8,0l0-3.1l13.4,0L89.2,77.6z"/>
	<path d="M106.8,91.3l-4.3,0L99.8,87c-0.2-0.3-0.4-0.6-0.6-0.9c-0.2-0.3-0.4-0.5-0.5-0.7c-0.2-0.2-0.4-0.3-0.6-0.4s-0.4-0.1-0.7-0.1
		l-1,0l0,6.4l-3.8,0l-0.1-16.8l6,0c4.1,0,6.1,1.5,6.1,4.6c0,0.6-0.1,1.1-0.3,1.6c-0.2,0.5-0.4,0.9-0.8,1.3s-0.7,0.7-1.2,1
		s-1,0.5-1.5,0.7v0c0.3,0.1,0.5,0.2,0.7,0.4c0.2,0.2,0.5,0.4,0.7,0.6c0.2,0.2,0.4,0.5,0.6,0.8c0.2,0.3,0.4,0.5,0.5,0.8L106.8,91.3z
		 M96.4,77.4l0,4.7l1.6,0c0.8,0,1.5-0.2,2-0.7c0.5-0.5,0.7-1.1,0.7-1.8c0-1.5-0.9-2.2-2.6-2.2L96.4,77.4z"/>
	<path d="M114.7,74.5l0,2.9l-1.4,0l0,10.9l1.4,0l0,2.9l-6.6,0l0-2.9l1.4,0l0-10.9l-1.4,0l0-2.9L114.7,74.5z"/>
	<path d="M130.1,77.5l-4.8,0l0,13.7l-3.8,0l0-13.7l-4.8,0l0-3.1l13.4,0L130.1,77.5z"/>
	<path d="M140.7,91.5c-2.4,0-4.4-0.8-5.9-2.3s-2.3-3.6-2.3-6.1c0-2.7,0.8-4.8,2.3-6.5s3.6-2.5,6.1-2.5c2.4,0,4.3,0.8,5.8,2.3
		c1.5,1.6,2.2,3.6,2.2,6.2c0,2.6-0.8,4.8-2.3,6.4C145.2,90.7,143.2,91.5,140.7,91.5z M140.8,77.4c-1.3,0-2.4,0.5-3.2,1.5
		c-0.8,1-1.2,2.3-1.2,4c0,1.7,0.4,3,1.2,3.9c0.8,1,1.8,1.4,3.1,1.4c1.3,0,2.3-0.5,3.1-1.4c0.8-0.9,1.1-2.3,1.1-3.9
		c0-1.7-0.4-3.1-1.1-4.1C143.1,77.8,142.1,77.4,140.8,77.4z"/>
	<path d="M168.1,91.1l-3.8,0l-7-10.5c-0.4-0.6-0.7-1.1-0.8-1.4h0c0.1,0.6,0.1,1.5,0.1,2.7l0,9.2l-3.6,0l-0.1-16.8l4.1,0l6.7,10.2
		c0.3,0.5,0.6,0.9,0.8,1.4h0c-0.1-0.4-0.1-1.2-0.1-2.3l0-9.3l3.6,0L168.1,91.1z"/>
	<path d="M183.2,91.1l-10.1,0l-0.1-16.8l9.7,0l0,3.1l-5.9,0l0,3.7l5.5,0l0,3.1l-5.5,0l0,3.8l6.3,0L183.2,91.1z"/>
	<path d="M187.1,91l-0.1-16.8l6,0c6,0,9,2.7,9,8.2c0,2.6-0.8,4.7-2.4,6.3c-1.6,1.6-3.8,2.4-6.5,2.4L187.1,91z M190.9,77.3l0,10.7
		l1.9,0c1.6,0,2.9-0.5,3.9-1.5c0.9-1,1.4-2.3,1.4-4c0-1.6-0.5-2.9-1.4-3.8c-0.9-0.9-2.2-1.4-3.9-1.4L190.9,77.3z"/>
	<path d="M107.2,102.5c0.3,0,0.6-0.1,0.8-0.2c0.2-0.1,0.4-0.2,0.6-0.4s0.3-0.4,0.4-0.6s0.1-0.5,0.1-0.8l0-4.4l1,0l0,4.4
		c0,0.4-0.1,0.8-0.2,1.2c-0.1,0.4-0.3,0.7-0.6,0.9c-0.2,0.3-0.5,0.5-0.9,0.6c-0.4,0.1-0.8,0.2-1.2,0.2c-0.4,0-0.8-0.1-1.2-0.2
		c-0.4-0.1-0.7-0.3-0.9-0.6c-0.2-0.3-0.4-0.6-0.6-0.9c-0.1-0.4-0.2-0.7-0.2-1.1l0-4.4l1,0l0,4.3c0,0.3,0,0.6,0.1,0.8
		c0.1,0.3,0.2,0.5,0.4,0.6c0.2,0.2,0.4,0.3,0.6,0.4C106.7,102.5,106.9,102.5,107.2,102.5z"/>
	<path d="M113.3,103.3l-1,0l0-7.2l1,0L113.3,103.3z"/>
	<path d="M115.6,103.4c0,0.1-0.1,0.2-0.2,0.3c-0.1,0.1-0.2,0.1-0.3,0.1l-0.4,0l3-7.5c0-0.1,0.1-0.2,0.2-0.2c0.1-0.1,0.2-0.1,0.3-0.1
		l0.4,0L115.6,103.4z"/>
	<path d="M122.7,102.5c0.3,0,0.6-0.1,0.8-0.2c0.2-0.1,0.4-0.2,0.6-0.4c0.2-0.2,0.3-0.4,0.4-0.6c0.1-0.3,0.1-0.5,0.1-0.8l0-4.4l1,0
		l0,4.4c0,0.4-0.1,0.8-0.2,1.1c-0.1,0.4-0.3,0.7-0.6,0.9c-0.2,0.3-0.5,0.5-0.9,0.6s-0.7,0.2-1.2,0.2c-0.4,0-0.8-0.1-1.2-0.2
		c-0.4-0.1-0.7-0.3-0.9-0.6c-0.2-0.3-0.4-0.6-0.6-0.9s-0.2-0.7-0.2-1.1l0-4.4l1,0l0,4.3c0,0.3,0,0.6,0.1,0.8s0.2,0.5,0.4,0.6
		c0.2,0.2,0.4,0.3,0.6,0.4C122.1,102.4,122.4,102.5,122.7,102.5z"/>
	<path d="M129.3,99.5l-2.4-3.5l1,0c0.1,0,0.1,0,0.2,0s0.1,0.1,0.1,0.1l1.9,2.9c0-0.1,0.1-0.1,0.1-0.2l1.8-2.6c0,0,0.1-0.1,0.1-0.1
		s0.1,0,0.1,0l0.9,0l-2.4,3.4l2.5,3.7l-1,0c-0.1,0-0.1,0-0.2-0.1s-0.1-0.1-0.1-0.1l-1.9-3c0,0.1-0.1,0.1-0.1,0.2L128,103
		c0,0-0.1,0.1-0.1,0.1s-0.1,0.1-0.2,0.1l-0.9,0L129.3,99.5z"/>
	<path d="M143.1,99.6c0,0.5-0.1,1-0.3,1.5c-0.2,0.4-0.4,0.8-0.7,1.1c-0.3,0.3-0.7,0.6-1.1,0.7s-0.9,0.3-1.4,0.3l-2.7,0l0-7.2l2.7,0
		c0.5,0,1,0.1,1.4,0.3c0.4,0.2,0.8,0.4,1.1,0.7c0.3,0.3,0.6,0.7,0.7,1.1C143,98.6,143.1,99.1,143.1,99.6z M142.1,99.6
		c0-0.4-0.1-0.8-0.2-1.2s-0.3-0.6-0.5-0.9c-0.2-0.2-0.5-0.4-0.8-0.5c-0.3-0.1-0.7-0.2-1-0.2l-1.7,0l0,5.6l1.7,0c0.4,0,0.7-0.1,1-0.2
		c0.3-0.1,0.6-0.3,0.8-0.5c0.2-0.2,0.4-0.5,0.5-0.9C142,100.4,142.1,100,142.1,99.6z"/>
	<path d="M149.3,96l0,0.8l-3.4,0l0,2.4l2.8,0l0,0.8l-2.8,0l0,2.4l3.4,0l0,0.8l-4.4,0l0-7.2L149.3,96z"/>
	<path d="M154.8,97.1c0,0-0.1,0.1-0.1,0.1c0,0-0.1,0-0.1,0c-0.1,0-0.1,0-0.2-0.1s-0.2-0.1-0.3-0.2s-0.3-0.1-0.4-0.2
		c-0.2-0.1-0.4-0.1-0.6-0.1c-0.2,0-0.4,0-0.6,0.1c-0.2,0.1-0.3,0.1-0.4,0.2c-0.1,0.1-0.2,0.2-0.3,0.4c-0.1,0.1-0.1,0.3-0.1,0.4
		c0,0.2,0.1,0.4,0.1,0.5c0.1,0.1,0.2,0.2,0.4,0.3c0.2,0.1,0.3,0.2,0.5,0.2c0.2,0.1,0.4,0.1,0.6,0.2c0.2,0.1,0.4,0.2,0.6,0.2
		c0.2,0.1,0.4,0.2,0.6,0.3s0.3,0.3,0.4,0.5c0.1,0.2,0.1,0.5,0.2,0.7c0,0.3-0.1,0.6-0.2,0.9s-0.3,0.5-0.5,0.7
		c-0.2,0.2-0.5,0.4-0.8,0.5c-0.3,0.1-0.6,0.2-1,0.2c-0.5,0-0.9-0.1-1.3-0.2c-0.4-0.2-0.7-0.4-1-0.7l0.3-0.5c0,0,0.1-0.1,0.1-0.1
		c0,0,0.1,0,0.1,0c0.1,0,0.1,0,0.2,0.1c0.1,0.1,0.2,0.2,0.3,0.2c0.1,0.1,0.3,0.2,0.5,0.2c0.2,0.1,0.4,0.1,0.7,0.1
		c0.2,0,0.4,0,0.6-0.1s0.3-0.2,0.5-0.3c0.1-0.1,0.2-0.3,0.3-0.4c0.1-0.2,0.1-0.3,0.1-0.5c0-0.2,0-0.4-0.1-0.5
		c-0.1-0.1-0.2-0.3-0.4-0.3s-0.3-0.2-0.5-0.2s-0.4-0.1-0.6-0.2c-0.2-0.1-0.4-0.1-0.6-0.2c-0.2-0.1-0.4-0.2-0.5-0.3
		c-0.2-0.1-0.3-0.3-0.4-0.5c-0.1-0.2-0.1-0.5-0.2-0.8c0-0.3,0-0.5,0.1-0.7s0.2-0.4,0.4-0.6c0.2-0.2,0.4-0.3,0.7-0.4
		c0.3-0.1,0.6-0.2,0.9-0.2c0.4,0,0.8,0.1,1.1,0.2c0.3,0.1,0.6,0.3,0.9,0.5L154.8,97.1z"/>
	<path d="M158,103.1l-1,0l0-7.2l1,0L158,103.1z"/>
	<path d="M163.6,102.4c0.2,0,0.4,0,0.5,0c0.2,0,0.3,0,0.5-0.1c0.1,0,0.3-0.1,0.4-0.1c0.1-0.1,0.3-0.1,0.4-0.2l0-1.6l-1.1,0
		c-0.1,0-0.1,0-0.2-0.1c0,0-0.1-0.1-0.1-0.1l0-0.6l2.2,0l0,2.8c-0.2,0.1-0.4,0.2-0.6,0.3c-0.2,0.1-0.4,0.2-0.6,0.2
		c-0.2,0.1-0.5,0.1-0.7,0.1c-0.3,0-0.5,0-0.8,0.1c-0.5,0-1-0.1-1.4-0.3c-0.4-0.2-0.8-0.4-1.1-0.7s-0.6-0.7-0.7-1.2
		c-0.2-0.4-0.3-0.9-0.3-1.5c0-0.5,0.1-1,0.3-1.5c0.2-0.5,0.4-0.8,0.7-1.2s0.7-0.6,1.2-0.8c0.5-0.2,1-0.3,1.5-0.3
		c0.3,0,0.5,0,0.8,0.1c0.2,0,0.5,0.1,0.7,0.2c0.2,0.1,0.4,0.2,0.6,0.3c0.2,0.1,0.3,0.2,0.5,0.4l-0.3,0.4c-0.1,0.1-0.1,0.1-0.2,0.1
		c-0.1,0-0.1,0-0.2-0.1c-0.1,0-0.2-0.1-0.3-0.2c-0.1-0.1-0.2-0.1-0.4-0.2c-0.1-0.1-0.3-0.1-0.5-0.2c-0.2,0-0.4-0.1-0.7-0.1
		c-0.4,0-0.8,0.1-1.1,0.2c-0.3,0.1-0.6,0.3-0.8,0.6c-0.2,0.2-0.4,0.5-0.5,0.9c-0.1,0.3-0.2,0.7-0.2,1.2c0,0.5,0.1,0.9,0.2,1.2
		c0.1,0.4,0.3,0.7,0.5,0.9c0.2,0.2,0.5,0.4,0.8,0.6C162.9,102.3,163.2,102.4,163.6,102.4z"/>
	<path d="M168.9,96c0,0,0.1,0.1,0.1,0.1l4.2,5.4c0-0.1,0-0.2,0-0.3c0-0.1,0-0.2,0-0.2l0-5.1l0.8,0l0,7.2l-0.5,0c-0.1,0-0.1,0-0.2,0
		s-0.1-0.1-0.2-0.1l-4.2-5.4c0,0.1,0,0.2,0,0.2c0,0.1,0,0.2,0,0.2l0,5.1l-0.9,0l0-7.2l0.5,0C168.8,95.9,168.8,95.9,168.9,96z"/>
</g>
</svg>
