<?xml version="1.0" encoding="utf-8"?>
<!-- Generator: Adobe Illustrator 22.0.1, SVG Export Plug-In . SVG Version: 6.00 Build 0)  -->
<svg version="1.1" id="Layer_1" xmlns="http://www.w3.org/2000/svg" xmlns:xlink="http://www.w3.org/1999/xlink" x="0px" y="0px"
	 width="631.2px" height="330.5px" viewBox="0 0 631.2 330.5" style="enable-background:new 0 0 631.2 330.5;" xml:space="preserve"
	>
<style type="text/css">
	.st0{fill:none;stroke:#000000;stroke-width:1.25;stroke-miterlimit:10;}
</style>
<g>
	
		<image style="overflow:visible;" width="600" height="300" xlink:href="../../Website Graphics/tritoned bg.png"  transform="matrix(1 0 0 1 25.335 5.01)">
	</image>
	<rect x="5.8" y="25.5" class="st0" width="600" height="300"/>
	<g>
		<defs>
			<rect id="SVGID_1_" x="62.7" y="42.4" width="525.2" height="262.6"/>
		</defs>
		<clipPath id="SVGID_2_">
			<use xlink:href="#SVGID_1_"  style="overflow:visible;"/>
		</clipPath>
		<g transform="matrix(1 0 0 1 7.629395e-06 0)" style="clip-path:url(#SVGID_2_);">
			
				<image style="overflow:visible;" width="301" height="623" id="Layer_1_xA0_Image" xlink:href="4D074EA7.png"  transform="matrix(0.4763 -2.871766e-04 2.871766e-04 0.4763 87.4998 95.1986)">
			</image>
		</g>
		<g transform="matrix(1 0 0 1 -3.051758e-05 0)" style="clip-path:url(#SVGID_2_);">
			
				<image style="overflow:visible;" width="950" height="1894" xlink:href="../../Website Graphics/TED_announcements.png"  transform="matrix(0.1645 -9.919905e-05 9.919905e-05 0.1645 412.984 86.2491)">
			</image>
		</g>
		<g style="clip-path:url(#SVGID_2_);">
			
				<image style="overflow:visible;" width="950" height="1894" xlink:href="../../Website Graphics/TED_courses.png"  transform="matrix(0.1641 -9.892040e-05 9.892040e-05 0.1641 246.7367 86.104)">
			</image>
		</g>
	</g>
</g>
</svg>
